<svg width="136" height="25" viewBox="0 0 136 25" fill="none" xmlns="http://www.w3.org/2000/svg">
<g clip-path="url(#clip0_2278_930)">
<path d="M81.6211 6.90582V5.02729C81.6211 4.18196 81.1851 3.60946 80.0403 3.60946C78.8956 3.60946 78.3232 4.20879 78.3232 5.05413V15.1646C78.3123 15.3942 78.3479 15.6235 78.4278 15.839C78.5076 16.0545 78.6301 16.2517 78.7879 16.4187C78.9458 16.5857 79.1356 16.7192 79.3462 16.8111C79.5568 16.903 79.7838 16.9515 80.0135 16.9537C80.805 16.9537 81.6211 16.3543 81.6211 15.2093V13.0021H79.9599V9.48655H86.1152V19.9973H83.0387L82.8464 18.3357C82.4104 19.5903 80.6932 20.4625 78.6519 20.4625C76.2796 20.4625 73.7754 19.1006 73.7754 14.8202V5.51705C73.7754 2.0306 75.6804 0.0134277 79.9599 0.0134277C84.2393 0.0134277 86.1152 2.08427 86.1152 5.51705V6.90582H81.6211Z" fill="white"/>
<path d="M93.0128 7.47395C94.0481 5.37627 95.0251 4.94019 96.2795 4.94019V9.48666C93.9922 9.48666 93.2834 10.3588 93.2834 12.3939V19.9974H89.1313V5.35391H93.0128V7.47395Z" fill="white"/>
<path d="M108.847 10.5601V14.7823C108.847 19.0045 106.611 20.4246 103.508 20.4246C100.405 20.4246 98.1128 19.0045 98.1128 14.8091V10.531C98.1128 6.33566 100.373 4.94019 103.508 4.94019C106.585 4.94466 108.847 6.33566 108.847 10.5601ZM102.254 9.71029V15.7037C102.254 16.7391 102.743 17.2579 103.508 17.2579C104.273 17.2579 104.704 16.7391 104.704 15.7864V9.71029C104.704 8.64579 104.27 8.18288 103.508 8.18288C102.663 8.18735 102.254 8.75985 102.254 9.71029Z" fill="white"/>
<path d="M115.759 5.35376V15.8176C115.759 16.607 116.166 17.1258 116.877 17.1258C117.529 17.1258 117.994 16.7434 117.994 15.8712V5.36047H122.135V20.0197H118.236V18.168L118.209 18.2216C117.664 19.8564 116.329 20.4311 114.911 20.4311C112.923 20.4311 111.615 19.5567 111.615 17.5686V5.35376H115.759Z" fill="white"/>
<path d="M129.406 25H125.268V5.35383H129.011V7.09817C129.883 5.62666 131.191 4.94458 132.389 4.94458C134.513 4.94458 136.011 6.57934 136.011 9.54919V16.2582C136.011 18.7651 134.323 20.429 132.389 20.429C131.271 20.429 130.343 19.9101 129.418 18.7115L129.406 25ZM129.406 10.1217V15.4084C129.406 16.5802 129.816 17.1259 130.634 17.1259C131.452 17.1259 131.859 16.5802 131.859 15.4084V10.1217C131.859 8.94986 131.452 8.33263 130.634 8.33263C129.816 8.33263 129.406 8.94986 129.406 10.1217Z" fill="white"/>
<path d="M0 6.40039C0.058133 6.43394 8.86305 13.8809 8.86305 13.8809C9.0779 14.061 9.21247 14.319 9.23721 14.5983C9.26194 14.8776 9.17482 15.1553 8.99497 15.3703L5.04192 20.0152" fill="white"/>
<path d="M20.1676 14.9051L11.6713 7.70854C11.4564 7.52846 11.3218 7.27043 11.2971 6.99115C11.2724 6.71188 11.3595 6.4342 11.5393 6.21914L16.816 0.0200195" fill="white"/>
<path d="M6.98706 20.0152L13.2274 12.6353C13.3166 12.5286 13.4259 12.4405 13.5492 12.3761C13.6725 12.3117 13.8072 12.2722 13.9457 12.26C14.0842 12.2477 14.2238 12.2629 14.3565 12.3047C14.4891 12.3464 14.6122 12.414 14.7188 12.5034L20.1676 17.1192" fill="white"/>
<path d="M7.29796 9.06827C7.29796 9.06827 14.9402 0.0536036 14.9626 0.0178223H2.4595C2.13557 0.0178189 1.81484 0.0818141 1.51571 0.206138C1.21658 0.330461 0.944954 0.512665 0.716424 0.74228C0.487894 0.971895 0.306964 1.2444 0.184023 1.54415C0.0610823 1.8439 -0.00144698 2.16499 2.54103e-05 2.48897V4.3183L5.81333 9.1868C6.02714 9.36909 6.30458 9.45899 6.58464 9.43677C6.86471 9.41454 7.1245 9.282 7.3069 9.06827" fill="white"/>
<path d="M11.6713 7.70863L20.1677 14.9052V2.48902C20.1677 1.8366 19.9085 1.21089 19.4473 0.749559C18.9861 0.288226 18.3605 0.0290527 17.7082 0.0290527H16.8273L11.5506 6.22817C11.3707 6.44323 11.2836 6.72091 11.3083 7.00018C11.3331 7.27946 11.4676 7.53749 11.6825 7.71757" fill="white"/>
<path d="M13.2274 12.6441L6.98706 20.024H17.697C18.3492 20.024 18.9748 19.7649 19.4361 19.3035C19.8973 18.8422 20.1564 18.2165 20.1564 17.5641V17.1459L14.7076 12.5323C14.6013 12.4425 14.4783 12.3746 14.3458 12.3325C14.2132 12.2903 14.0735 12.2749 13.9349 12.2869C13.7963 12.299 13.6615 12.3383 13.5381 12.4027C13.4148 12.4671 13.3054 12.5552 13.2162 12.662" fill="white"/>
<path d="M0 6.40039V17.5373C0 18.1898 0.259122 18.8155 0.720363 19.2768C1.1816 19.7381 1.80718 19.9973 2.45947 19.9973H5.03298L8.98603 15.3524C9.16587 15.1374 9.253 14.8597 9.22826 14.5804C9.20353 14.3012 9.06895 14.0431 8.85411 13.863" fill="white"/>
<path d="M50.7233 0.0112305H45.3572C42.6741 0.0112305 40.5657 2.86479 40.5657 6.41162V20.0533H45.4712V12.9641H50.0391V8.03968H45.4757V6.40268C45.4624 6.02 45.6013 5.64765 45.862 5.36721C46.1227 5.08678 46.4838 4.92113 46.8664 4.90657H50.7233V4.88421C51.3473 4.85145 51.9349 4.58046 52.3649 4.12712C52.795 3.67378 53.0348 3.07266 53.0348 2.44772C53.0348 1.82277 52.795 1.22165 52.3649 0.768314C51.9349 0.314977 51.3473 0.0439902 50.7233 0.0112305Z" fill="white"/>
<path d="M67.1257 0.207978C66.8179 0.0717289 66.4852 0.000908297 66.1486 0H53.7573C54.2582 0.447267 54.6047 1.44691 54.6047 2.51811C54.6047 3.50434 54.2917 4.40111 53.7573 4.89087H57.5874V20.0174H62.4929V4.90428H66.1486C66.4853 4.9045 66.8183 4.83363 67.1257 4.69631C67.5618 4.50335 67.9324 4.18775 68.1924 3.78792C68.4524 3.38809 68.5906 2.92128 68.5902 2.44431C68.5901 1.96945 68.4516 1.50491 68.1914 1.10767C67.9313 0.710431 67.5609 0.397751 67.1257 0.207978Z" fill="white"/>
<path d="M30.1958 0.0692207C27.0991 0.031203 25.8022 1.76213 25.8022 1.76213C25.1538 2.48223 24.7424 3.61158 24.7424 4.893C24.7424 6.48527 25.3953 7.86062 26.3366 8.48903V8.50021L32.6195 13.1004C32.8129 13.2115 32.9731 13.3723 33.0836 13.5661C33.194 13.76 33.2507 13.9798 33.2477 14.2029C33.2532 14.4615 33.156 14.7118 32.9776 14.8991C32.7991 15.0864 32.5538 15.1955 32.2953 15.2025L25.6055 15.1913V20.1001H33.165C33.165 20.1001 35.459 20.1784 37.0644 18.7583C37.9453 18.0717 38.6787 16.4906 38.6787 14.5204C38.6787 12.4473 37.9073 10.9423 36.5457 9.92475L36.1767 9.68099C35.743 9.41263 32.8453 7.52964 30.7525 6.16771C30.6442 6.11546 30.5531 6.03344 30.4897 5.93126C30.4264 5.82908 30.3934 5.71096 30.3948 5.59073C30.3924 5.54753 30.3924 5.50423 30.3948 5.46103C30.4596 5.16136 30.6809 4.94443 31.2489 4.97574H38.7704L38.8263 4.87511C39.0633 2.80202 40.0314 1.07333 41.3864 0.151964L41.4982 0.0736944L30.1958 0.0692207Z" fill="white"/>
</g>
<defs>
<clipPath id="clip0_2278_930">
<rect width="136" height="25" fill="white"/>
</clipPath>
</defs>
</svg>
