<svg width="24" height="24" viewBox="0 0 24 24" fill="none" xmlns="http://www.w3.org/2000/svg">
<path d="M12 7.89001L10.93 9.75001C10.69 10.16 10.89 10.5 11.36 10.5H12.63C13.11 10.5 13.3 10.84 13.06 11.25L12 13.11" stroke="white" stroke-width="1.2" stroke-linecap="round" stroke-linejoin="round"/>
<path d="M8.3 18.04V16.88C6 15.49 4.11 12.78 4.11 9.89999C4.11 4.94999 8.66 1.06999 13.8 2.18999C16.06 2.68999 18.04 4.18999 19.07 6.25999C21.16 10.46 18.96 14.92 15.73 16.87V18.03C15.73 18.32 15.84 18.99 14.77 18.99H9.26C8.16 19 8.3 18.57 8.3 18.04Z" stroke="white" stroke-width="1.2" stroke-linecap="round" stroke-linejoin="round"/>
<path d="M8.5 22C10.79 21.35 13.21 21.35 15.5 22" stroke="white" stroke-width="1.2" stroke-linecap="round" stroke-linejoin="round"/>
</svg>
