<svg width="25" height="25" viewBox="0 0 25 25" fill="none" xmlns="http://www.w3.org/2000/svg">
  <path d="M15.5 2.27063V12.2706C15.5 13.3706 14.6 14.2706 13.5 14.2706H2.5V6.27063C2.5 4.06063 4.29 2.27063 6.5 2.27063H15.5Z" stroke="#18984E" stroke-width="1.5" stroke-linecap="round" stroke-linejoin="round" />
  <path d="M22.5 14.2706V17.2706C22.5 18.9306 21.16 20.2706 19.5 20.2706H18.5C18.5 19.1706 17.6 18.2706 16.5 18.2706C15.4 18.2706 14.5 19.1706 14.5 20.2706H10.5C10.5 19.1706 9.6 18.2706 8.5 18.2706C7.4 18.2706 6.5 19.1706 6.5 20.2706H5.5C3.84 20.2706 2.5 18.9306 2.5 17.2706V14.2706H13.5C14.6 14.2706 15.5 13.3706 15.5 12.2706V5.27063H17.34C18.06 5.27063 18.72 5.66064 19.08 6.28064L20.79 9.27063H19.5C18.95 9.27063 18.5 9.72063 18.5 10.2706V13.2706C18.5 13.8206 18.95 14.2706 19.5 14.2706H22.5Z" stroke="#18984E" stroke-width="1.5" stroke-linecap="round" stroke-linejoin="round" />
  <path d="M8.5 22.2706C9.60457 22.2706 10.5 21.3752 10.5 20.2706C10.5 19.1661 9.60457 18.2706 8.5 18.2706C7.39543 18.2706 6.5 19.1661 6.5 20.2706C6.5 21.3752 7.39543 22.2706 8.5 22.2706Z" stroke="#18984E" stroke-width="1.5" stroke-linecap="round" stroke-linejoin="round" />
  <path d="M16.5 22.2706C17.6046 22.2706 18.5 21.3752 18.5 20.2706C18.5 19.1661 17.6046 18.2706 16.5 18.2706C15.3954 18.2706 14.5 19.1661 14.5 20.2706C14.5 21.3752 15.3954 22.2706 16.5 22.2706Z" stroke="#18984E" stroke-width="1.5" stroke-linecap="round" stroke-linejoin="round" />
  <path d="M22.5 12.2706V14.2706H19.5C18.95 14.2706 18.5 13.8206 18.5 13.2706V10.2706C18.5 9.72063 18.95 9.27063 19.5 9.27063H20.79L22.5 12.2706Z" stroke="#18984E" stroke-width="1.5" stroke-linecap="round" stroke-linejoin="round" />
</svg>
