<svg width="25" height="25" fill="none" xmlns="http://www.w3.org/2000/svg"><path d="M15.5 2.27v10c0 1.1-.9 2-2 2h-11v-8c0-2.21 1.79-4 4-4h9Z" stroke="#18984E" stroke-width="1.5" stroke-linecap="round" stroke-linejoin="round"/><path d="M22.5 14.27v3c0 1.66-1.34 3-3 3h-1c0-1.1-.9-2-2-2s-2 .9-2 2h-4c0-1.1-.9-2-2-2s-2 .9-2 2h-1c-1.66 0-3-1.34-3-3v-3h11c1.1 0 2-.9 2-2v-7h1.84c.72 0 1.38.39 1.74 1.01l1.71 2.99H19.5c-.55 0-1 .45-1 1v3c0 .55.45 1 1 1h3Z" stroke="#18984E" stroke-width="1.5" stroke-linecap="round" stroke-linejoin="round"/><path d="M8.5 22.27a2 2 0 1 0 0-4 2 2 0 0 0 0 4Zm8 0a2 2 0 1 0 0-4 2 2 0 0 0 0 4Zm6-10v2h-3c-.55 0-1-.45-1-1v-3c0-.55.45-1 1-1h1.29l1.71 3Z" stroke="#18984E" stroke-width="1.5" stroke-linecap="round" stroke-linejoin="round"/></svg>