<svg width="29" height="29" viewBox="0 0 29 29" fill="none" xmlns="http://www.w3.org/2000/svg">
<path d="M14.5 26.5834C21.1734 26.5834 26.5833 21.1735 26.5833 14.5C26.5833 7.82658 21.1734 2.41669 14.5 2.41669C7.82652 2.41669 2.41663 7.82658 2.41663 14.5C2.41663 21.1735 7.82652 26.5834 14.5 26.5834Z" stroke="#18984E" stroke-width="1.2" stroke-linecap="round" stroke-linejoin="round"/>
<path d="M9.66664 3.625H10.875C8.51873 10.6817 8.51873 18.3183 10.875 25.375H9.66664" stroke="#18984E" stroke-width="1.2" stroke-linecap="round" stroke-linejoin="round"/>
<path d="M18.125 3.625C20.4812 10.6817 20.4812 18.3183 18.125 25.375" stroke="#18984E" stroke-width="1.2" stroke-linecap="round" stroke-linejoin="round"/>
<path d="M3.625 19.3333V18.125C10.6817 20.4812 18.3183 20.4812 25.375 18.125V19.3333" stroke="#18984E" stroke-width="1.2" stroke-linecap="round" stroke-linejoin="round"/>
<path d="M3.625 10.875C10.6817 8.51873 18.3183 8.51873 25.375 10.875" stroke="#18984E" stroke-width="1.2" stroke-linecap="round" stroke-linejoin="round"/>
</svg>
