<svg width="24" height="24" fill="none" xmlns="http://www.w3.org/2000/svg"><path d="m2.043 7.075 9.536 5.52 9.472-5.487M11.58 22.38v-9.796" stroke="#fff" stroke-width="1.2" stroke-linecap="round" stroke-linejoin="round"/><path d="M9.343 1.718 3.576 4.926C2.269 5.65 1.2 7.464 1.2 8.954v6.103c0 1.49 1.07 3.304 2.376 4.028l5.767 3.208c1.232.68 3.251.68 4.482 0l5.768-3.208c1.306-.724 2.376-2.538 2.376-4.028V8.954c0-1.49-1.07-3.304-2.376-4.028l-5.768-3.208c-1.242-.69-3.25-.69-4.482 0Z" stroke="#fff" stroke-width="1.2" stroke-linecap="round" stroke-linejoin="round"/><path d="M16.98 13.34V9.386L6.73 3.468" stroke="#fff" stroke-width="1.2" stroke-linecap="round" stroke-linejoin="round"/></svg>