<svg width="24" height="24" fill="none" xmlns="http://www.w3.org/2000/svg"><path d="M11.837 23a12.61 12.61 0 0 0 5.55-3.026c1.945-1.819 3.167-4.063 3.503-6.749.495-3.964-.678-7.346-3.588-9.999-1.917-1.75-4.221-2.44-6.764-2.17-2.495.27-4.56 1.42-6.098 3.478-2.211 2.965-1.83 7.381.823 9.868 2.1 1.973 5.477 1.907 7.494-.143a3.803 3.803 0 0 0 1.05-2.617 3.806 3.806 0 0 0-1.027-2.628 1.808 1.808 0 0 0-1.268-.556 1.803 1.803 0 0 0-1.285.51" stroke="#fff" stroke-width="1.2" stroke-miterlimit="10" stroke-linecap="round"/></svg>