<svg width="24" height="24" viewBox="0 0 24 24" fill="none" xmlns="http://www.w3.org/2000/svg">
<path d="M2.04272 7.0752L11.5792 12.5941L21.051 7.10756" stroke="white" stroke-width="1.2" stroke-linecap="round" stroke-linejoin="round"/>
<path d="M11.5796 22.3792V12.5835" stroke="white" stroke-width="1.2" stroke-linecap="round" stroke-linejoin="round"/>
<path d="M9.34324 1.71836L3.57597 4.92604C2.26915 5.64965 1.19995 7.46405 1.19995 8.95447V15.0566C1.19995 16.547 2.26915 18.3614 3.57597 19.085L9.34324 22.2927C10.5745 22.9731 12.5941 22.9731 13.8253 22.2927L19.5926 19.085C20.8994 18.3614 21.9686 16.547 21.9686 15.0566V8.95447C21.9686 7.46405 20.8994 5.64965 19.5926 4.92604L13.8253 1.71836C12.5833 1.02715 10.5745 1.02715 9.34324 1.71836Z" stroke="white" stroke-width="1.2" stroke-linecap="round" stroke-linejoin="round"/>
<path d="M16.9791 13.3394V9.38655L6.72974 3.46802" stroke="white" stroke-width="1.2" stroke-linecap="round" stroke-linejoin="round"/>
</svg>
