<svg width="24" height="24" viewBox="0 0 24 24" fill="none" xmlns="http://www.w3.org/2000/svg">
<path d="M11.8366 23C13.9018 22.4855 15.8098 21.4452 17.3872 19.9739C19.3317 18.1552 20.5538 15.9112 20.89 13.2251C21.3853 9.26141 20.2118 5.87859 17.3016 3.226C15.3851 1.4759 13.0809 0.786834 10.5378 1.05667C8.04343 1.3265 5.97803 2.47596 4.4404 4.534C2.22904 7.49911 2.61086 11.9155 5.26301 14.4019C7.3638 16.3746 10.7398 16.3091 12.7566 14.2586C13.4253 13.5626 13.8025 12.6226 13.8069 11.6415C13.8113 10.6604 13.4426 9.71687 12.7802 9.01444C12.4434 8.66585 11.9888 8.46621 11.5124 8.45768C11.036 8.44915 10.575 8.63238 10.2268 8.96871" stroke="white" stroke-width="1.2" stroke-miterlimit="10" stroke-linecap="round"/>
</svg>
