<svg width="1913" height="1200" fill="none" xmlns="http://www.w3.org/2000/svg"><path fill-rule="evenodd" clip-rule="evenodd" d="M1729.49 261.988c-5.64-4.586-9.12-8.539-9.98-12.532-.27-1.223-.39-2.548-.51-3.874-.27-3.007-.55-6.02-2.5-7.857-.21-.2-.42-.395-.62-.589-2.52-2.38-4.63-4.368-5.02-7.127-.24-1.693-.79-2.552-1.41-3.532-.47-.747-.99-1.564-1.45-2.874-.38-1.073-.59-1.901-.78-2.628-.33-1.323-.58-2.309-1.66-3.818-1.12-1.546-1.2-2.512-1.32-3.878v-.002c-.06-.697-.13-1.499-.35-2.535-.27-1.227-.37-2.321-.48-3.414-.16-1.637-.32-3.269-1-5.334-.42-1.255-.5-2.126-.57-2.936-.13-1.411-.24-2.636-2.08-5.384-2.59-3.923-3.12-7.958-3.53-10.978v-.001a90.37 90.37 0 0 0-.12-.9c-.4-2.81-1.2-4.209-2.26-6.074l-.18-.324-.14-.245c-1.22-2.171-2.06-2.826-4.48-3.014-2.42-.188-5.15-2.004-2.02-3.462.6-.282 1.22-.538 1.83-.792 2.56-1.06 5.05-2.096 6.44-4.923 1.73-3.507 4.24-7.616 6.51-9.834 2.06-2 1.62-2.541.2-4.277l-.01-.01c-.15-.186-.31-.386-.48-.603-1.78-2.222-5.36-5.034-7.14-5.493-1.82-.457-3.69.354-4.67 1.501-.98 1.147-2.41.968-3.51-.083l-.15-.143c-.06-.067-.13-.134-.2-.202-.93-.946-1.76-1.794-4.43-.247-1.42.842-2.51 2.126-3.48 3.283-1.07 1.261-2.01 2.37-3.12 2.587-.15.03-.31.061-.46.093-2.02.406-4.29.861-6.27-.706-.65-.5-1.29-1.173-1.93-1.831-1.5-1.558-2.91-3.027-3.95-1.89-.24.261-.46.511-.66.748-1.05 1.226-1.8 2.092-4.18 2.321-1.44.139-2.57-.422-3.44-.851-.85-.417-1.44-.709-1.81-.116-.31.502-.23 1.033-.14 1.631.14.868.29 1.879-.68 3.156l-.33.43c-1.5 1.986-2.82 3.733-5.58 3.901-1.03.062-2.06-.083-3-.217-1.74-.247-3.19-.452-3.83.77-.51.939-.27 2.165-.03 3.427.25 1.274.5 2.585.01 3.677-.98 2.198-4.7 4.319-5.96 3.914-1.25-.405.63-5.506 1.58-7.78.51-1.205 1.32-2.21 2.31-3.45v-.001l.01-.001c.88-1.101 1.91-2.388 3.02-4.164.38-.62.75-1.194 1.1-1.737 1.77-2.763 3.02-4.723 3.15-7.879.09-2.407-.64-3.334-1.45-4.366-.47-.586-.96-1.206-1.34-2.152-.37-.934-.51-1.733-.63-2.458v-.002c-.22-1.3-.4-2.367-1.85-3.561l-.63-.511-.01-.008c-1.72-1.394-2.06-1.674-3.74-4.609-1.88-3.264-4.75-5.618-7.16-6.728-2.43-1.133-4.8-1.826-6.57-.103-1.8 1.751-7.17 4.662-9.28 2.471l-.18-.186c-.15-.159-.3-.311-.44-.456-1.67-1.714-2.39-2.457-2.14-3.8.19-.966-.73-1.51-1.69-2.083-.54-.318-1.09-.645-1.48-1.058-1.11-1.155-.63-1.832 1.08-2.287.78-.217.77-.783.77-1.418-.01-.773-.02-1.648 1.37-2.128 1.94-.671 2.32-.202 3.35 1.043v.002c.31.377.68.825 1.17 1.334 2.11 2.19 4.19 3.358 5.91 1.929.64-.532.97-1.438 1.28-2.288.52-1.434.97-2.708 2.79-1.76.53.28 1.06.585 1.57.878v.001c2.22 1.286 4.03 2.328 4.22-.069.09-1.049.09-1.987.08-2.895 0-1.637 0-3.178.51-5.105.31-1.197-.49-2.472-1.3-3.77-1.22-1.95-2.48-3.956-.05-5.832 1.3-.993 2.36-2.048 3.33-3.017 2.06-2.059 3.73-3.73 6.5-3.585 1.13.065 2.13.207 3.06.338 2.43.345 4.35.617 6.66-.748 2.66-1.57 2.89-2.378 3.61-4.86.15-.498.31-1.065.52-1.72 1.24-3.88 2.01-5.743 4.9-7.573 1.29-.831 2.54-1.322 3.74-1.787 1.47-.574 2.85-1.11 4.06-2.2 1.19-1.093 1.24-1.943 1.29-2.805.05-.714.09-1.436.78-2.313.53-.663 1.06-1.08 1.48-1.411.8-.637 1.21-.96.44-2.114-.52-.782-1.08-1.215-1.61-1.625-.68-.522-1.31-1.006-1.74-2.13-.31-.83-.29-1.827-.28-2.735.03-1.313.05-2.438-.94-2.592-.94-.144-1.37.35-2.07 1.17-.56.65-1.29 1.505-2.6 2.41-2.95 2.073-5.21 3.632-6.99 1.199-.74-1.005-1.07-2.036-1.39-3.014-.45-1.388-.86-2.67-2.37-3.62-2.09-1.324-4.01-.481-5.56.203-.38.165-.74.321-1.07.435-.7.242-1.05-.103-1.46-.502-.58-.568-1.27-1.248-3.25-.517-3.37 1.271-5.46.21-3.28-2.078 2.16-2.285 3.42-4.932 2.93-7.489-.35-1.843-.87-2.482-1.6-3.398l-.01-.002c-.28-.354-.6-.75-.95-1.272-.55-.783-.38-1.63-.24-2.382.2-1.047.37-1.91-1.46-2.163-1.13-.159-2.44.02-3.66.185-2.14.29-3.99.543-4.1-1.12-.05-.823.29-1.884.63-2.943.74-2.274 1.47-4.534-1.73-4.369-2.66.137-7.36 5.057-11.73 9.624-3.35 3.507-6.5 6.805-8.37 7.568-1.28.528-2.27.807-3.07 1.031-1.89.533-2.68.753-3.48 3.256-.39 1.2-.96 2.288-1.46 3.243-.97 1.876-1.68 3.236-.29 3.922.38.194.8.38 1.23.566 1.91.83 3.84 1.667 1.58 3.345-.79.595-1.76 1.084-2.71 1.561-2.32 1.168-4.51 2.27-3.63 4.705 1.25 3.431 2.25 3.545 6.06 3.284 3.8-.262 11.61.039 13.33.714 1.73.676 2.84 2.12-2.1 3.859-2.05.72-3.47 1.481-4.59 2.084-1.58.854-2.58 1.388-3.96 1.027-2.35-.615-5.1-.56-8.47-.341-1.42.092-2.62-.467-3.77-1.004-1.58-.738-3.07-1.433-4.92-.342-1.49.884-1.92 1.729-2.25 2.406-.39.767-.66 1.32-2.27 1.475-3.03.292-6.72 1.936-8.97 4.31-2.92 3.09-4.82 6.131-6.41 8.682v.001c-2.01 3.231-3.53 5.674-6.03 6.429-4.36 1.328-5.89 4.194-7.37 6.956l-.06.126c-.69 1.254-1.47.923-2.54.475-1.32-.553-3.07-1.286-5.57.568-4.5 3.353-5.49 4.633-6.56 7.524-.18.465-.31.891-.44 1.282-.66 2.039-.99 3.091-4.36 3.415-3.26.313-5.79 3.691-7.49 5.965-.4.529-.75.998-1.05 1.355-.51.596-1.27 1.609-2.14 2.781l-.01.003c-1.89 2.547-4.35 5.849-6.11 7.296-.82.682-1.87 1.715-2.99 2.818-2.35 2.312-5 4.928-6.57 5.257-1.32.278-1.65 2.656-2.01 5.246-.27 1.953-.56 4.027-1.3 5.411-.93 1.698-1.51 3.291-2.06 4.788v.002c-.49 1.339-.96 2.602-1.61 3.796-.36.653-.8 1.312-1.22 1.942-1.22 1.806-2.26 3.365-.68 3.817 2.16.581.95 2.434-1.24 3.959-1.98 1.376-5.21 6.856-6.52 9.077l-.01.021-.35.588c-.29.473-.95 1.085-1.68 1.762-1.64 1.522-3.65 3.378-2.62 4.754.66.912 1.86 1.546 3.1 2.207 1.48.782 3.02 1.602 3.84 2.964 1.51 2.511 2.15 3.107 3.88 2.546.65-.209 1-.538 1.38-.886.63-.592 1.33-1.243 3.66-1.468.34-.032.69-.069 1.04-.106 3.54-.375 7.85-.83 11.67 1.933 3.49 2.52 3.41 3.649 3.24 5.852v.005c-.04.454-.07.954-.08 1.52-.02.617 0 1.2.02 1.741.07 2.371.12 3.953-2.46 4.201-.74.072-1.53.098-2.35.126-2.7.09-5.69.189-7.85 1.91-1.28 1.029-1.89 2.184-2.4 3.161-.62 1.176-1.11 2.095-2.46 2.225-1.29.124-2.41-.338-3.59-.829-1.11-.458-2.27-.941-3.69-.995-2.93-.112-4.82-.982-3.61-2.572.44-.562 1.29-1.287 2.19-2.053 1.61-1.362 3.36-2.852 3.18-3.777-.29-1.419-2.19-3.498-5.11-3.743-2.95-.242-5.69 1.469-7.13 3.475-.16.209-.32.422-.49.638-1.44 1.87-3.14 4.068-.07 7.097.79.785 1.54 1.446 2.23 2.055 2.29 2.012 3.92 3.448 4.28 6.866.37 3.518-1.67 6.365-3.66 9.148-.53.739-1.06 1.474-1.53 2.215-1.19 1.847-1.72 3.451-2.18 4.846-.42 1.273-.78 2.372-1.54 3.324-.62.78-1.62 1.276-2.68 1.805-1.7.841-3.56 1.766-4.33 4.052-.53 1.554-.94 3.425-1.33 5.25v.002c-.55 2.52-1.07 4.952-1.89 6.342-.34.59-.78 1.195-1.22 1.808-1.35 1.877-2.76 3.827-1.74 5.632.27.465.52.851.74 1.185l.01.001c.91 1.382 1.24 1.875-.94 3.462-.63.464-1.43 1.107-2.32 1.825-2.95 2.373-6.9 5.56-9.12 5.773l-.3.029c-.97.096-1.47.145-1.91-.005-.47-.162-.86-.557-1.67-1.378-.4-.408-.91-.922-1.59-1.565-1.09-1.05-1.79-1.947-2.36-2.684-1.19-1.546-1.84-2.394-4.58-2.487-1.02-.034-2.18-.164-3.42-.302-3.68-.409-7.97-.885-10.69.872-.29.19-.61.391-.94.6-.36.229-.75.469-1.15.719-3.75 2.352-8.85 5.542-10.66 8.143-.5.712-1.16 1.597-1.89 2.592l-.01.006v.002c-2.5 3.377-5.94 8.011-7.18 11.399-.76 2.042-1.5 5.315-2.25 8.611-.85 3.796-1.72 7.624-2.63 9.64-1.7 3.767-4.41 7.053-7.24 8.931-2.86 1.88-4.36 2.025-4.15.136.21-1.888-2.2-2.313-4.39-2.102-.83.08-1.52-.256-2.21-.587-1.12-.539-2.22-1.064-3.8.246-.15.117-.28.229-.41.337-2.24 1.837-2.94 2.417-3.16 5.319-.05.772-.09 1.668-.12 2.519-.1 2.537-.19 4.674-.79 1.935-.28-1.281-.33-2.486-.37-3.489-.08-1.84-.12-2.999-1.52-2.694-1.24.269-1.59 1.311-1.92 2.306-.25.755-.5 1.484-1.12 1.827-.62.345-1.39.007-2.22-.351-1.08-.469-2.24-.974-3.25-.043-.6.546-1.03 1.35-1.43 2.104l-.01.001c-.79 1.483-1.48 2.771-3.16 1.522-2.57-1.883-1.81-4.061-.04-5.573 1.8-1.488 2.87-3.065 1.52-4.118-1.35-1.054-5.11-.824-8.35-.248-3.28.578-11.65 5.619-13.01 8.407-.36.732-.81 1.434-1.25 2.123-1.24 1.934-2.41 3.757-1.38 5.811 1.4 2.785 3.84 8.653 4.24 11.139.4 2.487.28 7.916-2.03 8.429-2.32.486-4.89-1.66-3.22-4.057 1.7-2.426 2.01-4.692.93-5.535-.38-.295-1.13-.558-1.89-.822-1.35-.466-2.7-.935-1.97-1.593.39-.359.98-.609 1.58-.861 1.12-.471 2.25-.948 2.12-2.153-.11-1.015-2.92-3.953-7.02 1.861-.76 1.062-1.26 2.57-1.76 4.038-.92 2.744-1.8 5.348-4.14 4.63-5.18-1.601-.64-5.777 3.55-9.628 2.42-2.225 4.73-4.341 4.97-5.79.54-3.235-7.38.317-8.86 1.774-1.89 1.868-6.26 5.214-10.31 8.311-2.95 2.263-5.74 4.394-7.25 5.717-1.25 1.103-2.03 2.025-2.66 2.779-1.16 1.385-1.84 2.198-4.14 2.505-.74.098-1.58.156-2.44.215-3.29.225-6.82.468-5.54 3.079.72 1.495 2.41 2.051 3.94 2.557 1.84.608 3.46 1.142 2.92 3.147-.5 1.842-1.46 2.961-2.44 4.1-.97 1.133-1.96 2.287-2.53 4.191-.4 1.38-.41 3.091-.2 4.596l4.78-.46c1.01-2.149 2.15-3.864 4.01-1.912.41.42.63.858.71 1.274l-.32.031c.09.895-.4 1.752-.88 2.578-.94 1.62-1.81 3.118 2.02 4.545l.07.203c1.79.664 3.22 1.107 4.35 1.459 3.18.987 4.06 1.259 4.11 3.697.01.222.01.432.02.631.08 2.762.1 3.374-4.06 4.388-4.47 1.088-10.95 8.078-11.78 9.63-.31.603 1.09.254 2.98-.215 2.88-.716 6.88-1.709 7.56-.01 1.12 2.811 1.04 4.66-3.54 4.576-.62-.012-1.26-.027-1.92-.044-4.26-.104-9.22-.225-11.77.704-2.95 1.073-7.2 4.139-6.69 7.667.51 3.528.25 7.526-4.22 8.772-3.5.957-7.41-.255-10.73-1.283-.9-.28-1.76-.547-2.56-.752-.14-.038-.29-.076-.44-.115-3.6-.936-7.48-1.947-5.34 3.328 1.59 3.903 3.99 8.79 5.96 12.8l.01.003c.8 1.632 1.53 3.118 2.1 4.333l.24.501c1.93 4.1 4.3 9.147 1.94 9.626-1.17.239-1.8-.091-2.52-.465-.78-.408-1.65-.869-3.45-.696-.69.067-1.46.189-2.28.318-3.27.516-7.27 1.148-9.64-1.169-1.38-1.36-3.58-2.028-5.58-2.636-2.27-.688-4.28-1.299-4.58-2.751-.28-1.378.25-1.719.71-2.011.45-.287.82-.527.28-1.661-.87-1.869-3.77-3.63-5.15-4.468-.31-.189-.54-.332-.66-.417-.6-.469-1.99-.335-.57 2.448 1.4 2.785 1.68 5.415-1.08 4.076-.78-.372-1.72-.716-2.66-1.058-2.44-.885-4.83-1.756-4.17-3.071.36-.738 1.27-.938 2.26-1.155 1.46-.32 3.09-.678 3.43-2.839.58-3.634.95-6.983-3.94-7.038-.93-.011-1.78-.002-2.54.007-3.18.035-4.81.053-4.98-1.545l-.02-.197-.02-.131c-.22-2.14-.67-6.549-2.87-7.335-1.07-.382-1.34-1.04-1.64-1.79-.36-.881-.77-1.888-2.59-2.722-1.68-.774-3.58-.556-5.3-.357-1.7.197-3.24.375-4.24-.46l-.02-.018c-1.99-1.667-3.65-3.065-6.68-.257-1.62 1.5-2.03 3.22-2.36 4.609-.3 1.219-.53 2.183-1.46 2.519-1.03.367-2.01-.54-2.84-1.315-.81-.747-1.48-1.373-1.94-.618-.31.51-.51 1.262-.71 2.016-.39 1.515-.79 3.039-2.14 2.624-.31-.091-.69-.213-1.12-.352-2.39-.764-6.34-2.031-8.51-1.376-.38.114-.83.22-1.3.333-2.71.65-6.37 1.526-4.07 5.497 1.04 1.783 2.35 3.012 3.56 4.149 1.95 1.832 3.65 3.425 3.57 6.711 0 .133 0 .262-.01.388v.421l-.01.265v.491c-.04 3.802-.05 4.093-4.13 6.384-2.52 1.432-4 2.748-5.47 4.061v.001c-.52.458-1.03.916-1.59 1.379-2.18 1.814-3.7 3.013-5.89 2.172-.5-.193-1.08-.482-1.7-.792-2.11-1.046-4.7-2.334-6.26-.967-.89.771-.66 1.711-.45 2.561.28 1.108.51 2.063-1.82 2.287-4.12.397-8.45.419-9.28-2.288-.36-1.135.03-2.202.4-3.214.51-1.403.98-2.699-.61-3.921-1.47-1.145-2.67-.241-4.3.982-1.4 1.051-3.12 2.338-5.59 2.758-2.8.477-4.36 1.059-5.87 1.626-1.38.513-2.72 1.014-4.91 1.413-4.63.84-7.34 3.389-9.65 5.979-1.72 1.924-2.07 4.153-2.37 6.033-.22 1.382-.4 2.576-1.08 3.322-1.64 1.735-3.46-1.115-4.9-4.29-.33-.741-.65-1.585-.97-2.438-1.06-2.802-2.15-5.696-4.01-5.315-1.23.251-1.16 1.552-1.08 2.98.08 1.413.17 2.95-.99 3.717l-.07.041c-2.37 1.557-7.2 4.735-7.52 1.741-.14-1.371.32-2.638.74-3.773.51-1.365.94-2.537.15-3.467-1.43-1.73-3.58-2.311-5.2-.419-.57.662-.97 1.45-1.34 2.198-.71 1.39-1.34 2.643-2.86 2.704-.64.026-1.18-.037-1.65-.091-1.24-.145-1.96-.228-2.77 1.568-1.11 2.501-3.2 9.068.17 8.086 1.48-.431 2.96-1.524 4.14-2.393 1.52-1.113 2.53-1.857 2.38-.365-.27 2.682-1.9 7.074-3 8.39-.4.464-.73.39-1.11.305-.69-.153-1.56-.347-3.32 2.384-2.75 4.236-6.28 7.627-8.92 8.96-.9.443-2.03.773-3.18 1.108-2.24.652-4.54 1.323-5.3 2.892-.68 1.425-.88 2.223-1.22 3.61v.001c-.23.921-.51 2.1-1.05 3.893-1.34 4.496-2.99 7.18-4.08 5.97-.55-.607-.23-1.204.25-2.102.47-.894 1.11-2.085 1.21-3.879.07-1.408-.2-3.009-.46-4.517-.4-2.341-.75-4.457.25-5.274.54-.429 1.16-.692 1.78-.958 1.34-.568 2.7-1.147 3.33-3.374.3-1.101.32-2.025.34-2.82.04-1.565.07-2.624 2.19-3.526 2.75-1.174 3.32-2.451 4.38-4.834.16-.376.34-.781.55-1.217.64-1.394.97-2.807 1.27-4.125.39-1.703.74-3.25 1.71-4.395.46-.54.93-.939 1.35-1.305 1.19-1.016 2.07-1.779 1.78-4.573-.11-1.053-.27-1.797-.38-2.373-.31-1.501-.38-1.852 1.13-3.539 1.33-1.455 2.54-3.87 3.72-6.234.72-1.43 1.43-2.841 2.14-4.01.52-.84 1.22-1.736 1.98-2.7v-.001c2.03-2.598 4.45-5.686 4.65-9.484.09-1.679.25-3.131.39-4.438.3-2.748.53-4.864-.1-7.137-.61-2.239-1.94-2.584-3.21-2.912-.63-.164-1.25-.324-1.75-.714-.73-.571-.35-1.161.16-1.932.53-.81 1.18-1.819.81-3.212-.7-2.72-3.07-5.281-4.86-6.555-.5-.354-1.1-.823-1.73-1.315-1.64-1.278-3.48-2.717-4.4-2.724-1.15-.019-4.14-1.111-4.58-2.663l.03-.002-.04-.312-.02.002c-.01-.281 0-.663.02-1.099.09-2.243.23-5.93-2.31-4.914-1.57.62-2.25 1.743-2.75 2.576-.49.801-.81 1.334-1.6.894-.56-.308-.92-.871-1.3-1.438-.71-1.081-1.42-2.177-3.46-1.55-1.66.515-2.83 1.523-3.97 2.507-.98.844-1.94 1.67-3.17 2.153-1.16.453-2.42.67-3.67.884-1.63.281-3.25.558-4.58 1.358a9.514 9.514 0 0 0-2.05 1.697l-.06.005c-1.41 1.504-2.45 3.393-2.4 4.677.04 1.421-1.92 2.254-3.68 3-.54.23-1.06.453-1.5.681-1.86.968-5.21-.55-3.91-2.806.28-.474.71-1.094 1.2-1.792.62-.894 1.33-1.917 1.92-2.928l.1-.01c1.09-1.92 1.69-3.845.31-4.87l-.07.034c-2.73-2-6.05-1.942-8.06-.013-2.02 1.931-3.62 1.138-3.03.291.6-.846-3.5-.319-4.55.176-1.05.496-7.07 2.811-4.42.163 1.11-1.113 2.64-2.122 4.07-3.06 1.96-1.292 3.72-2.447 3.86-3.543l.06-.526c.23-1.792.5-3.896-1.75-5.019-1.69-.814-3.73-.815-5.74-.816-.97-.001-1.94-.002-2.85-.093-.79-.072-1.56-.312-2.3-.542-1.899-.59-3.571-1.109-4.687 1.478-.974 2.223-2.925 5.655-4.569 8.546-1.017 1.788-1.916 3.369-2.394 4.329-.373.741-.84 1.398-1.308 2.059-1.016 1.431-2.039 2.873-2.139 5.192l-.085.008-.002.165-.002.181-.001.391c.086 2.371 1.174 3.843 2.217 5.252.697.944 1.374 1.859 1.716 2.996.851 2.838.938 4.96-1.463 5.981-2.401 1.02-3.737 1.412-7.572 1.912-3.834.501-6.589 2.082-4.934 3.395.531.414 1.201.763 1.891 1.123 1.458.759 3.01 1.568 3.55 3.141.384 1.115 1.548 1.997 2.427 2.663.946.716 1.561 1.182.514 1.42-.913.205-1.398-.317-1.976-.938-.718-.772-1.58-1.698-3.583-1.578l-.073.004c-1.869.112-2.632.157-3.189.519-.384.249-.671.649-1.156 1.325-.076.106-.157.22-.245.34l-.063.088-.141.192c-1.714 2.295-5.083 4.593-5.711 3.864-.628-.729-1.625-1.027-2.96.943-1.306 1.993-3.147 3.091-5.412 2.783-2.266-.308-3.39-3.119-.839-4.022 2.55-.904 5.671-2.94 6.16-4.829.487-1.914-.195-1.848-3.62-1.387-2.182.294-4.017 2.273-5.408 3.772-.792.854-1.441 1.553-1.926 1.695-.35.103-1.073.286-2.01.524-2.643.671-6.989 1.775-9.474 2.713-3.342 1.242-5.754 2.159-2.232 3.924 1.115.566 2.523 1.022 3.729 1.413 2.611.846 4.278 1.386-.024 2.07-5.102.812-5.841 1.376-7.596 2.717-.409.312-.872.666-1.459 1.075-.711.496-1.309.952-1.85 1.364-1.823 1.39-2.997 2.286-5.649 2.541-3.438.331-4.925.606-8.481 4-1.604 1.541-2.91 2.396-3.977 3.094-1.279.838-2.214 1.45-2.903 2.75-1.264 2.384-3.09 4.927-5.492 4.632-.859-.105-1.613-.593-2.324-1.053-1.277-.826-2.411-1.56-3.75.192-.973 1.273-.55 2.205-.191 2.996.409.902.735 1.62-1.19 2.45-3.587 1.529-4.307 2.545-3.459 4.042.847 1.496-2.287 3.403-4.646 4.814-.845.505-1.513 1.148-2.162 1.774-1.163 1.12-2.265 2.182-4.218 2.286-3.043.161-6.767 1.704-3.474 2.597 2.953.778 4.882.277 7.091-.297.252-.066.507-.132.768-.197 2.423-.605 2.751-.078 4.02 1.964l.257.412c.916 1.461 1.521 1.853 2.414 2.431a16.68 16.68 0 0 1 2.178 1.624c.614.539 1.226.993 1.781 1.406 1.669 1.24 2.821 2.096 1.954 3.679-.821 1.501-3.301 2.084-5.582 2.62l-.001.001c-.927.218-1.821.428-2.557.689-1.091.386-1.67 1.04-2.263 1.711-.794.898-1.613 1.826-3.722 2.179-1.49.25-2.681.342-3.795.428-1.638.127-3.108.24-5.114.825-2.362.688-4.249.749-6.731.83a98.722 98.722 0 0 0-3.585.163c-1.529.103-3.167.083-4.748.063h-.001c-3.118-.039-6.011-.075-7.395.844l-.16.106c-2.208 1.462-7.737 5.122-5.691 8.954.201.373.4.739.597 1.099 1.851 3.392 3.41 6.247 2.864 10.509-.152 1.179-.434 2.389-.707 3.559v.001l-.001.001v.002c-.811 3.478-1.539 6.599 1.464 7.49 1.1.327 2.23.554 3.304.769 2.847.571 5.298 1.063 5.736 3.122.142.698.24 1.378.334 2.032.293 2.026.55 3.809 1.944 5.166 1.847 1.821 4.146 5.045.626 5.91-3.52.865-8.173 1.708-10.252-1.011-2.107-2.717-5.567-6.75-8.15-8.763-1.367-1.065-2.133-1.996-2.863-2.884-.651-.79-1.273-1.546-2.265-2.33-1.334-1.04-1.747-1.119-2.852-1.33-.661-.126-1.571-.3-3.076-.756a252.65 252.65 0 0 0-.807-.238l-.009-.002c-3.274-.959-3.754-1.1-3.898-3.672-.156-2.774-.94-6.275-5.205-3.339-.427.293-.864.589-1.303.886-3.95 2.672-8.008 5.416-5.07 7.145 1.344.802 2.538 1.074 3.437 1.279 1.284.293 1.962.447 1.604 1.813-.582 2.318-.282 2.552 1.834 3.006 2.143.451 6.119 2.593 2.272 4.279-3.846 1.685-5.348.778-8.205-1.472-2.885-2.247-7.461-4.858-8.98-.713l-.272.73c-1.359 3.631-2.069 5.529 1.217 8.201 1.364 1.109 2.281 1.998 3.122 2.812 1.316 1.275 2.445 2.368 4.804 3.842 1.885 1.177 2.711 1.382 3.413 1.556.739.183 1.342.333 2.898 1.545 3.034 2.364 8.259 8.489 4.589 9.237-3.67.749-6.241-1.135-7.666-4.18-1.071-2.29-2.416-2.605-4.666-3.133h-.001l-.003-.001a35.572 35.572 0 0 1-2.541-.669c-3.88-1.231-9.081-2.966-10.763-4.54-.154-.144-.291-.268-.412-.378-.416-.378-.646-.587-.743-.845-.119-.32-.036-.714.15-1.596.099-.469.227-1.075.37-1.881.342-1.94-.048-3.089-.421-4.19-.379-1.116-.74-2.183-.305-3.973.475-1.934 1.296-3.025 2.116-4.113.676-.897 1.35-1.793 1.828-3.158 1.059-3.022.488-9.727.141-13.007a94.154 94.154 0 0 1-.051-.482l-.022-.22c-.284-2.773-.406-3.962-2.026-4.804-1.748-.884-3.834.501-3.216 2.44.619 1.94.918 8.671.211 11.106-.06.207-.113.413-.164.616-.042.167-.081.332-.121.496-.485 2.025-.93 3.88-4.302 5.564-1.754.881-3.375 1.221-4.774 1.514-1.756.368-3.164.663-4.049 1.861-.789 1.067-.821 2.119-.852 3.124-.031 1.021-.06 1.994-.884 2.882-.562.598-1.505.998-2.425 1.388-1.753.745-3.424 1.454-2.221 3.426.652 1.068 1.532 1.964 2.431 2.88 1.633 1.663 3.33 3.391 3.837 6.328.29 1.746.816 3.198 1.308 4.556h.001c.792 2.185 1.494 4.123.978 6.639-.812 4.05-2.062 6.827-4.103 9.943-1.158 1.768-2.048 3.891-2.842 5.785v.001c-.606 1.445-1.155 2.756-1.726 3.676-.944 1.552-.59 3.54-.201 5.728.143.806.291 1.639.381 2.488.158 1.49-.094 2.666-.338 3.805v.001c-.271 1.271-.533 2.496-.208 4.059.592 2.994 1.494 3.696 3.977 3.457 1.156-.112 1.645.36 2.155.852.586.565 1.2 1.157 2.885.924 1.544-.213 2.586-1.047 3.515-1.791.967-.774 1.812-1.451 2.975-1.227 2.279.438 5.012 1.516 10.132 3.785 5.095 2.297 9.671 4.645 10.005 7.795.163 1.544.385 2.704.611 3.886.236 1.23.476 2.485.66 4.225.091.855.254 1.661.408 2.421.46 2.271.834 4.121-1.077 5.587-2.574 1.984-5.164 5.126-4.518 7.326l.064.219.083.29c.633 2.227 1.56 5.487 4.696 5.916.899.123 1.892.209 2.87.294l.002.001c2.703.234 5.294.459 5.498 1.424.277 1.315-1.005 2.228-6.59 2.082-5.581-.12-8.679-.48-9.861-3.838-1.18-3.332-2.146-8.552-.551-10.415 1.063-1.243 1.233-2.842 1.42-4.602.097-.92.2-1.883.437-2.863.663-2.852.347-4.532-.558-6.575-.37-.834-1.021-1.681-1.678-2.535-.951-1.236-1.913-2.487-2.045-3.735l-.028-.262c-.207-2.006-.391-3.795-3.281-3.391-3.016.422-12.552 2.261-14.759 3.815-2.209 1.528-4.197 3.587-4.504 7.457-.136 1.878.278 3.424.694 4.976.44 1.645.882 3.298.675 5.361-.1.995-.118 2.041-.136 3.085-.055 3.165-.11 6.319-2.437 8.026-.929.69-1.712 1.1-2.405 1.464-1.617.847-2.755 1.444-4.161 4.745-.658 1.534-.959 2.907-1.228 4.137v.001c-.554 2.53-.976 4.454-4.104 5.923l-1.278.601c-3.743 1.754-5.523 2.588-5.879 3.929-.232.875-1.039.937-2.184 1.026-.799.062-1.761.136-2.809.507-1.614.572-1.778 1.699-1.971 3.017-.111.765-.233 1.595-.652 2.417-.12.236-.234.473-.347.706-.955 1.976-1.774 3.671-4.901 2.325-1.408-.616-2.299-1.449-3.102-2.201-1.192-1.114-2.193-2.05-4.41-1.836-.164.015-.328.032-.49.048l-.224.023-.227.023-.22.023c-3.204.333-5.902.614-7.699-1-2.01-1.806-5.359-4.797-7.148-5.809-1.761-1.014-4.659-3.391-4.091-5.839.568-2.449 1.686-2.556 5.212-.765 3.098 1.574 6.194 2.112 8.826 2.569l.001.001c.362.063.715.124 1.058.186 1.216.221 1.056.965.891 1.735-.221 1.028-.451 2.101 2.568 2.035 5.281-.114 7.858-1.809 6.544-3.813-.964-1.467-.115-1.896 1.329-2.626h.001c.527-.267 1.134-.573 1.761-.986 2.346-1.541 4.919-4.84 6.796-7.94 1.905-3.103 4.423-6.923 6.96-7.693 2.565-.774 4.335-2.286 4.482-5.062.041-.962-.216-1.927-.466-2.869-.478-1.798-.934-3.513.74-4.969 2.547-2.244 6.655-9.269 4.934-11.207-.32-.364-.8-.841-1.363-1.399-2.475-2.454-6.552-6.496-5.646-9.605.391-1.34.983-2.749 1.591-4.198v-.001c1.123-2.675 2.302-5.485 2.385-8.257.025-1.044.039-2.353.054-3.774.046-4.354.103-9.757.531-11.801l.062-.314c.508-2.555.908-4.57 3.141-8.753 2.327-4.328 2.972-8.651 2.297-12.426-.289-1.615-1.693-3.439-3.079-5.238-1.855-2.41-3.677-4.777-2.743-6.538.923-1.741 2.571-4.142 4.324-6.694 1.344-1.958 2.749-4.005 3.936-5.912 2.736-4.367 3.689-12.297 3.397-15.057-.118-1.115.264-2.017.608-2.83.508-1.198.934-2.204-.443-3.42-2.311-2.039-3.335-2.598-7.348-3.79-4.016-1.217-8.316-2.513-11.032-3.172-1.152-.279-2.202-1.047-3.17-1.754-1.314-.96-2.476-1.809-3.536-1.177-1.841 1.098-4.682 7.079-6.544 11.625-.594 1.43-1.143 3.264-1.729 5.224-1.279 4.275-2.738 9.152-5.241 11.755a32.543 32.543 0 0 0-2.021 2.319h-.001v.001c-1.233 1.531-1.615 2.006-6.699 4.623-1.557.8-2.85 1.418-3.94 1.938l-.002.001c-3.798 1.813-5.129 2.447-6.512 5.564-1.809 4.015-2.894 8.091-.107 8.112 2.784-.005 2.707 1.87 1.48 3.566-.733 1.036-1.045 2.739-1.447 4.931-.255 1.392-.547 2.982-1.005 4.722-.469 1.781-.365 3.215-.284 4.327.122 1.684.19 2.626-1.873 2.904-.665.089-1.217.109-1.685.125-1.939.067-2.423.084-3.493 4.871-.908 4.085 1.054 4.405 3.066 4.734.928.151 1.867.304 2.54.829.159.124.316.244.47.36l.185.14c1.798 1.357 3.089 2.332 3.204 5.756.041 1.205-.135 2.195-.298 3.118-.357 2.012-.656 3.702 1.462 6.582 1.437 1.951 2.809 2.739 3.783 3.298 1.122.644 1.714.984 1.264 2.449-.524 1.762-2.015 3.671-3.524 5.601-.833 1.067-1.671 2.14-2.354 3.198-1.919 2.973-3.978 4.355-5.539 1.586-.566-1.022-.994-1.986-1.442-2.995-.768-1.727-1.594-3.587-3.27-6.099-1.03-1.544-1.395-2.776-1.717-3.859-.507-1.707-.904-3.044-3.621-4.649-2.937-1.736-5.141-3.944-7.226-6.035l-.001-.001-.002-.002-.003-.003c-1.065-1.067-2.098-2.104-3.184-3.03-1.446-1.234-2.223-2.799-3.071-4.507-1.035-2.085-2.176-4.383-4.77-6.548-4.714-3.912-6.848-5.574-11.67-7.898-2.995-1.444-4.557-2.406-5.975-3.28-.865-.533-1.677-1.033-2.728-1.59a61.358 61.358 0 0 1-2.076-1.16c-2.298-1.322-4.636-2.667-5.626-2.07-1.296.783-6.462 3.279-4.148.137 2.314-3.143.411-6.537-1.41-9.412-1.085-1.715-1.57-3.769-2.022-5.688-.306-1.299-.598-2.536-1.052-3.564-1.097-2.551-4.725-1.413-5.813.296-.3.475-.86.828-1.447 1.198-1.49.939-3.153 1.988-1.188 5.422 1.231 2.151 2.474 3.679 3.479 4.915 1.231 1.513 2.105 2.586 2.16 3.827.1 2.252.333 3.15 2.286 4.409.558.359.878.431 1.061.471.088.02.144.032.179.066.062.06.06.186.055.537-.008.485-.022 1.399.117 3.156.177 2.224.779 4.238 1.309 6.014.726 2.435 1.319 4.422.502 5.885-.141.252-.282.512-.426.779l-.003.006c-1.301 2.41-2.849 5.278-6.764 6.01-.737.138-1.426.278-2.072.41-3.174.648-5.324 1.087-7.071-.055-1.002-.656-.641-1.329-.177-2.195.51-.951 1.144-2.135.234-3.782-.469-.863-.748-1.594-.977-2.194l-.001-.002-.001-.001c-.605-1.587-.859-2.255-3.354-2.015-1.707.165-3.862.962-6.152 1.809-2.323.859-4.783 1.769-7.051 2.12-4.305.666-6.391-.325-9.635-1.864l-.002-.001-.027-.013-.082-.039-.343-.163a36.887 36.887 0 0 1-.973-.479 81.935 81.935 0 0 1-.6-.308c-2.697-1.387-4.944-2.544-9.486-1.331-2.301.613-3.583 1.826-4.666 2.85-1.465 1.386-2.564 2.426-5.33 1.164-1.629-.743-3.826-1.262-5.859-1.743-3.968-.938-7.312-1.728-4.591-3.747 2.216-1.644 3.991-1.781 5.254-1.879 1.082-.084 1.787-.138 2.068-1.088.19-.64.287-1.526.39-2.473.229-2.095.491-4.486 1.863-5.162 1.991-.981 5.303-2.51 6.79-2.784 1.487-.275-4.905-3.105-7.934-2.813-.43.041-.911.077-1.426.115-3.113.231-7.464.555-9.24 2.779-.821 1.017-1.128 2.448-1.418 3.795-.45 2.092-.855 3.979-3.072 3.792-1.777-.149-1.728-1.138-1.675-2.223.057-1.139.119-2.384-1.924-2.875-1.687-.394-3.161-.408-4.355-.42-1.627-.015-2.735-.026-3.155-.987-.728-1.666-2.544-2.938-4.89-1.66-.842.455-1.741 1.034-2.617 1.599-1.591 1.026-3.108 2.004-4.077 2.097-.372.036-1.229.274-2.339.583-3.361.933-9.033 2.509-10.555 1.054-2.024-1.936-3.936-3.067-4.316-1.452-.031.136-.059.266-.085.39-.286 1.369-.412 1.973-4.157 1.465-1.336-.172-2.579-.596-3.686-.973-2.274-.775-3.967-1.351-4.68.858-1.058 3.285-2.118 4.992-5.253 8.187a42.982 42.982 0 0 0-1.784 1.98l-.002.003-.002.002c-1.921 2.229-3.158 3.664-5.793 2.454-1.11-.51-2.635-.791-4.185-1.076-3.141-.578-6.382-1.174-6.469-3.737-.053-1.567.315-2.69.648-3.703.479-1.462.884-2.696-.16-4.709-.446-.86-.975-1.696-1.483-2.498h-.001v-.001h-.001v-.001c-1.504-2.372-2.82-4.449-1.233-5.997l.147-.142c2.085-2.012 3.833-3.699 7.406-4.557 1.955-.47 3.78.435 5.581 1.327 1.566.777 3.114 1.544 4.713 1.39 3.439-.331 4.66-4.684 4.272-8.355-.11-1.036-.092-2.339-.072-3.737.049-3.555.108-7.728-1.904-9.724-1.249-1.239-3.346-2.162-5.438-3.083-2.603-1.145-5.2-2.288-6.149-4.034-.353-.649-.717-1.398-1.084-2.153-1.414-2.907-2.864-5.887-3.813-3.478-.878 2.231-.194 4.453.455 6.559.234.76.463 1.504.613 2.229.565 2.734 1.021 5.741-2.262 8.845-.986.933-2.052 1.932-3.13 2.942l-.007.008c-2.507 2.35-5.074 4.756-6.835 6.507-.77.766-1.819 1.347-2.819 1.902-2.27 1.259-4.294 2.381-2.272 5.216 2.941 4.084 2.513 7.86-.032 11.419-1.244 1.739-3.195 3.069-5.022 4.314-1.914 1.305-3.692 2.517-4.381 4.009l-.049.106c-1.377 2.929-3.586 7.63-5.101 5.151-1.506-2.511-2.272-4.279-1.649-6.469.595-2.188.112-5.456-2.565-7.039-2.048-1.231-2.77-2.266-3.565-3.406-.246-.352-.498-.713-.798-1.093-.846-1.072-1.971-.642-3.587-.025-.816.311-1.758.671-2.853.908-.852.186-1.81.464-2.823.758-2.862.831-6.168 1.791-8.801 1.151a50.345 50.345 0 0 1-.598-.144c-.309-.077-.597-.15-.867-.219-2.415-.615-3.414-.869-5.768.271-2.45 1.162-2.648 1.19-6.384 1.718l-.021.003-.066.009-.888.127-.759.108c-.543.079-1.034.144-1.48.204-4.052.541-4.308.575-5.321 5.081-.456 2.043-.717 4.041-.957 5.88v.001c-.35 2.686-.656 5.034-1.463 6.688-1.359 2.788-4.56 5.621-6.379 4.06-.612-.516-1.207-.754-1.805-.993-1.209-.484-2.434-.974-3.855-3.775-.734-1.459-1.119-2.661-1.442-3.669-.599-1.869-.984-3.071-2.982-4.006-1.245-.583-2.663-.667-3.771-.732-1.627-.095-2.585-.151-1.337-1.696 2.096-2.595 2.108-3.78 1.353-5.707-.345-.88-.368-1.984-.392-3.127-.029-1.357-.058-2.77-.63-3.929-1.056-2.16-3.204-5.267-5.318-4.406-.738.297-1.261.733-1.748 1.139-.928.773-1.723 1.435-3.613.824-2.88-.906-4.202.931-4.061 3.574.048.896-.099 2.068-.259 3.339-.313 2.478-.673 5.334.278 7.259.804 1.66 2.066 2.5 3.247 3.286.892.593 1.738 1.156 2.304 2.019.88 1.341.602 1.663-.102 2.479-.348.404-.801.928-1.269 1.756-.524.937-.638 1.925-.737 2.786-.169 1.464-.295 2.564-2.323 2.428l-.523-.035c-2.856-.186-4.234-.276-6.905-1.906-2.83-1.727-5.537-4.912-5.966-7.659-.168-1.077-.105-2.176-.036-3.379v-.003c.107-1.864.228-3.977-.473-6.643-.652-2.479-1.937-3.376-3.083-4.177-.882-.616-1.682-1.174-2.046-2.352l-.013-.042c-.831-2.685-1.423-4.596 2.087-7.97 3.528-3.391 4.591-5.071 5.483-8.629.172-.7.3-1.459.431-2.241.533-3.164 1.132-6.719 4.982-8.355.815-.352 1.56-.647 2.244-.918 3.323-1.313 5.229-2.066 6.872-6.194 1.982-4.978 1.571-7.569.197-11.171-1.201-3.198-1.187-3.238-.492-5.17.082-.231.175-.488.276-.78.616-1.782.09-3.398-.427-4.989-.28-.863-.558-1.718-.65-2.588-.081-.76-.31-1.573-.538-2.381-.514-1.822-1.021-3.621.198-4.741 1.786-1.619 1.725-4.795 1.516-6.774-.21-1.979 2.155-.734 2.73.789.575 1.523 1.193 3.462 1.008 6.926-.185 3.463.135 6.484 2.06 7.745 1.086.7 1.287 1.655 1.55 2.907.21.999.46 2.187 1.232 3.585 1.712 3.149 3.454 7.111 4.202 9.222 1.685 4.73 3.077 6.674 7.589 10.764 2.932 2.657 4.836 6.701 6.286 9.783.782 1.661 1.432 3.043 2.041 3.776 1.738 2.095 10.194 9.066 23.06 8.459 12.835-.632 20.988-5.389 22.465-7.583.738-1.097.933-2.642 1.115-4.084.182-1.44.351-2.778 1.036-3.462.578-.576.758-1.492.945-2.445.256-1.309.527-2.687 1.861-3.348 2.49-1.233.676-3.697-.718-5.59-.453-.616-.862-1.171-1.063-1.604-.431-.924-.049-1.839.374-2.854.384-.92.802-1.923.679-3.087-.259-2.447-1.064-4.316-3.258-4.736-1.13-.203-1.449-2.921-1.758-5.548-.291-2.471-.572-4.861-1.509-5.001-2.195-.338-2.294-2.572-2.449-6.095-.023-.524-.047-1.078-.08-1.657-.208-3.654-1.674-8.384-2.75-11.854l-.002-.005c-.248-.802-.476-1.536-.663-2.174-.224-.767-.494-1.852-.802-3.089-1.059-4.249-2.564-10.29-4.176-11.398l-.283-.194c-2.208-1.513-6.683-4.58-7.137-6.877-.477-2.427-2.918-6.479-4.167-4.728-.528.735-2.401 2.835-3.224 2.099-.343-.295.321-1.608 1.045-3.038.553-1.093 1.141-2.255 1.34-3.084.26-1.126-.427-1.794-1.35-2.691-.621-.603-1.348-1.31-1.965-2.329-.816-1.309-1.158-2.665-1.079-3.605l.144-.014c.119-.695.52-1.075 1.202-.878l-.03-.024c.314.102.642.333.981.669h.001c.307.294.62.655.943 1.028 1.071 1.235 2.253 2.598 3.659 2.079l-.027.003c1.83-.676 2.211-1.765 1.347-3.681h-.001c-.214-.453-.46-.955-.82-1.499-.824-1.31-.778-2.746-.74-3.939.046-1.45.08-2.541-1.469-2.608-1.348-.073-2.959.69-4.471 1.407h-.001c-1.629.772-3.143 1.489-4.09 1.048-.825-.39-1.075-1.697-1.294-2.841-.259-1.354-.475-2.481-1.546-1.593-.659.545-1.262 1.298-1.827 2.004-1.134 1.416-2.119 2.646-3.107 1.654-.654-.657-1.138-1.565-1.603-2.437-1.116-2.091-2.123-3.978-5.093-1.706-2.348 1.778-6.262-1.08-7.216-2.014-.953-.934-3.615.48-5.966 2.758-1.755 1.701-3.485.877-4.763.268-.433-.206-.814-.387-1.127-.437-2.857-.468-3.615 3.447-3.963 5.247-.059.304-.106.547-.149.699-.146.467-1.355.754-2.717 1.078-1.72.409-3.685.876-4.06 1.837l-.06.15c-.629 1.574-1.478 3.7-.684 6.155l-.021.002s.046.18.082.255c1.139 2.741.009 9.781-.526 13.118l-.01.059c-.173 1.047-.187 1.861-.198 2.53-.028 1.602-.041 2.363-2.2 3.462-1.479.752-3.892 1.005-6.398 1.268-2.683.281-5.473.574-7.342 1.502-3.614 1.795-8.948 6.622-11.84 15.765-2.892 9.143-4.669 12.154-6.905 14.211-1.154 1.062-2.587 1.302-4.107 1.557-1.423.238-2.923.489-4.342 1.44-2.962 1.969-4.361 3.603-5.005 5.848-.369 1.284-1.536 1.492-2.799 1.718-.946.169-1.945.348-2.703.995-1.273 1.087-1.136 3.507-1.032 5.345.04.719.076 1.349.02 1.775-.102.787-.951 1.158-1.914 1.58-.897.393-1.894.829-2.482 1.685-1.215 1.8-1.531 5.329-1.208 6.823.042.192.099.406.159.635.402 1.519.98 3.706-1.363 4.663-.953.389-2.651.578-4.45.777-3.289.365-6.916.767-6.946 2.504-.03 1.098.282 3.218.627 5.563.501 3.402 1.072 7.277.768 9.19a70.783 70.783 0 0 0-.282 1.938c-.483 3.522-1.179 8.592-3.314 10.455-2.574 2.247-14.178 5.39-16.771 5.64-1.032.1-3.867.56-7.278 1.115l-.01.001-.003.001h-.001l-.003.001h-.004l-.006.001h-.001c-5.148.837-11.598 1.886-15.139 2.227-3.336.321-8.603.508-13.175.67-3.506.125-6.602.235-8.106.38-.935.09-2.38.181-4.008.284-4.411.279-10.164.643-10.74 1.294-.785.917 2.599 2.932 4.836 2.717 2.238-.216 5.8.099 6.978 1.327.792.827.104 1.116-1.134 1.638-.601.254-1.332.562-2.087 1.013-2.305 1.406-3.611 2.347-3.366 4.664.245 2.318 1.057 6.606 2.914 7.742l.462.28c1.713 1.031 3.263 1.963 3.419 4.87.041.771.124 1.655.207 2.54.257 2.754.515 5.512-.473 4.851-1.036-.694-2.884-3.631-4.226-5.765-.348-.554-.663-1.054-.92-1.447-.415-.626-.63-1.385-.836-2.109-.41-1.449-.781-2.759-2.638-2.58-.675.065-1.438.188-2.222.315-2.446.395-5.107.824-6.025-.362-1.214-1.567-2.838-2.068-3.902-1.965-.49.047-.777-.527-1.119-1.21-.4-.802-.876-1.754-1.843-2.03-1.816-.482-3.588 1.003-3.359 3.165.228 2.161-.621 7.424-2.747 7.129-2.127-.295-7.818-.93-9.692-.408-.469.131-1.145.176-1.928.229h-.003c-2.346.157-5.649.378-7.195 3.149-2.06 3.723-4.382 6.788-7.172 8.556-1.521.963-1.671 1.646-1.867 2.539-.164.745-.36 1.636-1.411 2.958-2.069 2.6-2.87 2.782-5.714 3.429h-.001l-.011.003-.4.091c-.216.049-.442.101-.68.157-3.515.805-3.74 2.323-4.18 5.274l-.099.662c-.524 3.391-2.189 5.893-4.924 8.181-2.572 2.126-2.696 2.554-3.458 5.179l-.155.535c-.165.561-.324 1.159-.489 1.778-.75 2.814-1.613 6.054-3.56 8.16-.76.831-1.695 1.417-2.553 1.954-1.792 1.122-3.242 2.031-2.029 4.511.536 1.095.927 2.145 1.29 3.122.853 2.293 1.555 4.177 3.623 5.269 2.977 1.555 2.867 3.906 1.385 6.574-1.067 1.899.214 2.715 2.02 3.865.706.451 1.493.952 2.251 1.589.638.532 1.381 1.026 2.135 1.528 2.425 1.614 4.965 3.305 4.508 6.539-.54 3.824-2.327 6.677-4.21 9.683l-.008.013-.015.024-.253.404-.186.298-.154.248c-.582.94-1.035 1.83-1.449 2.64-1.075 2.108-1.879 3.685-3.97 4.248-2.895.778-4.594 4.782-5.048 7.009-.132.65-.525 1.839-1.005 3.292-1.163 3.521-2.838 8.59-2.553 11.281.402 3.801 1 9.452 2.585 11.14.145.156.287.303.423.444l.001.001c1.343 1.393 2.115 2.195.44 4.338-.776.993-.677 2.372-.582 3.713.132 1.849.26 3.629-1.913 4.234-3.751 1.019-9.982 1.803-11.638-.562-.548-.776-.936-1.865-1.339-2.998-.812-2.285-1.689-4.749-4.076-5.187-2.43-.446-3.092 1.339-3.968 3.704-.411 1.108-.869 2.344-1.578 3.538-1.02 1.714-2.657 3.554-4.268 5.364h-.001c-1.902 2.138-3.768 4.234-4.533 6.031-1.413 3.319 1.699 9.542 5.017 9.38 1.19-.058 2.344-.453 3.388-.812 1.87-.641 3.391-1.163 4.142.587.255.593.456 1.31.672 2.079.777 2.771 1.745 6.221 6.076 6.977.947.165 1.859.286 2.712.398l.003.001c4.128.544 6.878.907 5.609 5.322-.666 2.317-.854 4.464-1.021 6.358-.217 2.464-.396 4.503-1.538 5.936-1.107 1.39-2.297.978-3.465.573-.963-.333-1.911-.661-2.784.029-1.934 1.527-3.941 5.745-4.51 7.141-.373.959.702 2.413 2.098 4.299.633.857 1.332 1.802 1.992 2.83 2.116 3.321 6.214 10.791 3.824 14.52-.681 1.059-1.524 2.041-2.317 2.964-2.02 2.351-3.718 4.328-1.612 6.278 2.909 2.745 6.682 6.879 6.678 8.405-.006 1.5 10.464 7.699 12.961 8.116 2.217.365 3.522 3.843 3.905 6.936l.077-.007c.461 3.205 2.146 7.303 5.152 10.603.595.654 1.22 1.33 1.854 2.016 2.957 3.199 6.115 6.615 7.387 8.983 1.545 2.876 3.124 7.906 3.697 10.192.151.573.692 1.226 1.284 1.941 1.766 2.131 3.984 4.807-2.377 7.528-.758.322-1.524.336-2.438.353-1.504.028-3.407.064-6.327 1.491-.997.491.188 1.654 1.407 2.851 1.376 1.352 2.797 2.747 1.17 3.266-1.477.459-2.842-.367-4.111-1.135-1.367-.828-2.623-1.588-3.792-.603-1.19 1.004-.805 2.128-.36 3.429.397 1.161.843 2.463.258 3.946-1.238 3.144-3.011 4.63-5.28 6.374-.747.565-1.287 1.474-1.805 2.344-1.058 1.778-2.02 3.396-4.449 1.599-1.249-.923-2.343-2.158-3.445-3.402-2.092-2.362-4.211-4.754-7.461-5.095-2.205-.232-3.767.066-5.097.321-1.665.318-2.969.567-4.723-.375-2.935-1.576-6.28 3.093-8.206 5.781h-.001c-.145.204-.283.396-.412.573-1.828 2.517-.989 3.935 1.157 4.412.896.189 2.243.541 3.69.92h.002c2.013.527 4.22 1.103 5.674 1.361 2.498.417 4.347 4.605 2.341 5.456-1.213.515-4.03-.097-6.452-.623-1.58-.344-2.993-.65-3.682-.584-1.747.168-3.401-.356-5.034-1.199-1.341-.686-2.417-.95-3.688.066-1.27 1.017-1.729.851-3.723-.272-.637-.36-1.316-.888-2.014-1.431-1.483-1.155-3.055-2.378-4.517-2.201-2.178.262-3.291 1.211-3.266 4.049.012 1.358.998 2.869 2.006 4.411 1.099 1.682 2.222 3.401 2.133 5.002-.063 1.121.112 2.265.258 3.213.252 1.647.414 2.705-.917 2.032-.86-.435-1.572-1.133-2.268-1.815-1-.98-1.966-1.927-3.292-2.016-1.932-.126-3.669 1.206-4.638 1.948-.173.133-.321.247-.442.33-.823.553-4.032 1.493-5.294.773a8.766 8.766 0 0 1-.608-.386l-.001-.001c-1.092-.735-2.227-1.499-3.664 1.167-.672 1.247-.622 3.091-.578 4.664.066 2.416.115 4.192-2.502 2.182-2.077-1.595-3.972-3.943-5.62-5.984-1.78-2.205-3.271-4.053-4.39-4.205-2.126-.295-2.089 1.885-1.896 3.708.118 1.11-.838 1.269-1.86 1.44H80.7c-.656.109-1.338.222-1.783.594-.806.673-.376 1.305.485 2.571.356.524.786 1.156 1.233 1.945 1.167 2.061 1.16 3.85 1.152 5.843-.002.612-.005 1.244.027 1.909.089 1.884 1.686 3.331 3.334 4.824.826.747 1.663 1.506 2.33 2.337 1.037 1.272.961 2.039.85 3.157-.106 1.069-.244 2.459.529 4.917.719 2.29 2.065 3.587 3.39 4.865 1.587 1.529 3.144 3.03 3.566 6.17.287 2.135.609 4.355.926 6.535.543 3.75 1.071 7.39 1.38 10.31.491 4.64 1.827 11.27 2.282 13.22.961-.54 1.741-1.12 2.415-1.63 1.641-1.23 2.654-1.99 4.135-.55 2.09 2.04 7.162 8.02 8.71 11.45.838 1.89 2.11 3.12 3.37 4.35 1.026.99 2.045 1.98 2.816 3.31 1.72 2.96 4.003 4.74 6.778 6.48 2.747 1.73 11.823 7.77 13.785 10.95.918 1.48 1.113 3.32 1.29 5 .202 1.9.381 3.6 1.572 4.33 2.236 1.33 5.154 4.42 4.529 7.37-.625 2.96 1.432 7.02 5.897 7.01h.509c4.349.02 9.557.03 9.848 2.79.16 1.51 1.172 1.88 2.452 2.36 1.15.43 2.516.93 3.678 2.42 1.098 1.4 1.307 2.54 1.483 3.49.213 1.16.378 2.06 2.003 2.88 2.97 1.5 3.784 4.76 1.848 6.53-1.911 1.73-3.486 4.57-1.178 6.58 2.308 2.01 5.05 5.77 5.817 8.59.389 1.43 1.352 2.06 2.372 2.73.99.65 2.033 1.33 2.652 2.81.29.7.573 1.33.845 1.94.906 2.03 1.685 3.77 2.141 6.48.243 1.38 0 2.29-.221 3.11-.341 1.28-.626 2.34 1.039 4.63.777 1.06 1.398 2.07 1.958 2.98h.001c1.416 2.31 2.451 3.99 4.667 4.4 1.547.3 2.08-.2 2.747-.82.669-.63 1.471-1.38 3.56-1.58 1.856-.18 3.354-.23 4.666-.28 1.642-.06 2.993-.11 4.39-.38 2.515-.45 7.061-1.78 6.827-4-.124-1.16-.686-5.9-1.217-10.37-.474-3.99-.924-7.78-1.012-8.61-.188-1.77-1.242-16.17-.526-18.26.718-2.07 5.708-10.15 8.699-12.88 2.802-2.57 2.312-6.98 1.99-9.88l-.001-.01c-.022-.19-.042-.38-.061-.56-.11-1.03-.987-2.38-1.975-3.89-1.745-2.67-3.835-5.87-2.653-8.84 1.604-4.03 4.22-5.13 6.91-6.27h.001c.414-.18.831-.35 1.245-.54 3.132-1.41 12.23-6.1 14.511-8.76 2.282-2.67 5.249-5.64 9.216-3.57 3.968 2.06 8.767 3.39 11.192 1.81 1.412-.92 2.09-.38 2.947.3.598.48 1.283 1.02 2.366 1.19 1.375.21 1.757-.4 2.214-1.13.408-.65.876-1.4 2.169-1.74.93-.24 2.342-.27 3.809-.3 2.846-.06 5.899-.12 6.036-1.75.106-1.26-.896-2.55-1.94-3.88-.993-1.27-2.025-2.59-2.173-3.98-.06-.57-.152-1.19-.245-1.81-.375-2.5-.752-5.03 1.006-4.29.686.28 1.444 1.01 2.198 1.74 1.652 1.6 3.28 3.18 4.067-.11.936-4-.016-12.02-.67-17.53-.129-1.09-.246-2.07-.335-2.91-.54-5.11-4.91-8.9-7.442-10.68-.676-.47-1.696-.87-2.765-1.3-2.929-1.16-6.227-2.48-3.814-5.639l.274-.361.281-.366.346-.448c2.779-3.597 4.418-5.718 1.537-8.871-.668-.731-1.346-1.364-1.965-1.941-2.329-2.174-3.825-3.569-.802-6.499 3.825-3.709 9.305-7.156 12.901-8.607 2.601-1.05 2.759-4.33 2.892-7.102.051-1.06.099-2.045.277-2.804.647-2.746 1.852-4.65 6.152-5.959 4.3-1.308 7.537-4.066 9.178-6.013.243-.284.504-.626.784-.993 1.641-2.151 3.916-5.134 6.841-1.977 1.485 1.602 1.761 5.457 2.04 9.34.364 5.072.731 10.193 3.798 10.404 5.415.372 8.94-1.756 9.711-5.407.142-.672.251-1.43.366-2.223v-.001c.508-3.52 1.115-7.73 5.102-8.114a117.73 117.73 0 0 1 2.972-.235c4.088-.289 8.248-.583 10.314-2.386 1.772-1.547 3.292-1.275 5.753-.834 1.114.2 2.421.434 4.031.549 3.777.286 6.35-1.312 8.675-2.757l.001-.001.004-.002c.872-.542 1.71-1.062 2.563-1.453 3.132-1.406 7.376-1.157 10.242 1.697 1.156 1.151 1.597 3.095 2.011 4.917.611 2.694 1.162 5.122 3.874 4.327 1.845-.541 3.137-1.544 4.197-2.367 1.55-1.204 2.603-2.021 4.163-.437.988.995 1.923 2.441 2.873 3.912 1.571 2.43 3.185 4.927 5.16 5.572 3.142 1.039 10.384 7.47 10.852 11.896.287 2.712 2.074 5.526 3.459 7.706.876 1.379 1.591 2.504 1.664 3.19.086.817-.558 2.277-1.233 3.804-.786 1.781-1.613 3.653-1.368 4.706.455 1.955 5.589-.328 6.99-2.462.237-.362.517-.844.826-1.376 1.515-2.609 3.74-6.444 5.225-3.442.61 1.232 1.072 3.129 1.558 5.125.941 3.86 1.971 8.09 4.332 8.591 3.581.761 8.547-1.034 11.165-2.864.401-.276.758-.543 1.092-.792 1.853-1.381 2.979-2.22 6.652-1.059 1.495.469 3.025.49 4.418.509 2.671.036 4.843.066 5.324 3.235.733 4.852 3.679 6.112 5.905 5.012.676-.34 1.386-.95 2.119-1.57 1.683-1.44 3.487-2.978 5.266-1.59.679.53 1.39.91 2.089 1.28 1.931 1.04 3.761 2.03 4.515 5.89l.142.74.059.32.064.34c.877 4.67 1.616 8.61 5.343 9.66 3.228.92 4.36 2.6 5.218 3.88.23.35.44.66.666.92.993 1.15 2.184.36 5.156-1.64l.379-.25c.109-.07.22-.15.333-.22 1.091-.73 2.008-1.57 2.806-2.31 1.766-1.62 2.946-2.71 4.116-.81 1.694 2.73 5.118 6.43 9.826 6.63 4.708.21 10.054-.07 12.118-2.72.281-.36.606-.75.951-1.17h.001c2.182-2.64 5.133-6.22 2.508-8.08-1.049-.74-2.38-1.27-3.69-1.79h-.001c-2.486-1-4.894-1.96-5.139-4.27-.354-3.35-1.438-3.83-3.631-4.81-.128-.05-.261-.11-.397-.17-1.696-.76-1.709-1.48-1.734-2.774-.011-.586-.024-1.29-.195-2.172-.206-1.066-1.656-2.422-2.99-3.669-2.221-2.077-4.117-3.85.609-3.467 7.563.613 17.556-1.349 17.006-4.978-.23-1.56-.562-2.722-.826-3.649-.634-2.218-.885-3.098 1.549-4.89.433-.32.84-.63 1.229-.926 2.735-2.081 4.505-3.429 7.106-2.113.382.193.851.441 1.381.72 3.585 1.892 9.93 5.241 10.705 3.035.89-2.532-1.583-6.108-4.065-7.421-.741-.391-1.852-.768-2.997-1.156-2.695-.914-5.578-1.892-4.254-3.275.773-.807 2.359-1.352 3.822-1.855 2.108-.725 3.958-1.362 2.74-2.564-.893-.87-2.776-1.437-4.455-1.943-2.25-.678-4.132-1.245-2.773-2.28 2.375-1.781 3.825-3.709 3.591-5.922-.234-2.213 2.456-3.367 4.869-2.705 1.039.285 2.687 1.009 4.495 1.803 2.391 1.05 5.063 2.224 6.978 2.668.988.23 1.881.527 2.792.831 2.189.73 4.482 1.494 8.446 1.427 1.497-.024 3.04-.071 4.592-.117 4.272-.128 8.614-.258 12.245.048 1.743.147 3.351.111 4.844.078 2.748-.061 5.107-.113 7.207.997 3.211 1.69 7.11 3.103 7.271.194.161-2.909 3.138-3.432 6.214-3.282 1.021.052 2.587.275 4.392.533h.001c3.582.511 8.107 1.157 11.192.86l17.602-1.696c3.466-.334 9.381-2.008 10.826-3.725 1.448-1.692 5.422-6.336 10.293-4.332 4.896 1.974 9.35 4.465 12.635 6.595 2.113 1.383 4.042.914 5.901.462 1.008-.245 1.995-.486 2.98-.423 2.831.174 3.887 3.65 4.389 6.048.11.556.206 1.198.308 1.888.34 2.288.758 5.101 2.043 7.039 1.08 1.628.046 2.615-1.133 3.743-.647.618-1.339 1.279-1.749 2.111-.169.342-.36.705-.558 1.081-1.159 2.204-2.548 4.844-1.012 6.224 1.797 1.616 3.481 1.901 7.772 2.592 2.829.456 4.139-.873 5.403-2.156.654-.663 1.296-1.314 2.129-1.699 2.257-1.043 3.105 1.481 4.039 4.259l.234.695c.926 2.78 4.368 3.063 6.758 3.26.217.018.426.035.623.054.996.092 1.867.988 2.76 1.907 1.23 1.266 2.503 2.575 4.203 1.894 2.908-1.175 5.962-1.232 5.219.602-.317.796-1.968 1.557-3.747 2.377-2.375 1.095-4.978 2.295-4.942 3.825.015.668-.087 1.331-.187 1.974-.3 1.935-.569 3.675 2.521 4.715 2.174.74 2.307.05 2.487-.88.161-.83.36-1.86 2.09-2.24 1.782-.389 2.659.1 3.649.65 1.046.58 2.217 1.23 4.712.99 3.244-.31 4.786-1.949 6.298-3.554.752-.799 1.496-1.59 2.439-2.205 1.247-.802 2.381-.562 3.61-.302 1.567.331 3.288.695 5.594-1.031 1.812-1.357 2.861-2.64 3.722-3.693 1.094-1.338 1.886-2.306 3.553-2.585 2.98-.497 7.084-1.576 9.482-3.148 2.397-1.573 6.921-3.113 7.246-.041.15 1.425-.953 1.924-2.225 2.5-1.471.666-3.169 1.435-3.416 3.857-.459 4.515-.689 6.773 5.321 10.432.329.2.656.39.98.59 5.619 3.41 10.632 6.44 13.239 12.11 2.729 6 12.728 27.02 15.657 33.08.92 1.9 2.051 5.18 3.306 8.82 2.835 8.24 6.301 18.3 9.379 18.31 4.441.02 7.108-1.34 7.927-4.55.818-3.21 2.799-8.97 5.456-8.1 2.654.85 8.502 2.97 7.173 5.78-1.33 2.81-1.783 5.3.755 5.06 1.381-.13 1.857.28 2.554.89.583.5 1.322 1.15 2.877 1.72 3.41 1.22 6.219 1.18 10.148.81 2.547-.25 5.089-1.52 7.481-2.72 1.299-.65 2.553-1.28 3.74-1.71 3.372-1.21 6.517-.94 9.439.88 3.747 2.33 9.294 6.03 9.746 8.22.138.67-.13 1.6-.423 2.63-.669 2.34-1.473 5.15 2.064 6.36 1.649.57 3.081.94 4.369 1.28 2.688.7 4.747 1.24 6.836 3.01 1.522 1.28 2.672 3.36 3.745 5.29 1.104 2 2.125 3.84 3.385 4.52 1.201.63 2.907.86 4.573 1.08 1.779.23 3.513.46 4.542 1.17 2.019 1.36 3.747 2.32 7.929-.1 1.81-1.04 3.088-2.58 4.041-3.72 1.25-1.5 1.942-2.33 2.543-.5l.04.13c1.056 3.32 3.546 11.14 7.543 11.87 4.045.72 8 .58 11.223.03 3.135-.51 4.128-2.3 5.628-5l.131-.24c1.574-2.83 5.04-3.17 9.898-3.63 2.816-.28 4.209-1.38 5.63-2.51 1.031-.82 2.076-1.65 3.688-2.18 3.836-1.26 7.59-5.65 7.798-8.12.208-2.46 7.496-6.53 9.501-7.38.833-.35 2.321-1.39 4.065-2.61h.003c2.455-1.71 5.418-3.78 7.778-4.79 3.17-1.36 5.22-3.73 6.66-5.39.23-.26.44-.51.64-.73.14-.16.28-.31.41-.44.7-.7 1.81-.44 3.02-.17 1.35.32 2.83.65 3.96-.29 1-.82 1.53-2.31 1.98-3.59.52-1.47.93-2.65 1.85-2.15.44.24.87.56 1.32.91 1.36 1.02 2.93 2.2 5.53 1.78 1.84-.29 2.28.05 2.99.61.62.49 1.44 1.13 3.56 1.65 3.47.85 5.75.53 8.37.16.82-.11 1.68-.23 2.61-.32.43-.05.85-.09 1.25-.14 3.31-.36 5.8-.63 6.92 2.24 1.27 3.22 4.67 8.71 8.84 8.3 2.23-.21 3.57-.02 4.97.17 1.22.17 2.48.35 4.42.27 1.96-.08 2.56-.95 3.14-1.79.67-.97 1.32-1.91 3.98-1.58 1.79.23 3.64.68 5.41 1.12 3.14.77 6.02 1.48 7.88.73 2.91-1.17 8.08-.99 10.23-.54 1.67.36 3.3-1.18 5.16-2.95.52-.49 1.06-1 1.62-1.49.65-.57 1.61-1.26 2.67-2.02 3.13-2.24 7.16-5.14 7.06-7.62-.13-3.33-3.82-7.44-7.71-10.86-3.87-3.41-4.25-4.72-4.58-7.82-.33-3.09-.72-6.84.94-8.79 1.67-1.95 2.56-4.48 2.81-6.53.13-.99 1.1-1.79 2.16-2.67 1.13-.94 2.37-1.97 2.83-3.39.3-.96.27-2.1.25-3.16-.04-2.01-.08-3.76 2.07-3.53 1.46.14 2.73.62 4.27 1.2 1.97.73 4.4 1.64 8.26 2.27 4.75.78 7.4.58 10.27.37 1.3-.1 2.64-.2 4.24-.21 2.75-.03 5.59.31 8.32.64 2.4.29 4.71.57 6.78.58 1.43.01 2.9-.26 4.32-.53 3-.56 5.78-1.08 7.44 1.19.95 1.29 1.79 3.24 2.71 5.35 1.46 3.34 3.1 7.12 5.64 9.47 4.16 3.83 10.34 7.03 16.37 6.68.66-.04 1.32-.07 1.98-.09.43-.02.87-.04 1.31-.05h.01c4.96-.17 9.69-.34 12.26-3.14 2.34-2.57 5.68-4.34 8.97-6.09 1.12-.6 2.23-1.19 3.29-1.8l.3-.18c4.14-2.38 9.48-5.44 13.36-5.61 1.34-.06 2.54.05 3.69.16 2.24.21 4.28.41 6.79-.72 3.79-1.71 5.84-2.35 8.9.25 3.09 2.59 6.11 2.54 10.04 2.16.36-.04.73-.08 1.08-.12.2-.02.4-.05.6-.07 3.3-.4 6.27-.75 7.17 2.02.89 2.78 4.36 3.84 7.32 4.74.49.15.97.29 1.42.44 3.14 1.04 10.12.58 12.28-1.18 1.71-1.4 7.18-1.77 11.34-2.05l.25-.02.44-.03c.19-.01.38-.02.56-.04.41-.02.8-.05 1.17-.08.17-.02.34-.03.5-.05 2.19-.21 4.06-1.51 5.84-2.74 1.4-.98 2.75-1.91 4.16-2.25 3.2-.75 9.74-5.17 14.69-9.22 1.35-1.11 2.59-2.24 3.8-3.33v-.01c3.21-2.91 6.14-5.56 10.08-6.92 3.82-1.31 4.94-4.02 5.97-6.51.43-1.05.85-2.06 1.44-2.909.92-1.296 2.23-2.901 3.65-4.645v-.002c1.74-2.13 3.65-4.468 5.21-6.701.62-.883 1.21-1.88 1.8-2.885 2.13-3.622 4.33-7.364 8.45-6.361 1.92.465 3.48 1.377 4.93 2.22 2.54 1.478 4.71 2.746 7.81 1.024 2.02-1.121 3.27-3.008 4.48-4.829 1.7-2.573 3.32-5.014 6.89-4.973 3.71.043 6.71.738 9.33 1.348 1.7.394 3.24.751 4.72.877 3.78.293 12.42.145 14.72-2.313 1.31-1.388 2.24-3.454 3.21-5.586v-.001c.75-1.644 1.52-3.328 2.48-4.772.77-1.16 1.9-2.328 3.08-3.537 2.21-2.273 4.56-4.693 4.88-7.488.32-2.883-.41-3.743-1.62-5.16-.59-.687-1.29-1.505-2.03-2.747-2.28-3.805-4.33-23.23-3.78-26.86.09-.618.19-1.293.29-2.009.49-3.495 1.11-7.964 2.51-11.438 1.65-4.184 1.08-7.47-1.64-8.996-1.75-.979-2.53-2.788-3.23-4.396-.39-.899-.75-1.735-1.24-2.329-1.33-1.66-5.18-2.63-7.51-.17-2.31 2.457-5.79.557-5.28-3.516l.03-.243.03-.235.02-.161v-.03c.5-4.173 1.32-10.984 6.36-13.787 3.61-2.013 6.34-5.184 9.11-8.408 1.3-1.512 2.61-3.036 4.03-4.457 2.56-2.578 5.67-4.528 8.33-6.195 1.93-1.212 3.62-2.274 4.69-3.319 2.55-2.481 5.95-3.466 11.1-3.515 1.6-.015 3.06.156 4.41.315 3.01.352 5.51.644 7.89-1.289.82-.661 1.58-1.443 2.33-2.22 2.4-2.49 4.75-4.923 9.04-3.111 4.34 1.812 10.3 4.528 15.62 6.949l.02.007.07.033.13.06 4.3 1.954c6.14 2.749 11.81 5.57 14.97 8.817 1.75 1.812 5.18 4.002 8.6 6.177 2.75 1.753 5.48 3.495 7.3 5.022 1.77 1.454 5.03 2.927 8.3 4.407 4.37 1.972 8.76 3.953 9.64 5.912 1.52 3.431 5.95 11.921 10.34 11.498 2.49-.239 5.09-2.207 7.78-4.239 2.06-1.559 4.17-3.156 6.32-4.036 2.4-.989 4.88-.821 7.04-.674 2.28.155 4.23.287 5.41-.973.73-.781 1.1-1.841 1.44-2.805.73-2.067 1.31-3.688 4.92-1.148 5.3 3.724 8.76 5.416 13.17 2.756 4.4-2.66 9.9.835 11.75 2.656.63.636 1.72 1.203 2.96 1.851 2.32 1.212 5.19 2.71 6.69 5.479 1.39 2.546 2.44 2.631 4.11 2.766 1.12.09 2.51.203 4.48 1.088 4.4 1.972 8.11-2.216 11.41-5.928.4-.447.79-.886 1.17-1.307 1.02-1.125 2.1-2.071 3.12-2.963 2.52-2.22 4.68-4.11 4.64-7.596-.02-1.681-.27-2.997-.49-4.129-.42-2.175-.7-3.663 1.07-5.738.89-1.032 1.97-2.109 3.07-3.205 2.25-2.251 4.59-4.581 5.47-6.771.13-.311.25-.652.38-1.013.08-.244.17-.497.26-.758v-.002c1.18-3.385 2.79-7.993 6.44-8.719 3.27-.651 5.56 1.825 7.92 4.376v.001c.78.842 1.56 1.692 2.4 2.441.33.303.66.591.97.868 2.83 2.485 4.67 4.098 2.74 7.691-.13.241-.25.476-.38.704-1.92 3.551-3.01 5.584-.36 7.627 2.79 2.177 6.4 7.405 6.13 9.22-.28 1.816.73 4.849 3.2 8.161.78 1.053 1.77 2.017 2.75 2.964 2.13 2.056 4.18 4.033 3.65 6.679-.75 3.859-.83 5.445.96 9.061 1.54 3.123 1.48 4.242 1.34 6.516-.02.358-.04.745-.06 1.172-.1 2.251 1.07 4.029 2.18 5.713.43.668.86 1.322 1.2 1.984.8 1.571-.4 2.332-2.39 3.589-.96.609-2.11 1.335-3.3 2.325-1.6 1.335-3.99 1.747-6.3 2.146-2.94.509-5.76.996-6.68 3.339-.67 1.69-.89 3.299-1.11 4.87-.32 2.318-.62 4.555-2.34 6.852-.53.711-1.03 1.291-1.46 1.786-1.91 2.189-2.4 2.752 2.5 5.926 1.25.804 2.43 1.518 3.56 2.196v.002c4.33 2.601 7.76 4.665 10.27 9.201 1.59 2.872 4.38 5.29 6.97 7.533 2.56 2.223 4.92 4.273 5.73 6.421.55 1.472 1.52 2.772 2.44 3.999 1.77 2.372 3.34 4.475 1.29 7.031-1.01 1.268-1.89 2.21-2.62 2.999-1.5 1.622-2.4 2.597-2.69 4.429-.4 2.722 1.27 5.455 4.42 6.283 3.11.804 3.67-2.8 3.12-5.878-.31-1.761.4-2.449 1.31-3.326.68-.655 1.47-1.415 2.01-2.807.93-2.348.01-7.301-.71-11.206v-.034c-.28-1.492-.53-2.829-.63-3.807-.37-3.541 2.21-7.814 3.14-3.433 1.38 6.574 3.38 3.252 2.99-2.734-.19-2.875 3.28-2.104 3.78.294.27 1.358 2.23.565 4.67-.416 1.86-.753 4-1.616 5.86-1.703.43-.023.85-.041 1.26-.057.4-.016.79-.029 1.17-.042l.02-.001h.01c3.68-.124 6.49-.219 7.85-1.998 1.64-2.157 8.35-16.191 9.9-21.26 1.56-5.069 2.65-12.538 2.38-17.405-.14-2.399-1.23-11.573-2.32-20.824v-.012c-1.13-9.607-2.27-19.293-2.38-21.559-.25-4.447-2.11-30.809-2.67-36.121-.56-5.312-2.34-11.164-4.66-15.386-2.32-4.247-6.31-13.228-6.89-18.748-.28-2.686-1.32-6.782-2.35-10.816-1.08-4.255-2.14-8.442-2.28-10.832-.08-1.365.04-2.845.16-4.354.28-3.642.58-7.453-1.71-10.228-3.22-3.924-12.71-16.188-15.49-20.365-1.32-1.984-3.31-3.452-5.18-4.834-2.09-1.546-4.03-2.984-4.73-4.917-.96-2.649-2.77-4.059-4.68-5.548-.73-.568-1.48-1.148-2.19-1.813-.83-.771-1.84-1.481-2.89-2.225-2.28-1.601-4.78-3.365-6.2-6.264-1.33-2.712-2.71-5.052-4.24-7.508l-1.1.106c-.49-.757-.99-1.536-1.51-2.354-1.49-2.344-1.54-5.214-1.58-7.677-.03-2.172-.06-4.028-1.08-4.929-.86-.767-1.59-.977-2.18-1.146-.65-.187-1.13-.325-1.45-1.109-.17-.438-.29-.959-.4-1.475-.29-1.27-.57-2.507-1.66-2.403-.29.028-.66.083-1.07.144-1.78.263-4.43.653-5.43-.359-.53-.537-.58-1.348-.64-2.199-.07-1.13-.14-2.331-1.35-3.054-.68-.406-1.15-.894-1.59-1.345-.93-.959-1.7-1.755-3.95-1.252-.92.206-1.94.519-2.95.829-2.63.805-5.19 1.591-5.79.434-.47-.89.41-1.228 1.54-1.661.9-.346 1.96-.754 2.61-1.554 1.46-1.824 2.92-4.463 1.25-5.881-1.43-1.194-3.15-.861-5.97-.315-.53.101-1.09.21-1.69.317-.63.111-1.27.232-1.91.354l-.01.001v.001c-3.35.633-6.89 1.303-9.78.876-1.74-.258-3.18-.859-4.54-1.425-1.34-.554-2.59-1.074-3.95-1.203-2.76-.26-7.84-.613-10.52 1.119-1.37.892-1.42 1.985-1.46 3.054-.04 1.002-.08 1.982-1.21 2.753-1.11.758-2.73 1.278-4.21 1.758-1.64.529-3.13 1.01-3.64 1.707-.96 1.355.5 3.713 2.72 4.867s3.74 2.244 1.6 3.608c-1.97 1.238-1.6 2.316-.91 4.327v.004l.01.023.02.058c.06.183.12.374.19.573.81 2.421 1.37 5.628.36 7.593-.08.17-.18.371-.29.594v.001c-1.18 2.388-3.64 7.392-5.57 6.256-1.48-.899-1.44-3.35-1.4-5.768v-.002c.01-1.001.03-1.997-.07-2.874-.1-.98-.05-1.956-.01-2.777.09-1.687.14-2.722-1.24-1.81-.41.271-.86.604-1.31.944-1.79 1.351-3.72 2.799-4.1.839a15.45 15.45 0 0 1-.24-2.03v-.002c-.13-1.554-.22-2.677-1.44-2.409-1.73.377-6.01 4.234-4.01 6.673 1.08 1.295 2.16 1.42 3.05 1.522.75.087 1.36.157 1.7.939.06.141.12.282.19.423.7 1.586 1.42 3.233-.7 5.176-2.28 2.114-3.6 3.267-5.08.7-.55-.953-.99-1.979-1.41-2.974-.72-1.683-1.4-3.276-2.53-4.274-.65-.581-1.12-1.38-1.57-2.159-.81-1.386-1.58-2.705-3.31-2.605-1.43.082-2.46 1.073-3.89 2.451-1.3 1.25-2.93 2.82-5.49 4.317-1.22.708-2.47 1.565-3.69 2.407-4.18 2.87-8.11 5.568-9.81 1.603l-.04-.11c-2.16-5.045-2.97-6.932-1.02-9.941 1.97-3.004 4.14-6.475 3.12-11.901-.08-.462-.16-.892-.24-1.294-.83-4.338-1.05-5.478.57-10.231 1.74-5.192.97-13.482-2.74-25.882-3.22-10.77-2.23-14.287-1.2-17.903.11-.389.22-.78.33-1.182.01-.068.03-.137.05-.206l.03-.121.02-.057.02-.108c.86-3.501.35-8.726.07-11.55v-.007a48.96 48.96 0 0 1-.14-1.614c0-.08-.01-.168-.01-.263l-.01-.114-.01-.127c-.02-.198-.04-.417-.06-.654-.19-2.139-.52-5.677.85-7.28 1.49-1.734 1.08-2.349-.23-4.349-.1-.149-.21-.306-.31-.471-.07-.11-.15-.223-.22-.34-.69-1.069-1.81-2.119-2.9-3.14v-.001c-1.6-1.511-3.15-2.961-3.16-4.325-.01-.816.44-1.983.96-3.366.95-2.492 2.16-5.686 1.48-8.784-.46-2.095-1.07-3.798-1.63-5.386-.73-2.064-1.39-3.935-1.58-6.22-.32-4.046-.29-8.968 1.15-11.711 1.48-2.746 7.4-12.944 10.59-15.855 1.17-1.06 2.44-2.908 3.79-4.875 2.36-3.436 4.97-7.233 7.69-7.83 1.32-.29 2.41-.407 3.35-.507 2.09-.224 3.38-.363 4.69-2.162 1.52-2.047.18-3.106-1.06-4.081-.32-.252-.63-.499-.88-.755-1.24-1.249-1.46-2.358 3.17-4.172 3.19-1.25 3.96-2.253 4.88-3.448v-.001c.41-.539.86-1.118 1.57-1.775 1.24-1.148 1.66-2.457 2.12-3.896.39-1.212.8-2.517 1.77-3.897 1.23-1.781 1.83-1.868 2.77-2.002.65-.092 1.46-.207 2.73-.922 3.1-1.771 3.93-4.349 2.3-5.139-.39-.191-.81-.344-1.2-.487-1.22-.452-2.23-.821-1.69-2.05.48-1.111.23-1.529-.22-2.267-.21-.356-.47-.786-.72-1.404a24.94 24.94 0 0 0-.38-.919v-.012c-.79-1.853-1.78-4.175-.5-5.349 1.5-1.407 5.21-4.684 7.95-5.58 1.11-.361 2.88-.272 4.61-.184 2.56.13 5.05.256 5.24-1.08.1-.707-.01-1.705-.13-2.779-.25-2.285-.54-4.91 1.1-5.784 1.35-.729 2.02-.573 2.99-.347.73.171 1.64.382 3.15.282 1.78-.117 2.53-1.255 3.18-2.232.62-.936 1.14-1.724 2.37-1.327 1.55.507.92 2.114.24 3.857-.41 1.051-.84 2.152-.83 3.091.01.628-.17 1.497-.37 2.418-.59 2.736-1.28 5.945 2.79 4.767 4.03-1.169 4.46-3.716 4.88-6.147.14-.844.29-1.675.58-2.428.44-1.141.54-2.109.63-2.953.14-1.319.25-2.334 1.55-3.228 2.16-1.471 2.43-5.995 2.07-9.406-.36-3.411-.4-4.775 3.32-5.869 2.61-.77 2.99-2.717 3.38-4.749.16-.857.33-1.728.67-2.533.44-1.043 1.4-1.907 2.35-2.758 1.51-1.365 2.99-2.696 2.24-4.681-1.22-3.223-5.06-7.456-8.13-3.399-1.5 1.971-1.93 3.866-2.29 5.382-.37 1.604-.64 2.784-1.96 3.182-2.3.697-3.57-.686-4.99-2.223-.08-.091-.17-.182-.25-.273a3.937 3.937 0 0 1-.2-.216c-.43-.455-.84-.802-1.21-1.115-1.04-.881-1.77-1.498-1.6-3.533.1-.988-.57-1.441-1.49-2.068-1.33-.908-3.2-2.182-4.08-5.971-.23-.992-.5-2.707-.82-4.712v-.031c-.79-5.008-1.87-11.806-3.3-13.692-.73-.932-1.55-1.459-2.34-1.964-1.42-.914-2.74-1.76-3.21-4.815-.72-4.744-1.49-5.826-3.83-8.311-2.35-2.482-2.68-5.607-3-9.653-.31-3.925.5-5.112 2.71-8.338l.21-.308c1.41-2.072 1.24-3.285 1.08-4.352-.1-.715-.19-1.365.21-2.164.43-.85.24-1.636.04-2.461-.26-1.107-.54-2.285.62-3.784 1.38-1.771 3.33-2.192 4.81-2.513.69-.148 1.27-.275 1.66-.503 1.24-.751 3.68-2.459 2.86-6.037-.82-3.577.66-4.141 3.38-1.167 1.03 1.135 2.08 2.774 3.11 4.404 1.69 2.644 3.36 5.267 4.96 5.682.97.264 1.6.321 2.12.369.87.079 1.45.133 2.85 1.046 2.25 1.467 2.33-.645 2.31-2.931-.02-2.287 1.93-1.554 4.11.551.53.498 1.09 1.108 1.64 1.702 1.74 1.879 3.33 3.593 3.15 1.072-.08-1.11.09-2.141.26-3.154.33-2.014.65-3.954-1.04-6.293-2.58-3.513-4.16-8.28-4.88-10.92-.37-1.35-1.12-3.297-1.87-5.258v-.002c-.72-1.871-1.45-3.753-1.85-5.139-.53-1.774-.84-3.164-.65-4.357l.38-.037c.12-.669.42-1.276.93-1.852.36-.418.78-.797 1.19-1.163 1.26-1.142 2.39-2.163 1.12-3.873-.99-1.322-1.88-1.122-2.92-.89-.72.16-1.5.335-2.43.038l-.01-.003c-2.26-.729-4.76-1.54-6.98-4.032-1.21-1.334-2.7-2.255-4.17-3.158-1.28-.784-2.53-1.554-3.55-2.569l-.09-.089c-.96-.947-1.46-1.435-1.57-1.999-.12-.597.18-1.28.81-2.686.09-.191.18-.396.28-.616 1.31-2.926 1.23-4.24 1.14-5.628-.02-.216-.03-.433-.04-.659-.05-1.137.46-1.36 1.76-1.93.61-.27 1.41-.619 2.4-1.181 1.31-.745 2.32-1.851 3.17-2.773 1.16-1.268 2.01-2.189 2.85-1.357 1.32 1.293-.19 3.606-1.12 5.035-.11.159-.2.306-.29.44-.05.073-.09.15-.15.231v.008c-.9 1.396-2.46 3.822-.06 6.147 2.4 2.313 5.02 3.793 7.93 5.435l.57.322c3.14 1.802 6.36 4.096 8.42 6.081 1.42 1.358 2.75 1.368 4.02 1.378.59.005 1.16.01 1.73.145 1.04.263 1.17.855 1.37 1.758.15.671.34 1.512.96 2.516.86 1.393 1.75 1.591 2.69 1.804.66.147 1.35.302 2.09.866.78.609 1.18 1.254 1.39 1.944l22.87-2.202c-.35-1.729-.18-3.271 2.62-2.542 3.83.999 7.15-.688 5.28-3.007-.58-.708-1.35-1.342-2.16-2.018-1.86-1.535-3.98-3.288-4.79-6.624-.44-1.78-1.27-3.706-2.01-5.397v-.002c-1.25-2.874-2.21-5.071-.39-4.733 1.38.266 2.65 1.151 4.13 2.18 1.64 1.142 3.53 2.459 6.1 3.305 4.89 1.633 6.83 1.447 4.83-3.069-.67-1.51-1.9-3.071-3.22-4.738-2.61-3.317-5.55-7.05-5.1-11.611.09-.819.17-1.664.25-2.524.61-6.339 1.3-13.456 3.9-16.393 2.93-3.307 5.84-6.007 10.11-6.102.55-.013 1.1-.017 1.66-.021 3.77-.029 7.5-.058 8.49-2.535.2-.507.39-.861.54-1.128.17-.317.27-.51.25-.69-.03-.281-.37-.528-1.25-1.162-.71-.513-1.77-1.28-3.3-2.524l-.28.159ZM1199.18 1006.1c2.74-.55 6.76-3.48 10.47-6.192v-.001c2.02-1.479 3.95-2.891 5.54-3.814 4.16-2.421 5.39-6.77 6.49-10.601.08-.308.17-.612.26-.912 1.17-4.006 2.46-6.971 5.2-8.971 2.73-1.999 6-9.916 6.7-11.929.38-1.097 1.54-1.825 2.78-2.6 1.04-.647 2.12-1.327 2.85-2.283 1.6-2.1 6.57-10.838 3.81-9.047-1.24.807-2.78 2.299-4.26 3.732v.001c-1.8 1.748-3.52 3.41-4.5 3.634-1.22.263.89-3.599 2.75-6.989.84-1.534 1.63-2.972 2.03-3.887.47-1.071.73-2.152 1.03-3.445.54-2.259 1.23-5.167 3.47-9.798 3.13-6.42 2.36-9.768 1.48-13.524-.11-.507-.23-1.022-.35-1.552-.19-.939-.42-1.808-.64-2.632-.82-3.09-1.47-5.542.36-8.625 1.75-2.95 1.34-4.341.48-7.218-.27-.932-.6-2.02-.91-3.367-1.27-5.507 1.68-9.92 5-10.897 2.6-.772 3.42 4.667 4.1 9.2.07.5.15.988.22 1.457.22 1.407.4 3.325.61 5.428.48 4.91 1.06 10.827 2.31 13.597.54 1.168 1.15 2.195 1.73 3.171 1.39 2.33 2.6 4.366 2.11 7.322-.68 4.196-1.12 6.605-3.39 8.797-2.28 2.166-4.84 5.884-2.24 6.739 2.6.828 7.11 2.577 4.87 5.159-.78.918-1.45 1.555-2.04 2.112-1.09 1.028-1.89 1.787-2.6 3.543-.27.688-.55 1.544-.86 2.479-.91 2.747-2.05 6.168-3.71 7.957-.48.511-1.15 1.197-1.92 1.984-2.83 2.908-7.01 7.198-8.04 9.181-.4.767-.73 1.665-1.05 2.55-.74 2.024-1.45 3.978-3.01 4.128-2.24.215-6.72 1.068-5.43 4.653 1.28 3.558 1.17 9.014-2.33 12.376-3.51 3.384-8.79 7.374-12.03 8.764-3.28 1.39-11.57 4.58-13.64 4.57-2.04-.01-7.85-3.37-3.61-4.2l-.09-.05Zm480.93-666.51c.4-.344.78-.669.79-1.325l.07.073v-.367c.02-.831.03-1.675-.22-2.453l22.87-2.203c.1.493.23 1.015.35 1.492l.05.174.04.185c.56 2.13-.31 3.266-3.07 4.057-1.79.514-1.42.954-.63 1.91.43.516.98 1.183 1.39 2.095 1.15 2.598 4.4 6.178 7.13 8.308 1.32 1.022 2.78 1.987 4.3 2.991 1.66 1.089 3.38 2.223 5.05 3.526 1.79 1.397 2.36 2.692 3.03 4.239.54 1.226 1.14 2.611 2.48 4.332.82 1.046 1.7 2.284 2.63 3.608v.002c2.54 3.596 5.53 7.832 9.19 10.613 4.56 3.471 6.65 2.409 9.04 1.2l.69-.35c2.71-1.312.88-2.899-1.48-4.67-1.74-1.302.05-2.717 2.11-4.337.74-.584 1.51-1.195 2.17-1.836 2.47-2.447 5.34-.304 7.67 2.181.92.966 1.65 2.029 2.34 3.047 1.1 1.598 2.11 3.083 3.66 3.898 1.01.525 1.98 1.066 2.99 1.631 1.57.868 3.23 1.793 5.26 2.809 2.74 1.373 3.3.08 4.01-1.59.16-.368.33-.755.52-1.135 1.08-2.077 4.52-.856 6.72.405.63.362 1.45.664 2.34.993 2.22.817 4.91 1.809 6.44 4.343 1.99 3.308-2.01 4.757-5.38 5.975-.25.091-.5.18-.74.269-2.33.859-1.89 1.971-1.28 3.483.3.745.64 1.587.7 2.544.15 2.171 3.2 5.065 5.86 7.586v.001c.89.847 1.74 1.652 2.42 2.374 2.62 2.771 7.79 4.114 10.29 4.762l.31.082c.87.218 2.54.203 4.44.187 3.23-.027 7.1-.06 8.73 1.043 2.58 1.725 1.53 9.243-.02 11.286-.39.516-.87 1.055-1.36 1.613-1.42 1.625-2.99 3.417-3.28 5.305-.27 1.739.73 5.186 1.65 8.368v.002c.42 1.458.83 2.861 1.09 4.018.74 3.272 2.35 4.299 4.37 5.582.25.161.51.325.77.499 2.34 1.537 4.71 2.36 6.76 2.9 1.56.421 2.13 1.301 2.72 2.224.17.267.35.537.55.801.74.982 3.87.636 6.89.3h.01c.24-.027.47-.053.71-.078.36-.039.71-.076 1.06-.11 3.2-.308 1.66 1.349.24 2.879l-.01.003-.01.01c-.11.119-.22.237-.32.353-.99 1.052-1.94 1.468-3.16 2-.62.272-1.32.574-2.12 1.007-1.24.664-.99 1.212-.63 2.006.34.742.77 1.699.18 3.166-.98 2.493.46 6.386 1.54 9.322.24.638.45 1.231.63 1.754.64 1.923 3.08 3.139 5.46 4.321 1.25.619 2.48 1.229 3.41 1.926 2.73 2.026 8.01 8.435 10.07 11.261 2.04 2.829 3.38 6.145 4.01 11.004.46 3.574 1.38 5.406 2.48 7.578.38.764.79 1.57 1.2 2.509 1.6 3.608 2.63 8.112 2.35 9.717-.17 1.043-.94.507-2.24-.411-.71-.493-1.57-1.096-2.58-1.624-1.61-.835-2.28-.728-3.16-.587-.72.114-1.57.249-3.16-.066-3.58-.708-11.13-4.584-14.65-6.849-3.52-2.291-8.12-3.294-12.76-3.585-4.63-.29-5.97-.476-10.5-2.855-2.16-1.137-6.11-2.778-10.25-4.497-4.51-1.876-9.25-3.847-12.16-5.365-3-1.566-10.43-4.132-17.76-6.664-6.29-2.169-12.5-4.314-15.78-5.782-4.68-2.093-8.31-5.369-10.94-7.747-1.37-1.237-2.47-2.231-3.31-2.69-1.82-1.004-6.44-5.288-9.77-8.372v-.003l-.02-.014c-1.12-1.038-2.09-1.938-2.76-2.529-2.64-2.349-3.59-4.046-3.83-7.363-.25-3.344-.53-3.922-1.91-5.472-.62-.702-1.4-2.095-2.24-3.594v-.002c-1.02-1.814-2.13-3.785-3.15-4.881-1.42-1.526-4.45-2.241-6.87-2.812-.76-.178-1.46-.343-2.03-.513-1.94-.582.07-2.848 1.73-4.717v-.001c.16-.184.32-.364.48-.539.1-.116.2-.23.29-.341.1-.111.18-.219.27-.324 1.53-1.936 1.37-2.42-1.07-3.868-2.44-1.449-1.08-3.973.41-5.485 1.47-1.509 2.42-3.994 1.55-5.91-.16-.373-.33-.755-.51-1.157-.73-1.636-1.61-3.604-2.82-6.675-.85-2.181-1.54-4.58-2.22-6.914-.51-1.764-1.01-3.492-1.56-5.059-.76-2.247-3.43-4.991-5.65-7.274-1.37-1.418-2.57-2.657-3.04-3.488-.56-.999-.82-2.472-1.09-3.945-.32-1.768-.64-3.537-1.46-4.49l-.12-.149-.19-.215c-1.36-1.593-2.55-2.998-2.82-5.516-.29-2.708-.87-6.098-3.58-9.072-1.8-1.955-1.7-3.103-1.56-4.868.08-.918.17-2.002.02-3.453-.25-2.318-1.39-2.62-2.74-2.976-1.12-.297-2.39-.631-3.4-2.193-1.92-2.942-1.62-4.039-1.07-6.096.1-.348.2-.725.3-1.142.45-1.889.07-2.669-.53-3.897-.31-.644-.69-1.412-1.03-2.529-.6-1.984.08-2.568.72-3.108Zm-385.86 33.984c-.52 1.155-1.04 2.293-1.62 2.93-1.19 1.298-2.34-.748-2.73-3.393l4.78-.46c-.15.303-.29.614-.43.923Z" fill="#18984E"/></svg>