<svg width="25" height="25" viewBox="0 0 25 25" fill="none" xmlns="http://www.w3.org/2000/svg">
<path d="M2.12805 7.36987L12.0619 13.1187L21.9283 7.40359" stroke="white" stroke-width="1.2" stroke-linecap="round" stroke-linejoin="round"/>
<path d="M12.0621 23.3116V13.1077" stroke="white" stroke-width="1.2" stroke-linecap="round" stroke-linejoin="round"/>
<path d="M9.73272 1.79001L3.72514 5.13134C2.36387 5.8851 1.25012 7.77511 1.25012 9.32763V15.684C1.25012 17.2365 2.36387 19.1265 3.72514 19.8803L9.73272 23.2216C11.0152 23.9304 13.119 23.9304 14.4015 23.2216L20.4091 19.8803C21.7704 19.1265 22.8842 17.2365 22.8842 15.684V9.32763C22.8842 7.77511 21.7704 5.8851 20.4091 5.13134L14.4015 1.79001C13.1078 1.07 11.0152 1.07 9.73272 1.79001Z" stroke="white" stroke-width="1.2" stroke-linecap="round" stroke-linejoin="round"/>
<path d="M17.6866 13.8952V9.77768L7.01025 3.61255" stroke="white" stroke-width="1.2" stroke-linecap="round" stroke-linejoin="round"/>
</svg>
