<svg width="25" height="25" viewBox="0 0 25 25" fill="none" xmlns="http://www.w3.org/2000/svg">
<path d="M9.54122 11.3231C9.43706 11.3127 9.31206 11.3127 9.19747 11.3231C6.71831 11.2397 4.74956 9.2085 4.74956 6.7085C4.74956 4.15641 6.81206 2.0835 9.37456 2.0835C11.9266 2.0835 13.9996 4.15641 13.9996 6.7085C13.9891 9.2085 12.0204 11.2397 9.54122 11.3231Z" stroke="white" stroke-width="1.2" stroke-linecap="round" stroke-linejoin="round"/>
<path d="M17.094 4.1665C19.1149 4.1665 20.7399 5.80192 20.7399 7.81234C20.7399 9.78109 19.1774 11.3853 17.2294 11.4582C17.1461 11.4478 17.0524 11.4478 16.9586 11.4582" stroke="white" stroke-width="1.2" stroke-linecap="round" stroke-linejoin="round"/>
<path d="M4.33305 15.1665C1.81222 16.854 1.81222 19.604 4.33305 21.2811C7.19764 23.1978 11.8956 23.1978 14.7601 21.2811C17.281 19.5936 17.281 16.8436 14.7601 15.1665C11.906 13.2603 7.20805 13.2603 4.33305 15.1665Z" stroke="white" stroke-width="1.2" stroke-linecap="round" stroke-linejoin="round"/>
<path d="M19.104 20.8333C19.854 20.677 20.5624 20.3749 21.1457 19.927C22.7707 18.7083 22.7707 16.6978 21.1457 15.4791C20.5728 15.0416 19.8749 14.7499 19.1353 14.5833" stroke="white" stroke-width="1.2" stroke-linecap="round" stroke-linejoin="round"/>
</svg>
