<svg width="25" height="25" viewBox="0 0 25 25" fill="none" xmlns="http://www.w3.org/2000/svg">
<path d="M12.8396 22.8799C14.868 22.4177 16.7421 21.4834 18.2914 20.1619C20.2014 18.5284 21.4018 16.5128 21.7319 14.1002C22.2185 10.5401 21.0658 7.50174 18.2074 5.11923C16.325 3.54732 14.0617 2.92841 11.5639 3.17077C9.11381 3.41313 7.08512 4.44555 5.57482 6.29405C3.40278 8.95726 3.77781 12.924 6.38282 15.1573C8.44626 16.9291 11.7623 16.8702 13.7432 15.0285C14.4 14.4034 14.7705 13.5591 14.7748 12.6779C14.7792 11.7967 14.4169 10.9492 13.7663 10.3183C13.4356 10.0052 12.9891 9.82589 12.5211 9.81822C12.0532 9.81056 11.6004 9.97514 11.2583 10.2772" stroke="white" stroke-width="1.2" stroke-miterlimit="10" stroke-linecap="round"/>
</svg>
