<svg width="20" height="20" viewBox="0 0 20 20" fill="none" xmlns="http://www.w3.org/2000/svg">
<path fill-rule="evenodd" clip-rule="evenodd" d="M14.4052 17.3728C14.6405 17.5394 14.9437 17.581 15.214 17.4787C15.4843 17.3757 15.683 17.1449 15.7429 16.865C16.3778 13.8813 17.9178 6.32921 18.4957 3.61507C18.5395 3.41051 18.4665 3.1979 18.3058 3.06128C18.145 2.92466 17.9222 2.88521 17.7235 2.959C14.6602 4.09288 5.22634 7.63258 1.37038 9.05942C1.12564 9.15001 0.966375 9.38526 0.974412 9.64316C0.983179 9.90179 1.15705 10.1261 1.40764 10.2013C3.1369 10.7186 5.40679 11.4382 5.40679 11.4382C5.40679 11.4382 6.46758 14.6419 7.02062 16.2711C7.09003 16.4756 7.25002 16.6364 7.46116 16.6919C7.67156 16.7467 7.89658 16.689 8.05365 16.5407C8.94203 15.7019 10.3155 14.4051 10.3155 14.4051C10.3155 14.4051 12.9251 16.3186 14.4052 17.3728ZM6.36165 11.0335L7.58828 15.0795L7.86078 12.5173C7.86078 12.5173 12.6 8.24262 15.3017 5.80611C15.3806 5.73451 15.3915 5.61469 15.3258 5.53067C15.2607 5.44666 15.1409 5.42693 15.0511 5.48392C11.9198 7.48354 6.36165 11.0335 6.36165 11.0335Z" fill="white"/>
</svg>
