<svg width="16" height="16" viewBox="0 0 16 16" fill="none" xmlns="http://www.w3.org/2000/svg">
<path fill-rule="evenodd" clip-rule="evenodd" d="M15.6329 4.62721C15.7441 4.26571 15.6329 4 15.1035 4H13.3531C12.908 4 12.7028 4.22951 12.5916 4.48254C12.5916 4.48254 11.7015 6.59771 10.4404 7.97158C10.0325 8.36929 9.84705 8.4958 9.6245 8.4958C9.51322 8.4958 9.35218 8.36929 9.35218 8.00778V4.62721C9.35218 4.19331 9.22303 4 8.85207 4H6.10143C5.82324 4 5.65595 4.20135 5.65595 4.39222C5.65595 4.80346 6.28647 4.8984 6.35148 6.05532V8.5682C6.35148 9.11911 6.24946 9.21906 6.02691 9.21906C5.43352 9.21906 3.99006 7.09438 3.13398 4.66341C2.96619 4.19087 2.7979 4 2.35055 4H0.60014C0.100023 4 0 4.22951 0 4.48254C0 4.93448 0.593388 7.17617 2.76302 10.141C4.20948 12.1656 6.24746 13.2632 8.10189 13.2632C9.21453 13.2632 9.35218 13.0194 9.35218 12.5995V11.0693C9.35218 10.5817 9.45758 10.4845 9.80992 10.4845C10.0695 10.4845 10.5146 10.611 11.5531 11.5871C12.74 12.7442 12.9356 13.2632 13.6032 13.2632H15.3536C15.8537 13.2632 16.1038 13.0194 15.9595 12.5383C15.8017 12.0588 15.2349 11.3632 14.4831 10.5387C14.0752 10.0686 13.4631 9.56253 13.2777 9.30937C13.018 8.98395 13.0923 8.83927 13.2777 8.55004C13.2777 8.55004 15.4103 5.62154 15.6329 4.62721Z" fill="white"/>
</svg>
