<svg width="25" height="25" viewBox="0 0 25 25" fill="none" xmlns="http://www.w3.org/2000/svg">
  <path d="M2.57006 5.09988C3.37006 1.63988 8.58006 1.63988 9.37006 5.09988C9.84006 7.12988 8.55006 8.84988 7.43006 9.91988C6.61006 10.6999 5.32006 10.6899 4.50006 9.91988C3.39006 8.84988 2.10006 7.12988 2.57006 5.09988Z" stroke="white" stroke-width="1.5" />
  <path d="M15.57 17.0999C16.37 13.6399 21.61 13.6399 22.41 17.0999C22.88 19.1299 21.59 20.8499 20.46 21.9199C19.64 22.6999 18.34 22.6899 17.52 21.9199C16.39 20.8499 15.1 19.1299 15.57 17.0999Z" stroke="white" stroke-width="1.5" />
  <path d="M12.4999 5.5H15.1799C17.0299 5.5 17.8899 7.79 16.4999 9.01L8.50995 16C7.11995 17.21 7.97994 19.5 9.81994 19.5H12.4999" stroke="white" stroke-width="1.5" stroke-linecap="round" stroke-linejoin="round" />
  <path d="M5.98622 6H5.99777" stroke="white" stroke-width="2" stroke-linecap="round" stroke-linejoin="round" />
  <path d="M18.9862 18H18.9978" stroke="white" stroke-width="2" stroke-linecap="round" stroke-linejoin="round" />
</svg>
