<svg width="25" height="25" viewBox="0 0 25 25" fill="none" xmlns="http://www.w3.org/2000/svg">
  <path d="M11.5 2.5H9.5C4.5 2.5 2.5 4.5 2.5 9.5V15.5C2.5 20.5 4.5 22.5 9.5 22.5H15.5C20.5 22.5 22.5 20.5 22.5 15.5V13.5" stroke="white" stroke-width="1.2" stroke-linecap="round" stroke-linejoin="round" />
  <path d="M16.54 3.52001L8.66 11.4C8.36 11.7 8.06 12.29 8 12.72L7.57 15.73C7.41 16.82 8.18 17.58 9.27 17.43L12.28 17C12.7 16.94 13.29 16.64 13.6 16.34L21.48 8.46001C22.84 7.10001 23.48 5.52001 21.48 3.52001C19.48 1.52001 17.9 2.16001 16.54 3.52001Z" stroke="white" stroke-width="1.2" stroke-miterlimit="10" stroke-linecap="round" stroke-linejoin="round" />
  <path d="M15.41 4.64999C16.08 7.03999 17.95 8.90999 20.35 9.58999" stroke="white" stroke-width="1.2" stroke-miterlimit="10" stroke-linecap="round" stroke-linejoin="round" />
</svg>
