<svg width="25" height="25" viewBox="0 0 25 25" fill="none" xmlns="http://www.w3.org/2000/svg">
  <path d="M7.20001 9.76001L12.5 12.83L17.76 9.78001" stroke="white" stroke-width="1.5" stroke-linecap="round" stroke-linejoin="round" />
  <path d="M12.5 18.2701V12.8201" stroke="white" stroke-width="1.5" stroke-linecap="round" stroke-linejoin="round" />
  <path d="M11.26 6.7901L8.06 8.5701C7.34 8.9701 6.73999 9.9801 6.73999 10.8101V14.2001C6.73999 15.0301 7.33 16.0401 8.06 16.4401L11.26 18.2201C11.94 18.6001 13.06 18.6001 13.75 18.2201L16.95 16.4401C17.67 16.0401 18.27 15.0301 18.27 14.2001V10.8001C18.27 9.9701 17.68 8.9601 16.95 8.5601L13.75 6.7801C13.06 6.4001 11.94 6.4001 11.26 6.7901Z" stroke="white" stroke-width="1.5" stroke-linecap="round" stroke-linejoin="round" />
  <path d="M22.5 15.5C22.5 19.37 19.37 22.5 15.5 22.5L16.55 20.75" stroke="white" stroke-width="1.5" stroke-linecap="round" stroke-linejoin="round" />
  <path d="M2.5 9.5C2.5 5.63 5.63 2.5 9.5 2.5L8.45001 4.25" stroke="white" stroke-width="1.5" stroke-linecap="round" stroke-linejoin="round" />
</svg>
