<svg width="25" height="25" fill="none" xmlns="http://www.w3.org/2000/svg"><path d="M3.51 11.72v4.49c0 4.49 1.8 6.29 6.29 6.29h5.39c4.49 0 6.29-1.8 6.29-6.29v-4.49" stroke="#fff" stroke-width="1.2" stroke-linecap="round" stroke-linejoin="round"/><path d="M12.5 12.5c1.83 0 3.18-1.49 3-3.32l-.66-6.68h-4.67L9.5 9.18c-.18 1.83 1.17 3.32 3 3.32Z" stroke="#fff" stroke-width="1.2" stroke-linecap="round" stroke-linejoin="round"/><path d="M18.81 12.5c2.02 0 3.5-1.64 3.3-3.65l-.28-2.75c-.36-2.6-1.36-3.6-3.98-3.6H14.8l.7 7.01c.17 1.65 1.66 2.99 3.31 2.99Zm-12.67 0c1.65 0 3.14-1.34 3.3-2.99l.22-2.21.48-4.8H7.09c-2.62 0-3.62 1-3.98 3.6l-.27 2.75c-.2 2.01 1.28 3.65 3.3 3.65Zm6.36 5c-1.67 0-2.5.83-2.5 2.5v2.5h5V20c0-1.67-.83-2.5-2.5-2.5Z" stroke="#fff" stroke-width="1.2" stroke-linecap="round" stroke-linejoin="round"/></svg>