<svg width="24" height="23" fill="none" xmlns="http://www.w3.org/2000/svg"><path d="m2.174 6.575 9.89 5.52 9.822-5.487M12.064 21.88v-9.796" stroke="#fff" stroke-width="1.2" stroke-linecap="round" stroke-linejoin="round"/><path d="M9.745 1.219 3.764 4.426C2.409 5.15 1.3 6.964 1.3 8.455v6.102c0 1.49 1.109 3.305 2.464 4.028l5.98 3.208c1.278.68 3.372.68 4.649 0l5.98-3.208c1.356-.723 2.465-2.538 2.465-4.028V8.455c0-1.49-1.109-3.305-2.464-4.029L14.393 1.22c-1.288-.692-3.371-.692-4.648 0Z" stroke="#fff" stroke-width="1.2" stroke-linecap="round" stroke-linejoin="round"/><path d="M17.663 12.84V8.887L7.035 2.968" stroke="#fff" stroke-width="1.2" stroke-linecap="round" stroke-linejoin="round"/></svg>