<svg width="1913" height="1200" viewBox="0 0 1913 1200" fill="none" xmlns="http://www.w3.org/2000/svg">
<path fill-rule="evenodd" clip-rule="evenodd" d="M1729.49 261.988C1723.85 257.402 1720.37 253.449 1719.51 249.456C1719.24 248.233 1719.12 246.908 1719 245.582C1718.73 242.575 1718.45 239.562 1716.5 237.725C1716.29 237.525 1716.08 237.33 1715.88 237.136C1713.36 234.756 1711.25 232.768 1710.86 230.009C1710.62 228.316 1710.07 227.457 1709.45 226.477C1708.98 225.73 1708.46 224.913 1708 223.603C1707.62 222.53 1707.41 221.702 1707.22 220.975C1706.89 219.652 1706.64 218.666 1705.56 217.157C1704.44 215.611 1704.36 214.645 1704.24 213.279L1704.24 213.277C1704.18 212.58 1704.11 211.778 1703.89 210.742C1703.62 209.515 1703.52 208.421 1703.41 207.328C1703.25 205.691 1703.09 204.059 1702.41 201.994C1701.99 200.739 1701.91 199.868 1701.84 199.058C1701.71 197.647 1701.6 196.422 1699.76 193.674C1697.17 189.751 1696.64 185.716 1696.23 182.696L1696.23 182.695C1696.19 182.384 1696.15 182.083 1696.11 181.795C1695.71 178.985 1694.91 177.586 1693.85 175.721L1693.67 175.397L1693.53 175.152C1692.31 172.981 1691.47 172.326 1689.05 172.138C1686.63 171.95 1683.9 170.134 1687.03 168.676C1687.63 168.394 1688.25 168.138 1688.86 167.884L1688.86 167.884C1691.42 166.824 1693.91 165.788 1695.3 162.961C1697.03 159.454 1699.54 155.345 1701.81 153.127C1703.87 151.127 1703.43 150.586 1702.01 148.85L1702 148.84C1701.85 148.654 1701.69 148.454 1701.52 148.237C1699.74 146.015 1696.16 143.203 1694.38 142.744C1692.56 142.287 1690.69 143.098 1689.71 144.245C1688.73 145.392 1687.3 145.213 1686.2 144.162C1686.15 144.115 1686.1 144.067 1686.05 144.019C1685.99 143.952 1685.92 143.885 1685.85 143.817C1684.92 142.871 1684.09 142.023 1681.42 143.57C1680 144.412 1678.91 145.696 1677.94 146.853C1676.87 148.114 1675.93 149.223 1674.82 149.44C1674.67 149.47 1674.51 149.501 1674.36 149.533C1672.34 149.939 1670.07 150.394 1668.09 148.827C1667.44 148.327 1666.8 147.654 1666.16 146.996C1664.66 145.438 1663.25 143.969 1662.21 145.106C1661.97 145.367 1661.75 145.617 1661.55 145.854C1660.5 147.08 1659.75 147.946 1657.37 148.175C1655.93 148.314 1654.8 147.753 1653.93 147.324C1653.08 146.907 1652.49 146.615 1652.12 147.208C1651.81 147.71 1651.89 148.241 1651.98 148.839C1652.12 149.707 1652.27 150.718 1651.3 151.995C1651.19 152.139 1651.08 152.283 1650.97 152.425C1649.47 154.411 1648.15 156.158 1645.39 156.326C1644.36 156.388 1643.33 156.243 1642.39 156.109C1640.65 155.862 1639.2 155.657 1638.56 156.879C1638.05 157.818 1638.29 159.044 1638.53 160.306C1638.78 161.58 1639.03 162.891 1638.54 163.983C1637.56 166.181 1633.84 168.302 1632.58 167.897C1631.33 167.492 1633.21 162.391 1634.16 160.117C1634.67 158.912 1635.48 157.907 1636.47 156.667L1636.47 156.666L1636.48 156.665C1637.36 155.564 1638.39 154.277 1639.5 152.501C1639.88 151.881 1640.25 151.307 1640.6 150.764C1642.37 148.001 1643.62 146.041 1643.75 142.885C1643.84 140.478 1643.11 139.551 1642.3 138.519C1641.83 137.933 1641.34 137.313 1640.96 136.367C1640.59 135.433 1640.45 134.634 1640.33 133.909L1640.33 133.907C1640.11 132.607 1639.93 131.54 1638.48 130.346C1638.25 130.159 1638.04 129.99 1637.85 129.835L1637.84 129.827C1636.12 128.433 1635.78 128.153 1634.1 125.218C1632.22 121.954 1629.35 119.6 1626.94 118.49C1624.51 117.357 1622.14 116.664 1620.37 118.387C1618.57 120.138 1613.2 123.049 1611.09 120.858L1610.91 120.672C1610.76 120.513 1610.61 120.361 1610.47 120.216C1608.8 118.502 1608.08 117.759 1608.33 116.416C1608.52 115.45 1607.6 114.906 1606.64 114.333C1606.1 114.015 1605.55 113.688 1605.16 113.275C1604.05 112.12 1604.53 111.443 1606.24 110.988C1607.02 110.771 1607.01 110.205 1607.01 109.57C1607 108.797 1606.99 107.922 1608.38 107.442C1610.32 106.771 1610.7 107.24 1611.73 108.485L1611.73 108.487C1612.04 108.864 1612.41 109.312 1612.9 109.821C1615.01 112.011 1617.09 113.179 1618.81 111.75C1619.45 111.218 1619.78 110.312 1620.09 109.462C1620.61 108.028 1621.06 106.754 1622.88 107.702C1623.41 107.982 1623.94 108.287 1624.45 108.58L1624.45 108.581C1626.67 109.867 1628.48 110.909 1628.67 108.512C1628.76 107.463 1628.76 106.525 1628.75 105.617C1628.75 103.98 1628.75 102.439 1629.26 100.512C1629.57 99.3152 1628.77 98.0405 1627.96 96.742C1626.74 94.7912 1625.48 92.7864 1627.91 90.9097C1629.21 89.9174 1630.27 88.8622 1631.24 87.8928C1633.3 85.834 1634.97 84.163 1637.74 84.3075C1638.87 84.3733 1639.87 84.5151 1640.8 84.6464C1643.23 84.991 1645.15 85.2632 1647.46 83.8978C1650.12 82.3279 1650.35 81.5201 1651.07 79.0387C1651.22 78.5397 1651.38 77.973 1651.59 77.3189C1652.83 73.4377 1653.6 71.5751 1656.49 69.7445C1657.78 68.9138 1659.03 68.4235 1660.23 67.9577C1661.7 67.384 1663.08 66.8477 1664.29 65.7586C1665.48 64.6647 1665.53 63.8151 1665.58 62.9527C1665.63 62.239 1665.67 61.5166 1666.36 60.6398C1666.89 59.9768 1667.42 59.5603 1667.84 59.2287C1668.64 58.5918 1669.05 58.2683 1668.28 57.1148C1667.76 56.3325 1667.2 55.8998 1666.67 55.4903C1665.99 54.9681 1665.36 54.4837 1664.93 53.3601C1664.62 52.5306 1664.64 51.5329 1664.65 50.6253C1664.68 49.3115 1664.7 48.1865 1663.71 48.0334C1662.77 47.8889 1662.34 48.3828 1661.64 49.2032C1661.08 49.8532 1660.35 50.7081 1659.04 51.6129C1656.09 53.6858 1653.83 55.245 1652.05 52.8118C1651.31 51.807 1650.98 50.776 1650.66 49.7978C1650.21 48.4097 1649.8 47.1278 1648.29 46.1775C1646.2 44.8542 1644.28 45.6967 1642.73 46.3806C1642.35 46.546 1641.99 46.7022 1641.66 46.8162C1640.96 47.0578 1640.61 46.7133 1640.2 46.3136C1639.62 45.7457 1638.93 45.0663 1636.95 45.797C1633.58 47.0682 1631.49 46.0076 1633.67 43.7193C1635.83 41.4336 1637.09 38.7868 1636.6 36.2301C1636.25 34.3868 1635.73 33.7483 1635 32.8324L1634.99 32.8302C1634.71 32.4762 1634.39 32.0807 1634.04 31.5581C1633.49 30.7748 1633.66 29.9281 1633.8 29.1761L1633.8 29.1758C1634 28.129 1634.17 27.2659 1632.34 27.0129C1631.21 26.854 1629.9 27.0323 1628.68 27.1982C1626.54 27.4888 1624.69 27.7414 1624.58 26.0772C1624.53 25.2552 1624.87 24.1935 1625.21 23.135C1625.95 20.8608 1626.68 18.6015 1623.48 18.7661C1620.82 18.9025 1616.12 23.8231 1611.75 28.3899L1611.75 28.3903C1608.4 31.897 1605.25 35.1949 1603.38 35.9577C1602.1 36.4856 1601.11 36.7649 1600.31 36.989C1598.42 37.5216 1597.63 37.742 1596.83 40.2446C1596.44 41.4451 1595.87 42.5333 1595.37 43.4882C1594.4 45.3636 1593.69 46.7244 1595.08 47.4099C1595.46 47.6044 1595.88 47.7898 1596.31 47.9756L1596.31 47.976C1598.22 48.8059 1600.15 49.6428 1597.89 51.3213C1597.1 51.9164 1596.13 52.4048 1595.18 52.882C1592.86 54.0501 1590.67 55.1512 1591.55 57.5871C1592.8 61.0181 1593.8 61.1318 1597.61 60.8706C1601.41 60.6094 1609.22 60.9096 1610.94 61.5852C1612.67 62.2607 1613.78 63.7049 1608.84 65.4436C1606.79 66.1635 1605.37 66.9252 1604.25 67.5276C1602.67 68.3821 1601.67 68.9161 1600.29 68.5553C1597.94 67.9402 1595.19 67.9948 1591.82 68.2139C1590.4 68.3063 1589.2 67.7468 1588.05 67.2097C1586.47 66.4721 1584.98 65.7766 1583.13 66.8676C1581.64 67.752 1581.21 68.5965 1580.88 69.274C1580.49 70.0411 1580.22 70.5941 1578.61 70.7491C1575.58 71.0408 1571.89 72.6847 1569.64 75.059C1566.72 78.1485 1564.82 81.1904 1563.23 83.7414L1563.23 83.7424C1561.22 86.9733 1559.7 89.4164 1557.2 90.1709C1552.84 91.4985 1551.31 94.3648 1549.83 97.1272L1549.77 97.2528C1549.08 98.5069 1548.3 98.1763 1547.23 97.7282C1545.91 97.1748 1544.16 96.4421 1541.66 98.2964C1537.16 101.649 1536.17 102.929 1535.1 105.82C1534.92 106.285 1534.79 106.711 1534.66 107.102C1534 109.141 1533.67 110.193 1530.3 110.517C1527.04 110.83 1524.51 114.208 1522.81 116.482C1522.41 117.011 1522.06 117.48 1521.76 117.837C1521.25 118.433 1520.49 119.446 1519.62 120.618L1519.61 120.621C1517.72 123.168 1515.26 126.47 1513.5 127.917C1512.68 128.599 1511.63 129.632 1510.51 130.735L1510.51 130.735C1508.16 133.047 1505.51 135.663 1503.94 135.992C1502.62 136.27 1502.29 138.648 1501.93 141.238C1501.66 143.191 1501.37 145.265 1500.63 146.649C1499.7 148.347 1499.12 149.94 1498.57 151.437L1498.57 151.439C1498.08 152.778 1497.61 154.041 1496.96 155.235C1496.6 155.888 1496.16 156.547 1495.74 157.177C1494.52 158.983 1493.48 160.542 1495.06 160.994C1497.22 161.575 1496.01 163.428 1493.82 164.953C1491.84 166.329 1488.61 171.809 1487.3 174.03L1487.29 174.051C1487.15 174.288 1487.03 174.487 1486.94 174.639C1486.65 175.112 1485.99 175.724 1485.26 176.401C1483.62 177.923 1481.61 179.779 1482.64 181.155C1483.3 182.067 1484.5 182.701 1485.74 183.362C1487.22 184.144 1488.76 184.964 1489.58 186.326C1491.09 188.837 1491.73 189.433 1493.46 188.872C1494.11 188.663 1494.46 188.334 1494.84 187.986C1495.47 187.394 1496.17 186.743 1498.5 186.518C1498.84 186.486 1499.19 186.449 1499.54 186.412L1499.54 186.412C1503.08 186.037 1507.39 185.582 1511.21 188.345C1514.7 190.865 1514.62 191.994 1514.45 194.197L1514.45 194.202C1514.41 194.656 1514.38 195.156 1514.37 195.722C1514.35 196.339 1514.37 196.922 1514.39 197.463C1514.46 199.834 1514.51 201.416 1511.93 201.664C1511.19 201.736 1510.4 201.762 1509.58 201.79C1506.88 201.88 1503.89 201.979 1501.73 203.7C1500.45 204.729 1499.84 205.884 1499.33 206.861C1498.71 208.037 1498.22 208.956 1496.87 209.086C1495.58 209.21 1494.46 208.748 1493.28 208.257C1492.17 207.799 1491.01 207.316 1489.59 207.262C1486.66 207.15 1484.77 206.28 1485.98 204.69C1486.42 204.128 1487.27 203.403 1488.17 202.637C1489.78 201.275 1491.53 199.785 1491.35 198.86C1491.06 197.441 1489.16 195.362 1486.24 195.117C1483.29 194.875 1480.55 196.586 1479.11 198.592C1478.95 198.801 1478.79 199.014 1478.62 199.23C1477.18 201.1 1475.48 203.298 1478.55 206.327C1479.34 207.112 1480.09 207.773 1480.78 208.382L1480.78 208.382C1483.07 210.394 1484.7 211.83 1485.06 215.248C1485.43 218.766 1483.39 221.613 1481.4 224.396C1480.87 225.135 1480.34 225.87 1479.87 226.611C1478.68 228.458 1478.15 230.062 1477.69 231.457C1477.27 232.73 1476.91 233.829 1476.15 234.781C1475.53 235.561 1474.53 236.057 1473.47 236.586C1471.77 237.427 1469.91 238.352 1469.14 240.638C1468.61 242.192 1468.2 244.063 1467.81 245.888L1467.81 245.89C1467.26 248.41 1466.74 250.842 1465.92 252.232C1465.58 252.822 1465.14 253.427 1464.7 254.04C1463.35 255.917 1461.94 257.867 1462.96 259.672C1463.23 260.137 1463.48 260.523 1463.7 260.857L1463.71 260.858C1464.62 262.24 1464.95 262.733 1462.77 264.32C1462.14 264.784 1461.34 265.427 1460.45 266.145C1457.5 268.518 1453.55 271.705 1451.33 271.918L1451.03 271.947C1450.06 272.043 1449.56 272.092 1449.12 271.942C1448.65 271.78 1448.26 271.385 1447.45 270.564C1447.05 270.156 1446.54 269.642 1445.86 268.999C1444.77 267.949 1444.07 267.052 1443.5 266.315C1442.31 264.769 1441.66 263.921 1438.92 263.828C1437.9 263.794 1436.74 263.664 1435.5 263.526C1431.82 263.117 1427.53 262.641 1424.81 264.398C1424.52 264.588 1424.2 264.789 1423.87 264.998C1423.51 265.227 1423.12 265.467 1422.72 265.717C1418.97 268.069 1413.87 271.259 1412.06 273.86C1411.56 274.572 1410.9 275.457 1410.17 276.452L1410.16 276.458L1410.16 276.46C1407.66 279.837 1404.22 284.471 1402.98 287.859C1402.22 289.901 1401.48 293.174 1400.73 296.47C1399.88 300.266 1399.01 304.094 1398.1 306.11C1396.4 309.877 1393.69 313.163 1390.86 315.041C1388 316.921 1386.5 317.066 1386.71 315.177C1386.92 313.289 1384.51 312.864 1382.32 313.075C1381.49 313.155 1380.8 312.819 1380.11 312.488C1378.99 311.949 1377.89 311.424 1376.31 312.734C1376.16 312.851 1376.03 312.963 1375.9 313.071C1373.66 314.908 1372.96 315.488 1372.74 318.39C1372.69 319.162 1372.65 320.058 1372.62 320.909C1372.52 323.446 1372.43 325.583 1371.83 322.844C1371.55 321.563 1371.5 320.358 1371.46 319.355C1371.38 317.515 1371.34 316.356 1369.94 316.661C1368.7 316.93 1368.35 317.972 1368.02 318.967C1367.77 319.722 1367.52 320.451 1366.9 320.794C1366.28 321.139 1365.51 320.801 1364.68 320.443C1363.6 319.974 1362.44 319.469 1361.43 320.4C1360.83 320.946 1360.4 321.75 1360 322.504L1359.99 322.505C1359.2 323.988 1358.51 325.276 1356.83 324.027C1354.26 322.144 1355.02 319.966 1356.79 318.454C1358.59 316.966 1359.66 315.389 1358.31 314.336C1356.96 313.282 1353.2 313.512 1349.96 314.088C1346.68 314.666 1338.31 319.707 1336.95 322.495C1336.59 323.227 1336.14 323.929 1335.7 324.618C1334.46 326.552 1333.29 328.375 1334.32 330.429C1335.72 333.214 1338.16 339.082 1338.56 341.568C1338.96 344.055 1338.84 349.484 1336.53 349.997C1334.21 350.483 1331.64 348.337 1333.31 345.94C1335.01 343.514 1335.32 341.248 1334.24 340.405C1333.86 340.11 1333.11 339.847 1332.35 339.583C1331 339.117 1329.65 338.648 1330.38 337.99C1330.77 337.631 1331.36 337.381 1331.96 337.129C1333.08 336.658 1334.21 336.181 1334.08 334.976C1333.97 333.961 1331.16 331.023 1327.06 336.837C1326.3 337.899 1325.8 339.407 1325.3 340.875C1324.38 343.619 1323.5 346.223 1321.16 345.505C1315.98 343.904 1320.52 339.728 1324.71 335.877C1327.13 333.652 1329.44 331.536 1329.68 330.087C1330.22 326.852 1322.3 330.404 1320.82 331.861C1318.93 333.729 1314.56 337.075 1310.51 340.172C1307.56 342.435 1304.77 344.566 1303.26 345.889C1302.01 346.992 1301.23 347.914 1300.6 348.668C1299.44 350.053 1298.76 350.866 1296.46 351.173C1295.72 351.271 1294.88 351.329 1294.02 351.388C1290.73 351.613 1287.2 351.856 1288.48 354.467C1289.2 355.962 1290.89 356.518 1292.42 357.024C1294.26 357.632 1295.88 358.166 1295.34 360.171C1294.84 362.013 1293.88 363.132 1292.9 364.271C1291.93 365.404 1290.94 366.558 1290.37 368.462C1289.97 369.842 1289.96 371.553 1290.17 373.058L1294.95 372.598C1295.96 370.449 1297.1 368.734 1298.96 370.686C1299.37 371.106 1299.59 371.544 1299.67 371.96L1299.35 371.991C1299.44 372.886 1298.95 373.743 1298.47 374.569C1297.53 376.189 1296.66 377.687 1300.49 379.114L1300.56 379.317C1302.35 379.981 1303.78 380.424 1304.91 380.776C1308.09 381.763 1308.97 382.035 1309.02 384.473C1309.03 384.695 1309.03 384.905 1309.04 385.104C1309.12 387.866 1309.14 388.478 1304.98 389.492C1300.51 390.58 1294.03 397.57 1293.2 399.122C1292.89 399.725 1294.29 399.376 1296.18 398.907C1299.06 398.191 1303.06 397.198 1303.74 398.897C1304.86 401.708 1304.78 403.557 1300.2 403.473C1299.58 403.461 1298.94 403.446 1298.28 403.429C1294.02 403.325 1289.06 403.204 1286.51 404.133C1283.56 405.206 1279.31 408.272 1279.82 411.8C1280.33 415.328 1280.07 419.326 1275.6 420.572C1272.1 421.529 1268.19 420.317 1264.87 419.289C1263.97 419.009 1263.11 418.742 1262.31 418.537C1262.17 418.499 1262.02 418.461 1261.87 418.422C1258.27 417.486 1254.39 416.475 1256.53 421.75C1258.12 425.653 1260.52 430.54 1262.49 434.55L1262.5 434.553C1263.3 436.185 1264.03 437.671 1264.6 438.886L1264.84 439.387C1266.77 443.487 1269.14 448.534 1266.78 449.013C1265.61 449.252 1264.98 448.922 1264.26 448.548C1263.48 448.14 1262.61 447.679 1260.81 447.852C1260.12 447.919 1259.35 448.041 1258.53 448.17C1255.26 448.686 1251.26 449.318 1248.89 447.001C1247.51 445.641 1245.31 444.973 1243.31 444.365C1241.04 443.677 1239.03 443.066 1238.73 441.614C1238.45 440.236 1238.98 439.895 1239.44 439.603C1239.89 439.316 1240.26 439.076 1239.72 437.942C1238.85 436.073 1235.95 434.312 1234.57 433.474C1234.26 433.285 1234.03 433.142 1233.91 433.057C1233.31 432.588 1231.92 432.722 1233.34 435.505C1234.74 438.29 1235.02 440.92 1232.26 439.581C1231.48 439.209 1230.54 438.865 1229.6 438.523C1227.16 437.638 1224.77 436.767 1225.43 435.452C1225.79 434.714 1226.7 434.514 1227.69 434.297C1229.15 433.977 1230.78 433.619 1231.12 431.458C1231.7 427.824 1232.07 424.475 1227.18 424.42C1226.25 424.409 1225.4 424.418 1224.64 424.427C1221.46 424.462 1219.83 424.48 1219.66 422.882L1219.64 422.685L1219.62 422.554C1219.4 420.414 1218.95 416.005 1216.75 415.219C1215.68 414.837 1215.41 414.179 1215.11 413.429C1214.75 412.548 1214.34 411.541 1212.52 410.707C1210.84 409.933 1208.94 410.151 1207.22 410.35C1205.52 410.547 1203.98 410.725 1202.98 409.89L1202.96 409.872C1200.97 408.205 1199.31 406.807 1196.28 409.615C1194.66 411.115 1194.25 412.835 1193.92 414.224C1193.62 415.443 1193.39 416.407 1192.46 416.743C1191.43 417.11 1190.45 416.203 1189.62 415.428C1188.81 414.681 1188.14 414.055 1187.68 414.81C1187.37 415.32 1187.17 416.072 1186.97 416.826C1186.58 418.341 1186.18 419.865 1184.83 419.45C1184.52 419.359 1184.14 419.237 1183.71 419.098C1181.32 418.334 1177.37 417.067 1175.2 417.722C1174.82 417.836 1174.37 417.942 1173.9 418.055C1171.19 418.705 1167.53 419.581 1169.83 423.552C1170.87 425.335 1172.18 426.564 1173.39 427.701C1175.34 429.533 1177.04 431.126 1176.96 434.412C1176.96 434.545 1176.96 434.674 1176.95 434.8C1176.95 434.944 1176.95 435.085 1176.95 435.221L1176.94 435.486C1176.94 435.656 1176.94 435.819 1176.94 435.977C1176.9 439.779 1176.89 440.07 1172.81 442.361C1170.29 443.793 1168.81 445.109 1167.34 446.422L1167.34 446.423C1166.82 446.881 1166.31 447.339 1165.75 447.802C1163.57 449.616 1162.05 450.815 1159.86 449.974C1159.36 449.781 1158.78 449.492 1158.16 449.182C1156.05 448.136 1153.46 446.848 1151.9 448.215C1151.01 448.986 1151.24 449.926 1151.45 450.776C1151.73 451.884 1151.96 452.839 1149.63 453.063C1145.51 453.46 1141.18 453.482 1140.35 450.775C1139.99 449.64 1140.38 448.573 1140.75 447.561C1141.26 446.158 1141.73 444.862 1140.14 443.64C1138.67 442.495 1137.47 443.399 1135.84 444.622C1134.44 445.673 1132.72 446.96 1130.25 447.38C1127.45 447.857 1125.89 448.439 1124.38 449.006C1123 449.519 1121.66 450.02 1119.47 450.419C1114.84 451.259 1112.13 453.808 1109.82 456.398C1108.1 458.322 1107.75 460.551 1107.45 462.431C1107.23 463.813 1107.05 465.007 1106.37 465.753C1104.73 467.488 1102.91 464.638 1101.47 461.463C1101.14 460.722 1100.82 459.878 1100.5 459.025C1099.44 456.223 1098.35 453.329 1096.49 453.71C1095.26 453.961 1095.33 455.262 1095.41 456.69C1095.49 458.103 1095.58 459.64 1094.42 460.407L1094.35 460.448C1091.98 462.005 1087.15 465.183 1086.83 462.189C1086.69 460.818 1087.15 459.551 1087.57 458.416C1088.08 457.051 1088.51 455.879 1087.72 454.949C1086.29 453.219 1084.14 452.638 1082.52 454.53C1081.95 455.192 1081.55 455.98 1081.18 456.728C1080.47 458.118 1079.84 459.371 1078.32 459.432C1077.68 459.458 1077.14 459.395 1076.67 459.341C1075.43 459.196 1074.71 459.113 1073.9 460.909C1072.79 463.41 1070.7 469.977 1074.07 468.995C1075.55 468.564 1077.03 467.471 1078.21 466.602C1079.73 465.489 1080.74 464.745 1080.59 466.237C1080.32 468.919 1078.69 473.311 1077.59 474.627C1077.19 475.091 1076.86 475.017 1076.48 474.932C1075.79 474.779 1074.92 474.585 1073.16 477.316C1070.41 481.552 1066.88 484.943 1064.24 486.276C1063.34 486.719 1062.21 487.049 1061.06 487.384C1058.82 488.036 1056.52 488.707 1055.76 490.276C1055.08 491.701 1054.88 492.499 1054.54 493.886L1054.54 493.887L1054.54 493.887C1054.31 494.808 1054.03 495.987 1053.49 497.78C1052.15 502.276 1050.5 504.96 1049.41 503.75C1048.86 503.143 1049.18 502.546 1049.66 501.648C1050.13 500.754 1050.77 499.563 1050.87 497.769C1050.94 496.361 1050.67 494.76 1050.41 493.252C1050.01 490.911 1049.66 488.795 1050.66 487.978C1051.2 487.549 1051.82 487.286 1052.44 487.02C1053.78 486.452 1055.14 485.873 1055.77 483.646C1056.07 482.545 1056.09 481.621 1056.11 480.826C1056.15 479.261 1056.18 478.202 1058.3 477.3C1061.05 476.126 1061.62 474.849 1062.68 472.466C1062.84 472.09 1063.02 471.685 1063.23 471.249C1063.87 469.855 1064.2 468.442 1064.5 467.124C1064.89 465.421 1065.24 463.874 1066.21 462.729C1066.67 462.189 1067.14 461.79 1067.56 461.424C1068.75 460.408 1069.63 459.645 1069.34 456.851C1069.23 455.798 1069.07 455.054 1068.96 454.478C1068.65 452.977 1068.58 452.626 1070.09 450.939C1071.42 449.484 1072.63 447.069 1073.81 444.705C1074.53 443.275 1075.24 441.864 1075.95 440.695C1076.47 439.855 1077.17 438.959 1077.93 437.995L1077.93 437.994C1079.96 435.396 1082.38 432.308 1082.58 428.51C1082.67 426.831 1082.83 425.379 1082.97 424.072C1083.27 421.324 1083.5 419.208 1082.87 416.935C1082.26 414.696 1080.93 414.351 1079.66 414.023C1079.03 413.859 1078.41 413.699 1077.91 413.309C1077.18 412.738 1077.56 412.148 1078.07 411.377C1078.6 410.567 1079.25 409.558 1078.88 408.165C1078.18 405.445 1075.81 402.884 1074.02 401.61C1073.52 401.256 1072.92 400.787 1072.29 400.295C1070.65 399.017 1068.81 397.578 1067.89 397.571C1066.74 397.552 1063.75 396.46 1063.31 394.908L1063.34 394.906L1063.3 394.594L1063.28 394.596C1063.27 394.315 1063.28 393.933 1063.3 393.497C1063.39 391.254 1063.53 387.567 1060.99 388.583C1059.42 389.203 1058.74 390.326 1058.24 391.159C1057.75 391.96 1057.43 392.493 1056.64 392.053C1056.08 391.745 1055.72 391.182 1055.34 390.615C1054.63 389.534 1053.92 388.438 1051.88 389.065C1050.22 389.58 1049.05 390.588 1047.91 391.572C1046.93 392.416 1045.97 393.242 1044.74 393.725C1043.58 394.178 1042.32 394.395 1041.07 394.609C1039.44 394.89 1037.82 395.167 1036.49 395.967C1035.77 396.399 1035.07 396.983 1034.44 397.664L1034.38 397.669C1032.97 399.173 1031.93 401.062 1031.98 402.346C1032.02 403.767 1030.06 404.6 1028.3 405.346L1028.3 405.346C1027.76 405.576 1027.24 405.799 1026.8 406.027C1024.94 406.995 1021.59 405.477 1022.89 403.221C1023.17 402.747 1023.6 402.127 1024.09 401.429C1024.71 400.535 1025.42 399.512 1026.01 398.501L1026.11 398.491C1027.2 396.571 1027.8 394.646 1026.42 393.621L1026.35 393.655C1023.62 391.655 1020.3 391.713 1018.29 393.642C1016.27 395.573 1014.67 394.78 1015.26 393.933C1015.86 393.087 1011.76 393.614 1010.71 394.109C1009.66 394.605 1003.64 396.92 1006.29 394.272C1007.4 393.159 1008.93 392.15 1010.36 391.212C1012.32 389.92 1014.08 388.765 1014.22 387.669C1014.24 387.498 1014.26 387.322 1014.28 387.143C1014.51 385.351 1014.78 383.247 1012.53 382.124C1010.84 381.31 1008.8 381.309 1006.79 381.308L1006.79 381.308C1005.82 381.307 1004.85 381.306 1003.94 381.215C1003.15 381.143 1002.38 380.903 1001.64 380.673C999.741 380.083 998.069 379.564 996.953 382.151C995.979 384.374 994.028 387.806 992.384 390.697C991.367 392.485 990.468 394.066 989.99 395.026C989.617 395.767 989.15 396.424 988.682 397.085C987.666 398.516 986.643 399.958 986.543 402.277L986.458 402.285L986.456 402.45L986.454 402.631C986.453 402.757 986.453 402.886 986.453 403.022C986.539 405.393 987.627 406.865 988.67 408.274C989.367 409.218 990.044 410.133 990.386 411.27C991.237 414.108 991.324 416.23 988.923 417.251C986.522 418.271 985.186 418.663 981.351 419.163C977.517 419.664 974.762 421.245 976.417 422.558C976.948 422.972 977.618 423.321 978.308 423.681C979.766 424.44 981.318 425.249 981.858 426.822C982.242 427.937 983.406 428.819 984.285 429.485C985.231 430.201 985.846 430.667 984.799 430.905C983.886 431.11 983.401 430.588 982.823 429.967C982.105 429.195 981.243 428.269 979.24 428.389L979.167 428.393C977.298 428.505 976.535 428.55 975.978 428.912C975.594 429.161 975.307 429.561 974.822 430.237L974.822 430.237C974.746 430.343 974.665 430.457 974.577 430.577L974.514 430.665C974.468 430.727 974.422 430.791 974.373 430.857C972.659 433.152 969.29 435.45 968.662 434.721C968.034 433.992 967.037 433.694 965.702 435.664C964.396 437.657 962.555 438.755 960.29 438.447C958.024 438.139 956.9 435.328 959.451 434.425C962.001 433.521 965.122 431.485 965.611 429.596C966.098 427.682 965.416 427.748 961.991 428.209C959.809 428.503 957.974 430.482 956.583 431.981L956.583 431.981C955.791 432.835 955.142 433.534 954.657 433.676C954.307 433.779 953.584 433.962 952.647 434.2C950.004 434.871 945.658 435.975 943.173 436.913C939.831 438.155 937.419 439.072 940.941 440.837C942.056 441.403 943.464 441.859 944.67 442.25C947.281 443.096 948.948 443.636 944.646 444.32C939.544 445.132 938.805 445.696 937.05 447.037C936.641 447.349 936.178 447.703 935.591 448.112C934.88 448.608 934.282 449.064 933.741 449.476C931.918 450.866 930.744 451.762 928.092 452.017C924.654 452.348 923.167 452.623 919.611 456.017C918.007 457.558 916.701 458.413 915.634 459.111C914.355 459.949 913.42 460.561 912.731 461.861C911.467 464.245 909.641 466.788 907.239 466.493C906.38 466.388 905.626 465.9 904.915 465.44C903.638 464.614 902.504 463.88 901.165 465.632C900.192 466.905 900.615 467.837 900.974 468.628C901.383 469.53 901.709 470.248 899.784 471.078C896.197 472.607 895.477 473.623 896.325 475.12C897.172 476.616 894.038 478.523 891.679 479.934C890.834 480.439 890.166 481.082 889.517 481.708C888.354 482.828 887.252 483.89 885.299 483.994C882.256 484.155 878.532 485.698 881.825 486.591C884.778 487.369 886.707 486.868 888.916 486.294C889.168 486.228 889.423 486.162 889.684 486.097C892.107 485.492 892.435 486.019 893.704 488.061C893.785 488.192 893.871 488.329 893.961 488.473C894.877 489.934 895.482 490.326 896.375 490.904C896.938 491.267 897.614 491.705 898.553 492.528C899.167 493.067 899.779 493.521 900.334 493.934C902.003 495.174 903.155 496.03 902.288 497.613C901.467 499.114 898.987 499.697 896.706 500.233L896.705 500.234C895.778 500.452 894.884 500.662 894.148 500.923C893.057 501.309 892.478 501.963 891.885 502.634C891.091 503.532 890.272 504.46 888.163 504.813C886.673 505.063 885.482 505.155 884.368 505.241C882.73 505.368 881.26 505.481 879.254 506.066C876.892 506.754 875.005 506.815 872.523 506.896C871.464 506.93 870.297 506.968 868.938 507.059C867.409 507.162 865.771 507.142 864.19 507.122L864.189 507.122C861.071 507.083 858.178 507.047 856.794 507.966L856.634 508.072C854.426 509.534 848.897 513.194 850.943 517.026C851.144 517.399 851.343 517.765 851.54 518.125C853.391 521.517 854.95 524.372 854.404 528.634C854.252 529.813 853.97 531.023 853.697 532.193L853.697 532.193L853.697 532.194L853.697 532.194L853.696 532.195L853.696 532.195L853.696 532.196L853.696 532.197C852.885 535.675 852.157 538.796 855.16 539.687C856.26 540.014 857.39 540.241 858.464 540.456C861.311 541.027 863.762 541.519 864.2 543.578C864.342 544.276 864.44 544.956 864.534 545.61C864.827 547.636 865.084 549.419 866.478 550.776C868.325 552.597 870.624 555.821 867.104 556.686C863.584 557.551 858.931 558.394 856.852 555.675C854.745 552.958 851.285 548.925 848.702 546.912C847.335 545.847 846.569 544.916 845.839 544.028C845.188 543.238 844.566 542.482 843.574 541.698C842.24 540.658 841.827 540.579 840.722 540.368C840.061 540.242 839.151 540.068 837.646 539.612C837.36 539.527 837.091 539.448 836.839 539.374L836.83 539.372C833.556 538.413 833.076 538.272 832.932 535.7C832.776 532.926 831.992 529.425 827.727 532.361C827.3 532.654 826.863 532.95 826.424 533.247C822.474 535.919 818.416 538.663 821.354 540.392C822.698 541.194 823.892 541.466 824.791 541.671C826.075 541.964 826.753 542.118 826.395 543.484C825.813 545.802 826.113 546.036 828.229 546.49C830.372 546.941 834.348 549.083 830.501 550.769C826.655 552.454 825.153 551.547 822.296 549.297C819.411 547.05 814.835 544.439 813.316 548.584C813.223 548.835 813.132 549.078 813.044 549.314C811.685 552.945 810.975 554.843 814.261 557.515C815.625 558.624 816.542 559.513 817.383 560.327C818.699 561.602 819.828 562.695 822.187 564.169C824.072 565.346 824.898 565.551 825.6 565.725C826.339 565.908 826.942 566.058 828.498 567.27C831.532 569.634 836.757 575.759 833.087 576.507C829.417 577.256 826.846 575.372 825.421 572.327C824.35 570.037 823.005 569.722 820.755 569.194L820.755 569.194L820.754 569.194L820.751 569.193C820.009 569.019 819.17 568.822 818.21 568.524C814.33 567.293 809.129 565.558 807.447 563.984C807.293 563.84 807.156 563.716 807.035 563.606C806.619 563.228 806.389 563.019 806.292 562.761C806.173 562.441 806.256 562.047 806.442 561.165C806.541 560.696 806.669 560.09 806.812 559.284C807.154 557.344 806.764 556.195 806.391 555.094C806.012 553.978 805.651 552.911 806.086 551.121C806.561 549.187 807.382 548.096 808.202 547.008C808.878 546.111 809.552 545.215 810.03 543.85C811.089 540.828 810.518 534.123 810.171 530.843C810.153 530.677 810.136 530.516 810.12 530.361L810.098 530.141C809.814 527.368 809.692 526.179 808.072 525.337C806.324 524.453 804.238 525.838 804.856 527.777C805.475 529.717 805.774 536.448 805.067 538.883C805.007 539.09 804.954 539.296 804.903 539.499C804.861 539.666 804.822 539.831 804.782 539.995C804.297 542.02 803.852 543.875 800.48 545.559C798.726 546.44 797.105 546.78 795.706 547.073C793.95 547.441 792.542 547.736 791.657 548.934C790.868 550.001 790.836 551.053 790.805 552.058C790.774 553.079 790.745 554.052 789.921 554.94C789.359 555.538 788.416 555.938 787.496 556.328C785.743 557.073 784.072 557.782 785.275 559.754C785.927 560.822 786.807 561.718 787.706 562.634C789.339 564.297 791.036 566.025 791.543 568.962C791.833 570.708 792.359 572.16 792.851 573.518L792.852 573.518C793.644 575.703 794.346 577.641 793.83 580.157C793.018 584.207 791.768 586.984 789.727 590.1C788.569 591.868 787.679 593.991 786.885 595.885L786.885 595.886C786.279 597.331 785.73 598.642 785.159 599.562C784.215 601.114 784.569 603.102 784.958 605.29C785.101 606.096 785.249 606.929 785.339 607.778C785.497 609.268 785.245 610.444 785.001 611.583L785.001 611.584C784.73 612.855 784.468 614.08 784.793 615.643C785.385 618.637 786.287 619.339 788.77 619.1C789.926 618.988 790.415 619.46 790.925 619.952C791.511 620.517 792.125 621.109 793.81 620.876C795.354 620.663 796.396 619.829 797.325 619.085C798.292 618.311 799.137 617.634 800.3 617.858C802.579 618.296 805.312 619.374 810.432 621.643C815.527 623.94 820.103 626.288 820.437 629.438C820.6 630.982 820.822 632.142 821.048 633.324C821.284 634.554 821.524 635.809 821.708 637.549C821.799 638.404 821.962 639.21 822.116 639.97C822.576 642.241 822.95 644.091 821.039 645.557C818.465 647.541 815.875 650.683 816.521 652.883C816.542 652.955 816.564 653.028 816.585 653.102C816.612 653.197 816.64 653.294 816.668 653.392C817.301 655.619 818.228 658.879 821.364 659.308C822.263 659.431 823.256 659.517 824.234 659.602L824.236 659.603C826.939 659.837 829.53 660.062 829.734 661.027C830.011 662.342 828.729 663.255 823.144 663.109C817.563 662.989 814.465 662.629 813.283 659.271C812.103 655.939 811.137 650.719 812.732 648.856C813.795 647.613 813.965 646.014 814.152 644.254C814.249 643.334 814.352 642.371 814.589 641.391C815.252 638.539 814.936 636.859 814.031 634.816C813.661 633.982 813.01 633.135 812.353 632.281C811.402 631.045 810.44 629.794 810.308 628.546C810.298 628.459 810.289 628.371 810.28 628.284C810.073 626.278 809.889 624.489 806.999 624.893C803.983 625.315 794.447 627.154 792.24 628.708C790.031 630.236 788.043 632.295 787.736 636.165C787.6 638.043 788.014 639.589 788.43 641.141C788.87 642.786 789.312 644.439 789.105 646.502C789.005 647.497 788.987 648.543 788.969 649.587C788.914 652.752 788.859 655.906 786.532 657.613C785.603 658.303 784.82 658.713 784.127 659.077C782.51 659.924 781.372 660.521 779.966 663.822C779.308 665.356 779.007 666.729 778.738 667.959L778.738 667.96C778.184 670.49 777.762 672.414 774.634 673.883C774.185 674.095 773.759 674.295 773.356 674.484C769.613 676.238 767.833 677.072 767.477 678.413C767.245 679.288 766.438 679.35 765.293 679.439C764.494 679.501 763.532 679.575 762.484 679.946C760.87 680.518 760.706 681.645 760.513 682.963C760.402 683.728 760.28 684.558 759.861 685.38C759.741 685.616 759.627 685.853 759.514 686.086C758.559 688.062 757.74 689.757 754.613 688.411C753.205 687.795 752.314 686.962 751.511 686.21C750.319 685.096 749.318 684.16 747.101 684.374C746.937 684.389 746.773 684.406 746.611 684.422L746.387 684.445L746.16 684.468L745.94 684.491C742.736 684.824 740.038 685.105 738.241 683.491C736.231 681.685 732.882 678.694 731.093 677.682C729.332 676.668 726.434 674.291 727.002 671.843C727.57 669.394 728.688 669.287 732.214 671.078C735.312 672.652 738.408 673.19 741.04 673.647L741.041 673.648C741.403 673.711 741.756 673.772 742.099 673.834C743.315 674.055 743.155 674.799 742.99 675.569C742.769 676.597 742.539 677.67 745.558 677.604C750.839 677.49 753.416 675.795 752.102 673.791C751.138 672.324 751.987 671.895 753.431 671.165L753.432 671.165C753.959 670.898 754.566 670.592 755.193 670.179C757.539 668.638 760.112 665.339 761.989 662.239C763.894 659.136 766.412 655.316 768.949 654.546C771.514 653.772 773.284 652.26 773.431 649.484C773.472 648.522 773.215 647.557 772.965 646.615C772.487 644.817 772.031 643.102 773.705 641.646C776.252 639.402 780.36 632.377 778.639 630.439C778.319 630.075 777.839 629.598 777.276 629.04C774.801 626.586 770.724 622.544 771.63 619.435C772.021 618.095 772.613 616.686 773.221 615.237L773.221 615.236L773.221 615.236C774.344 612.561 775.523 609.751 775.606 606.979C775.631 605.935 775.645 604.626 775.66 603.205C775.706 598.851 775.763 593.448 776.191 591.404L776.253 591.09C776.761 588.535 777.161 586.52 779.394 582.337C781.721 578.009 782.366 573.686 781.691 569.911C781.402 568.296 779.998 566.472 778.612 564.673C776.757 562.263 774.935 559.896 775.869 558.135C776.792 556.394 778.44 553.993 780.193 551.441L780.193 551.441C781.537 549.483 782.942 547.436 784.129 545.529C786.865 541.162 787.818 533.232 787.526 530.472C787.408 529.357 787.79 528.455 788.134 527.642C788.642 526.444 789.068 525.438 787.691 524.222C785.38 522.183 784.356 521.624 780.343 520.432C776.327 519.215 772.027 517.919 769.311 517.26C768.159 516.981 767.109 516.213 766.141 515.506C764.827 514.546 763.665 513.697 762.605 514.329C760.764 515.427 757.923 521.408 756.061 525.954C755.467 527.384 754.918 529.218 754.332 531.178C753.053 535.453 751.594 540.33 749.091 542.933C748.107 543.963 747.529 544.681 747.07 545.252L747.069 545.252L747.069 545.253C745.836 546.784 745.454 547.259 740.37 549.876C738.813 550.676 737.52 551.294 736.43 551.814L736.428 551.815C732.63 553.628 731.299 554.262 729.916 557.379C728.107 561.394 727.022 565.47 729.809 565.491C732.593 565.486 732.516 567.361 731.289 569.057C730.556 570.093 730.244 571.796 729.842 573.988L729.842 573.988C729.587 575.38 729.295 576.97 728.837 578.71C728.368 580.491 728.472 581.925 728.553 583.037C728.675 584.721 728.743 585.663 726.68 585.941C726.015 586.03 725.463 586.05 724.995 586.066C723.056 586.133 722.572 586.15 721.502 590.937C720.594 595.022 722.556 595.342 724.568 595.671C725.496 595.822 726.435 595.975 727.108 596.5C727.267 596.624 727.424 596.744 727.578 596.86L727.763 597C729.561 598.357 730.852 599.332 730.967 602.756C731.008 603.961 730.832 604.951 730.669 605.874C730.312 607.886 730.013 609.576 732.131 612.456C733.568 614.407 734.94 615.195 735.914 615.754C737.036 616.398 737.628 616.738 737.178 618.203C736.654 619.965 735.163 621.874 733.654 623.804C732.821 624.871 731.983 625.944 731.3 627.002C729.381 629.975 727.322 631.357 725.761 628.588C725.195 627.566 724.767 626.602 724.319 625.593C723.551 623.866 722.725 622.006 721.049 619.494C720.019 617.95 719.654 616.718 719.332 615.635C718.825 613.928 718.428 612.591 715.711 610.986C712.774 609.25 710.57 607.042 708.485 604.951L708.484 604.95L708.482 604.948L708.479 604.945C707.414 603.878 706.381 602.841 705.295 601.915C703.849 600.681 703.072 599.116 702.224 597.408C701.189 595.323 700.048 593.025 697.454 590.86C692.74 586.948 690.606 585.286 685.784 582.962C682.789 581.518 681.227 580.556 679.809 579.682C678.944 579.149 678.132 578.649 677.081 578.092C676.42 577.746 675.714 577.34 675.005 576.932C672.707 575.61 670.369 574.265 669.379 574.862C668.083 575.645 662.917 578.141 665.231 574.999C667.545 571.856 665.642 568.462 663.821 565.587C662.736 563.872 662.251 561.818 661.799 559.899C661.493 558.6 661.201 557.363 660.747 556.335C659.65 553.784 656.022 554.922 654.934 556.631C654.634 557.106 654.074 557.459 653.487 557.829C651.997 558.768 650.334 559.817 652.299 563.251C653.53 565.402 654.773 566.93 655.778 568.166C657.009 569.679 657.883 570.752 657.938 571.993C658.038 574.245 658.271 575.143 660.224 576.402C660.782 576.761 661.102 576.833 661.285 576.873C661.373 576.893 661.429 576.905 661.464 576.939C661.526 576.999 661.524 577.125 661.519 577.476C661.511 577.961 661.497 578.875 661.636 580.632C661.813 582.856 662.415 584.87 662.945 586.646C663.671 589.081 664.264 591.068 663.447 592.531C663.306 592.783 663.165 593.043 663.021 593.31L663.018 593.316C661.717 595.726 660.169 598.594 656.254 599.326C655.517 599.464 654.828 599.604 654.182 599.736C651.008 600.384 648.858 600.823 647.111 599.681C646.109 599.025 646.47 598.352 646.934 597.486C647.444 596.535 648.078 595.351 647.168 593.704C646.699 592.841 646.42 592.11 646.191 591.51L646.19 591.508L646.189 591.507C645.584 589.92 645.33 589.252 642.835 589.492C641.128 589.657 638.973 590.454 636.683 591.301L636.683 591.301C634.36 592.16 631.9 593.07 629.632 593.421C625.327 594.087 623.241 593.096 619.997 591.557L619.995 591.556L619.968 591.543L619.886 591.504C619.773 591.45 619.659 591.396 619.543 591.341C619.208 591.183 618.885 591.022 618.57 590.862C618.367 590.759 618.167 590.656 617.97 590.554C615.273 589.167 613.026 588.01 608.484 589.223C606.183 589.836 604.901 591.049 603.818 592.073C602.353 593.459 601.254 594.499 598.488 593.237C596.859 592.494 594.662 591.975 592.629 591.494C588.661 590.556 585.317 589.766 588.038 587.747C590.254 586.103 592.029 585.966 593.292 585.868C594.374 585.784 595.079 585.73 595.36 584.78C595.55 584.14 595.647 583.254 595.75 582.307C595.979 580.212 596.241 577.821 597.613 577.145C599.604 576.164 602.916 574.635 604.403 574.361C605.89 574.086 599.498 571.256 596.469 571.548C596.039 571.589 595.558 571.625 595.043 571.663C591.93 571.894 587.579 572.218 585.803 574.442C584.982 575.459 584.675 576.89 584.385 578.237C583.935 580.329 583.53 582.216 581.313 582.029C579.536 581.88 579.585 580.891 579.638 579.806C579.695 578.667 579.757 577.422 577.714 576.931C576.027 576.537 574.553 576.523 573.359 576.511C571.732 576.496 570.624 576.485 570.204 575.524C569.476 573.858 567.66 572.586 565.314 573.864C564.472 574.319 563.573 574.898 562.697 575.463C561.106 576.489 559.589 577.467 558.62 577.56C558.248 577.596 557.391 577.834 556.281 578.143L556.281 578.143C552.92 579.076 547.248 580.652 545.726 579.197C543.702 577.261 541.79 576.13 541.41 577.745C541.379 577.881 541.351 578.011 541.325 578.135C541.039 579.504 540.913 580.108 537.168 579.6C535.832 579.428 534.589 579.004 533.482 578.627C531.208 577.852 529.515 577.276 528.802 579.485C527.744 582.77 526.684 584.477 523.549 587.672C522.874 588.366 522.293 589.039 521.765 589.652L521.763 589.655L521.761 589.657L521.761 589.657C519.84 591.886 518.603 593.321 515.968 592.111C514.858 591.601 513.333 591.32 511.783 591.035C508.642 590.457 505.401 589.861 505.314 587.298C505.261 585.731 505.629 584.608 505.962 583.595C506.441 582.133 506.846 580.899 505.802 578.886C505.356 578.026 504.827 577.19 504.319 576.388L504.318 576.388L504.318 576.388L504.318 576.387L504.318 576.387L504.317 576.387L504.317 576.386L504.317 576.386C502.813 574.014 501.497 571.937 503.084 570.389L503.231 570.247C505.316 568.235 507.064 566.548 510.637 565.69C512.592 565.22 514.417 566.125 516.218 567.017C517.784 567.794 519.332 568.561 520.931 568.407C524.37 568.076 525.591 563.723 525.203 560.052C525.093 559.016 525.111 557.713 525.131 556.315C525.18 552.76 525.239 548.587 523.227 546.591C521.978 545.352 519.881 544.429 517.789 543.508C515.186 542.363 512.589 541.22 511.64 539.474C511.287 538.825 510.923 538.076 510.556 537.321C509.142 534.414 507.692 531.434 506.743 533.843C505.865 536.074 506.549 538.296 507.198 540.402C507.432 541.162 507.661 541.906 507.811 542.631C508.376 545.365 508.832 548.372 505.549 551.476C504.563 552.409 503.497 553.408 502.419 554.418L502.412 554.426C499.905 556.776 497.338 559.182 495.577 560.933C494.807 561.699 493.758 562.28 492.758 562.835C490.488 564.094 488.464 565.216 490.486 568.051C493.427 572.135 492.999 575.911 490.454 579.47C489.21 581.209 487.259 582.539 485.432 583.784C483.518 585.089 481.74 586.301 481.051 587.793L481.002 587.899C479.625 590.828 477.416 595.529 475.901 593.05C474.395 590.539 473.629 588.771 474.252 586.581C474.847 584.393 474.364 581.125 471.687 579.542C469.639 578.311 468.917 577.276 468.122 576.136C467.876 575.784 467.624 575.423 467.324 575.043C466.478 573.971 465.353 574.401 463.737 575.018C462.921 575.329 461.979 575.689 460.884 575.926C460.032 576.112 459.074 576.39 458.061 576.684C455.199 577.515 451.893 578.475 449.26 577.835C449.051 577.786 448.852 577.738 448.662 577.691C448.353 577.614 448.065 577.541 447.795 577.472C445.38 576.857 444.381 576.603 442.027 577.743C439.577 578.905 439.379 578.933 435.643 579.461L435.622 579.464L435.556 579.473C435.28 579.513 434.984 579.554 434.668 579.6C434.427 579.634 434.175 579.67 433.909 579.708C433.366 579.787 432.875 579.852 432.429 579.912C428.377 580.453 428.121 580.487 427.108 584.993C426.652 587.036 426.391 589.034 426.151 590.873L426.151 590.873L426.151 590.874C425.801 593.56 425.495 595.908 424.688 597.562C423.329 600.35 420.128 603.183 418.309 601.622C417.697 601.106 417.102 600.868 416.504 600.629C415.295 600.145 414.07 599.655 412.649 596.854C411.915 595.395 411.53 594.193 411.207 593.185C410.608 591.316 410.223 590.114 408.225 589.179C406.98 588.596 405.562 588.512 404.454 588.447C402.827 588.352 401.869 588.296 403.117 586.751C405.213 584.156 405.225 582.971 404.47 581.044C404.125 580.164 404.102 579.06 404.078 577.917C404.049 576.56 404.02 575.147 403.448 573.988C402.392 571.828 400.244 568.721 398.13 569.582C397.392 569.879 396.869 570.315 396.382 570.721C395.454 571.494 394.659 572.156 392.769 571.545C389.889 570.639 388.567 572.476 388.708 575.119C388.756 576.015 388.609 577.187 388.449 578.458C388.136 580.936 387.776 583.792 388.727 585.717C389.531 587.377 390.793 588.217 391.974 589.003C392.866 589.596 393.712 590.159 394.278 591.022C395.158 592.363 394.88 592.685 394.176 593.501C393.828 593.905 393.375 594.429 392.907 595.257C392.383 596.194 392.269 597.182 392.17 598.043C392.001 599.507 391.875 600.607 389.847 600.471C389.667 600.459 389.493 600.447 389.324 600.436C386.468 600.25 385.09 600.16 382.419 598.53C379.589 596.803 376.882 593.618 376.453 590.871C376.285 589.794 376.348 588.695 376.417 587.492L376.417 587.49L376.417 587.49L376.417 587.49L376.417 587.489C376.524 585.625 376.645 583.512 375.944 580.846C375.292 578.367 374.007 577.47 372.861 576.669C371.979 576.053 371.179 575.495 370.815 574.317L370.802 574.275C369.971 571.59 369.379 569.679 372.889 566.305C376.417 562.914 377.48 561.234 378.372 557.676C378.544 556.976 378.672 556.217 378.803 555.435C379.336 552.271 379.935 548.716 383.785 547.08C384.6 546.728 385.345 546.433 386.029 546.162C389.352 544.849 391.258 544.096 392.901 539.968C394.883 534.99 394.472 532.399 393.098 528.797C391.897 525.599 391.911 525.559 392.606 523.627C392.688 523.396 392.781 523.139 392.882 522.847C393.498 521.065 392.972 519.449 392.455 517.858C392.175 516.995 391.897 516.14 391.805 515.27C391.724 514.51 391.495 513.697 391.267 512.889C390.753 511.067 390.246 509.268 391.465 508.148C393.251 506.529 393.19 503.353 392.981 501.374C392.771 499.395 395.136 500.64 395.711 502.163C396.286 503.686 396.904 505.625 396.719 509.089C396.534 512.552 396.854 515.573 398.779 516.834C399.865 517.534 400.066 518.489 400.329 519.741C400.539 520.74 400.789 521.928 401.561 523.326C403.273 526.475 405.015 530.437 405.763 532.548C407.448 537.278 408.84 539.222 413.352 543.312C416.284 545.969 418.188 550.013 419.638 553.095C420.42 554.756 421.07 556.138 421.679 556.871C423.417 558.966 431.873 565.937 444.739 565.33C457.574 564.698 465.727 559.941 467.204 557.747C467.942 556.65 468.137 555.105 468.319 553.663C468.501 552.223 468.67 550.885 469.355 550.201C469.933 549.625 470.113 548.709 470.3 547.756C470.556 546.447 470.827 545.069 472.161 544.408C474.651 543.175 472.837 540.711 471.443 538.818C470.99 538.202 470.581 537.647 470.38 537.214C469.949 536.29 470.331 535.375 470.754 534.36C471.138 533.44 471.556 532.437 471.433 531.273C471.174 528.826 470.369 526.957 468.175 526.537C467.045 526.334 466.726 523.616 466.417 520.989C466.126 518.518 465.845 516.128 464.908 515.988C462.713 515.65 462.614 513.416 462.459 509.893C462.436 509.369 462.412 508.815 462.379 508.236C462.171 504.582 460.705 499.852 459.629 496.382L459.627 496.377C459.379 495.575 459.151 494.841 458.964 494.203C458.74 493.436 458.47 492.351 458.162 491.114C457.103 486.865 455.598 480.824 453.986 479.716C453.896 479.655 453.802 479.59 453.703 479.522C451.495 478.009 447.02 474.942 446.566 472.645C446.089 470.218 443.648 466.166 442.399 467.917C441.871 468.652 439.998 470.752 439.175 470.016C438.832 469.721 439.496 468.408 440.22 466.978L440.22 466.978C440.773 465.885 441.361 464.723 441.56 463.894C441.82 462.768 441.133 462.1 440.21 461.203C439.589 460.6 438.862 459.893 438.245 458.874C437.429 457.565 437.087 456.209 437.166 455.269L437.31 455.255C437.429 454.56 437.83 454.18 438.512 454.377L438.482 454.353C438.796 454.455 439.124 454.686 439.463 455.022L439.464 455.022C439.771 455.316 440.084 455.677 440.407 456.05C441.478 457.285 442.66 458.648 444.066 458.129L444.039 458.132C445.869 457.456 446.25 456.367 445.386 454.451L445.385 454.451C445.171 453.998 444.925 453.496 444.565 452.952C443.741 451.642 443.787 450.206 443.825 449.013C443.871 447.563 443.905 446.472 442.356 446.405C441.008 446.332 439.397 447.095 437.885 447.812L437.884 447.812C436.255 448.584 434.741 449.301 433.794 448.86C432.969 448.47 432.719 447.163 432.5 446.019C432.241 444.665 432.025 443.538 430.954 444.426C430.295 444.971 429.692 445.724 429.127 446.43C427.993 447.846 427.008 449.076 426.02 448.084C425.366 447.427 424.882 446.519 424.417 445.647C423.301 443.556 422.294 441.669 419.324 443.941C416.976 445.719 413.062 442.861 412.108 441.927C411.155 440.993 408.493 442.407 406.142 444.685C404.387 446.386 402.657 445.562 401.379 444.953C400.946 444.747 400.565 444.566 400.252 444.516C397.395 444.048 396.637 447.963 396.289 449.763C396.23 450.067 396.183 450.31 396.14 450.462C395.994 450.929 394.785 451.216 393.423 451.54C391.703 451.949 389.738 452.416 389.363 453.377L389.303 453.527C388.674 455.101 387.825 457.227 388.619 459.682L388.598 459.684C388.598 459.684 388.644 459.864 388.68 459.939C389.819 462.68 388.689 469.72 388.154 473.057L388.144 473.116C387.971 474.163 387.957 474.977 387.946 475.646C387.918 477.248 387.905 478.009 385.746 479.108C384.267 479.86 381.854 480.113 379.348 480.376C376.665 480.657 373.875 480.95 372.006 481.878C368.392 483.673 363.058 488.5 360.166 497.643C357.274 506.786 355.497 509.797 353.261 511.854C352.107 512.916 350.674 513.156 349.154 513.411C347.731 513.649 346.231 513.9 344.812 514.851C341.85 516.82 340.451 518.454 339.807 520.699C339.438 521.983 338.271 522.191 337.008 522.417C336.062 522.586 335.063 522.765 334.305 523.412C333.032 524.499 333.169 526.919 333.273 528.757L333.273 528.757C333.313 529.476 333.349 530.106 333.293 530.532C333.191 531.319 332.342 531.69 331.379 532.112C330.482 532.505 329.485 532.941 328.897 533.797C327.682 535.597 327.366 539.126 327.689 540.62C327.731 540.812 327.788 541.026 327.848 541.255C328.25 542.774 328.828 544.961 326.485 545.918C325.532 546.307 323.834 546.496 322.035 546.695C318.746 547.06 315.119 547.462 315.089 549.199C315.059 550.297 315.371 552.417 315.716 554.762C316.217 558.164 316.788 562.039 316.484 563.952C316.392 564.505 316.301 565.164 316.202 565.89C315.719 569.412 315.023 574.482 312.888 576.345C310.314 578.592 298.71 581.735 296.117 581.985C295.085 582.085 292.25 582.545 288.839 583.1L288.829 583.101L288.826 583.102L288.825 583.102L288.822 583.103L288.818 583.103L288.812 583.104L288.811 583.104C283.663 583.941 277.213 584.99 273.672 585.331C270.336 585.652 265.069 585.839 260.497 586.001C256.991 586.126 253.895 586.236 252.391 586.381C251.456 586.471 250.011 586.562 248.383 586.665C243.972 586.944 238.219 587.308 237.643 587.959C236.858 588.876 240.242 590.891 242.479 590.676C244.717 590.46 248.279 590.775 249.457 592.003C250.249 592.83 249.561 593.119 248.323 593.641C247.722 593.895 246.991 594.203 246.236 594.654C243.931 596.06 242.625 597.001 242.87 599.318C243.115 601.636 243.927 605.924 245.784 607.06C245.939 607.155 246.093 607.248 246.246 607.34C247.959 608.371 249.509 609.303 249.665 612.21C249.706 612.981 249.789 613.865 249.872 614.75C250.129 617.504 250.387 620.262 249.399 619.601C248.363 618.907 246.515 615.97 245.173 613.836C244.825 613.282 244.51 612.782 244.253 612.389C243.838 611.763 243.623 611.004 243.417 610.28C243.007 608.831 242.636 607.521 240.779 607.7C240.104 607.765 239.341 607.888 238.557 608.015C236.111 608.41 233.45 608.839 232.532 607.653C231.318 606.086 229.694 605.585 228.63 605.688C228.14 605.735 227.853 605.161 227.511 604.478C227.111 603.676 226.635 602.724 225.668 602.448C223.852 601.966 222.08 603.451 222.309 605.613C222.537 607.774 221.688 613.037 219.562 612.742C217.435 612.447 211.744 611.812 209.87 612.334C209.401 612.465 208.725 612.51 207.942 612.563L207.941 612.563L207.941 612.563L207.941 612.563L207.94 612.563L207.94 612.563L207.94 612.563L207.939 612.563C205.593 612.72 202.29 612.941 200.744 615.712C198.684 619.435 196.362 622.5 193.572 624.268C192.051 625.231 191.901 625.914 191.705 626.807C191.541 627.552 191.345 628.443 190.294 629.765C188.225 632.365 187.424 632.547 184.58 633.194L184.579 633.194L184.568 633.197C184.439 633.226 184.305 633.256 184.168 633.288C183.952 633.337 183.726 633.389 183.488 633.445C179.973 634.25 179.748 635.768 179.308 638.719C179.277 638.932 179.244 639.153 179.209 639.381C178.685 642.772 177.02 645.274 174.285 647.562C171.713 649.688 171.589 650.116 170.827 652.741C170.778 652.91 170.727 653.088 170.672 653.276C170.507 653.837 170.348 654.435 170.183 655.054C169.433 657.868 168.57 661.108 166.623 663.214C165.863 664.045 164.928 664.631 164.07 665.168L164.07 665.168C162.278 666.29 160.828 667.199 162.041 669.679C162.577 670.774 162.968 671.824 163.331 672.801C164.184 675.094 164.886 676.978 166.954 678.07C169.931 679.625 169.821 681.976 168.339 684.644C167.272 686.543 168.553 687.359 170.359 688.509C171.065 688.96 171.852 689.461 172.61 690.098C173.248 690.63 173.991 691.124 174.745 691.626C177.17 693.24 179.71 694.931 179.253 698.165C178.713 701.989 176.926 704.842 175.043 707.848L175.035 707.861L175.02 707.885C174.936 708.019 174.852 708.154 174.767 708.289C174.705 708.388 174.643 708.487 174.581 708.587C174.53 708.67 174.478 708.752 174.427 708.835C173.845 709.775 173.392 710.665 172.978 711.475C171.903 713.583 171.099 715.16 169.008 715.723C166.113 716.501 164.414 720.505 163.96 722.732C163.828 723.382 163.435 724.571 162.955 726.024C161.792 729.545 160.117 734.614 160.402 737.305C160.804 741.106 161.402 746.757 162.987 748.445C163.132 748.601 163.274 748.748 163.41 748.889L163.411 748.89C164.754 750.283 165.526 751.085 163.851 753.228C163.075 754.221 163.174 755.6 163.269 756.941C163.401 758.79 163.529 760.57 161.356 761.175C157.605 762.194 151.374 762.978 149.718 760.613C149.17 759.837 148.782 758.748 148.379 757.615C147.567 755.33 146.69 752.866 144.303 752.428C141.873 751.982 141.211 753.767 140.335 756.132C139.924 757.24 139.466 758.476 138.757 759.67C137.737 761.384 136.1 763.224 134.489 765.034L134.488 765.034C132.586 767.172 130.72 769.268 129.955 771.065C128.542 774.384 131.654 780.607 134.972 780.445C136.162 780.387 137.316 779.992 138.36 779.633C140.23 778.992 141.751 778.47 142.502 780.22C142.757 780.813 142.958 781.53 143.174 782.299C143.951 785.07 144.919 788.52 149.25 789.276C150.197 789.441 151.109 789.562 151.962 789.674L151.965 789.675C156.093 790.219 158.843 790.582 157.574 794.997C156.908 797.314 156.72 799.461 156.553 801.355C156.336 803.819 156.157 805.858 155.015 807.291C153.908 808.681 152.718 808.269 151.55 807.864C150.587 807.531 149.639 807.203 148.766 807.893C146.832 809.42 144.825 813.638 144.256 815.034C143.883 815.993 144.958 817.447 146.354 819.333L146.354 819.333C146.987 820.19 147.686 821.135 148.346 822.163C150.462 825.484 154.56 832.954 152.17 836.683C151.489 837.742 150.646 838.724 149.853 839.647C147.833 841.998 146.135 843.975 148.241 845.925C151.15 848.67 154.923 852.804 154.919 854.33C154.913 855.83 165.383 862.029 167.88 862.446C170.097 862.811 171.402 866.289 171.785 869.382L171.862 869.375C172.323 872.58 174.008 876.678 177.014 879.978C177.609 880.632 178.234 881.308 178.868 881.994C181.825 885.193 184.983 888.609 186.255 890.977C187.8 893.853 189.379 898.883 189.952 901.169C190.103 901.742 190.644 902.395 191.236 903.11C193.002 905.241 195.22 907.917 188.859 910.638C188.101 910.96 187.335 910.974 186.421 910.991C184.917 911.019 183.014 911.055 180.094 912.482C179.097 912.973 180.282 914.136 181.501 915.333C182.877 916.685 184.298 918.08 182.671 918.599C181.194 919.058 179.829 918.232 178.56 917.464C177.193 916.636 175.937 915.876 174.768 916.861C173.578 917.865 173.963 918.989 174.408 920.29C174.805 921.451 175.251 922.753 174.666 924.236C173.428 927.38 171.655 928.866 169.386 930.61C168.639 931.175 168.099 932.084 167.581 932.954C166.523 934.732 165.561 936.35 163.132 934.553C161.883 933.63 160.789 932.395 159.687 931.151C157.595 928.789 155.476 926.397 152.226 926.056C150.021 925.824 148.459 926.122 147.129 926.377C145.464 926.695 144.16 926.944 142.406 926.002C139.471 924.426 136.126 929.095 134.2 931.783L134.199 931.783C134.054 931.987 133.916 932.179 133.787 932.356C131.959 934.873 132.798 936.291 134.944 936.768C135.84 936.957 137.187 937.309 138.634 937.688L138.636 937.688L138.636 937.688C140.649 938.215 142.856 938.791 144.31 939.049C146.808 939.466 148.657 943.654 146.651 944.505C145.438 945.02 142.621 944.408 140.199 943.882C138.619 943.538 137.206 943.232 136.517 943.298C134.77 943.466 133.116 942.942 131.483 942.099C130.142 941.413 129.066 941.149 127.795 942.165C126.525 943.182 126.066 943.016 124.072 941.893C123.435 941.533 122.756 941.005 122.058 940.462C120.575 939.307 119.003 938.084 117.541 938.261C115.363 938.523 114.25 939.472 114.275 942.31C114.287 943.668 115.273 945.179 116.281 946.721C117.38 948.403 118.503 950.122 118.414 951.723C118.351 952.844 118.526 953.988 118.672 954.936C118.924 956.583 119.086 957.641 117.755 956.968C116.895 956.533 116.183 955.835 115.487 955.153C114.487 954.173 113.521 953.226 112.195 953.137C110.263 953.011 108.526 954.343 107.557 955.085C107.384 955.218 107.236 955.332 107.115 955.415C106.292 955.968 103.083 956.908 101.821 956.188C101.619 956.075 101.416 955.939 101.213 955.802L101.212 955.801C100.12 955.066 98.9853 954.302 97.5481 956.968C96.8756 958.215 96.9264 960.059 96.9697 961.632C97.0363 964.048 97.0852 965.824 94.468 963.814C92.3915 962.219 90.4963 959.871 88.8488 957.83C87.0681 955.625 85.5767 953.777 84.458 953.625C82.3316 953.33 82.3693 955.51 82.5621 957.333C82.6796 958.443 81.7238 958.602 80.7011 958.773L80.701 958.773L80.7009 958.773L80.7008 958.773L80.7007 958.773L80.7006 958.773L80.7006 958.773L80.7005 958.773C80.0453 958.882 79.3629 958.995 78.9178 959.367C78.1118 960.04 78.5421 960.672 79.4027 961.938C79.7591 962.462 80.1894 963.094 80.6362 963.883C81.8032 965.944 81.7961 967.733 81.7882 969.726C81.7858 970.338 81.7833 970.97 81.8147 971.635C81.9039 973.519 83.5015 974.966 85.1494 976.459C85.9745 977.206 86.8122 977.965 87.4795 978.796C88.5161 980.068 88.44 980.835 88.3292 981.953C88.2232 983.022 88.0854 984.412 88.8575 986.87C89.5768 989.16 90.9228 990.457 92.2487 991.735C93.8347 993.264 95.392 994.765 95.8143 997.905C96.101 1000.04 96.423 1002.26 96.7399 1004.44C97.283 1008.19 97.811 1011.83 98.1207 1014.75C98.6111 1019.39 99.9467 1026.02 100.402 1027.97C101.363 1027.43 102.143 1026.85 102.817 1026.34C104.458 1025.11 105.471 1024.35 106.952 1025.79C109.042 1027.83 114.114 1033.81 115.662 1037.24C116.5 1039.13 117.772 1040.36 119.032 1041.59C120.058 1042.58 121.077 1043.57 121.848 1044.9C123.568 1047.86 125.851 1049.64 128.626 1051.38C131.373 1053.11 140.449 1059.15 142.411 1062.33C143.329 1063.81 143.524 1065.65 143.701 1067.33C143.903 1069.23 144.082 1070.93 145.273 1071.66C147.509 1072.99 150.427 1076.08 149.802 1079.03C149.177 1081.99 151.234 1086.05 155.699 1086.04L155.995 1086.04L156.208 1086.04C160.557 1086.06 165.765 1086.07 166.056 1088.83C166.216 1090.34 167.228 1090.71 168.508 1091.19C169.658 1091.62 171.024 1092.12 172.186 1093.61C173.284 1095.01 173.493 1096.15 173.669 1097.1C173.882 1098.26 174.047 1099.16 175.672 1099.98C178.642 1101.48 179.456 1104.74 177.52 1106.51C175.609 1108.24 174.034 1111.08 176.342 1113.09C178.65 1115.1 181.392 1118.86 182.159 1121.68C182.548 1123.11 183.511 1123.74 184.531 1124.41C185.521 1125.06 186.564 1125.74 187.183 1127.22C187.473 1127.92 187.756 1128.55 188.028 1129.16C188.934 1131.19 189.713 1132.93 190.169 1135.64C190.412 1137.02 190.169 1137.93 189.948 1138.75C189.607 1140.03 189.322 1141.09 190.987 1143.38C191.764 1144.44 192.385 1145.45 192.945 1146.36L192.946 1146.36C194.362 1148.67 195.397 1150.35 197.613 1150.76C199.16 1151.06 199.693 1150.56 200.36 1149.94C201.029 1149.31 201.831 1148.56 203.92 1148.36C205.776 1148.18 207.274 1148.13 208.586 1148.08C210.228 1148.02 211.579 1147.97 212.976 1147.7C215.491 1147.25 220.037 1145.92 219.803 1143.7C219.679 1142.54 219.117 1137.8 218.586 1133.33C218.112 1129.34 217.662 1125.55 217.574 1124.72C217.386 1122.95 216.332 1108.55 217.048 1106.46C217.766 1104.39 222.756 1096.31 225.747 1093.58C228.549 1091.01 228.059 1086.6 227.737 1083.7L227.736 1083.69C227.714 1083.5 227.694 1083.31 227.675 1083.13C227.565 1082.1 226.688 1080.75 225.7 1079.24C223.955 1076.57 221.865 1073.37 223.047 1070.4C224.651 1066.37 227.267 1065.27 229.957 1064.13L229.957 1064.13L229.958 1064.13C230.372 1063.95 230.789 1063.78 231.203 1063.59C234.335 1062.18 243.433 1057.49 245.714 1054.83C247.996 1052.16 250.963 1049.19 254.93 1051.26C258.898 1053.32 263.697 1054.65 266.122 1053.07C267.534 1052.15 268.212 1052.69 269.069 1053.37C269.667 1053.85 270.352 1054.39 271.435 1054.56C272.81 1054.77 273.192 1054.16 273.649 1053.43C274.057 1052.78 274.525 1052.03 275.818 1051.69C276.748 1051.45 278.16 1051.42 279.627 1051.39C282.473 1051.33 285.526 1051.27 285.663 1049.64C285.769 1048.38 284.767 1047.09 283.723 1045.76C282.73 1044.49 281.698 1043.17 281.55 1041.78C281.49 1041.21 281.398 1040.59 281.305 1039.97C280.93 1037.47 280.553 1034.94 282.311 1035.68C282.997 1035.96 283.755 1036.69 284.509 1037.42C286.161 1039.02 287.789 1040.6 288.576 1037.31C289.512 1033.31 288.56 1025.29 287.906 1019.78C287.777 1018.69 287.66 1017.71 287.571 1016.87C287.031 1011.76 282.661 1007.97 280.129 1006.19C279.453 1005.72 278.433 1005.32 277.364 1004.89C274.435 1003.73 271.137 1002.41 273.55 999.251C273.642 999.129 273.734 999.009 273.824 998.89C273.919 998.767 274.013 998.645 274.105 998.524C274.222 998.373 274.338 998.223 274.451 998.076C277.23 994.479 278.869 992.358 275.988 989.205C275.32 988.474 274.642 987.841 274.023 987.264C271.694 985.09 270.198 983.695 273.221 980.765C277.046 977.056 282.526 973.609 286.122 972.158C288.723 971.108 288.881 967.828 289.014 965.056C289.065 963.996 289.113 963.011 289.291 962.252C289.938 959.506 291.143 957.602 295.443 956.293C299.743 954.985 302.98 952.227 304.621 950.28C304.864 949.996 305.125 949.654 305.405 949.287C307.046 947.136 309.321 944.153 312.246 947.31C313.731 948.912 314.007 952.767 314.286 956.65C314.65 961.722 315.017 966.843 318.084 967.054C323.499 967.426 327.024 965.298 327.795 961.647C327.937 960.975 328.046 960.217 328.161 959.424L328.161 959.423C328.669 955.903 329.276 951.693 333.263 951.309C334.228 951.216 335.229 951.145 336.235 951.074C340.323 950.785 344.483 950.491 346.549 948.688C348.321 947.141 349.841 947.413 352.302 947.854C353.416 948.054 354.723 948.288 356.333 948.403C360.11 948.689 362.683 947.091 365.008 945.646L365.009 945.645L365.013 945.643C365.885 945.101 366.723 944.581 367.576 944.19C370.708 942.784 374.952 943.033 377.818 945.887C378.974 947.038 379.415 948.982 379.829 950.804C380.44 953.498 380.991 955.926 383.703 955.131C385.548 954.59 386.84 953.587 387.9 952.764C389.45 951.56 390.503 950.743 392.063 952.327C393.051 953.322 393.986 954.768 394.936 956.239C396.507 958.669 398.121 961.166 400.096 961.811C403.238 962.85 410.48 969.281 410.948 973.707C411.235 976.419 413.022 979.233 414.407 981.413C415.283 982.792 415.998 983.917 416.071 984.603C416.157 985.42 415.513 986.88 414.838 988.407C414.052 990.188 413.225 992.06 413.47 993.113C413.925 995.068 419.059 992.785 420.46 990.651C420.697 990.289 420.977 989.807 421.286 989.275C422.801 986.666 425.026 982.831 426.511 985.833C427.121 987.065 427.583 988.962 428.069 990.958C429.01 994.818 430.04 999.048 432.401 999.549C435.982 1000.31 440.948 998.515 443.566 996.685C443.967 996.409 444.324 996.142 444.658 995.893C446.511 994.512 447.637 993.673 451.31 994.834C452.805 995.303 454.335 995.324 455.728 995.343C458.399 995.379 460.571 995.409 461.052 998.578C461.785 1003.43 464.731 1004.69 466.957 1003.59C467.633 1003.25 468.343 1002.64 469.076 1002.02C470.759 1000.58 472.563 999.042 474.342 1000.43C475.021 1000.96 475.732 1001.34 476.431 1001.71C478.362 1002.75 480.192 1003.74 480.946 1007.6C480.994 1007.85 481.041 1008.1 481.088 1008.34L481.147 1008.66L481.211 1009C482.088 1013.67 482.827 1017.61 486.554 1018.66C489.782 1019.58 490.914 1021.26 491.772 1022.54C492.002 1022.89 492.212 1023.2 492.438 1023.46C493.431 1024.61 494.622 1023.82 497.594 1021.82L497.973 1021.57C498.082 1021.5 498.193 1021.42 498.306 1021.35C499.397 1020.62 500.314 1019.78 501.112 1019.04C502.878 1017.42 504.058 1016.33 505.228 1018.23C506.922 1020.96 510.346 1024.66 515.054 1024.86C519.762 1025.07 525.108 1024.79 527.172 1022.14C527.453 1021.78 527.778 1021.39 528.123 1020.97L528.124 1020.97C530.306 1018.33 533.257 1014.75 530.632 1012.89C529.583 1012.15 528.252 1011.62 526.942 1011.1L526.941 1011.1C524.455 1010.1 522.047 1009.14 521.802 1006.83C521.448 1003.48 520.364 1003 518.171 1002.02C518.043 1001.97 517.91 1001.91 517.774 1001.85C516.078 1001.09 516.065 1000.37 516.04 999.076C516.029 998.49 516.016 997.786 515.845 996.904C515.639 995.838 514.189 994.482 512.855 993.235C510.634 991.158 508.738 989.385 513.464 989.768C521.027 990.381 531.02 988.419 530.47 984.79C530.24 983.23 529.908 982.068 529.644 981.141C529.01 978.923 528.759 978.043 531.193 976.251C531.626 975.931 532.033 975.621 532.422 975.325C535.157 973.244 536.927 971.896 539.528 973.212C539.91 973.405 540.379 973.653 540.909 973.932C544.494 975.824 550.839 979.173 551.614 976.967C552.504 974.435 550.031 970.859 547.549 969.546C546.808 969.155 545.697 968.778 544.552 968.39C541.857 967.476 538.974 966.498 540.298 965.115C541.071 964.308 542.657 963.763 544.12 963.26C546.228 962.535 548.078 961.898 546.86 960.696C545.967 959.826 544.084 959.259 542.405 958.753C540.155 958.075 538.273 957.508 539.632 956.473C542.007 954.692 543.457 952.764 543.223 950.551C542.989 948.338 545.679 947.184 548.092 947.846C549.131 948.131 550.779 948.855 552.587 949.649C554.978 950.699 557.65 951.873 559.565 952.317C560.553 952.547 561.446 952.844 562.357 953.148C564.546 953.878 566.839 954.642 570.803 954.575C572.3 954.551 573.843 954.504 575.395 954.458C579.667 954.33 584.009 954.2 587.64 954.506C589.383 954.653 590.991 954.617 592.484 954.584L592.484 954.584C595.232 954.523 597.591 954.471 599.691 955.581C602.902 957.271 606.801 958.684 606.962 955.775C607.123 952.866 610.1 952.343 613.176 952.493C614.197 952.545 615.763 952.768 617.568 953.026L617.569 953.026C621.151 953.537 625.676 954.183 628.761 953.886L646.363 952.19C649.829 951.856 655.744 950.182 657.189 948.465C658.637 946.773 662.611 942.129 667.482 944.133C672.378 946.107 676.832 948.598 680.117 950.728C682.23 952.111 684.159 951.642 686.018 951.19C687.026 950.945 688.013 950.704 688.998 950.767C691.829 950.941 692.885 954.417 693.387 956.815C693.497 957.371 693.593 958.013 693.695 958.703C694.035 960.991 694.453 963.804 695.738 965.742C696.818 967.37 695.784 968.357 694.605 969.485C693.958 970.103 693.266 970.764 692.856 971.596C692.687 971.938 692.496 972.301 692.298 972.677C691.139 974.881 689.75 977.521 691.286 978.901C693.083 980.517 694.767 980.802 699.058 981.493C701.887 981.949 703.197 980.62 704.461 979.337C705.115 978.674 705.757 978.023 706.59 977.638C708.847 976.595 709.695 979.119 710.629 981.897C710.706 982.128 710.784 982.36 710.863 982.592C711.789 985.372 715.231 985.655 717.621 985.852C717.838 985.87 718.047 985.887 718.244 985.906C719.24 985.998 720.111 986.894 721.004 987.813C722.234 989.079 723.507 990.388 725.207 989.707C728.115 988.532 731.169 988.475 730.426 990.309C730.109 991.105 728.458 991.866 726.679 992.686C724.304 993.781 721.701 994.981 721.737 996.511C721.752 997.179 721.65 997.842 721.55 998.485C721.25 1000.42 720.981 1002.16 724.071 1003.2C726.245 1003.94 726.378 1003.25 726.558 1002.32C726.719 1001.49 726.918 1000.46 728.648 1000.08C730.43 999.691 731.307 1000.18 732.297 1000.73C733.343 1001.31 734.514 1001.96 737.009 1001.72C740.253 1001.41 741.795 999.771 743.307 998.166C744.059 997.367 744.803 996.576 745.746 995.961C746.993 995.159 748.127 995.399 749.356 995.659C750.923 995.99 752.644 996.354 754.95 994.628C756.762 993.271 757.811 991.988 758.672 990.935C759.766 989.597 760.558 988.629 762.225 988.35C765.205 987.853 769.309 986.774 771.707 985.202C774.104 983.629 778.628 982.089 778.953 985.161C779.103 986.586 778 987.085 776.728 987.661C775.257 988.327 773.559 989.096 773.312 991.518C772.853 996.033 772.623 998.291 778.633 1001.95C778.962 1002.15 779.289 1002.34 779.613 1002.54C785.232 1005.95 790.245 1008.98 792.852 1014.65C795.581 1020.65 805.58 1041.67 808.509 1047.73C809.429 1049.63 810.56 1052.91 811.815 1056.55C814.65 1064.79 818.116 1074.85 821.194 1074.86C825.635 1074.88 828.302 1073.52 829.121 1070.31C829.939 1067.1 831.92 1061.34 834.577 1062.21C837.231 1063.06 843.079 1065.18 841.75 1067.99C840.42 1070.8 839.967 1073.29 842.505 1073.05C843.886 1072.92 844.362 1073.33 845.059 1073.94C845.642 1074.44 846.381 1075.09 847.936 1075.66C851.346 1076.88 854.155 1076.84 858.084 1076.47C860.631 1076.22 863.173 1074.95 865.565 1073.75C866.864 1073.1 868.118 1072.47 869.305 1072.04C872.677 1070.83 875.822 1071.1 878.744 1072.92C882.491 1075.25 888.038 1078.95 888.49 1081.14C888.628 1081.81 888.36 1082.74 888.067 1083.77L888.067 1083.77C887.398 1086.11 886.594 1088.92 890.131 1090.13C891.78 1090.7 893.212 1091.07 894.5 1091.41L894.5 1091.41C897.188 1092.11 899.247 1092.65 901.336 1094.42C902.858 1095.7 904.008 1097.78 905.081 1099.71C906.185 1101.71 907.206 1103.55 908.466 1104.23C909.667 1104.86 911.373 1105.09 913.039 1105.31C914.818 1105.54 916.552 1105.77 917.581 1106.48C919.6 1107.84 921.328 1108.8 925.51 1106.38C927.32 1105.34 928.598 1103.8 929.551 1102.66C930.801 1101.16 931.493 1100.33 932.094 1102.16L932.134 1102.29C933.19 1105.61 935.68 1113.43 939.677 1114.16C943.722 1114.88 947.677 1114.74 950.9 1114.19C954.035 1113.68 955.028 1111.89 956.528 1109.19L956.659 1108.95C958.233 1106.12 961.699 1105.78 966.557 1105.32C969.373 1105.04 970.766 1103.94 972.187 1102.81C973.218 1101.99 974.263 1101.16 975.875 1100.63C979.711 1099.37 983.465 1094.98 983.673 1092.51C983.881 1090.05 991.169 1085.98 993.174 1085.13C994.007 1084.78 995.495 1083.74 997.239 1082.52L997.242 1082.52C999.697 1080.81 1002.66 1078.74 1005.02 1077.73C1008.19 1076.37 1010.24 1074 1011.68 1072.34C1011.91 1072.08 1012.12 1071.83 1012.32 1071.61C1012.46 1071.45 1012.6 1071.3 1012.73 1071.17C1013.43 1070.47 1014.54 1070.73 1015.75 1071C1017.1 1071.32 1018.58 1071.65 1019.71 1070.71C1020.71 1069.89 1021.24 1068.4 1021.69 1067.12C1022.21 1065.65 1022.62 1064.47 1023.54 1064.97C1023.98 1065.21 1024.41 1065.53 1024.86 1065.88C1026.22 1066.9 1027.79 1068.08 1030.39 1067.66C1032.23 1067.37 1032.67 1067.71 1033.38 1068.27C1034 1068.76 1034.82 1069.4 1036.94 1069.92C1040.41 1070.77 1042.69 1070.45 1045.31 1070.08C1046.13 1069.97 1046.99 1069.85 1047.92 1069.76C1048.35 1069.71 1048.77 1069.67 1049.17 1069.62C1052.48 1069.26 1054.97 1068.99 1056.09 1071.86C1057.36 1075.08 1060.76 1080.57 1064.93 1080.16C1067.16 1079.95 1068.5 1080.14 1069.9 1080.33C1071.12 1080.5 1072.38 1080.68 1074.32 1080.6C1076.28 1080.52 1076.88 1079.65 1077.46 1078.81C1078.13 1077.84 1078.78 1076.9 1081.44 1077.23C1083.23 1077.46 1085.08 1077.91 1086.85 1078.35C1089.99 1079.12 1092.87 1079.83 1094.73 1079.08C1097.64 1077.91 1102.81 1078.09 1104.96 1078.54C1106.63 1078.9 1108.26 1077.36 1110.12 1075.59C1110.64 1075.1 1111.18 1074.59 1111.74 1074.1C1112.39 1073.53 1113.35 1072.84 1114.41 1072.08C1117.54 1069.84 1121.57 1066.94 1121.47 1064.46C1121.34 1061.13 1117.65 1057.02 1113.76 1053.6C1109.89 1050.19 1109.51 1048.88 1109.18 1045.78C1108.85 1042.69 1108.46 1038.94 1110.12 1036.99C1111.79 1035.04 1112.68 1032.51 1112.93 1030.46C1113.06 1029.47 1114.03 1028.67 1115.09 1027.79C1116.22 1026.85 1117.46 1025.82 1117.92 1024.4C1118.22 1023.44 1118.19 1022.3 1118.17 1021.24C1118.13 1019.23 1118.09 1017.48 1120.24 1017.71C1121.7 1017.85 1122.97 1018.33 1124.51 1018.91C1126.48 1019.64 1128.91 1020.55 1132.77 1021.18C1137.52 1021.96 1140.17 1021.76 1143.04 1021.55C1144.34 1021.45 1145.68 1021.35 1147.28 1021.34C1150.03 1021.31 1152.87 1021.65 1155.6 1021.98C1158 1022.27 1160.31 1022.55 1162.38 1022.56C1163.81 1022.57 1165.28 1022.3 1166.7 1022.03C1169.7 1021.47 1172.48 1020.95 1174.14 1023.22C1175.09 1024.51 1175.93 1026.46 1176.85 1028.57C1178.31 1031.91 1179.95 1035.69 1182.49 1038.04C1186.65 1041.87 1192.83 1045.07 1198.86 1044.72C1199.52 1044.68 1200.18 1044.65 1200.84 1044.63C1201.27 1044.61 1201.71 1044.59 1202.15 1044.58L1202.15 1044.58L1202.16 1044.58L1202.16 1044.58C1207.12 1044.41 1211.85 1044.24 1214.42 1041.44C1216.76 1038.87 1220.1 1037.1 1223.39 1035.35L1223.39 1035.35C1224.51 1034.75 1225.62 1034.16 1226.68 1033.55L1226.98 1033.37C1231.12 1030.99 1236.46 1027.93 1240.34 1027.76C1241.68 1027.7 1242.88 1027.81 1244.03 1027.92C1246.27 1028.13 1248.31 1028.33 1250.82 1027.2C1254.61 1025.49 1256.66 1024.85 1259.72 1027.45C1262.81 1030.04 1265.83 1029.99 1269.76 1029.61C1270.12 1029.57 1270.49 1029.53 1270.84 1029.49C1271.04 1029.47 1271.24 1029.44 1271.44 1029.42C1274.74 1029.02 1277.71 1028.67 1278.61 1031.44C1279.5 1034.22 1282.97 1035.28 1285.93 1036.18C1286.42 1036.33 1286.9 1036.47 1287.35 1036.62C1290.49 1037.66 1297.47 1037.2 1299.63 1035.44C1301.34 1034.04 1306.81 1033.67 1310.97 1033.39L1311.22 1033.37L1311.66 1033.34C1311.85 1033.33 1312.04 1033.32 1312.22 1033.3C1312.63 1033.28 1313.02 1033.25 1313.39 1033.22C1313.56 1033.2 1313.73 1033.19 1313.89 1033.17C1316.08 1032.96 1317.95 1031.66 1319.73 1030.43C1321.13 1029.45 1322.48 1028.52 1323.89 1028.18C1327.09 1027.43 1333.63 1023.01 1338.58 1018.96C1339.93 1017.85 1341.17 1016.72 1342.38 1015.63L1342.38 1015.62C1345.59 1012.71 1348.52 1010.06 1352.46 1008.7C1356.28 1007.39 1357.4 1004.68 1358.43 1002.19C1358.86 1001.14 1359.28 1000.13 1359.87 999.281C1360.79 997.985 1362.1 996.38 1363.52 994.636L1363.52 994.634C1365.26 992.504 1367.17 990.166 1368.73 987.933C1369.35 987.05 1369.94 986.053 1370.53 985.048C1372.66 981.426 1374.86 977.684 1378.98 978.687C1380.9 979.152 1382.46 980.064 1383.91 980.907C1386.45 982.385 1388.62 983.653 1391.72 981.931C1393.74 980.81 1394.99 978.923 1396.2 977.102C1397.9 974.529 1399.52 972.088 1403.09 972.129C1406.8 972.172 1409.8 972.867 1412.42 973.477C1414.12 973.871 1415.66 974.228 1417.14 974.354C1420.92 974.647 1429.56 974.499 1431.86 972.041C1433.17 970.653 1434.1 968.587 1435.07 966.455L1435.07 966.454C1435.82 964.81 1436.59 963.126 1437.55 961.682C1438.32 960.522 1439.45 959.354 1440.63 958.145C1442.84 955.872 1445.19 953.452 1445.51 950.657C1445.83 947.774 1445.1 946.914 1443.89 945.497C1443.3 944.81 1442.6 943.992 1441.86 942.75C1439.58 938.945 1437.53 919.52 1438.08 915.89C1438.17 915.272 1438.27 914.597 1438.37 913.881C1438.86 910.386 1439.48 905.917 1440.88 902.443C1442.53 898.259 1441.96 894.973 1439.24 893.447C1437.49 892.468 1436.71 890.659 1436.01 889.051C1435.62 888.152 1435.26 887.316 1434.77 886.722C1433.44 885.062 1429.59 884.092 1427.26 886.552C1424.95 889.009 1421.47 887.109 1421.98 883.036L1422.01 882.793L1422.04 882.558L1422.06 882.397L1422.06 882.367C1422.56 878.194 1423.38 871.383 1428.42 868.58C1432.03 866.567 1434.76 863.396 1437.53 860.172C1438.83 858.66 1440.14 857.136 1441.56 855.715C1444.12 853.137 1447.23 851.187 1449.89 849.52C1451.82 848.308 1453.51 847.246 1454.58 846.201C1457.13 843.72 1460.53 842.735 1465.68 842.686C1467.28 842.671 1468.74 842.842 1470.09 843.001C1473.1 843.353 1475.6 843.645 1477.98 841.712C1478.8 841.051 1479.56 840.269 1480.31 839.492C1482.71 837.002 1485.06 834.569 1489.35 836.381C1493.69 838.193 1499.65 840.909 1504.97 843.33L1504.99 843.337L1505.06 843.37L1505.19 843.43C1506.7 844.116 1508.15 844.776 1509.49 845.384C1515.63 848.133 1521.3 850.954 1524.46 854.201C1526.21 856.013 1529.64 858.203 1533.06 860.378C1535.81 862.131 1538.54 863.873 1540.36 865.4C1542.13 866.854 1545.39 868.327 1548.66 869.807C1553.03 871.779 1557.42 873.76 1558.3 875.719C1559.82 879.15 1564.25 887.64 1568.64 887.217C1571.13 886.978 1573.73 885.01 1576.42 882.978C1578.48 881.419 1580.59 879.822 1582.74 878.942C1585.14 877.953 1587.62 878.121 1589.78 878.268C1592.06 878.423 1594.01 878.555 1595.19 877.295C1595.92 876.514 1596.29 875.454 1596.63 874.49C1597.36 872.423 1597.94 870.802 1601.55 873.342C1606.85 877.066 1610.31 878.758 1614.72 876.098C1619.12 873.438 1624.62 876.933 1626.47 878.754C1627.1 879.39 1628.19 879.957 1629.43 880.605C1631.75 881.817 1634.62 883.315 1636.12 886.084C1637.51 888.63 1638.56 888.715 1640.23 888.85C1641.35 888.94 1642.74 889.053 1644.71 889.938C1649.11 891.91 1652.82 887.722 1656.12 884.01L1656.12 884.01C1656.52 883.563 1656.91 883.124 1657.29 882.703C1658.31 881.578 1659.39 880.632 1660.41 879.74C1662.93 877.52 1665.09 875.63 1665.05 872.144C1665.03 870.463 1664.78 869.147 1664.56 868.015C1664.14 865.84 1663.86 864.352 1665.63 862.277C1666.52 861.245 1667.6 860.168 1668.7 859.072C1670.95 856.821 1673.29 854.491 1674.17 852.301C1674.3 851.99 1674.42 851.649 1674.55 851.288C1674.63 851.044 1674.72 850.791 1674.81 850.53L1674.81 850.528C1675.99 847.143 1677.6 842.535 1681.25 841.809C1684.52 841.158 1686.81 843.634 1689.17 846.185L1689.17 846.186C1689.95 847.028 1690.73 847.878 1691.57 848.627C1691.9 848.93 1692.23 849.218 1692.54 849.495C1695.37 851.98 1697.21 853.593 1695.28 857.186C1695.15 857.427 1695.03 857.662 1694.9 857.89C1692.98 861.441 1691.89 863.474 1694.54 865.517C1697.33 867.694 1700.94 872.922 1700.67 874.737C1700.39 876.553 1701.4 879.586 1703.87 882.898C1704.65 883.951 1705.64 884.915 1706.62 885.862C1708.75 887.918 1710.8 889.895 1710.27 892.541C1709.52 896.4 1709.44 897.986 1711.23 901.602C1712.77 904.725 1712.71 905.844 1712.57 908.118C1712.55 908.476 1712.53 908.863 1712.51 909.29C1712.41 911.541 1713.58 913.319 1714.69 915.003C1715.12 915.671 1715.55 916.325 1715.89 916.987C1716.69 918.558 1715.49 919.319 1713.5 920.576C1712.54 921.185 1711.39 921.911 1710.2 922.901C1708.6 924.236 1706.21 924.648 1703.9 925.047C1700.96 925.556 1698.14 926.043 1697.22 928.386C1696.55 930.076 1696.33 931.685 1696.11 933.256C1695.79 935.574 1695.49 937.811 1693.77 940.108C1693.24 940.819 1692.74 941.399 1692.31 941.894C1690.4 944.083 1689.91 944.646 1694.81 947.82C1696.06 948.624 1697.24 949.338 1698.37 950.016L1698.37 950.018C1702.7 952.619 1706.13 954.683 1708.64 959.219C1710.23 962.091 1713.02 964.509 1715.61 966.752C1718.17 968.975 1720.53 971.025 1721.34 973.173C1721.89 974.645 1722.86 975.945 1723.78 977.172C1725.55 979.544 1727.12 981.647 1725.07 984.203C1724.06 985.471 1723.18 986.413 1722.45 987.202C1720.95 988.824 1720.05 989.799 1719.76 991.631C1719.36 994.353 1721.03 997.086 1724.18 997.914C1727.29 998.718 1727.85 995.114 1727.3 992.036C1726.99 990.275 1727.7 989.587 1728.61 988.71C1729.29 988.055 1730.08 987.295 1730.62 985.903C1731.55 983.555 1730.63 978.602 1729.91 974.697L1729.91 974.694L1729.91 974.673L1729.91 974.663C1729.63 973.171 1729.38 971.834 1729.28 970.856C1728.91 967.315 1731.49 963.042 1732.42 967.423C1733.8 973.997 1735.8 970.675 1735.41 964.689C1735.22 961.814 1738.69 962.585 1739.19 964.983C1739.46 966.341 1741.42 965.548 1743.86 964.567C1745.72 963.814 1747.86 962.951 1749.72 962.864C1750.15 962.841 1750.57 962.823 1750.98 962.807C1751.38 962.791 1751.77 962.778 1752.15 962.765L1752.17 962.764L1752.18 962.764C1755.86 962.64 1758.67 962.545 1760.03 960.766C1761.67 958.609 1768.38 944.575 1769.93 939.506C1771.49 934.437 1772.58 926.968 1772.31 922.101C1772.17 919.702 1771.08 910.528 1769.99 901.277L1769.99 901.265C1768.86 891.658 1767.72 881.972 1767.61 879.706C1767.36 875.259 1765.5 848.897 1764.94 843.585C1764.38 838.273 1762.6 832.421 1760.28 828.199C1757.96 823.952 1753.97 814.971 1753.39 809.451C1753.11 806.765 1752.07 802.669 1751.04 798.635C1749.96 794.38 1748.9 790.193 1748.76 787.803C1748.68 786.438 1748.8 784.958 1748.92 783.449C1749.2 779.807 1749.5 775.996 1747.21 773.221C1743.99 769.297 1734.5 757.033 1731.72 752.856C1730.4 750.872 1728.41 749.404 1726.54 748.022C1724.45 746.476 1722.51 745.038 1721.81 743.105C1720.85 740.456 1719.04 739.046 1717.13 737.557C1716.4 736.989 1715.65 736.409 1714.94 735.744C1714.11 734.973 1713.1 734.263 1712.05 733.519C1709.77 731.918 1707.27 730.154 1705.85 727.255C1704.52 724.543 1703.14 722.203 1701.61 719.747L1700.51 719.853C1700.02 719.096 1699.52 718.317 1699 717.499C1697.51 715.155 1697.46 712.285 1697.42 709.822C1697.39 707.65 1697.36 705.794 1696.34 704.893C1695.48 704.126 1694.75 703.916 1694.16 703.747C1693.51 703.56 1693.03 703.422 1692.71 702.638C1692.54 702.2 1692.42 701.679 1692.31 701.163C1692.02 699.893 1691.74 698.656 1690.65 698.76C1690.36 698.788 1689.99 698.843 1689.58 698.904C1687.8 699.167 1685.15 699.557 1684.15 698.545C1683.62 698.008 1683.57 697.197 1683.51 696.346C1683.44 695.216 1683.37 694.015 1682.16 693.292C1681.48 692.886 1681.01 692.398 1680.57 691.947C1679.64 690.988 1678.87 690.192 1676.62 690.695C1675.7 690.901 1674.68 691.214 1673.67 691.524C1671.04 692.329 1668.48 693.115 1667.88 691.958C1667.41 691.068 1668.29 690.73 1669.42 690.297C1670.32 689.951 1671.38 689.543 1672.03 688.743C1673.49 686.919 1674.95 684.28 1673.28 682.862C1671.85 681.668 1670.13 682.001 1667.31 682.547C1666.78 682.648 1666.22 682.757 1665.62 682.864C1664.99 682.975 1664.35 683.096 1663.71 683.218L1663.7 683.219L1663.7 683.22C1660.35 683.853 1656.81 684.523 1653.92 684.096C1652.18 683.838 1650.74 683.237 1649.38 682.671C1648.04 682.117 1646.79 681.597 1645.43 681.468C1642.67 681.208 1637.59 680.855 1634.91 682.587C1633.54 683.479 1633.49 684.572 1633.45 685.641C1633.41 686.643 1633.37 687.623 1632.24 688.394C1631.13 689.152 1629.51 689.672 1628.03 690.152C1626.39 690.681 1624.9 691.162 1624.39 691.859C1623.43 693.214 1624.89 695.572 1627.11 696.726C1629.33 697.88 1630.85 698.97 1628.71 700.334C1626.74 701.572 1627.11 702.65 1627.8 704.661L1627.8 704.665L1627.81 704.688L1627.83 704.746C1627.89 704.929 1627.95 705.12 1628.02 705.319C1628.83 707.74 1629.39 710.947 1628.38 712.912C1628.3 713.082 1628.2 713.283 1628.09 713.506L1628.09 713.507C1626.91 715.895 1624.45 720.899 1622.52 719.763C1621.04 718.864 1621.08 716.413 1621.12 713.995L1621.12 713.993C1621.13 712.992 1621.15 711.996 1621.05 711.119C1620.95 710.139 1621 709.163 1621.04 708.342C1621.13 706.655 1621.18 705.62 1619.8 706.532C1619.39 706.803 1618.94 707.136 1618.49 707.476C1616.7 708.827 1614.77 710.275 1614.39 708.315C1614.25 707.61 1614.19 706.912 1614.15 706.285L1614.15 706.283C1614.02 704.729 1613.93 703.606 1612.71 703.874C1610.98 704.251 1606.7 708.108 1608.7 710.547C1609.78 711.842 1610.86 711.967 1611.75 712.069C1612.5 712.156 1613.11 712.226 1613.45 713.008C1613.51 713.149 1613.57 713.29 1613.64 713.431C1614.34 715.017 1615.06 716.664 1612.94 718.607C1610.66 720.721 1609.34 721.874 1607.86 719.307C1607.31 718.354 1606.87 717.328 1606.45 716.333C1605.73 714.65 1605.05 713.057 1603.92 712.059C1603.27 711.478 1602.8 710.679 1602.35 709.9C1601.54 708.514 1600.77 707.195 1599.04 707.295C1597.61 707.377 1596.58 708.368 1595.15 709.746C1593.85 710.996 1592.22 712.566 1589.66 714.063C1588.44 714.771 1587.19 715.628 1585.97 716.47C1581.79 719.34 1577.86 722.038 1576.16 718.073L1576.12 717.963C1573.96 712.918 1573.15 711.031 1575.1 708.022C1577.07 705.018 1579.24 701.547 1578.22 696.121C1578.14 695.659 1578.06 695.229 1577.98 694.827C1577.15 690.489 1576.93 689.349 1578.55 684.596C1580.29 679.404 1579.52 671.114 1575.81 658.714C1572.59 647.944 1573.58 644.427 1574.61 640.811C1574.72 640.422 1574.83 640.031 1574.94 639.629C1574.95 639.561 1574.97 639.492 1574.99 639.423L1575.02 639.302L1575.04 639.245L1575.06 639.137C1575.92 635.636 1575.41 630.411 1575.13 627.587L1575.13 627.58C1575.06 626.865 1575.01 626.305 1574.99 625.966C1574.99 625.886 1574.98 625.798 1574.98 625.703L1574.97 625.589L1574.96 625.462C1574.94 625.264 1574.92 625.045 1574.9 624.808C1574.71 622.669 1574.38 619.131 1575.75 617.528C1577.24 615.794 1576.83 615.179 1575.52 613.179C1575.42 613.03 1575.31 612.873 1575.21 612.708C1575.14 612.598 1575.06 612.485 1574.99 612.368C1574.3 611.299 1573.18 610.249 1572.09 609.228L1572.09 609.227C1570.49 607.716 1568.94 606.266 1568.93 604.902C1568.92 604.086 1569.37 602.919 1569.89 601.536C1570.84 599.044 1572.05 595.85 1571.37 592.752C1570.91 590.657 1570.3 588.954 1569.74 587.366C1569.01 585.302 1568.35 583.431 1568.16 581.146C1567.84 577.1 1567.87 572.178 1569.31 569.435C1570.79 566.689 1576.71 556.491 1579.9 553.58C1581.07 552.52 1582.34 550.672 1583.69 548.705C1586.05 545.269 1588.66 541.472 1591.38 540.875C1592.7 540.585 1593.79 540.468 1594.73 540.368C1596.82 540.144 1598.11 540.005 1599.42 538.206C1600.94 536.159 1599.6 535.1 1598.36 534.125C1598.04 533.873 1597.73 533.626 1597.48 533.37C1596.24 532.121 1596.02 531.012 1600.65 529.198C1603.84 527.948 1604.61 526.945 1605.53 525.75L1605.53 525.749C1605.94 525.21 1606.39 524.631 1607.1 523.974C1608.34 522.826 1608.76 521.517 1609.22 520.078C1609.61 518.866 1610.02 517.561 1610.99 516.181C1612.22 514.4 1612.82 514.313 1613.76 514.179C1614.41 514.087 1615.22 513.972 1616.49 513.257C1619.59 511.486 1620.42 508.908 1618.79 508.118C1618.4 507.927 1617.98 507.774 1617.59 507.631C1616.37 507.179 1615.36 506.81 1615.9 505.581C1616.38 504.47 1616.13 504.052 1615.68 503.314C1615.47 502.958 1615.21 502.528 1614.96 501.91C1614.85 501.624 1614.72 501.315 1614.58 500.991L1614.58 500.979C1613.79 499.126 1612.8 496.804 1614.08 495.63C1615.58 494.223 1619.29 490.946 1622.03 490.05C1623.14 489.689 1624.91 489.778 1626.64 489.866C1629.2 489.996 1631.69 490.122 1631.88 488.786C1631.98 488.079 1631.87 487.081 1631.75 486.007C1631.5 483.722 1631.21 481.097 1632.85 480.223C1634.2 479.494 1634.87 479.65 1635.84 479.876C1636.57 480.047 1637.48 480.258 1638.99 480.158C1640.77 480.041 1641.52 478.903 1642.17 477.926C1642.79 476.99 1643.31 476.202 1644.54 476.599C1646.09 477.106 1645.46 478.713 1644.78 480.456C1644.37 481.507 1643.94 482.608 1643.95 483.547C1643.96 484.175 1643.78 485.044 1643.58 485.965C1642.99 488.701 1642.3 491.91 1646.37 490.732C1650.4 489.563 1650.83 487.016 1651.25 484.585C1651.39 483.741 1651.54 482.91 1651.83 482.157C1652.27 481.016 1652.37 480.048 1652.46 479.204C1652.6 477.885 1652.71 476.87 1654.01 475.976C1656.17 474.505 1656.44 469.981 1656.08 466.57C1655.72 463.159 1655.68 461.795 1659.4 460.701C1662.01 459.931 1662.39 457.984 1662.78 455.952C1662.94 455.095 1663.11 454.224 1663.45 453.419C1663.89 452.376 1664.85 451.512 1665.8 450.661C1667.31 449.296 1668.79 447.965 1668.04 445.98C1666.82 442.757 1662.98 438.524 1659.91 442.581C1658.41 444.552 1657.98 446.447 1657.62 447.963C1657.25 449.567 1656.98 450.747 1655.66 451.145C1653.36 451.842 1652.09 450.459 1650.67 448.922C1650.59 448.831 1650.5 448.74 1650.42 448.649C1650.35 448.577 1650.28 448.505 1650.22 448.433C1649.79 447.978 1649.38 447.631 1649.01 447.318C1647.97 446.437 1647.24 445.82 1647.41 443.785C1647.51 442.797 1646.84 442.344 1645.92 441.717C1644.59 440.809 1642.72 439.535 1641.84 435.746C1641.61 434.754 1641.34 433.039 1641.02 431.034L1641.02 431.027L1641.02 431.021L1641.02 431.015L1641.02 431.009L1641.02 431.004L1641.02 431.003C1640.23 425.995 1639.15 419.197 1637.72 417.311C1636.99 416.379 1636.17 415.852 1635.38 415.347C1633.96 414.433 1632.64 413.587 1632.17 410.532C1631.45 405.788 1630.68 404.706 1628.34 402.221C1625.99 399.739 1625.66 396.614 1625.34 392.568C1625.03 388.643 1625.84 387.456 1628.05 384.23L1628.26 383.922C1629.67 381.85 1629.5 380.637 1629.34 379.57C1629.24 378.855 1629.15 378.205 1629.55 377.406C1629.98 376.556 1629.79 375.77 1629.59 374.945C1629.33 373.838 1629.05 372.66 1630.21 371.161C1631.59 369.39 1633.54 368.969 1635.02 368.648C1635.71 368.5 1636.29 368.373 1636.68 368.145C1637.92 367.394 1640.36 365.686 1639.54 362.108C1638.72 358.531 1640.2 357.967 1642.92 360.941C1643.95 362.076 1645 363.715 1646.03 365.345C1647.72 367.989 1649.39 370.612 1650.99 371.027C1651.96 371.291 1652.59 371.348 1653.11 371.396C1653.98 371.475 1654.56 371.529 1655.96 372.442C1658.21 373.909 1658.29 371.797 1658.27 369.511C1658.25 367.224 1660.2 367.957 1662.38 370.062C1662.91 370.56 1663.47 371.17 1664.02 371.764C1665.76 373.643 1667.35 375.357 1667.17 372.836C1667.09 371.726 1667.26 370.695 1667.43 369.682C1667.76 367.668 1668.08 365.728 1666.39 363.389C1663.81 359.876 1662.23 355.109 1661.51 352.469C1661.14 351.119 1660.39 349.172 1659.64 347.211L1659.64 347.209C1658.92 345.338 1658.19 343.456 1657.79 342.07C1657.26 340.296 1656.95 338.906 1657.14 337.713L1657.52 337.676C1657.64 337.007 1657.94 336.4 1658.45 335.824C1658.81 335.406 1659.23 335.027 1659.64 334.661C1660.9 333.519 1662.03 332.498 1660.76 330.788C1659.77 329.466 1658.88 329.666 1657.84 329.898C1657.12 330.058 1656.34 330.233 1655.41 329.936L1655.4 329.933C1653.14 329.204 1650.64 328.393 1648.42 325.901C1647.21 324.567 1645.72 323.646 1644.25 322.743C1642.97 321.959 1641.72 321.189 1640.7 320.174L1640.61 320.085C1639.65 319.138 1639.15 318.65 1639.04 318.086C1638.92 317.489 1639.22 316.806 1639.85 315.4C1639.94 315.209 1640.03 315.004 1640.13 314.784C1641.44 311.858 1641.36 310.544 1641.27 309.156C1641.25 308.94 1641.24 308.723 1641.23 308.497C1641.18 307.36 1641.69 307.137 1642.99 306.567C1643.6 306.297 1644.4 305.948 1645.39 305.386C1646.7 304.641 1647.71 303.535 1648.56 302.613C1649.72 301.345 1650.57 300.424 1651.41 301.256C1652.73 302.549 1651.22 304.862 1650.29 306.291C1650.18 306.45 1650.09 306.597 1650 306.731C1649.95 306.804 1649.91 306.881 1649.85 306.962L1649.85 306.97C1648.95 308.366 1647.39 310.792 1649.79 313.117C1652.19 315.43 1654.81 316.91 1657.72 318.552L1658.29 318.874C1661.43 320.676 1664.65 322.97 1666.71 324.955C1668.13 326.313 1669.46 326.323 1670.73 326.333C1671.32 326.338 1671.89 326.343 1672.46 326.478C1673.5 326.741 1673.63 327.333 1673.83 328.236C1673.98 328.907 1674.17 329.748 1674.79 330.752C1675.65 332.145 1676.54 332.343 1677.48 332.556C1678.14 332.703 1678.83 332.858 1679.57 333.422C1680.35 334.031 1680.75 334.676 1680.96 335.366L1703.83 333.164C1703.48 331.435 1703.65 329.893 1706.45 330.622C1710.28 331.621 1713.6 329.934 1711.73 327.615C1711.15 326.907 1710.38 326.273 1709.57 325.597C1707.71 324.062 1705.59 322.309 1704.78 318.973C1704.34 317.193 1703.51 315.267 1702.77 313.576L1702.77 313.574C1701.52 310.7 1700.56 308.503 1702.38 308.841C1703.76 309.107 1705.03 309.992 1706.51 311.021C1708.15 312.163 1710.04 313.48 1712.61 314.326C1717.5 315.959 1719.44 315.773 1717.44 311.257C1716.77 309.747 1715.54 308.186 1714.22 306.519C1711.61 303.202 1708.67 299.469 1709.12 294.908C1709.21 294.089 1709.29 293.244 1709.37 292.384C1709.98 286.045 1710.67 278.928 1713.27 275.991C1716.2 272.684 1719.11 269.984 1723.38 269.889C1723.93 269.876 1724.48 269.872 1725.04 269.868C1728.81 269.839 1732.54 269.81 1733.53 267.333C1733.73 266.826 1733.92 266.472 1734.07 266.205C1734.24 265.888 1734.34 265.695 1734.32 265.515C1734.29 265.234 1733.95 264.987 1733.07 264.353C1732.36 263.84 1731.3 263.073 1729.77 261.829L1729.49 261.988ZM1199.18 1006.1C1201.92 1005.55 1205.94 1002.62 1209.65 999.908L1209.65 999.907C1211.67 998.428 1213.6 997.016 1215.19 996.093C1219.35 993.672 1220.58 989.323 1221.68 985.492C1221.76 985.184 1221.85 984.88 1221.94 984.58C1223.11 980.574 1224.4 977.609 1227.14 975.609C1229.87 973.61 1233.14 965.693 1233.84 963.68C1234.22 962.583 1235.38 961.855 1236.62 961.08C1237.66 960.433 1238.74 959.753 1239.47 958.797C1241.07 956.697 1246.04 947.959 1243.28 949.75C1242.04 950.557 1240.5 952.049 1239.02 953.482L1239.02 953.483C1237.22 955.231 1235.5 956.893 1234.52 957.117C1233.3 957.38 1235.41 953.518 1237.27 950.128C1238.11 948.594 1238.9 947.156 1239.3 946.241C1239.77 945.17 1240.03 944.089 1240.33 942.796C1240.87 940.537 1241.56 937.629 1243.8 932.998C1246.93 926.578 1246.16 923.23 1245.28 919.474C1245.17 918.967 1245.05 918.452 1244.93 917.922C1244.74 916.983 1244.51 916.114 1244.29 915.29C1243.47 912.2 1242.82 909.748 1244.65 906.665C1246.4 903.715 1245.99 902.324 1245.13 899.447C1244.86 898.515 1244.53 897.427 1244.22 896.08C1242.95 890.573 1245.9 886.16 1249.22 885.183C1251.82 884.411 1252.64 889.85 1253.32 894.383C1253.39 894.883 1253.47 895.371 1253.54 895.84C1253.76 897.247 1253.94 899.165 1254.15 901.268C1254.63 906.178 1255.21 912.095 1256.46 914.865C1257 916.033 1257.61 917.06 1258.19 918.036L1258.19 918.036C1259.58 920.366 1260.79 922.402 1260.3 925.358C1259.62 929.554 1259.18 931.963 1256.91 934.155C1254.63 936.321 1252.07 940.039 1254.67 940.894C1257.27 941.722 1261.78 943.471 1259.54 946.053C1258.76 946.971 1258.09 947.608 1257.5 948.165C1256.41 949.193 1255.61 949.952 1254.9 951.708C1254.63 952.396 1254.35 953.252 1254.04 954.187C1253.13 956.934 1251.99 960.355 1250.33 962.144C1249.85 962.655 1249.18 963.341 1248.41 964.128C1245.58 967.036 1241.4 971.326 1240.37 973.309C1239.97 974.076 1239.64 974.974 1239.32 975.859C1238.58 977.883 1237.87 979.837 1236.31 979.987C1234.07 980.202 1229.59 981.055 1230.88 984.64C1232.16 988.198 1232.05 993.654 1228.55 997.016C1225.04 1000.4 1219.76 1004.39 1216.52 1005.78C1213.24 1007.17 1204.95 1010.36 1202.88 1010.35C1200.84 1010.34 1195.03 1006.98 1199.27 1006.15L1199.18 1006.1ZM1680.11 339.59C1680.51 339.246 1680.89 338.921 1680.9 338.265L1680.97 338.338L1680.97 338.145L1680.97 337.971C1680.99 337.14 1681 336.296 1680.75 335.518L1703.62 333.315C1703.72 333.808 1703.85 334.33 1703.97 334.807L1704.02 334.981L1704.06 335.166C1704.62 337.296 1703.75 338.432 1700.99 339.223C1699.2 339.737 1699.57 340.177 1700.36 341.133C1700.79 341.649 1701.34 342.316 1701.75 343.228C1702.9 345.826 1706.15 349.406 1708.88 351.536C1710.2 352.558 1711.66 353.523 1713.18 354.527C1714.84 355.616 1716.56 356.75 1718.23 358.053C1720.02 359.45 1720.59 360.745 1721.26 362.292C1721.8 363.518 1722.4 364.903 1723.74 366.624C1724.56 367.67 1725.44 368.908 1726.37 370.232L1726.37 370.234C1728.91 373.83 1731.9 378.066 1735.56 380.847C1740.12 384.318 1742.21 383.256 1744.6 382.047C1744.83 381.93 1745.06 381.813 1745.29 381.697C1748 380.385 1746.17 378.798 1743.81 377.027C1742.07 375.725 1743.86 374.31 1745.92 372.69C1746.66 372.106 1747.43 371.495 1748.09 370.854C1750.56 368.407 1753.43 370.55 1755.76 373.035C1756.68 374.001 1757.41 375.064 1758.1 376.082C1759.2 377.68 1760.21 379.165 1761.76 379.98C1762.77 380.505 1763.74 381.046 1764.75 381.611C1766.32 382.479 1767.98 383.404 1770.01 384.42C1772.75 385.793 1773.31 384.5 1774.02 382.83C1774.18 382.462 1774.35 382.075 1774.54 381.695C1775.62 379.618 1779.06 380.839 1781.26 382.1C1781.89 382.462 1782.71 382.764 1783.6 383.093C1785.82 383.91 1788.51 384.902 1790.04 387.436C1792.03 390.744 1788.03 392.193 1784.66 393.411C1784.41 393.502 1784.16 393.591 1783.92 393.68C1781.59 394.539 1782.03 395.651 1782.64 397.163C1782.94 397.908 1783.28 398.75 1783.34 399.707C1783.49 401.878 1786.54 404.772 1789.2 407.293L1789.2 407.294C1790.09 408.141 1790.94 408.946 1791.62 409.668C1794.24 412.439 1799.41 413.782 1801.91 414.43L1802.22 414.512C1803.09 414.73 1804.76 414.715 1806.66 414.699C1809.89 414.672 1813.76 414.639 1815.39 415.742C1817.97 417.467 1816.92 424.985 1815.37 427.028C1814.98 427.544 1814.5 428.083 1814.01 428.641C1812.59 430.266 1811.02 432.058 1810.73 433.946C1810.46 435.685 1811.46 439.132 1812.38 442.314L1812.38 442.316C1812.8 443.774 1813.21 445.177 1813.47 446.334C1814.21 449.606 1815.82 450.633 1817.84 451.916C1818.09 452.077 1818.35 452.241 1818.61 452.415C1820.95 453.952 1823.32 454.775 1825.37 455.315C1826.93 455.736 1827.5 456.616 1828.09 457.539C1828.26 457.806 1828.44 458.076 1828.64 458.34C1829.38 459.322 1832.51 458.976 1835.53 458.64L1835.54 458.64C1835.78 458.613 1836.01 458.587 1836.25 458.562C1836.61 458.523 1836.96 458.486 1837.31 458.452C1840.51 458.144 1838.97 459.801 1837.55 461.331L1837.54 461.334L1837.53 461.344C1837.42 461.463 1837.31 461.581 1837.21 461.697C1836.22 462.749 1835.27 463.165 1834.05 463.697C1833.43 463.969 1832.73 464.271 1831.93 464.704C1830.69 465.368 1830.94 465.916 1831.3 466.71C1831.64 467.452 1832.07 468.409 1831.48 469.876C1830.5 472.369 1831.94 476.262 1833.02 479.198C1833.26 479.836 1833.47 480.429 1833.65 480.952C1834.29 482.875 1836.73 484.091 1839.11 485.273C1840.36 485.892 1841.59 486.502 1842.52 487.199C1845.25 489.225 1850.53 495.634 1852.59 498.46C1854.63 501.289 1855.97 504.605 1856.6 509.464C1857.06 513.038 1857.98 514.87 1859.08 517.042C1859.46 517.806 1859.87 518.612 1860.28 519.551C1861.88 523.159 1862.91 527.663 1862.63 529.268C1862.46 530.311 1861.69 529.775 1860.39 528.857C1859.68 528.364 1858.82 527.761 1857.81 527.233C1856.2 526.398 1855.53 526.505 1854.65 526.646C1853.93 526.76 1853.08 526.895 1851.49 526.58C1847.91 525.872 1840.36 521.996 1836.84 519.731C1833.32 517.44 1828.72 516.437 1824.08 516.146C1819.45 515.856 1818.11 515.67 1813.58 513.291C1811.42 512.154 1807.47 510.513 1803.33 508.794C1798.82 506.918 1794.08 504.947 1791.17 503.429C1788.17 501.863 1780.74 499.297 1773.41 496.765C1767.12 494.596 1760.91 492.451 1757.63 490.983C1752.95 488.89 1749.32 485.614 1746.69 483.236C1745.32 481.999 1744.22 481.005 1743.38 480.546C1741.56 479.542 1736.94 475.258 1733.61 472.174L1733.61 472.172L1733.61 472.171L1733.59 472.157C1732.47 471.119 1731.5 470.219 1730.83 469.628C1728.19 467.279 1727.24 465.582 1727 462.265C1726.75 458.921 1726.47 458.343 1725.09 456.793C1724.47 456.091 1723.69 454.698 1722.85 453.199L1722.85 453.197C1721.83 451.383 1720.72 449.412 1719.7 448.316C1718.28 446.79 1715.25 446.075 1712.83 445.504C1712.07 445.326 1711.37 445.161 1710.8 444.991C1708.86 444.409 1710.87 442.143 1712.53 440.274L1712.53 440.273C1712.69 440.089 1712.85 439.909 1713.01 439.734C1713.11 439.618 1713.21 439.504 1713.3 439.393C1713.4 439.282 1713.48 439.174 1713.57 439.069C1715.1 437.133 1714.94 436.649 1712.5 435.201C1710.06 433.752 1711.42 431.228 1712.91 429.716C1714.38 428.207 1715.33 425.722 1714.46 423.806C1714.3 423.433 1714.13 423.051 1713.95 422.649C1713.22 421.013 1712.34 419.045 1711.13 415.974C1710.28 413.793 1709.59 411.394 1708.91 409.06C1708.4 407.296 1707.9 405.568 1707.35 404.001C1706.59 401.754 1703.92 399.01 1701.7 396.727C1700.33 395.309 1699.13 394.07 1698.66 393.239C1698.1 392.24 1697.84 390.767 1697.57 389.294C1697.25 387.526 1696.93 385.757 1696.11 384.804L1695.99 384.655L1695.8 384.44C1694.44 382.847 1693.25 381.442 1692.98 378.924C1692.69 376.216 1692.11 372.826 1689.4 369.852C1687.6 367.897 1687.7 366.749 1687.84 364.984C1687.92 364.066 1688.01 362.982 1687.86 361.531C1687.61 359.213 1686.47 358.911 1685.12 358.555C1684 358.258 1682.73 357.924 1681.72 356.362C1679.8 353.42 1680.1 352.323 1680.65 350.266C1680.75 349.918 1680.85 349.541 1680.95 349.124C1681.4 347.235 1681.02 346.455 1680.42 345.227C1680.11 344.583 1679.73 343.815 1679.39 342.698C1678.79 340.714 1679.47 340.13 1680.11 339.59ZM1294.25 373.574C1293.73 374.729 1293.21 375.867 1292.63 376.504C1291.44 377.802 1290.29 375.756 1289.9 373.111L1294.68 372.651C1294.53 372.954 1294.39 373.265 1294.25 373.574Z" fill="#18984E"/>
</svg>
