<svg width="136" height="25" fill="none" xmlns="http://www.w3.org/2000/svg"><g clip-path="url(#a)" fill="#fff"><path d="M81.621 6.906V5.027c0-.845-.436-1.418-1.58-1.418-1.145 0-1.718.6-1.718 1.445v10.11a1.707 1.707 0 0 0 1.69 1.79c.792 0 1.608-.6 1.608-1.745v-2.207H79.96V9.487h6.155v10.51H83.04l-.193-1.661c-.436 1.254-2.153 2.127-4.194 2.127-2.372 0-4.877-1.362-4.877-5.643V5.517c0-3.486 1.905-5.504 6.185-5.504 4.28 0 6.155 2.071 6.155 5.504v1.389h-4.494Zm11.392.568c1.035-2.098 2.012-2.534 3.266-2.534v4.547c-2.287 0-2.996.872-2.996 2.907v7.603h-4.152V5.354h3.882v2.12Zm15.834 3.086v4.222c0 4.223-2.236 5.643-5.339 5.643s-5.395-1.42-5.395-5.616v-4.278c0-4.195 2.26-5.59 5.395-5.59 3.077.004 5.339 1.395 5.339 5.62Zm-6.593-.85v5.994c0 1.035.489 1.554 1.254 1.554s1.196-.519 1.196-1.472V9.71c0-1.064-.434-1.527-1.196-1.527-.845.004-1.254.577-1.254 1.527Zm13.505-4.356v10.464c0 .789.407 1.308 1.118 1.308.652 0 1.117-.383 1.117-1.255V5.361h4.141V20.02h-3.899v-1.852l-.027.054c-.545 1.634-1.88 2.21-3.298 2.21-1.988 0-3.296-.875-3.296-2.863V5.354h4.144ZM129.406 25h-4.138V5.354h3.743v1.744c.872-1.471 2.18-2.153 3.378-2.153 2.124 0 3.622 1.634 3.622 4.604v6.71c0 2.506-1.688 4.17-3.622 4.17-1.118 0-2.046-.519-2.971-1.717L129.406 25Zm0-14.878v5.286c0 1.172.41 1.718 1.228 1.718.818 0 1.225-.546 1.225-1.718v-5.286c0-1.172-.407-1.79-1.225-1.79-.818 0-1.228.618-1.228 1.79ZM0 6.4c.058.034 8.863 7.48 8.863 7.48a1.058 1.058 0 0 1 .132 1.49l-3.953 4.645m15.126-5.11L11.67 7.71a1.058 1.058 0 0 1-.132-1.49l5.278-6.2M6.987 20.015l6.24-7.38a1.058 1.058 0 0 1 1.492-.132l5.449 4.616M7.298 9.068S14.94.054 14.963.018H2.46A2.459 2.459 0 0 0 0 2.489v1.83l5.813 4.868a1.06 1.06 0 0 0 1.494-.119"/><path d="m11.671 7.709 8.497 7.196V2.49a2.46 2.46 0 0 0-2.46-2.46h-.88l-5.277 6.2a1.058 1.058 0 0 0 .131 1.489m1.545 4.925-6.24 7.38h10.71a2.46 2.46 0 0 0 2.46-2.46v-.418l-5.45-4.614a1.056 1.056 0 0 0-1.49.13M0 6.4v11.137a2.46 2.46 0 0 0 2.46 2.46h2.573l3.953-4.645a1.058 1.058 0 0 0-.132-1.489M50.723.011h-5.366c-2.683 0-4.791 2.854-4.791 6.4v13.642h4.905v-7.089h4.568V8.04h-4.563V6.403a1.447 1.447 0 0 1 1.39-1.496h3.857v-.023a2.439 2.439 0 0 0 0-4.873Zm16.403.197A2.43 2.43 0 0 0 66.149 0H53.757c.501.447.848 1.447.848 2.518 0 .986-.313 1.883-.848 2.373h3.83v15.126h4.906V4.904h3.656a2.46 2.46 0 0 0 2.043-3.797 2.44 2.44 0 0 0-1.066-.899Z"/><path d="M30.196.07c-3.097-.039-4.394 1.692-4.394 1.692-.648.72-1.06 1.85-1.06 3.131 0 1.592.653 2.968 1.595 3.596V8.5l6.283 4.6a1.252 1.252 0 0 1 .628 1.103.98.98 0 0 1-.953 1l-6.69-.012v4.91h7.56s2.294.077 3.9-1.343c.88-.686 1.614-2.267 1.614-4.238 0-2.073-.772-3.578-2.133-4.595l-.37-.244a828.18 828.18 0 0 1-5.424-3.513.633.633 0 0 1-.357-.577 1.17 1.17 0 0 1 0-.13c.065-.3.286-.517.854-.485h7.521l.056-.1c.237-2.074 1.205-3.803 2.56-4.724l.112-.078L30.196.069Z"/></g><defs><clipPath id="a"><path fill="#fff" d="M0 0h136v25H0z"/></clipPath></defs></svg>