<svg width="575" height="578" fill="none" xmlns="http://www.w3.org/2000/svg"><g clip-path="url(#a)"><path d="M576.67 288.787v-9.03l-.322-1.612v-6.128l-.323-1.29v-3.225l-.322-1.29V264.6l-.323-1.613v-2.902l-.323-1.613v-1.612l-.322-1.29v-1.398l-.322-1.612-.323-1.29v-1.613l-.322-1.612-.323-1.29v-1.613l-.322-1.612-.323-1.29-.322-1.612v-1.29l-.645-3.225-.323-1.29-.645-3.225-.322-1.29-.323-1.613-.322-1.29-.645-3.225-.323-1.29-.322-1.612-.323-1.29-.322-1.613-.323-1.29-.322-1.612-.645-1.613-.323-1.29-.322-1.612-.323-1.29-.645-1.613-.322-1.29-.323-1.612-.645-1.29-.322-1.613-.323-1.29-.645-1.612-.322-1.29-.645-1.613-.323-1.29-.645-1.612-.322-1.29-.645-1.29-.645-1.613-.323-1.29-.645-1.612-.645-1.075-.322-1.29-.645-1.613-.645-1.29-.323-1.612-1.29-2.58-.645-1.612-1.935-3.87-.322-1.613-1.29-2.58-.645-1.612-1.935-3.87-.968-1.613-3.225-6.45-.645-1.612-.967-1.29-1.29-2.58-.968-1.29-1.29-2.58-.967-1.29-1.29-2.58-.968-1.613-.645-1.29-.967-1.29-.645-1.29-.968-1.29-.645-.967-.967-1.29-.645-1.29-.968-1.29-.645-1.29-1.935-2.58-.645-1.29-1.935-2.58-.967-.968-.645-1.29-2.903-3.87-.967-.967-.645-1.29-1.935-2.58-.968-.967-1.935-2.58-.967-.968-1.935-2.58-.967-.967-.968-1.29-.967-.968-.968-1.29-.967-.967-.968-1.29-3.225-3.225-.967-1.29-.968-.968-.967-1.29-1.29-.967-.968-.968-.967-1.29-4.193-4.192-1.29-.968-.967-1.29-1.29-.967-4.193-4.193-1.29-.967-.967-.968-1.29-.967-.968-.968-1.29-.967-2.257-2.258-1.29-.967-.968-.968-2.58-1.935-.967-.967-1.29-.645-1.29-.968-.968-.967-3.87-2.903-.967-.967-1.29-.968-1.29-.645-1.29-.967-.968-.968-1.29-.967-1.29-.645-2.58-1.935-1.29-.645-1.29-.968-1.29-.644-2.58-1.935-.967-.646-1.29-.967-1.29-.645-1.29-.968-2.58-1.29-1.612-.967-1.29-.645-1.29-.968-2.58-1.29-1.29-.967-3.87-1.935-1.29-.967-1.613-.645-5.16-2.58-1.612-.645-1.29-.968-2.58-1.29-1.613-.645-2.58-1.29-1.29-.322-1.612-.645-2.58-1.29-1.613-.645-2.58-1.29-1.612-.323-2.58-1.29-1.613-.645-1.29-.322-1.612-.645-1.29-.645-1.29-.323-1.613-.645-1.29-.322-1.612-.645-1.29-.323-1.613-.645-1.29-.322-1.612-.645-1.29-.323-1.613-.645-1.289-.322-1.613-.323-1.29-.645-1.612-.322-1.29-.323-1.613-.645-1.29-.322-1.612-.323-1.29-.322-1.613-.323-1.29-.645-3.225-.645-1.29-.322-1.612-.323-1.29-.322-1.613-.323-1.29-.322-3.225-.645-1.29-.323-1.612-.322h-1.613l-1.29-.323-1.612-.322-1.29-.323-1.613-.322h-1.612l-1.29-.323-1.613-.322h-1.612l-1.29-.323-1.613-.322h-1.612l-1.29-.323h-1.613l-1.612-.322h-1.29l-1.613-.323h-1.612l-1.29-.322h-3.225l-1.613-.323h-2.902l-1.612-.322h-5.805l-1.613-.323h-16.662l-1.613.323h-5.805l-1.612.322h-2.903l-1.612.323h-3.225l-1.29.322h-.538l-1.612.323h-1.29l-1.613.322h-1.612l-1.29.323h-1.613l-1.612.322-1.183 1.075h-1.612l-1.613.323-1.29.322h-1.612l-1.613.323-1.29.322-1.612.323-1.29.322h-1.613l-1.612.323-1.29.322-3.225.645-1.29.323-1.612.322-1.29.323-1.613.322-1.29.323-3.225.645-1.29.645-1.612.322-1.29.323-1.613.322-1.29.323-1.612.645-1.29.322-1.613.323-1.29.645-1.612.322-1.29.323-1.613.645-1.29.322-1.612.645-1.29.323-1.613.645-1.29.322-1.612.645-1.29.323-1.613.645-1.29.322-1.29.645-1.612.645-1.29.323-1.613.645-2.58 1.29-1.612.322-2.58 1.29-1.613.645-2.58 1.29-1.612.645-1.29.323-2.58 1.29-1.29.537-2.58 1.29-1.29.968-1.612.645-5.16 2.58-1.613.645-1.29.967-3.87 1.935-1.29.968-2.58 1.29-1.29.967-1.29.645-1.612.968-2.58 1.29-1.29.967-1.29.645-1.29.968-.968.644-2.58 1.935-1.29.646-1.29.967-1.29.645-2.58 1.935-1.29.645-1.29.967-.967.968-1.29.967-1.29.645-1.29.968-.968.967-3.87 2.903-.967.967-1.29.968-1.29.645-.968.967-2.58 1.935-.967.968-1.29.967-2.257 2.258-1.29.967-.968.968-1.29.967-.968.968-1.29.967-4.192 4.193-1.29.967-.967 1.29-1.29.968-4.193 4.192-.967 1.29-.968.968-1.29.967-.967 1.29-.968.968-.967 1.29-3.225 3.225-.968 1.29-.967.967-.968 1.29-.967.968-.968 1.29-.967.967-1.935 2.58-.968.968-1.935 2.58-.967.967-1.935 2.58-.645 1.29-.968.967-2.902 3.87-.645 1.29-.968.968-1.935 2.58-.645 1.29-1.935 2.58-.645 1.29-.967 1.29-.645 1.29-.968 1.29-.645.967-.967 1.29-.645 1.29-.968 1.29-.645 1.29-.967 1.613-1.29 2.58-.968 1.29-1.29 2.58-.967 1.29-1.29 2.58-.968 1.29-.645 1.612-3.224 6.45-.968 1.613-1.935 3.87-.645 1.612-1.29 2.58-.322 1.613-1.935 3.869-.645 1.613-1.29 2.58-.323 1.612-.645 1.29-.645 1.613.215.645-.645 1.29-.645 1.612-.322 1.29-.645 1.613-.645 1.29-.323 1.29-.645 1.612-.322 1.29-.645 1.613-.323 1.29-.645 1.612-.322 1.29-.323 1.613-.645 1.29-.322 1.612-.323 1.29-.645 1.613-.322 1.29-.323 1.612-.322 1.29-.645 1.613-.323 1.612-.322 1.29-.323 1.613-.322 1.29-.323 1.612-.322 1.29-.645 3.225-.323 1.29-.322 1.613-.323 1.29-.645 3.225-.322 1.29-.645 3.225v1.29l-.323 1.612-.322 1.29-.323 1.612v1.613l-.322 1.29-.323 1.612v1.613l-.322 1.29-.323 1.612V256l-.322 1.29v1.612l-.323 1.613v2.902l-.322 1.613v1.612l-.323 1.29v3.225l-.322 1.29v6.128l-.323 1.612v17.953l.323 1.612v6.128l.322 1.289v3.225l.323 1.29v1.613l.322 1.612v2.903l.323 1.612v1.613l.322 1.29v1.612l.323 1.613.322 1.29v1.612l.323 1.613.322 1.29v1.612l.323 1.613.322 1.29.323 1.612v1.29l.645 3.225.322 1.29.645 3.225.323 1.29.322 1.613.323 1.29.645 3.225.322 1.29.323 1.612.322 1.29.323 1.613.322 1.29.323 1.612.645 1.613.322 1.29.323 1.612.322 1.29.645 1.613.323 1.29.322 1.612.645 1.29.323 1.613.322 1.289.645 1.613.323 1.29.645 1.612.322 1.29.645 1.613.323 1.29.645 1.29.645 1.612.322 1.29.645 1.613.645 1.29.323 1.29.645 1.612.645 1.29.322 1.613 1.29 2.58.645 1.612 1.935 3.87.323 1.613 1.29 2.58.645 1.612 1.935 3.87.967 1.613 3.225 6.45.645 1.612.968 1.29 1.29 2.58.967 1.29 1.29 2.58.967 1.29 1.183 1.72.967 1.613.645 1.29.968 1.289.645 1.291.967 1.289.645.968.968 1.29.645 1.29.967 1.29.645 1.29 1.935 2.58.645 1.29 1.935 2.58.968.967.645 1.29 2.902 3.87.968.968.645 1.29 1.935 2.58.967.967 1.935 2.58.968.968 1.935 2.58.967.967.968 1.29.967.968.968 1.29.967.967.968 1.29 3.225 3.225.967 1.29.968.968.967 1.29 1.29.967.968.968.967 1.29 4.193 4.192 1.29.968.967 1.29 1.29.967 4.192 4.193 1.29.967.968.968 1.29.967.968.968 1.29.967 2.257 2.257 1.29.968.967.968 2.58 1.934.968.968 1.29.645 1.29.967.967.968 3.87 2.902.968.968 1.29.967 1.29.645 1.29.968.967.967 1.29.968 1.29.645 2.58 1.935 1.29.645 1.29.967 1.29.645 2.58 1.935.968.645 1.29.968 1.29.645 1.29.967 2.58 1.29 1.612.968 1.29.645 1.29.967 2.58 1.29 1.29.968 3.87 1.935 1.29.967 1.613.645 5.16 2.58 1.612.645 1.29.968 2.58 1.29 1.612.645 2.58 1.29 1.29.322 1.613.645 2.58 1.29 1.612.645 2.58 1.29 1.613.323 2.58 1.29 1.612.645 1.29.322 1.613.645 1.29.645 1.29.323 1.612.645 1.29.322 1.613.645 1.29.323 1.612.645 1.29.322 1.613.645 1.29.323 1.612.645 1.29.322 1.613.323 1.29.645 1.612.322 1.29.323 1.613.645 1.29.322 1.612.323 1.29.322 1.613.323 1.29.645 3.225.645 1.29.322 1.612.323 1.29.322 1.613.323 1.29.322 3.225.645 1.29.323 1.612.322h1.612l1.29.323 1.613.322 1.29.323 1.612.322h1.613l1.29.323 1.612.322h1.613l1.29.323 1.612.322h1.613l1.29.323h1.612l1.613.322h1.29l1.612.323h1.613l1.29.322h3.225l1.612.323h2.903l1.612.322h5.805l1.613.323h16.662l1.613-.323h5.804l1.613-.322h2.902l1.613-.323h3.225l1.29-.322h1.612l1.613-.323h1.29l1.612-.322h1.613l1.29-.323h1.612l1.613-.322 1.29-.323h1.612l1.613-.322 1.29-.323h1.612l1.613-.322 1.29-.323 1.612-.322 1.29-.323h1.613l1.612-.322 1.29-.323 3.225-.645 1.29-.322 1.613-.323 1.29-.322 1.612-.323 1.29-.322 3.225-.645 1.29-.645 1.613-.323 1.29-.322 1.612-.323 1.29-.322 1.613-.645 1.29-.323 1.612-.322 1.29-.645 1.613-.323 1.289-.322 1.613-.645 1.29-.323 1.612-.645 1.29-.322 1.613-.645 1.29-.323 1.612-.645 1.29-.322 1.613-.645 1.29-.323 1.29-.645 1.612-.645 1.29-.322 1.613-.645 2.58-1.29 1.612-.323 2.58-1.29 1.613-.645 2.58-1.29 1.612-.645 1.29-.322 2.58-1.29 1.613-.645 2.58-1.29 1.29-.968 1.612-.645 5.16-2.58 1.613-.645 1.29-.967 3.87-1.935 1.29-.968 2.58-1.29 1.29-.967 1.29-.645 1.612-.968 2.58-1.29 1.29-.967 1.29-.645 1.29-.968.967-.645 2.58-1.935 1.29-.645 1.29-.967 1.29-.645 2.58-1.935 1.29-.645 1.29-.968.968-.967 1.29-.968 1.29-.645 1.29-.967.967-.968 3.87-2.902.968-.968 1.29-.967 1.29-.645.967-.968 2.58-1.934.968-.968 1.29-.968 2.257-2.257 1.29-.967.968-.968 1.29-.967.967-.968 1.29-.967 4.193-4.193 1.29-.967.967-1.29 1.29-.968 4.193-4.192.967-1.29.968-.968 1.29-.967.967-1.29.968-.968.967-1.29 3.225-3.225.968-1.29.967-.967.968-1.29.967-.968.968-1.29.967-.967 1.935-2.58.967-.968 1.935-2.58.968-.967 1.935-2.58.645-1.29.967-.968 2.903-3.87.645-1.29.967-.967 1.935-2.58.645-1.29 1.935-2.58.645-1.29.968-1.29.645-1.29.967-1.29.645-.968.968-1.289.645-1.291.967-1.289.645-1.29.968-1.613 1.29-2.58.967-1.29 1.29-2.58.968-1.29 1.29-2.58.967-1.29.645-1.612 3.225-6.45.968-1.613 1.935-3.87.645-1.612 1.29-2.58.322-1.613 1.935-3.87.645-1.612 1.29-2.58.323-1.613.645-1.29.645-1.612.322-1.29.645-1.29.645-1.613.323-1.29.645-1.612.645-1.29.322-1.29.645-1.613.323-1.29.645-1.612.322-1.29.645-1.612.323-1.291.322-1.612.645-1.29.323-1.612.322-1.29.645-1.613.323-1.29.322-1.612.323-1.29.645-1.613.322-1.612.323-1.29.322-1.613.323-1.29.322-1.612.323-1.29.645-3.225.322-1.29.323-1.613.322-1.29.645-3.225.323-1.29.645-3.225v-1.29l.322-1.612.322-1.29.323-1.613v-1.612l.323-1.29.322-1.613v-1.612l.323-1.29.322-1.613v-1.182l.322-1.29v-1.613l.323-1.612v-2.903l.323-1.612v-1.613l.322-1.29v-3.224l.322-1.29v-6.128l.323-1.612v-7.418" fill="url(#b)" fill-opacity=".6"/><g filter="url(#c)"><circle cx="263.5" cy="251.5" r="232.5" fill="#E6F0EA"/></g><g filter="url(#d)"><circle cx="221.5" cy="209.5" r="153.5" fill="#fff"/></g><path d="M285.885-.601c-13.437 0-22.467.752-22.467.752l.215.215h-2.365l-.215.108-1.398.215h-1.182l-.323.215-.967.107h-2.15l-.645.323h-2.258l-1.505.322h-1.074l-.323.215h-.107l-.538.108h-1.182l-.215.107-1.183.215h-.43l-.107.108h-.108l.215-.108h-.322l-1.613.323h-.322l-2.258.322-.43.215-1.182.108h-.323l-.107.107-1.828.215-1.935.323-4.622.967h-.215l-.108.108-1.29.215h-.215l-.107.107-1.183.215-1.612.323-1.29.322-1.29.323h-.323l-.322.215-.645.215.537-.108-.107.108h-.968l-.43.215h-1.182l-.108.107h-.107l-.108.108-.537.107h-.43l-.108.108-.752.215h-.645l-.108.107-.645.215h-.215l-.215.108-.86.215h-.215l-.322.215-.538.107h-.43l-.43.215-.322.108h-.43l-.538.215-1.29.322h-.43l-.43.215-1.397.43 1.182-.322-.322.107-.645.215h-.86l-.968.323-.215.107h-.107l-.323.108-.43.215h.215l-.322.107-.215.108-.108.107h-.107l.215-.107.107-.108.215-.107h-.215l-.215.107-.967.215-.968.323-.43.215-.322.107h-.215l-.968.323-1.505.537-.322.108h-.108l-.215.107-.752.215h-.108l-1.505.538-.322.107-6.128 1.935-.752.323h-.215v.107l-.645.215h.215l-.43.108.215-.108-.968.323-.645.322h-.322l-.215.215-.43.108-.753.322h-.215l-.752.323-.753.215h.108l-.215.107.107-.107h-.43l-.215.215-.214.107h-.108l-.108.108-1.504.537-.86.323h-.215l-.108.107h-.215l-.322.108-.968.322-.645.323-.215.215-.43.107h.323l.107-.107.538-.215h.43l.215-.215 1.075-.43.537-.215h.43l1.075-.43.86-.215.537-.323.753-.322h.322l.215-.215.215-.108h.215l.108-.107.645-.215h.537l.538-.215h.107l.215-.215.43-.215 1.935-.645.968-.323h.322l-3.87 1.29 1.613-.322-2.58 1.29-1.935.967-3.547 1.935-7.31 4.193 2.58-1.29-1.613.967 2.258-.967-3.225 1.612h.645l2.257-.967-1.29.967-1.935.645 1.613-.322-2.903.645 3.225-.645 2.043-.753 1.72-.215-1.613.323-.322.322 2.902-.645-2.58.645v.323l4.515-1.613.323.323-4.193 1.29h2.903l-2.258 1.29.645-1.29-3.87.967v-.645l-1.29 1.935 3.87-.322-3.547.645-1.29 1.612h1.935l-.645.645-.968.968-6.127 3.87.645.322-1.29.323-3.548 2.257h.968l.322-.645 3.548-.967v2.257l-1.29.645.645.323-1.935.967.322 1.29-.645-.322-1.29 1.29h-.967l-2.258 2.58 1.613-.323-2.258 1.29-3.87 4.837.323-1.612-4.193 3.225.968-1.612 1.935-.645 2.58-3.87-1.29-.323-2.903 1.29-.645 2.903-2.257 1.29h.967l-5.805 5.805 1.183-.43-2.15 2.687v.645l.645-.322 1.29-.646-.323-1.29.968-.967-.645 1.935 1.935.322.322-2.902-1.505.215 2.15-.86 3.225-2.902 5.16-2.58 1.935.322 1.613-1.29.322 1.935 1.613-1.935h1.29l2.58-1.612-3.87 2.902-1.29 1.935h2.257l4.193-2.902 4.192-3.87 4.193-6.773-1.613 2.903 1.29.322-4.515 5.483v2.58l-15.695 11.932v3.547l-3.225 3.548-.645 2.902 2.258-.967-1.29 1.29 2.257-1.613-1.612 1.613 1.612-.968.645 1.29 2.903-.967.645-1.935.967.967 2.903-1.935 1.935-3.87-1.29 3.548 1.935-2.258-3.225 4.515 2.257-1.29v.645l1.935-2.257.968.322.215-1.075.322.968V67.23l.323 1.29.967-.968.323.645v-.645l.645-1.612 1.612 1.612v-.645l.645.323 2.903-1.935-.323 1.29 1.613-1.29-.645.645 1.612-.645-.967.967 2.58-1.29-2.258 1.29.968 1.29 3.225-1.612-.645 1.29 2.257-.968.322.968 1.29-1.935-.322 1.935 1.612-1.613-.322 1.613h1.612l1.613-1.29-.645 1.29 4.837-.645v.645l1.29-.323-.322-1.935h-2.258l1.29-.967h-1.612l.967-1.29-1.612-.645 2.257.323.645-3.225 2.258.322v-1.612l1.29 1.612 3.87-2.58v.968h-1.29l.645 1.29.752-.645 1.613 1.29 2.58-1.29-2.58 1.612 2.257 1.935.323-.968 4.192-1.612.968 1.29 1.29-.968 5.16.323.967-1.613 6.773-1.934.967-1.29-2.902-.968v-2.58l-1.29.968-2.58-1.29.645-4.193-5.16.323-4.515-2.58.645-3.225 4.515-3.225h-2.903l-5.16-2.58.968-1.29-1.613-.645h2.258l.322-1.29.968-.323 1.935-.322.322.645h7.095l3.548 3.87 7.74-2.258 17.63.323 4.837-2.258-.645 1.29 3.225 2.903 2.902-.323-.322-.967 2.257 1.29.645 3.547-2.58 3.548 1.29.322-3.547 2.58 1.29.323-2.258.322-1.29 1.29 2.903.967 1.612-.644-.322.645 3.87-.323v.968l-7.74-.646-.645 1.935-3.87.968-.967 3.547h9.029l-2.257.646-5.805-.645-1.612 3.224 2.257.645-6.45.645 3.87 1.29-2.257.646-1.935-1.29-1.935 4.514 4.192 1.935-1.935 1.29 1.935.323-.645 1.29 3.548-.323-.645.968 5.159-1.29-3.225-2.903 1.613-.322-.645-4.515 1.612-1.29 3.87 5.16 2.258.322.322-3.547 3.548 3.225-1.935.645 4.515-.323v1.29l-.323.645-1.29.323 6.45 4.837 2.58-4.192-1.612-.323v-2.257l.322-.645-5.482-.645 1.612-.323v-1.935l-.967.968-1.29-1.29 3.225-1.935-.968-2.902 2.473.645-.645 2.58 1.29-.968-.323.967 1.935.323 2.58-.323-1.612-1.505.86.538.645-1.29 1.935-.322 4.192-.323 2.58 1.612 2.903-.322 1.397 1.612 4.408-2.58-1.935-1.934.322-.968 1.29.645-.967-1.935 2.58 2.258-1.29.645 3.87 2.257 3.547-.645 6.128 1.29-.323.967-2.58.323 1.613 1.935 3.87.645 4.515 2.58 2.58 1.935 4.837-.323-.645 2.258-.323.645.645-.645 2.258-1.613 1.29 2.903.645 2.257V72.39h.967l6.128-.323-2.903 1.29-.967.645h1.935l5.16-.322 2.257.645-.645 1.29h3.548V73.68l5.16 6.127 2.257 3.548.645.645 9.03 8.385.968 1.935-1.29.322 2.257 1.935-.322 1.613 2.58.322-2.258.323.323 1.29 3.225.645 1.935 1.935 2.257-.645-.645.645-.322.322 2.902 1.613 1.613.322 5.482.645 2.58 2.903 2.903.322.322-4.515 1.612-1.29-1.934-2.902 1.934-.968-1.289-1.612 1.505 1.827.752-1.29 3.225 3.87-1.29 1.613 7.095 4.837v-3.547l1.29 1.29 1.612-1.613-2.902-5.16-.968.323.968-.968-3.225-.967-.645-1.613 1.935.645 1.29-1.612h1.612l1.29 1.935 3.548 1.29.322 1.935 8.708 1.935.967-1.29-1.29-1.29 1.29.322-1.29-3.225 1.29 1.29-.322.968 2.257 1.29v-.968l-1.182-.752 2.15-1.183-3.87-3.225 2.902-2.257 2.58.967-4.192-2.902.322-.968v-2.58l-3.225.323 1.29-1.29-3.547-1.935 3.225.645 2.902-1.29 8.063 4.192.967.645 1.613-.322 1.935 3.225 4.837 1.935-.322-.968-.968.323-.322-1.613-2.58-.322.322-.968-3.547-2.257-.323-.323.645-.645-14.082-5.805-3.548-1.935-4.192-.967 1.29 1.612-1.29.323-12.47-2.903-2.902-1.935 2.579.968-.645-2.258 1.613 2.58 2.902.968 3.87-.645-1.935-1.29 3.548.322-5.16-2.58-.968.645.323-.645-1.29.323-1.29-1.613h-2.58l.645 1.613-3.547-.645 1.935-.645h-1.935l.645-.645-2.58-.968h1.29l-.968-.967.968-.645-1.935-1.613v-1.505l-6.128-3.547-.967-2.258h-1.29l-1.29-.322-.968-1.29 1.613.323-.645.967 1.935-.322-3.87-6.45-1.935-.323.645 2.258-.968-1.29-.645.322.645-1.612-1.29-1.29-2.257 2.902.967-2.902.323.322 2.257-2.902h-2.257l-1.29 1.612h-1.613l1.613-.322-1.613-1.613 1.29.323-1.29-1.29 1.613 1.29-.968-1.29 1.613.322-3.225-3.87 2.902-.645-1.612-.107.967-.538-.645-.322-.86.322.215.538-1.827-.215v-.968l2.257-1.612-3.117.322.537-.322-.967-.968 2.58.323.645-.323-2.258-1.29h1.935l-1.29-1.612-2.58.322.753-.537.43.215-1.935-2.58 2.58-.323h-1.613v-.645h-2.902l3.547-.645v-.537h.645l-2.257-.968 2.58.645-3.548-1.29 2.903.645-3.87-1.29 1.29.323-.968-.645-2.257-.323 2.58.323-1.29-.968h-.323l-1.612-.645-1.613.645 1.613-.967-2.258-.323 1.935-.322-1.29-.968-1.29.323h-.645v-.323l-.322-.645h1.612l-2.58-.322.645-.968-1.935-.967 1.613-2.258-.323 1.29 2.58-.322-2.257.645 6.127 2.257v-2.58l-1.29-.322 1.613-.645 5.805-2.903-.108-.645h25.8l-1.29-.322-1.29-.645-1.29-.323-1.612-.645-1.29-.322-1.29-.645-1.29-.323-1.613-.322-1.29-.645-2.58-.645-1.612-.323-1.29-.645-2.58-.645-1.613-.322-2.58-.645-1.612-.645-3.87-.968-1.613-.322-3.87-.968h-.752c-2.365-.537-4.623-1.075-6.988-1.505-.107 0-.215 0-.322-.107a213.953 213.953 0 0 0-11.503-1.935l.645.322-7.417-.967-1.613-.323 7.955.86c-2.365-.322-4.73-.645-6.987-.86a213.05 213.05 0 0 1-2.795-.322h-.323c-.967-.108-1.827-.215-2.794-.215l-.216-.108h-.322.108c-.753-.107-1.613-.107-2.365-.215L312.33.26h-.645l.538.107c-9.89-.645-18.813-.86-26.338-.967Zm97.502 16.77.645.215v-.215h-.645Zm.86.322.753.323-.323-.323h-.43ZM358.985 41.54l.86-.645-1.29-.323.43.968Zm-70.95 19.564.86.968 4.838-1.935-2.258-.323-3.44 1.29ZM173.871 30.896l-4.515 2.58-.645.645 5.16-3.225Zm-1.29-4.515.323-.645-1.29.645h.967Zm4.515-5.375h-.322l-.323.323.645-.323Zm75.142-19.565-.86.215h-.753l.968-.215-.645.215 1.29-.215Zm56.867.86 3.548.323h-4.515l.967-.323Zm12.9.645 1.29.323 3.225.322h-2.258l-1.29-.322-.967-.323Zm11.825.323 14.405 3.87-5.483-1.29-4.192-1.29-4.73-1.29Zm-98.684.752-1.183.215h-.322l-.108.108-.967.215 1.075-.215 1.505-.323Zm78.152 1.505.752.215.538-.215 1.29.968-1.828-.753-.107.108-.645-.323Zm-86.645.323-.215.107h-.107l.322-.107ZM262.88 7.46l2.903.323.322.322-3.225-.645Zm-47.407.968-.215.107h-.107l.322-.107Zm54.502 0 3.225.322-1.935.323.645 2.257-1.935-2.902Zm-58.694 1.075-.753.215h-.107l.86-.215Zm79.872 2.472.645.645 4.837-.645.645.645h-6.45l.323-.645Zm-13.115.323 1.612.645h3.225l-2.902.322-1.29-.645-1.29.323v-.323h-3.87l4.515-.322Zm-56.545 1.29 3.225.967-.215 1.613-.107.645 2.257-.645-2.257 2.257h-1.398l-3.225 1.613-5.482 1.612h1.935l2.257-.645.323.323 7.417-2.58h1.935l2.258-.645.967.322 5.483-2.257 1.612-.323v.645l.968-.322 2.902-.968-1.612.968-6.45 3.87h-1.29l-.323.967-.322-.645-.968.323.645.645-6.127 1.29-2.903-.645-3.225.967-2.902-1.29-12.578 3.548-3.87.322h-1.612l.645-.645v-.322l3.225-.968 3.225-.322h-2.258v-1.935l1.613-.968 2.58.323 3.547-1.613-1.29 1.29 1.613.968 5.805-1.29.645-1.613.645.645 1.935-1.29-1.828-1.612-.322-.323.322-1.29 2.58-.967Zm-26.767 1.935-.323.322-.967.323 1.29-.645Zm59.769.967-1.612 1.613 1.935-.323-1.935.968-2.258-.968 3.87-1.29Zm-6.342.645v.645l-3.225-.322 3.225-.323Zm16.662.323 2.58 1.612 2.258.323-1.29.645-3.548-2.58Zm31.498 0-3.225.322-.645.645-1.29-.645 5.16-.322Zm-89.01.645-1.29 1.612h-1.29l1.613-.645-.323-.322-3.87 1.935-5.16 2.257 1.29-.322-1.29.645-3.225 1.612v-.752l2.258-1.29 5.16-2.903 6.127-1.827Zm52.675.322.967 1.935 1.29-.322 1.29.967 1.613-.322 2.902 1.29-.967.322-.323.323 2.58.322-.645.968h-3.225l.645 1.612-.967-.645-6.128-4.837.968-1.613Zm10.32.968.967 1.935.323.322h2.902l.323.323-1.935.322-1.29-.322h-1.29v-2.58Zm-24.08.645 2.903.322h-3.225l-1.935 1.29.322-.967 1.935-.645Zm-69.014.967-1.613.645 1.183-.322.43-.323Zm-1.613.645-.752.215-.645.323 1.397-.538Zm57.405-.107 2.58.322-.968.323-.645.967-1.612-.322.645-1.29Zm113.734.43 3.547 3.87.968.967 8.062 3.548-.645-.968-1.935-.322 2.258-.323-2.58-.645-.323-.322-2.58-2.903-2.902-.322 1.612-.645-5.482-1.935Zm-77.077.322h1.935l2.902.323-1.935.645-.322 1.29v-.968h-.323v-.322h-.322v-.323l-1.935-.645Zm-72.562 1.613-1.613 1.29-6.127 2.902-.645.645 2.257-.967-4.837 2.902-3.44 3.333-5.805 5.697 5.482-5.482 3.87-3.548.968-1.29h-1.29l1.935-1.29 9.245-4.192Zm59.339 1.182-.322.645-1.935-.322 2.257-.323Zm-54.287 1.29-.645.645h-1.612l2.257-.645Zm54.61 0-.645.968-2.258.322 2.903-1.29Zm40.205.323 1.612 1.29-1.612-.645-1.29.645 1.29-1.29Zm-24.403.645h1.935l-.645.967-1.29-.967Zm23.113.645 1.29 1.612-1.935-.967.645-.645Zm-13.868.322-.322 1.29v-.967l-1.613.645 1.29 1.612-3.225 1.613.323-2.58 3.547-1.613Zm-9.567 1.613-2.58.645-1.613 1.612v-1.29l4.193-.967Zm20.21.322-2.258 1.29-.645-.967 2.903-.323Zm52.352.968 2.257.322 1.935 1.613h2.903l-1.935.322-1.29-.322-3.87-1.935Zm-62.995.322h1.935l-.645 1.613-1.935.322.645-1.935Zm-87.612.323-.322.645-1.613-.323 1.935-.322Zm143.834.967 2.258 4.515-1.29-2.257-.323-.108v.108l-4.515-1.29 4.408 1.182-.538-2.15Zm-136.524.323v.645l-.322.967-.968-.322h-.322l1.612-1.29Zm17.415 0-4.515.967 2.258.323 2.257-1.29Zm83.205.645.967.645-4.837 1.935-9.03-1.29h8.707l4.193-1.29Zm54.824 0v1.29l.968-1.29h-.968Zm-165.011 1.29-.968.967-.645.645-2.58.323 3.225-.968v-.322l.968-.645Zm9.245.322.967.323-2.257.967 1.29-1.29Zm163.184 0 1.612 2.258h-1.612l1.612.967-3.547.645h3.547l-1.612.323 1.935 1.29.645-2.258-2.58-3.225Zm-91.805.968 1.613.645v.645l-.323 1.29-2.58.967 1.935-1.612-1.29-.323h1.613l-.968-1.612Zm11.825.322h1.935l-.967.968-.968-.968Zm-5.16.323 1.613.645-.645.967-.968-1.612Zm-84.709.322.967.645-1.29.323.323-.968Zm90.192.323.322 1.935-.322-.968-1.613.645 1.613-1.612Zm-93.095.967 1.29 1.613-2.58 2.257 1.29-3.87Zm96.642 1.613-1.612 1.612-.645-.645 2.257-.967Zm-69.982.322-1.612.968-.323-.323v.323l1.29.967.645-1.935Zm144.264 0-.967.968 1.612.967-1.612-.322 1.935 3.225.967-1.613-1.29-.645h1.613l-1.613-1.612-.645-.968Zm.86 4.838-1.29-.323-1.29.645 2.258.968.322-1.29Zm-65.789-4.515.645.645-2.58 1.612 1.935-2.257Zm10.32 0h3.225l6.127 2.257 5.482 1.29-4.515-.322-.967-.968-3.87-.967-1.612 1.29h-2.258l2.258 2.902-5.483-3.225-6.45 1.935-4.192-.645h3.547l-1.612-.322h2.58l-2.258-.323h2.903l7.095-2.902Zm-8.708 3.547h2.258l.967-.645-3.225.645Zm-19.565-1.935v.968h-1.29l1.29-.968Zm-98.361.323-.645 1.612-2.903.323 2.258-.645 1.29-1.29Zm93.201 0h.323l1.29.322-.323.968-.645-.645-.322-.323-.323-.322Zm3.118 1.29 2.257.967-2.902 1.613.645-2.58Zm-8.923.322h2.58l-1.29 1.29-1.29-1.29Zm-58.802.323.323.967-1.935-.322 1.612-.645Zm155.444.645-1.612.967v.645l1.612-1.612Zm-186.296.645.645.967h-.322l-1.935-.322-.968-.323h1.613l.967-.322Zm4.837.322h1.613l-1.29.645-.323-.645Zm21.823.323-.645.967-1.613-.322 2.258-.645Zm53.319.322.645.968-2.257-.323 1.612-.645Zm32.143.323 5.805.645-2.903.967-2.902-1.612Zm-112.767.322 4.192.323-3.224 1.934-.968-2.257Zm31.175 0-2.258 2.258.645-1.29-.967.322 2.58-1.29Zm60.414 0 1.29.645-1.935.323.645-.968Zm44.613 0 2.257 1.29-1.29.323-.967-1.613Zm-15.05.645 2.902.323-1.29.645-1.612-.968Zm-.323.538.968.967-3.548-.323 2.58-.644Zm64.822 0 1.29 1.934-1.612-1.29-.645.323 2.902 1.935.645-2.258-.967.968-1.613-1.612Zm-91.482.43h3.225l1.935.322h-1.935l-6.127.968 2.902-1.29Zm-81.269.644-.645 1.29-.968-.322 1.613-.968Zm46.225.323-2.58 3.547 2.257-1.29 1.613-1.612-1.29-.645Zm59.124 0 2.903 3.547-3.548-2.902.645-.645Zm-111.799.215-.645 1.613-.645-.968 1.29-.645Zm117.282.753 4.192 2.58-4.515-1.935.323-.645Zm-54.932.215-2.903 1.29-1.935-.968-2.902 4.193-1.935-.968-3.548.645-.967 1.29 2.257.322 1.935-1.29.645 1.613 6.773.645.322-.968 2.58 1.29-1.612-5.16 1.29-1.934Zm109.864.43h1.935l-1.935 1.29 2.257.645-2.257-.323-.645.645.645-2.258Zm-199.519.215-1.505.752 1.505.215v-.967Zm-1.505.752h-.107l-.323.215.43-.215Zm-.43.215-3.547 1.72-1.29 1.935 4.837-3.655Zm73.207-.645-.967 1.29 1.29.645-.323-1.935Zm-16.017.43-.645.968h-.323l-2.58.322 3.548-1.29Zm63.317 0h.322l3.548.322-3.548.323-2.902.645 2.58-1.29Zm26.982 1.182.968.968-.968-.645.645 1.29h-1.29l.645-1.613Zm17.952 0-2.58 1.613 4.193-.968 2.58 1.613-3.548.645.968.968-3.225-.323 3.225 1.29h3.87v1.29l-10.535-.645h-.322l-1.613-.968 2.58-.322v-.645l-2.58-.645-2.257.645 1.29-2.58 3.869.968V54.33h1.29l2.795-.323Zm-155.121.43-8.385 3.87.323.645 2.902-1.29 5.16-3.224Zm50.095.215-2.903 1.936-1.29-.323 4.193-1.612Zm55.899 0-.645 1.29-.967-.967 1.612-.322Zm57.19.323.322 1.29 5.16 4.515-.967 1.613 1.612 4.192 3.87 1.29 1.29 2.257-2.257 2.903 1.612-3.548-5.16-3.225-1.29-3.547 1.29-1.935-5.482-4.515v-1.29Zm-147.811.645 2.579.645-5.804.645-.86.86v.108h2.472l-2.257.322-1.613.968 2.258.322-3.225.322-1.935.968 1.935-1.935 2.257-.645.108-.322h-.108l.108-.108.215-.86h-1.613l1.29-.645.645.645 4.515-.968-.967-.322Zm-8.278.968.968.322-2.258.322 1.29-.644Zm54.18.645v.967l1.935-.645-1.935-.322Zm-42.678 1.29-.645.967-.967-.322 1.612-.645Zm87.397 0 1.613.967-1.613.322v-1.29Zm-27.627.645-1.935.645 3.225.322-1.29-.968Zm119.432.322.322 1.29h-1.29l.968-1.29Zm-133.622.968-7.095 2.902 1.613 1.29-3.225-.323.322.968-3.225-1.29-3.547.967 1.612-1.29h-1.935l-13.437 4.515 10.32-.322-3.548.645 1.613.645-8.708 1.612 4.193 1.613h-2.903l2.258.967 2.902-.645-.645.968 2.258.322.322-1.29 1.935.323-.967-.645 3.547 1.29.968-1.613 1.935 1.29-2.258 1.29 3.225.323-1.935 1.29-2.58-.323v1.29l-.645-1.29-1.29 2.58v-2.58l-5.805.645 3.225 1.935-2.58.323 2.258.645-1.935.967 2.58-.322-2.258 1.612 1.935-.322-.967 1.29 2.257-.323-.322-1.612 1.29.645.967-1.613.108.43.537.86 1.29-1.935-.322 1.613 2.257.322.645-.967.323 1.29-.323-1.613 1.935.323-.967-.968 1.29.968-.323-.968.968.968.322-.968 1.29.645 1.29-.967-1.29 1.612 5.16-1.935-2.58 1.613 1.613.322.645-.967-.645 1.29 1.935-.645-3.87 1.935h1.612l4.193-2.258-3.548 2.903.645.645h2.258l.322-1.613.323-1.612v1.612l-.323.968 1.505-1.72h.108l-.86 2.795 2.257-.323.645-1.935v1.72l.323-3.547.645 1.612.967-.967-.322 2.58 1.612-2.58-.322 2.902h2.902l.323-2.902 1.29 2.257.645-2.58.645 1.613.967-.323-.645 1.613 2.58-1.935-.322 2.58 3.87-.645.645-1.613h-2.903l2.903-.645-2.58-.967 4.515.967v-.322l.322-1.935.645 2.902 3.87 2.258 3.87-2.58-2.58-.645 2.902-.645-2.902-.323 2.902-.322-3.87-1.935 1.935.322.968-1.29-2.903-.322-.967-2.258.967.645 2.795-.967-2.795 1.29 2.903 1.612 1.29 1.935-.323 4.193 2.58-.323 2.58-3.225-.967-5.805-5.16.323 3.762-1.29-1.935-1.613-1.935-.322-1.935 1.29-1.612-1.29-.645.322h-.645l-.645.323-.215.107h-.215l-4.407 1.183h.645l2.257.645-2.58-.323-1.935-.322 1.29.645h.645l-2.902.645-2.258.645h.645l1.613.645v1.612l-3.225-1.612-.968-.323-.645 1.29-.322-1.29-1.613.968-1.935-.968.645-2.257-1.29 1.935-3.225-.323-.322.968-6.128-2.258.323-1.935-1.935.645 1.935-.967.967-2.58-3.547-.645 3.87-2.58 3.547-.968-1.075-2.794Zm-48.159.322-.968.968-.645-.323 1.613-.645Zm89.009.645-1.935 1.935 5.482 2.58 1.29-3.547-4.837-.968Zm30.852 0-7.74.322-4.515 2.258-2.58-1.935-6.127.323.967 1.612 1.613-1.29.645 1.935-1.613-.645-1.935 1.29-.967-.645v.967l.322.645 5.805 2.58 1.29 6.128 2.258 1.612 2.257-.322-.322-5.483 2.902 4.838h.968l-1.29-1.935 1.612.645.645-.968 1.613.323-1.613 1.29 2.258.967 2.902-.967-.967 2.58 6.772-1.613 1.935-2.257-2.257-.645 1.29-.968-5.16-.322 5.482-.645-.322-1.613-6.45-.645-3.87-1.612 10.32.322-.968-2.257-4.837-1.935-.323-1.935Zm-153.616 1.29-1.613.322-1.29 1.935-4.192 3.225-.968 2.58-.645-.967-2.58 3.225.645-3.225-1.612 1.935v2.58l-1.613.645-.967-.968-.323 1.29h-1.612l-.968.968 1.613 1.29.967-.323.323-.967 1.29.967-.645-1.612 1.612-.968v.968l1.398-.968-.968 2.58 1.935-2.902 1.29 1.935 1.935-2.258.645.323.645-2.258.968.645 1.612-2.257.323 1.612 1.29-1.29h.645v-.322l-.323-1.29.645.967 1.613 2.258 1.29-.645-.968 1.29 1.613-.645.322-3.87-1.612-.645-1.29-.645.967-1.29-1.935.645 1.613-.968.322-2.257-2.257 2.257.86-2.902Zm70.734 3.87 1.935 1.935-4.837-.645 2.902-1.29Zm-19.672 1.612-1.613.323.323.645 1.29-.968Zm35.045 0-2.58 1.613.967 1.612v.323l3.225-.645-1.612-2.903Zm43.107 2.258-1.613.322.323 1.613-.323-.968-1.612.645v3.225l2.902.645-1.612 2.903 4.192-.323h1.29l-.645-1.612 1.613.322-2.58-.645h-.323l.323-.967.322-.645 2.903.967.645-1.612-4.515-3.225-1.29-.645Zm-45.365 1.29-2.58.645.968.322 1.612-.967Zm13.545.322-1.612.323-.323.967.645-.645 1.29-.645Zm25.692.968-1.935 1.935 1.29.967-3.225.645-1.29 4.193 7.095-.968-1.935-6.772Zm44.613 0-4.515.322-.968 1.29-.645.323-8.385 3.547 2.258 2.903 2.58-.323.645.968 1.612 1.612 4.515.323-.322-2.258 6.127-4.515-1.612-.645-1.29-3.547Zm85.139.967-1.29.323 1.29 1.935h1.612l-.322.967 1.612-.967.645 1.612 1.29.323v-1.29l-1.29-.645h1.613l-4.193-1.935v.967l-.967-1.29Zm-3.548.645 1.613 1.29 1.29-.322-2.903-.968Zm-110.831.645-.645 2.258 2.902.322.645-.645-2.902-1.935Zm9.997 5.483-5.16 1.935h-3.547l-.645 2.902 1.29.645.322-1.612 1.613.645.967 3.87 1.613-1.613-1.613-3.225 2.903.323 3.87 4.192 1.29-.645-1.29-.645 2.902-.645-2.58-.322 3.225-.645h-2.58l3.548-.968-2.258-1.612-2.58 1.612.323-1.72-3.87.323 4.837-1.613-2.58-1.182Zm-47.299.967-3.87 2.58 3.225.968 3.547-.968h1.29l-2.58-2.257-1.612-.323Zm22.252.86 1.935 2.903 2.257-2.58-4.192-.323Zm8.6 0-2.58.323-.968 1.29 2.58 4.515.323-.968h2.257l-1.29-1.935 2.58 1.613-1.612-1.935 2.58-.968-3.548.323-.645.322.323-.645.967-.645-.967-1.29Zm-13.438.323-1.29 1.612-1.935-1.29-5.16 1.935.645 1.29-2.902-.645-1.613 1.935-.645.645h1.613v1.613h.645l2.257.322 5.16-3.547 3.225.322-.322-.967 1.935 1.935 1.29-.968-.645.968 1.935.322-2.903.645h2.903l-.323.968 2.58-1.613.645 1.935 3.548-.322-2.258-2.58-2.58.967-2.58-4.515-3.225-.967Zm36.013 3.547-.968 1.29 2.903-1.29h-1.935Zm1.935.968-3.225 2.902-.323-1.935-2.902 3.225 1.612.645h2.58l.968-.967 4.515-2.903-2.258.645-.645-1.29-.322-.322Zm-38.593 2.257.645 1.29-1.612-.967.322 1.29-1.935-.968-.322 1.613-1.935-.323.967.968-1.935-.645 1.29 1.29-3.225-1.613-.645.645-1.29 1.613.645 1.612 2.258-.322 1.935-.645 1.29 1.935h-3.87l.645 2.257-1.935.968 1.29.322-1.29 1.29h1.935l-1.613.968 4.838-.323-3.87 1.935 3.87-.645-3.548 2.58 1.613.645-2.58.645.322 1.613 1.935-.323-1.935.645 1.613.968h-1.29v5.16l2.257-3.225-.645 2.902 1.935-.645-2.257 1.29-.645 2.258.645 1.612 2.902.323 1.613-2.258v1.613l5.805-2.258.322-.322.968-1.29.967-1.29-2.58-1.935 3.87.645.645-1.613-2.257-.645 2.902.323 1.935-2.58-1.612.322.322-.967-2.257.967 1.29-2.257-3.225 1.935 2.902-2.258-1.935-.645-2.902 3.225 1.612-2.257v-.968l-1.612 1.613-1.29.322.645-1.29-1.613.968-.322.967-.645 3.225v-2.58l-1.613.645 1.935-2.257 1.935-1.613-3.547-1.935 3.87 1.29 2.257-.322-4.837-3.548 1.29-.645-2.903 1.29.968-1.612-1.29-.645 3.225.645 1.29-1.29-.323-2.258-1.29 1.29-.645-.967v2.257l-1.612-3.87-1.613 2.58.968-3.225 4.515.645-2.58-1.935 2.58-2.902-1.613-.323.323 1.29-1.613-1.29Zm230.586.323 1.613 1.935v-.323l-1.613-1.612Zm-314.435 1.29-1.612 1.935 1.29-1.613-1.935 1.613-1.29-1.29.322 1.612-1.29-1.612-2.257 1.29-.645-.968-.645 1.613V92.6l-.323 1.29-.645-.968-.967.968.322-1.29-1.29 1.935.645-1.613-1.935 1.935h-2.257l-1.613 4.838-.322-2.258v1.613l-.968-1.29-.322 1.612-1.29-.322.322 1.29-1.29-1.29.645 1.612-1.935-.967.645 1.29-2.257 1.935 3.225-1.935-1.613 2.58 1.613-.968v1.613l1.935-.968-.323 1.613.968-.968-.323 1.613.968-1.29v1.612l2.902-1.29-1.29 1.29 2.58-1.612-1.29 2.58 1.935-.323-1.612 1.29 2.58-.967-1.613 1.29 1.29-.645-.645 1.612 1.935-1.29-1.612 1.935h1.935l1.29-1.612-.645 2.257 3.87-.967-1.29 1.29 1.612.645.323.322-1.29 2.795 3.225.968-.968.967-1.29-1.29-.967.968h1.612l-1.29.322v2.58l1.613-.322-1.29 1.612 4.837 2.903.645 1.934 3.547-.645-3.225 1.29-.645 2.58h1.29l-.967.968.645 4.837 5.16 5.805.322.323 2.258-4.838-1.29-2.58v-.322l.322-.645.645-1.29.968 3.225.967-3.87 2.903 1.935-1.613 1.29 1.29 1.935 2.258-3.87.322 1.29 1.613-1.29-4.193 5.16-4.515 1.935 1.935.967-1.935.323v1.29l2.58-1.29 1.935.645v-1.29l1.29.967-.322-1.612 1.29.645 2.902-2.903-1.29-.967 1.29.322.323-1.29v2.258l1.612-.968-.967-1.935 1.935-.967.322 2.902.968-3.225v1.935l1.612-1.29-1.612 1.613.967 1.612 2.58-1.29-2.58 1.613 1.29.322-1.29 2.258.645-2.258-2.257 2.258.645 2.257h1.935l1.29-1.612h-2.258l2.258-.968 2.58.323-.968 1.29-.645-.968-.645 2.258 1.183-1.183-.86 1.183-.323.322 1.29.968.323-1.29.645-1.29 1.935.322.967-1.935-.322 1.935 1.935-2.257-1.935 2.902-.323.645h2.903l.322-.645.968-2.257.645 1.935.322.322v-.322l.323-1.935 2.58-.968v4.516l2.58-.322.645-1.613.645-.967.322.967.323.968.967-.968.645-.645-1.612-.967h2.257l3.87 1.612 5.16 1.613-.967-1.935v-.323h1.612l.323.323 1.612 2.902.323-2.902v-1.075l.322.967 1.29 3.548 4.193.967.967-2.58-2.58-.967.645-.968.323-.645-4.838-2.58 7.418 1.613-2.58-3.225 2.58 1.29.645-5.16 1.29 1.29-.968 4.192 1.613 2.258 1.289-2.58 1.935.322-.322-5.805 1.612 1.613-.322 4.192 2.902-5.482-3.225-1.613 3.548-1.29-.968-1.29-2.257 1.935-1.935-.645 3.87-1.935-3.548.645.968-1.29.967.323 1.613-.968-3.548.323.538.215-1.828-.538 5.483-1.612-4.193-1.29 2.903-.967-.968-1.29 2.903 1.612 1.29-2.902v-.323h-.323l-3.547-.322h3.225l.645-.968-2.58-2.257h1.612l-1.935-1.29 1.935.645-.322-3.548-1.29-.645-1.613 1.613-1.935-3.87 2.258-1.935.645-4.515-5.16-.323-2.257 2.258-1.29-.968 2.902-1.612-2.902 1.29 4.192-3.225-4.192.967.967-1.612-2.257-.323-2.258.645 1.613.645-2.58.323-.645 2.58-2.903.967h-1.935l-7.74.323-.645-1.935-.645 1.29-4.837-1.935-3.548.322 1.29-1.612-1.29.967-.967-1.612.322 1.612-.645-2.58-2.902 1.613 3.225 1.935-2.903-.645-1.29 1.612v-1.935l-1.29 1.935v-1.935l-.645 1.29v-.967l-1.612 1.29.967-1.29-3.87.645 3.87-1.935 1.29-2.258-4.515 1.613-2.257 2.58v-.323l-2.258-1.935-1.29 1.29-.645-.967 1.613-.645-2.903-.323.215-.215-.537-1.075-2.258.968 4.515-3.548-2.58 1.29 1.613-1.29-1.29-1.612-.645 3.547v-.967l-1.935 2.58 2.58-5.16-3.225 2.902 2.257-3.547-3.225 1.612.968-1.935-1.935 1.29v2.58l-1.29.968.967-5.483-1.935 2.258.645-2.258-2.58.323.323 2.58-1.613.645 1.29-3.548-.645.968-1.612-.968-.645 1.613v-1.613l-1.935-.322.322 2.58h2.258l-5.16.967 1.397-.86.86-2.365-2.257 2.258 1.612-2.258-1.29.968-.322-1.29-1.29 1.612v-1.397Zm2.687 2.687-.107.215 1.29-.967-1.183.752Zm10.213-.43 1.612-1.612-1.29.645-.322-1.29v2.257Zm5.59 4.945.107.215.215-.43-.322.215Zm.43-.215 1.72-1.182.322-2.258-2.042 3.44Zm91.912-6.987-1.29 1.935 3.547.322.323-1.612-2.58-.645Zm-22.468.645v1.29h1.29l-1.29-1.29Zm3.548.322.967.968 2.258-.968h-3.225Zm154.476.645-.322 1.613 3.547 2.257-1.612-2.257-1.613-1.613Zm-148.456.323 1.29 2.257.645.968 4.837 1.935-.322-2.258h-1.613l.968-1.935-1.613.645-2.902-1.29-1.29-.322Zm-3.118.322-.645 1.935 3.548 1.29-.645-2.902-1.935-.323h-.323Zm17.953 1.29-4.193.323 1.29 1.29 2.903-1.613Zm206.291 0 .86 1.29-.323-.645-.537-.645Zm-227.791.323-2.58.645.967 1.29-1.612-1.29.322 3.225-.967-1.29-1.613 3.225 1.29.967 1.613-.967 1.29 3.225.322-1.29 5.483 3.87.967-2.258-1.612-.967 2.257-.968-2.257-.967 2.257.322-.322-.967-2.258-.323.323-1.935-4.515.645 3.547-1.612-2.902-.968 1.29-.645-1.29-.967Zm-64.285.322-1.612 1.613-.645-.968-.968 2.58 2.58-.322 1.29-.323 1.613-1.612-.645-.323-1.613-.645Zm226.501 3.87 1.29 1.935.645-.645 2.903 2.258-1.935-1.935-2.903-1.613Zm-23.112.968-.968 1.29 2.258 2.257.322-2.58-1.612-.967Zm-9.353 7.74.645 5.482 1.935-.322-.645-3.87-1.935-1.29Zm-10.965 3.117-1.612 3.548.645 3.225.967 1.612 3.548-1.29-5.805 2.58-3.225 7.74-2.58 5.805 1.29 4.192-.645 2.58-.323 1.29.323.323 1.935.645 2.58-1.29 1.612.967-1.935 3.225-2.58.323 1.613 1.612-1.29 6.773 2.257 2.58-3.87.645h-.322l-4.192.322-1.613 4.193.323 5.16-5.483 3.225-.645-1.935-2.58 1.29-.645 1.612 2.58 3.87-2.902-1.612 1.935.322-1.613-2.257-.967 3.547.645-3.547-5.483 6.127h1.613v3.548l.322-.968.323-.322v.322l.645 1.613 2.58.322h.322l-1.935 2.258 1.613 1.29-3.548.967-.967 3.225-2.903-.322 3.548 5.804-8.063-1.29.645-1.935-2.257.323.322-1.613-2.58-.967-2.58 2.257h-3.547l1.935 4.838-3.225 2.257h-.323l-2.58.323-.322-1.613-3.87 2.258-.968 3.547-3.225-2.58.323 1.613-1.935-.968-1.613 1.29.645 1.613 1.613-.968-4.515 5.16v2.58l-.323-4.837 2.903-10.858-2.903-1.612 1.935.322-.645-1.29-5.482-1.935-3.548 3.548v-2.258l-3.87.968 1.29-2.258-2.902-.322-1.29 3.87 1.29 2.902-1.29.323-1.29.645 1.935 1.29-1.612-.323-2.58 3.225v-1.612l-3.225.967-.323 1.29 1.613-.645-7.74 5.805.645 2.58-1.613-.967 2.58 4.515-9.352 2.58 1.29 5.482 4.837 3.548.968 8.062.322 1.29-1.612-1.29-.645.323h-1.613l-.967.322h-1.613v-.645l-.322-.645v-3.87l-.323-.645v-2.902l-.322-.645v-.645l-2.58-1.613-1.29.968.967 1.935-3.225-.323 4.193 4.838-3.87-1.29-2.258-8.385.323 3.225-3.225 3.87 1.935 4.192-.323 2.903-.645 4.192 3.87-.645 3.225 1.935 1.29 3.225-1.29 2.58 2.58 1.29-3.547-1.612-.968-5.805-3.547.967.322 5.483-5.482 7.417-6.128-2.58 5.483-.967 3.87-7.74-1.935-2.58.645-5.16.322-4.515-1.612-2.903 1.935-6.127-1.935-.968-3.225-.322-2.258 6.45-2.902 1.935-.645 5.482-.323 2.258 2.258.322 1.935 3.225-2.258 3.87-4.515-5.805 1.29.645-8.707-5.482-1.29 1.29.645 3.87h-2.258l-.645 1.935-.645-3.548-3.547 1.29-3.548-.967-1.289 1.612-2.903-.967 1.613-2.903 1.935-.322-.968-.323-3.87 2.258.323-1.29-7.74.645.322 1.612-2.257-.645-1.935 2.903-2.903-.968-.322-3.547 3.87-.323.322-1.612-3.87-5.16.323 2.58-5.483 10.32-1.935-4.193-3.87.968-2.257.645-.968.322-.322 1.935-.968 3.225-.645-.967-1.935-2.58-1.29.322 1.29-.645-1.935-2.902-1.612 1.29 1.29 3.547-2.58 1.613-2.258-6.45 1.613-3.87 2.58-1.29-1.935-3.87 1.612.322-.322-5.16 8.062 12.255 2.58-.967 3.87-1.29.323-5.16v-.645l-3.548-9.03-2.257-1.935-1.935 1.29 2.257-1.613-1.612-1.612.967-1.29 1.29 1.29-.645-1.935-2.257.645-.323-2.258h-1.612l.322-1.935.323-.967 1.612 1.935 1.935-.323-.645-3.87-2.902.323 2.58-1.29-.323-1.29-2.902 1.612-1.29-.322 2.58-1.935-5.16 1.612 3.87-1.935-.968-1.935-4.837 2.258v-.323l-.645-3.225-.968 1.613-.967 1.29.322-1.935v-.323l-3.87.968h-.322l.645-.323 1.29-.967-1.613.322 1.613-.967-1.613-.323-.967 1.935-.323-2.58-3.87 1.935-1.612-1.29.967 2.258-1.612-1.935-2.258 1.935 1.29-1.935-1.29-.645-.322 1.29-.968-1.29-.322 2.58-2.58-1.613.322 2.258-2.58-2.58v1.29l-3.547.322 1.612 1.29-2.257-1.29-.645 1.29v-.967l-3.547.967 1.29 1.29-3.548-1.612 1.29 1.29-1.935-.645-.322 1.612-1.29-.645.967-1.29h-5.482l.645 1.935 3.225.323-3.225.967-1.613-1.612.968-.968-1.935-1.612-1.935 1.935-.323-1.935-.645 1.935v-3.548l-.322 2.903-1.935-3.225-1.29 2.902.645-1.612-1.29.645v-1.613l-.323 1.29-.322-2.902-1.29.967-1.613.323.323 2.257-.968-1.612.645 1.29h-1.612l1.612 2.257.968-.322-.645 1.935 1.612-.323-.967.968-1.935-.323.967-1.612-2.257-2.903v1.613l-.968-1.29-.645 1.29 1.29.645-2.257-.323-.645 1.29h1.29l-2.258.645 3.87 1.613-5.482-1.29-.645 1.612 1.935 1.29-2.58-.322.645 1.612h-1.29v-2.365l-1.613 1.29-.967 4.515 1.612 2.258 5.483-.323.645 1.935 3.87-1.612-5.805 5.482.967.645-1.935 1.29 1.935-.645-2.902 1.613-2.58 6.127-1.613-.322-2.902 3.87 1.935 2.902 3.547-1.612 1.29 2.902 6.128-2.902 3.225-3.87.967.967-.645-1.935 2.58 1.935 1.613-.967-.968 1.935 2.903-.323-.645-1.612 2.902.645 1.29-4.838-.645-1.612 9.353-6.773-.323 1.613 5.16.322 1.935.323 3.547-.968 2.903-3.547v1.29l2.257-1.935v1.612l1.613-.967 2.257 2.902-1.612 4.515-13.867 1.29-3.87 5.483-3.548 2.58v3.225l1.613.322-2.258 1.935 12.47 5.805-1.29 1.613 1.612 4.192-4.514-2.902-1.29 1.29-3.225-4.838-4.838-2.257-2.58 3.87 1.29 1.612-3.87 3.548-2.257-.323.967-4.837-2.257-.968-4.838 2.258-4.837 6.127-1.29-1.29 3.547-1.612-2.902 1.29-1.613-.645v-.323l-.967.968v.322l.967.645-1.29-.322-1.935-.323 2.258-.322-2.903-1.29.323-3.225-7.74-4.515-1.613 1.29.645-6.45-4.515-3.225 1.935-.968-1.612-1.935.967-3.225 3.548-2.257 4.515.967v-2.58l4.515-1.935-4.838-2.58-1.935 1.29 2.58-.322.645 2.257-1.29-1.29-1.29 1.613.645-1.613-1.29-.322v-.323l-7.417 4.838.967.322-1.29 2.258-.967-.645-.43 5.052v-3.87l-1.935 1.29.645-2.257-1.613-1.613-.967 1.613-.968-4.193-1.935-.322-1.29 2.58-1.612-.645 1.935-3.225-4.515.967-.323 2.258-1.935-2.58v2.58l-4.192-5.805-2.58 2.257-.967-.645-3.87-1.935V213l-3.548 4.192-1.612-3.547 1.29-1.935-2.58-3.87-.645 2.257v-1.29l-1.613 1.935.323 6.45-3.225 3.87v2.58l-2.58 1.29-.323.645-7.74 3.87-3.547-16.77.967-2.902-3.225-3.548-2.257 3.87-7.31 4.515-4.515.645.645 1.29-1.935.323.215 1.397-4.408 2.795 1.935 6.773-2.902 7.31 2.902 2.257 1.935 7.74 2.903.323.967 2.257 2.58-1.29 1.29.968.645.322.323-1.29.322-1.29 1.935-1.612.645.322H76.8l5.483 4.515 2.58-3.225 1.935-.322 1.935 1.612.645 7.74 8.385 3.225.645 5.482-3.548 7.74 1.29 20.855-1.935 5.483-3.547 1.29.645 1.612 3.547-1.612 1.613.967.645-4.515 2.58-.967 1.612 3.225-.322 2.902 1.29-.645-1.29-11.61 1.612-1.29-2.257-4.192 2.257-8.063v-5.805l3.548-4.515 3.547 2.58-2.58 4.193h2.58l-2.902 9.997 1.612 2.903v4.192l-.967-2.58 1.935 6.45v4.838l-4.515 3.87-.323 4.837-.322 4.515.967.645h-1.29l-.322 2.58 4.515 6.45h-1.29l-2.903-5.16-1.612.645-1.29 5.16 1.612.645-.645 3.225 1.29-1.29.645 3.225 1.613-5.482 1.612 2.58-.322-3.225 1.612.967.323 2.902 1.612-1.934.323 1.612.967-3.225-.967-3.547-1.613-.645 1.183 5.375-2.15-6.343 1.612.968.645-1.613.645 1.613 1.29-6.773 1.29.323.645 5.482.645-2.257.967 2.58v-4.193l4.193 2.58 3.225 5.805-3.225.645 5.805-.322 3.87 3.547.322-8.707-1.29-.645 6.128-1.29 4.515-5.16-.323 1.29 1.935.645 2.58-3.87-.215 1.182-.322.108h.43l2.795-.323 1.935-1.612 3.87 1.29.322 2.58-2.257-2.258.967 1.613-.967.322 4.515 3.87 1.612 2.903 3.548-1.29-1.613 1.612 3.87-.645 10.32 3.548-3.225 1.29-2.257-1.613.645 2.903-4.193 2.257-2.902-.967 6.127 13.867 3.225 5.805-.645 4.515-2.257 1.29-4.515-.323-.645-.322-5.16-3.225-5.16-5.16-2.258-6.45-4.837-3.225-8.063-.968-5.482-5.482-.645 1.935 1.612 1.935-2.58-1.935-.645 1.29-5.805-5.805-2.902.323-1.29 1.612 2.58 1.935-2.903 2.902.968 1.935-1.613-.967v-1.935l-1.29.967 1.935 3.87-1.29.645.645 3.225h-1.612l3.225 2.258-3.548-.645 3.225 1.935 1.935 5.805 2.258 1.612 1.935-1.935 1.612 1.29 3.225 7.095 3.87 1.935 3.225-.645 1.935 2.58 2.903.645-3.548 3.87-1.29 4.838-11.287 8.707-7.418-4.192.323-2.258-2.58-2.58-7.417-2.257-5.16-8.063-4.838-5.16.323-2.257-4.193-5.483.645-2.257-3.225-5.16-5.482-2.258-2.903 4.515h-.322l-3.548-1.29-1.612-5.805-3.548-8.384.968-4.838-2.58-7.74-2.258-3.225-1.612-9.997.645-1.613 4.837.323 1.29-5.16 3.548-1.29-2.258-.645.645-4.193-4.192-4.192-1.613-5.805-2.902-1.935-1.29-5.805-4.515-8.062-3.225-1.935-1.29-2.903-2.903-1.612-.645-3.225.968-1.29-1.935-5.483 1.29-4.515-.645-1.29-5.482 1.29-5.483-5.482-3.225.645-3.225 4.192-.322-.322h-1.935l-2.903-2.58-.967-4.515H28.21l-1.29-1.935-3.225 1.612-1.613-1.935.323.645-4.193-.322-1.935 1.935h.645l-1.612 5.16-1.613.645-2.58 5.805-2.902 2.902-1.29-1.612-.968 6.45-.645 1.29v3.547l-.322-2.902.322-1.935-.967 1.935v2.257l-.323-1.935v3.548l-.322-.968v2.58l.322 3.87-.322-1.935v2.257l-.323-.967-.322 1.935v.322l-.323.323.323 1.29-.968 3.225v2.58l-.322 2.58-.323 2.257-.645 2.473v-.215l-.322 5.16-.323.967v7.095l.323 15.803.322 6.45 1.29 4.192 1.935 8.385 1.935 9.997 2.903 6.128 1.935 4.192 4.192 9.03-.967-1.29 1.612 4.515.968 4.193.645 2.257-.645-1.29.322 1.29.645.645h-.645l.645 4.838 1.183 2.257.322-.645v.323l.323 1.612.322-.645.323 1.613 1.935 3.547v-.967l.645 2.257.645.323.322 3.87 1.29 1.612v1.29l-.645-1.29.645 3.548-1.612 2.58.645 1.612v1.612l-.645-1.612 1.29 3.547-.968-1.612-.322-1.29-.323 1.935-.967-1.935 2.257 8.062 5.16 13.223 1.29 4.837.645 1.398 3.763 9.245-.645.322 1.612 3.548 1.935 3.87.645 1.612-1.29-1.612.645.967.323.645 2.58 4.515L53.15 458.85l6.127 8.385 1.29 1.505.107.108.215.215 1.398 1.612v.108l.322.322.323.645.322.215.538.753.107.107.323.323v.107l.322.645.323.215.645.753.322.322v.108l.323.537 1.29 1.29.322.645.323.215 2.58 3.01 1.29 1.29v.108l.215.537.645.323.322.322.323.645.107.108.215.215.645.645v.107l2.58 2.58.323.645.215.108.107.215.645.645.645.645.645.322.323.645.967.968.645.322.323.645.967.968.645.322.323.645.645.645.645.323.322.322.323.645.322.323.645.322.645.645.323.645.322.323.645.322 2.258 2.258.645.322.645.645.322.645.645.323.968.967.645.323.322.645.323.322.645.323.645.645.645.322.322.323.323.645.322.322.645.323.645.645.645.322.645.645.645.323.323.645.322.322.645.323.645.645.645.322.645.645.645.323.323.322.322.645.645.323.323.322.645.323.645.645.645.322.645.645.645.323.322.322.645.323.323.322.322.323.323.215-.968-.645 1.613 1.29v-.215l1.612 1.182-1.29-.752 4.837 3.762.968.645-2.258-1.935-4.837-4.192-1.29-1.29 1.29.967 4.192 2.58h.968l10.32 5.16h2.902l-3.225-4.193.968.323-2.258-3.225.968-.322-2.903-2.58-1.29-.968-2.58-4.515.645-.645-.967-.322.967-.968-3.547-4.192 1.29-1.935 3.225-1.613.645-.322 3.225.645-1.29-1.828 2.257 1.613 9.675-1.613 10.535.645 9.03-1.612 14.19-9.675.645-1.613v-.967l2.58.322-1.935-.645 1.935-4.192-2.257-1.29-6.45-.323-8.923-3.225-4.515-.322-2.58-1.935-5.482-1.29-5.483-7.095-2.58-.968 3.548.323.322-1.613-7.74-12.254-3.547-3.548-.645-1.612-.323-.968-.967.968-1.935-13.115-3.548-5.483 1.29-9.352.645 1.29-.645-4.838-3.225-6.45.323-4.192 1.29.967-1.613-3.87-.322-16.339-1.613-6.773 1.29-4.192v7.417l2.258 5.805 5.482-5.16-3.87 4.515 2.258 1.613 2.902 15.694-.322 3.548 3.225 4.837.967 6.773-1.29 4.837 2.258 4.515 2.58 4.193 5.16 15.157-1.613 5.16 1.935 10.642 6.773 2.903 2.902-.645 13.438 3.87 3.225-.968 13.115 1.613 1.612-2.58 11.932 1.612 2.258-2.257 4.192.967 2.58-2.58 4.838.323.645-4.838 1.612-.967 1.613 1.29 6.772-5.805-4.192-6.45-6.773-3.225-1.935-3.225-.967-4.837 1.612-2.903-11.932 5.805-6.45-2.257-2.258.322-3.224-2.902 2.579-6.128-2.257-.967-2.257 4.515-1.935-6.128 1.29-2.58-4.515-5.912-.968-8.385-1.612-.968 2.257.323-.322-2.258v-.322l3.547 1.612.645-1.29 1.935 2.58h2.258l.322.968 2.902 10.535 3.87 2.58 4.515 5.805 4.515 2.58 8.385-.645 1.935 6.772 11.288 4.838 7.74 2.902 21.177.968.645 3.225 2.902.645.645 3.869h4.193l-.645 1.613 2.58-.968-1.613 1.29 3.225 3.225 5.805-.322-1.29 1.935-5.805.322 8.708 7.095 6.127-1.612.968-4.515 2.902.322-1.935 1.29v.968h1.935l-1.612 1.612 1.612 2.258-1.612 3.547 3.87 14.405 11.61 17.415 1.935 3.548 1.612 3.547 4.838 2.58 2.902-.967.968-2.258 4.515-.967-1.613-.645 1.29-1.935.645-.645 2.903-.645-.645-4.515 1.29-2.258 1.612-3.547-1.935-6.128.968-2.257 3.547-.323 1.29-2.257 5.16-1.613-.323-1.612 8.708-6.128 3.87-4.515 6.127-3.225 2.903-3.547-.968-2.258 3.87-2.257.968-2.258 1.29 2.258 1.612-2.258 1.935 1.29-.322-1.935.967 1.29 1.29-1.612 1.29.645.323-2.258 1.612 1.935 1.29-3.547.645 2.258.645-.646-.967-2.257 3.547-.967 7.418 8.384.967-1.935v1.935h3.548l1.612 1.613-2.58.645 2.258 1.612.645-2.257 3.225 6.127-.968 6.128 1.613-1.613-.645 1.935.967-1.29 1.612.968.645-1.613 1.613.645.967-1.935 2.58-1.612-1.29-1.29 1.935.645 1.613-1.613-.323-2.58 2.58 2.903 1.613-.968 1.29 6.128 2.257 3.87v-1.613l2.903 3.225-.323 3.548h1.613l-1.613 3.87.645 2.257.968-1.612-.323 1.29-1.29 6.45 1.613-1.29 6.772 2.902h.645l2.258 5.805 3.547 2.903 9.89-.323 1.935-1.935h1.613l-3.87-2.257v-4.838l-1.613-1.612-7.417-1.29-5.483 1.29-2.257-4.193-.968-1.29-2.902 1.29-.323-2.58-.322-.967 3.225-7.31v-.323l-.323-.967-.645-2.58h.323l4.192-2.58v3.225l4.193-1.935h3.87l2.902 3.547 1.613-1.935.645 1.935.967-1.29 5.483-.322-.645 4.515 2.257-.968 3.548-3.87-1.828-1.182.215-.108h2.903l-1.29-.967-.323-.323.968.323h.967l-.645-.323-.645-.322 1.935-.645h-1.612l-4.838 1.612 2.258.645v.323l-3.225-.968-3.548-4.837 2.258 2.58 2.257-3.87 1.935-.968-2.58-8.384h-2.257l.645-1.936-3.87-1.289-.323-3.225-4.192-1.935-3.548 2.58.645-1.613 2.903-.967 4.192 1.612.323 3.225 3.225.645 2.58 2.58.645 2.902 1.935.968-.968.967.968 3.548-4.193 4.837 2.258 2.258 4.515-1.29 1.29-.645-.323-.968 2.58-.322 6.773-7.418v-4.514l.967-.646-3.87-7.309-3.225-1.935-5.482.322-7.74-4.192.322-4.193 2.258-2.902-.645-1.613 1.29-.322-1.29-.968 3.225-1.29.967-2.902 2.903-1.613-.323-1.612 3.225.645 1.29-2.58 1.613.322-.645 2.58 1.612 2.258 1.613-.968-.968-4.515.645.645 4.193-4.192-.323-.968 2.58-1.29-.322-1.29 2.257-.645-.645-2.58 1.29 1.29.323-1.612h.967l-1.613-2.903 4.515.645-.967-.645 1.935-2.58.645.645.967-2.257 1.29.322 2.903-3.547.645-1.935h-1.29l2.257-2.58v-1.505l1.29.322.968-3.547h-1.613l2.903-2.258-.645-1.289 1.29-.968-.968-.967 1.613-.968-.645-1.612h1.612l-1.612-2.258.967-2.257-1.29.645.645-.645-1.612-.645 1.935-.645.322-.323.323-6.45h-1.29l2.902-3.547-1.612-.968.645-1.935h-1.29l1.612-1.612-.645-1.613-2.15 2.365 1.29-3.547h-.967l-2.58.645-3.225 3.547 4.192-7.417-5.16-.645-2.58 1.612 6.128-4.192-4.838-.323-5.16-5.16-.967.323-2.903.967-.645-1.29.968-4.515.322-1.935-.967-.322 1.612-1.29-.645-1.935 2.258-4.838 1.935-.645-.645-2.58-6.45 3.225-1.29 3.225-1.612 3.225-3.225-3.225-3.87 1.935-1.29-2.902 3.547-3.225.645-5.805.968-5.483 1.612-2.902 2.58 1.29-.322 6.772 1.935-1.935-.645 4.515 3.869-10.642 5.483-3.87.967 3.87 1.613-.322-1.29 1.935.322 2.579 1.613-1.612-.323 1.612 1.29-1.29v-.967l2.903-1.29 3.225 2.58h-1.613l-.322 2.257 1.612.323-.322-1.29 1.29 2.257.967-1.29.645 5.483 2.258.967-.968.968 1.29.322.645-3.87 1.29.968-.645-1.935 1.29.322-.967-1.29 2.257-1.29-.645-1.935 1.613-.967-1.29-4.837-2.903-3.225-6.45-2.903-3.87.645-.967-2.257 2.257-9.998-2.58-3.547.645-4.193-1.29-1.29 1.613-.967-1.29-4.193 4.515-1.29 1.612-8.385-3.547-16.985-4.838-12.254-.967-2.58-3.548-3.225-2.58-1.935-3.547-7.095-4.837-.968 1.29-.645-.968-1.612-4.837.967h-.968l-1.29 2.58.968.968v4.515l-2.258-3.548.645 3.87-3.225-2.902-1.29 2.902h-1.935l-1.612-11.287-2.258-7.418-3.547-9.675 1.935-7.417h1.612l-.967-1.613 2.58-4.837-1.613-2.258 3.87-4.837v2.902h1.29l.323-9.352h-1.29l-.323 1.935-1.612-.967-6.128-8.385-.967-7.418v-.967l1.935 1.612.967.968 1.613.322-.323-.645-.322-.967 2.257 1.29-4.515-6.128v-1.935l-3.87-.967-.645-2.903.968-1.29.967 2.58 6.45 2.58 1.613 4.515 5.16 6.45 4.515 5.805.322 3.548 4.193 4.192 6.127 4.192 17.63 6.128-4.838-8.063-2.795-.429v-4.515l-.645-.323-.967-.322-.645-.323-.968-.322-.967-.645-1.935-6.45-5.805-1.935v-3.225l-5.16-.323-1.612-1.935-.968 2.903-8.707-6.773-.323-2.257 1.29-.323-3.225-3.87 2.903.645-2.58-2.257-1.29-4.838 2.902-1.612-2.257-.968-6.773-7.417-4.837-7.418v-4.192l-2.258-.968-6.772 2.258h1.29l-2.258 1.29 1.935 2.902-1.29-.322.323 1.935-2.258-8.063-1.612-.967-2.258-1.29-3.547.322-.645-1.612h3.87l-1.613-3.548 2.903-1.934.322-3.225-1.29-.323 1.29-.645-1.29-1.612-.967 1.935-1.935-1.613h-1.72l-.323 1.613-.322-3.225-1.29.645v-1.29l-2.903-.968Zm-16.984 14.19-.645 3.225.967.322 3.225 1.29-.967-1.29-2.58-3.547Zm-182.749 6.45v3.547l1.935-.645-1.935-2.902Zm11.825 2.902-.968 3.548 1.935-2.258-.967-1.29Zm-1.935 1.613-1.935.645-1.935 2.58 3.547-1.613.323-1.612Zm.322.537-1.29 2.58 1.29-.645v-1.935Zm-34.292.968-.967 5.16-.968-1.613-.967 1.613v-3.87l-3.225 5.16-2.258-2.258.323 3.225-1.29 2.258-1.613 2.58 1.613 2.902 1.935 3.548 3.225 1.612.322-1.29.323 1.29 4.515-4.192 1.29.967-.968-1.29 1.935-1.612-2.257-.323.645-3.225-2.58.968 2.902-1.935-2.257-.645.967-1.29.968-.645-4.193-.645 3.87-.968 2.58-3.547-2.902 1.612 1.935-1.935-2.58.645.967-1.612-1.29.645v-1.29Zm43.645 4.837v1.29l1.935-.645-1.935-.645Zm173.718 1.29-.322 1.935 1.612-.967-1.29-.968Zm5.805 15.695-.967 2.258 4.515 5.16v.322l-1.29-.322-1.29-2.903-2.258-2.257 1.29-2.258Zm-33.109 2.58-3.87 3.87 3.225.323 1.935-1.613-1.29-2.58Zm76.862.968v2.257l2.58 1.613-2.58-3.87Zm-195.971.645-4.838 4.837 3.87.323-1.612.967h1.612l-.645 1.613-3.87-1.935-1.29 1.29 2.58 1.612-2.257-.967v1.612l-.968-1.935-1.612 2.58-.645 2.58 8.707-3.547 1.29.322 1.613.323.645-2.258.967-2.58-1.29.323 2.258-2.58-4.838 3.225 2.903-3.548-2.58.645.645-1.935 1.935.323-2.58-1.29Zm5.482 3.225-1.29 1.935.968.645.967.967h-2.257l.967 2.903 4.838-.323.322-2.58-1.935-.322 1.613-1.29-2.58 1.29.645-2.58.322-.645-1.612.967-.968-.967Zm109.864.322-4.837 2.58 2.257 1.935-1.29.323h-2.257l1.612 3.225 3.87.967.968-1.935 1.612-3.87-4.192-.645 3.547.323-1.29-2.903Zm21.823 2.903 3.225 5.482 1.29.645 4.192 1.935-4.515-1.935-1.29-.645-2.902-5.482Zm-137.169 3.225-.645 1.29 2.257-.645-1.612-.645Zm123.624.322-2.58.645.645 3.225.322.645v-.322l2.58-2.903-.967-1.29Zm-124.592 1.29-2.902 1.935 1.935.645-1.29 1.29 2.257-.322 1.613-2.58-1.613-.968Zm63.64 3.548-1.613 5.805 2.258.645 2.58-1.935v-2.258l-3.225-2.257Zm-34.078.645-4.515 2.257 3.87-.322.645-1.935Zm-149.639 2.58-1.612 2.257-1.935-.967-.323 3.87-2.902-1.613.645 3.225-1.935-3.87-.322 1.935-1.29-1.29.322 2.258-1.29-.968.645 1.613-1.29-.323 2.258 3.87 2.257 3.87 7.095-3.87 2.257 1.29 2.903-3.225-1.613-2.58 1.29.645.323-1.612-1.613.322.968-1.29-2.58-.967v1.612h-1.935l-.323-4.192Zm156.089.322-.215 1.505 2.15-1.505h-1.935Zm-139.749.323-.967.645 1.29.645 2.257-.645-2.58-.645Zm137.169.645v1.935l1.613-.968-1.613-.967Zm33.648 0-2.903 4.192 3.87 1.612 3.548-.967-.323-.967-.322-.645-.323-.968-.215-.215-.43-1.075h-.322l-1.29-.967-.645 1.612-.645-1.612Zm-172.107.967-2.257 2.58.967-.645 1.29-1.935Zm177.589.645 1.29 7.095 3.548-4.192-2.903-2.258-.322 1.935-1.613-2.58Zm-176.299.538-2.902 2.579-1.935-1.289.645 2.902-6.45.968h2.58l1.612.644-.967 1.613v-1.29l-4.515 1.612-.968 1.29.968-.645 1.612 4.193-2.257-.323-1.613 2.258.968.322-2.903.968-.645 1.29-1.29-3.548-2.257-.645.967 1.613-1.289 1.29-3.548-2.258-.645 6.128 2.258 1.935-2.903-.323-.645-3.225-5.16-1.612 1.613 5.482 1.935-.645 2.902 9.03 2.58 2.903.967-.645-.644-3.225.967 1.29h4.192l1.29-2.258-.967-3.225h-.323l2.58-1.612.323-.968-.323-1.29.968 1.613 1.29-.968.967-3.87 4.838-5.482v-4.515l1.29 2.902v-2.257l1.29 1.612 4.837-.645-2.257-5.804 5.805.967-.968-4.515-3.547 1.613-.323-1.935Zm165.764 0 .645 1.612 1.613-.322.322-1.29h-2.58Zm-172.536 2.042.645 1.29.645-.967-1.29-.323Zm67.187 8.922v.968l1.935-.968h-1.935Zm2.15.968-3.225.967 1.612.323 1.613-1.29Zm4.192.322-2.58.645 2.58.645v-1.29Zm158.024.323 2.58 1.612-.107.215h.107l-.645 3.01 1.29 2.15 5.483 10.643 9.997 7.417 10.857-.322 7.74-6.773 1.29.968 4.193-2.58 8.385 8.062-.968.968.645-.968-2.902-2.902-5.16-4.838-4.193 2.58-1.29-.967-5.16 5.805 5.16 2.902 1.935 5.805-4.837 10.32-4.838 4.193-.322 1.612 1.935.645-2.365.323-.108.645-1.612 5.16-4.837-.968 4.837.645 1.612-4.837v-.753h.108l.537-2.58 5.16-4.515 3.548-12.577-4.838-5.483-8.385.645.323 3.548-3.225 1.612 2.902-1.612v-2.903l-5.482-.322-10.32-7.095-5.805-11.61-1.29-1.935v-.323l.538-2.902-2.473-1.72Zm107.714 1.29 2.58 3.87-.967-2.58-1.613-1.29Zm-132.009.322-1.612 1.29 1.935.645-.323-1.935Zm-56.007 1.935-4.837 2.58-4.193-.645-1.612.645-6.128 2.903.323 2.58-2.903 1.612 1.29 1.29-1.612-.967-2.258.967 2.58 1.613-2.902.645 3.547 1.612.323-2.58 1.29.968-.968-1.613 1.613 1.29v-2.257l.967 1.29.645-2.58.968.645 1.612-1.29 2.258-2.258 9.352-2.902.645-3.548Zm43.752.968 2.58.322-2.902 3.225-.323 1.613h-2.257l.537.645h.108l1.29 1.612-1.398-1.612h-.86l-.322-.323-.323-.645.645-.645-1.612-2.257 2.58 1.935 2.902-2.258-.645-1.612Zm-290.677 9.03-.645 1.612 1.29.968-.645-2.58Zm177.266.322h3.87l-2.58 1.613-1.29-1.613Zm119.861.323.323.322-2.258 5.483-1.935 2.902-.645.645.323-.645 4.192-8.707Zm-318.412.967-.323.968-.322 1.29.645-2.258Zm194.681.323 1.935 2.58-1.29.322-.645-2.902Zm49.772 1.827v1.29l-1.935.323 1.612.967-4.515 2.58v1.935l2.58.323-.645 4.192 5.483 1.613-1.935-6.773.967-3.225 2.903-1.935-1.935-1.29h-2.58Zm-224.136 1.398v1.612l.645-1.612h-.645Zm248.323 2.15-.322 1.935 1.612-.323.323-1.612h-1.613Zm-63.962 1.935-2.257 3.225-1.613-.323 3.87-2.902Zm-184.038.645.322 1.612 1.29-.967-1.612-.645Zm1.827.645.323 1.29.645-.645-.968-.645Zm120.829 0 .968 1.612 1.612-1.612.968 1.935-2.58 1.612-3.225-1.935 2.257-1.612Zm287.776 2.257v1.29l2.58.323-2.58-1.613Zm2.58 1.613.322.215v-.215h-.322Zm.322.215v3.332l3.87 3.225 5.16 2.258 3.87 3.225 13.867 12.47-1.935-3.548 1.613-1.935 1.935 1.29-.968-1.612-6.127-.968-4.193-5.16.968-3.225h2.902l-5.805-1.935-6.45-2.257-8.707-5.16Zm-306.695 1.075-1.29.967.645 1.935 1.935-1.935-1.29-.967Zm55.899.322.645 3.548-1.612-2.258.967-1.29Zm-54.072.968-2.902 6.127 1.612-1.612h3.225l1.29-2.58-1.935.967.645-1.612-1.935-1.29Zm102.555 1.29-2.58.967.645 2.258 2.902-.645-.967-2.58Zm16.984.645-.645 1.935 1.613 1.935.967-.968v-.322l-.322-.323-1.613-2.257Zm-72.884.645.967.322v.323l-2.257 2.58 2.257-1.29v1.612l.323-1.612.645 1.612-4.838.645-.645.215-2.257 2.043 1.935.967-2.257 1.29.322-3.225 2.257-1.075.215-.215h.323l1.29-.645 1.935-2.257-.215-1.29Zm4.192 0-.645 7.74-.322-2.903-1.935 1.935 1.935 2.258 1.612-1.613.323 1.613-2.258 1.935-3.87-.323.645 1.29-1.935-1.29h-.322l.967-2.902.645 2.257 2.58-.322-.645-4.838 2.258-.967.967-3.87Zm-9.352.322 1.612 1.613-1.289 1.29-1.935-1.29 1.612-1.613Zm299.708.968-.645 3.225 2.257 5.16-1.612-8.385Zm-36.657.645-.323 1.935.323.322.645.323h1.935l.86 1.505.107.107.322.43v.215l.646 1.075-.968-1.935 1.29 1.29.968-.967-.645 2.257.322.323.645.322 1.612 1.613.645.322.645.645.645.323.323.645.322.322-.322.645-.323.323-.967 1.935-.323.322-.967 1.935-.323.323-.644 1.29-.323.322-.322.645 2.579 6.772-1.612 9.353-.322 5.482-1.935 5.483 1.612-8.385-2.58 2.902 2.58-3.225 1.612-12.9-1.289-3.224h-.968l.323-1.613v-.322l-1.613-2.258-.323-11.502-.322-.323-.645-.322-.967-.968-.645-.322-.645-.645h-1.183l.323-.968.215-1.827Zm-135.879.322v.323l.645 2.902-1.613-1.935.645-.967.323-.323Zm-130.397 1.29 2.903.323-2.903.322v-.645Zm126.312.645 1.612 1.613 2.903 14.19-2.903-13.868-3.87-1.29 2.258-.645Zm7.632 0h3.225l-4.515 1.613 1.29-1.613Zm-174.041 2.58.322 1.613.968-.968-1.29-.645Zm18.275 0-1.613 1.935 4.515-1.612-2.902-.323Zm91.589 1.29-4.192 1.29-3.87 9.998 4.192 1.29 3.225-1.828 1.613-1.075v.215l.322-.215v5.16l-.322-4.945-1.613.86-3.225 2.15-4.515-1.29 3.87-10.32 4.515-1.29Zm70.304.323-3.869 2.257-1.613-.645 5.482-1.612Zm-114.701.537v.323l.645 2.902-.968-.967-1.935 2.257 2.258-4.515Zm-36.335.43v1.613l1.29.645-.322-1.613-.968-.645Zm34.077.323-.322 1.935-.968-1.29 1.29-.645Zm-35.582.645-1.612 2.257v.323l3.87.322-2.258-2.902Zm316.37.645-.645 1.29 1.29 2.902.968 1.29-1.613-5.482Zm-290.678 2.15.323 7.095-5.16.967.967-7.74 3.87-.322Zm9.568.322.967 3.225-2.257 6.128-2.258.645-1.29-1.935 1.935.645-.645-4.838 1.613-3.547-.323 3.225 1.29-2.58-.645 2.902h1.613v-3.87Zm280.143 1.29.645 2.903-1.935 2.58-7.095.967 6.45 8.062-1.613 3.225 1.29.645v3.225l3.548 2.58 1.29-4.192-2.903 1.29-.645-1.613 1.613-.645v-3.225l4.192-2.58-1.935-5.159.968-6.773-.645 1.935-3.225-3.225Zm-265.308 2.903-.323 3.547 3.548 8.062-3.87-8.062.645-3.547Zm-40.85.645 1.935.645-2.257 2.257-.645 2.58.967-5.482Zm99.652 1.935-1.935 1.29-3.225-.968-1.613 2.258-1.935 5.159.323 6.45-2.258 3.87 7.095 9.353 14.19 1.29 8.923 3.225 3.547 4.837 1.613.645 3.225 1.29 7.74 6.128 2.257 2.902-.967 4.193.645-4.193-4.515-4.515-8.385-5.16-1.935-.967-2.903-4.515-7.417-2.903-14.728-.967 1.613 2.257-.323 4.193v-4.3l-9.997-12.9 2.257-4.515-.322-5.805 1.935-5.16 1.935-2.257 5.16-.215Zm-200.809.967v2.902l1.613.323.645-1.612-2.258-1.613Zm241.228.645 2.258 1.29-2.58-.967-1.612.967.967 9.03v3.225l4.837 4.192-5.159-4.192-.645-11.61-.323-.645 2.257-1.29Zm-132.976 4.837-.322 1.935-1.29-1.612 1.612-.323Zm16.447 1.613 1.613.322-.323.968-1.29-1.29Zm-108.036 3.87-1.935 4.192 2.902-.322 2.58-3.225-3.547-.645Zm106.101.645 1.935 1.29-1.935-.645.323 1.29.967 3.225-2.58 1.29-.967-4.838 1.612 1.935.645-3.547Zm288.743 2.257-.967 1.935 1.935.645-2.258 1.29.645 2.58.323.968 1.935 2.58.322-.968v-.322l.968.967.645.968 2.58 5.805.322 10.857-1.935.323-.322-2.903-.645 2.258 3.225 7.74-6.128 9.352-1.935 11.288 1.29 1.29 2.903-3.548-.645-2.58.967.645 1.935-7.31 2.58-3.547 1.29 3.87 2.58-.968v-1.612l.323-4.515h-1.613l-.645-2.258.968.645-.323-.967 1.29-.645-.322 1.612 2.257-3.87-.322-3.225 1.612 1.29-.967-3.225.967-1.29-1.29-1.935.645-.645h.323l.645 1.29.645 1.613v-.645l-.323-5.16-1.935-.968-1.29-3.547-3.547-3.548.645-1.935-2.903-5.805-6.45-3.87Zm0 56.545-1.935 6.127 1.935.323h-1.29l1.29 1.612 1.29-1.935-1.612-.967.645-1.613 1.935 1.613 1.29 6.127 1.612-.645-.645-2.58 1.29 2.903.968-3.548-1.935-7.739-4.838.322ZM85.937 266.427l-5.483 6.772 2.903 2.903 3.87-3.225 1.29-4.193-2.58-2.257Zm118.141 11.502 2.258.323-3.87 4.192 1.612-4.515Zm255.096 0 .967 3.548-2.902-1.613 1.935-1.935Zm-218.761 1.935-.645 5.483-1.935.645.323 1.935 1.612.967-1.29-.322v2.58l-.645-4.515-1.935-.968 2.58-.322-1.29-1.613 1.935-.645 1.29-3.225Zm-36.98 2.58 1.613 4.515 5.482.645 2.903 2.58 1.612 4.515-1.935-4.515-2.58-2.257-5.482-.968-1.613-4.192v-.323Zm176.729 0 2.58 7.31-.967 4.193h1.289l-4.514 8.385v3.225l-2.58 2.902-3.225.323 3.547-2.903 1.935-5.482 1.613-7.74-.968-9.675 1.29-.538Zm-295.515 6.45-.968 1.935 2.258 9.998 5.482-3.548-6.772-8.385Zm277.455 0 1.613 2.258 3.87 6.772-1.29-.967.322.967 2.58 1.935v2.903l-1.29-2.58-1.612.322 1.29-.645-5.16-9.997-2.58 1.29 2.257 4.192-1.612-1.29.322-.967-2.902-1.29 2.257-1.935 1.935-.968Zm-127.494 2.903v.645l-4.515.645 4.515-1.29Zm-76.432 1.29 4.838 11.61 1.612.322-2.902 5.053-3.225-2.258-2.258 1.613-3.225-1.29 2.903.967 2.58-2.257 2.902 2.257 1.935-2.58-5.16-13.437Zm57.835 1.505.967 1.29 3.87.645.968-1.29-.323 1.29h1.613l-9.03.645-.645.967-1.72.86-.215.215.322 2.15 2.903.323-3.118 1.827v.215l2.15 1.505-3.225-.645h1.29l-.215-.86-.107-.107.107-.108-.752-3.762.645-.538v-.107l.215-.108 3.332-2.795v-.322l.968-1.29Zm198.551 2.365 1.612.322-1.29 3.87-.322-4.192Zm-78.797 5.375.645.967-2.903 2.58 1.613 2.258v3.547l-2.903-4.515 3.548-4.837Zm-331.42 6.45-.645.645v-.323l.645-.322Zm198.443 0-3.547.967-1.613 2.903.323 3.225-2.258-.323h-.322l-5.805 5.483 5.482-5.483 1.613-1.612 1.935-4.193 4.192-.967Zm290.141 1.29-1.935 1.935-.645 3.87-.968-.323v5.805l.645-1.935 1.935 1.935.323-1.935v-3.547l1.935-.968v-3.87l-1.29-.967Zm-489.23.645.323.322-.322.968v-1.29Zm98.9 0-1.29.322.968 1.613.322-1.935Zm190.811.645h2.258l-1.29 1.935-2.58-.645 1.612-1.29Zm70.305 2.257 1.935 1.935-.645 3.548-1.29-5.483Zm-175.009 1.29.645 2.258-1.613 1.935-3.87 3.225-2.902-.646.968-1.934 1.289 1.29 1.935-2.58.968.967 2.58-1.612v-2.903Zm48.482 4.515.645 2.257h-1.612l.967-2.257Zm-119.754 2.473.322 1.934.968.968.322-2.257-1.612-.645ZM8.43 323.294l.967 2.58v-1.612l.645 8.062v.645l.968-2.58-1.613 6.02-.322.967.215-.967-.215-.215-.645-4.193.645 3.548.322-.323v-.967l.323-.323v-.645l-.645-2.902.645 1.935-.645-3.548.322-2.257-.967-3.225Zm334.43 1.827 2.257 1.613-2.257 1.935-1.613-1.613 1.613-1.935Zm-239.938 4.193-.968 1.612 2.58 3.87 3.87 3.87.968-.645-1.613-.645-4.837-8.062Zm241.873 2.257 2.902.323-1.29 1.29-1.612-1.613Zm-28.917 3.87-.968 1.613-.967-.645 1.935-.968Zm-115.347.645h6.772l5.16 2.903.645 1.612-3.225 4.515 1.613 1.935-6.128-2.58-2.257 1.935 1.612 2.258-3.87-2.258-.967 1.29 1.935 1.613v5.16l4.192 4.192-1.935 2.258.323 5.482 1.612-4.192h2.58l2.58 6.45-4.192.645-2.258-3.225-1.935 3.547.645 2.903v-1.29l2.258.967v2.258l-1.613-1.29-.967 1.935 1.935-.323.967 2.58-2.257 9.675-8.385-1.935-8.385-8.062.322-6.45 2.58-1.29 1.613-3.548 3.225.323-2.58-2.58-2.903-11.288 1.613-5.805-1.29 1.29-.323-6.127 3.87-4.193 4.515 1.613 2.903-2.903Zm143.619.645 1.612.645-1.935 2.58.323-3.225Zm-29.132.323 2.794.967-2.58 2.903 1.29 1.29-1.29.967 3.548.968-.968 1.29-4.514-1.935 3.547-5.16-1.827-1.29Zm235.638 0-.323 1.612.323.323v-1.935Zm-435.48 1.29.323 1.29 1.935-.968-2.258-.322Zm22.468 1.935-.968 3.225-.645-1.935 1.613-1.29Zm-119.217 2.902.968.323-.968 1.935v-2.258Zm551.901 1.613-.322 1.29v.645l.322-1.935Zm-.322 1.935-.323.322v.323l.323-.645Zm-76.11-1.613-.967 2.58.967-.322v-2.258Zm-257.675 1.935 2.58 1.613 2.257-.968-3.225 2.58-3.01-1.397-.537.86-1.72.752 1.72.753.537 1.72-1.29 3.87-1.827.86.107-2.043 1.613-3.762-.86-.968-1.935.538-1.613 3.547-.537 4.193-1.613.322.323-5.482 2.902-4.193 2.58.645.323-2.257 1.29 1.29.645-.968 1.29-1.505Zm332.495 3.548-1.935 5.482 1.29-3.547.322.645.323-2.58Zm-281.756 1.182 11.288 1.613 3.225-.968-2.903 1.935-10.32-1.612-4.192 3.225-.645 5.16-2.258-4.193 2.58-3.225 3.225-1.935Zm23.435.968 1.29 3.225-2.902-1.29v-.323l1.612-1.612Zm-184.039.967.968 3.87 4.192 1.29v-1.612l2.903-.323-8.063-3.225Zm441.715 0-.323.645-.645 2.903.968-3.548Zm-547.709 2.58.323 3.548v.322l-1.935 5.16 1.827-5.375-.215-3.655Zm434.942.968 1.612 1.29-.967.967-.323-1.935-1.29 1.29.968-1.612Zm-273.37.322h1.289l1.29 1.935-2.579-1.935Zm385.169 0-.645 3.01.645-2.365v-.645Zm-.645 3.118-.645 2.365-.967 3.225v-.968l-.323 1.935-2.257 6.773 1.29-3.548 2.257-6.772.645-3.01Zm-113.089-2.15.645.645-1.935 2.58.645-.968h-1.29l1.612-.645-1.29-.645 1.613-.967Zm5.16 1.935-2.58 2.257.322 4.515-3.547 9.353-.645 1.935.322 2.257 2.258-1.29v1.935h-2.58v-2.902l-1.935.215h-.107l.537-.215.323-.323.645-.322.322-.645.322-.323.645-.322 3.225-9.353-.322-4.515 2.795-2.257Zm3.225.645 1.935.967-.968 1.613-.967-.323-.645-.322.322-.323.323-1.612Zm-297.128.322 5.16.323-2.902 1.935-2.258-2.258Zm290.033 5.805-1.613 1.29-.645-.322 2.258-.968Zm-281.648.323 1.613.322.322 4.515-1.935.323v-5.16Zm-133.729.322.968.968v2.902l.967.645-.322 1.29 2.257 3.87-3.547-2.902-.323-6.773Zm522.984.968-.968 2.257-.645 1.935 1.613-4.192Zm-230.264 2.257h.323l.645.968-2.58.322 1.612-1.29Zm-34.077.645.968.645-2.903 2.258-4.837-.968 6.772-1.935Zm264.018 4.73-.645 1.935.323-.645v.323l.322-1.613Zm-.322 1.613-.323.322v.323l-.322.645v.752l.645-2.042Zm-.645 2.042-.108.43.108-.107v-.323Zm-.108.43-.215.215-.967 2.58v-.967l1.29-3.87v-.323l-2.58 6.02.322-1.612-1.935 2.58-8.385 14.082-4.515 6.45-1.935 3.87v.645l-1.612 3.225-1.935 4.515-1.613 3.225-.967-.645-.645 1.612h-.645l-.323-3.547-4.192 4.837-3.225 5.805-.645 1.72v-.752l-.968 1.29.86-.323-.215.645 2.903-3.87.967.968 4.193-6.773-.645 2.903-1.29.645-1.29 2.902-2.258 2.903 2.58-2.258-.322 1.935 1.612-2.58 1.29-3.87-.645 2.258.645-.323 2.58-3.547-.967 1.612 1.612-1.29 6.45-9.03-.322.968.967-1.29-.322 1.612.86-.86.43-.752-.323.645-.107.107-.86 1.505.86-1.397-.86 1.72.967-.968-2.257 3.548-.968 2.58 2.365-4.085.215-.43 2.258-4.193 1.29-1.612 2.902-5.805 1.935-4.193-1.935 3.225 2.58-5.16.323-.645.645-1.29-.323-.322 1.29-2.58v-.323h.323l.322-1.612v.322l1.935-4.192.968-1.935v-.322l.322-.645.323-.323v-.645l.322-.322v-.323l.323-.645v-.322l.322-.645v-.323l.323-.645v-.322l.322-.645.215-.323Zm-114.594-2.15 2.903.323h.752-.43l-5.16.967 1.935-1.29Zm-424.3.43.323 1.29.645-.322-.967-.968Zm363.348.645 1.935 1.935-2.58.323-1.613-.323 1.29-.967.968-.968Zm93.094.968-1.935.322-2.257 9.997.645 2.258 4.192 1.612-.645-14.189Zm-315.08 2.795h.323l.43.645.86.645-.968 3.87 3.225 3.869 3.87 2.258-3.225-1.29-3.87-4.837.645-3.87-.537-.645-.753-.645Zm278.746 5.804-1.935 2.58h-1.613l3.548-2.58Zm-332.71 8.708-.645 4.515-3.87-2.258-4.838 1.613 3.548-2.258 1.29.645 1.935.968 2.58-3.225Zm379.042 4.837-5.805 4.515 1.935 8.708-1.613.645h-.645v1.935l1.935 2.257.323.645h1.612v-1.612l1.613-.645-.323 3.87 2.258-1.613 1.29-2.58h3.547l-.967-2.257 3.547.645 2.258-2.258.645 1.29v-2.257l-1.613 1.612-.967-.967 1.29-1.935-1.29.322-1.613.968v1.612l-1.612-.967-1.613 1.935v.967l-2.257.323-1.935-2.258 2.257-8.385-2.257-1.935v-2.58Zm63.639.645-.322.645-.538 1.613.86-2.258Zm-1.075 2.688-.537 1.075v.322l.537-1.397Zm-.322.215-1.183 2.58.215-.323.968-2.257Zm-1.613 3.117-.215.86-.107.108-.753 1.72-.215.537.968-1.935.322-.645v-.107l.108-.43-.108.215v-.323Zm0 0-1.72 3.87.108-.107.537-1.183 1.075-2.58Zm-1.612 3.978-.215.215v.322l.215-.537Zm-.215.537-.323.645.323-.215v-.43Zm-5.483-3.547-3.87 5.482 1.613-1.935 2.257-3.547Zm-1.29.322-2.58 2.903 1.613-1.29.967-1.613Zm-37.302 1.613-2.58 2.902 2.903.323.322 1.29 2.58-1.613-1.612-2.902h-1.613Zm.645 4.515-2.257 1.612.645 1.29 2.58.968-.323-.968.968-.645-1.613-2.257Zm42.785-1.613-.323.323v.322l.323-.645Zm-.323.645-.215.538.215-.215v-.323Zm-.215.538-.107.107-.323.645-.322.645v.323l.322-.645.43-1.075Zm-49.019 2.042.322 2.58.968-2.257h1.935l-3.225-.323Zm-141.899.323-2.58 2.257-.323-1.612 2.903-.645Zm189.736.107-.215.215-.323.645v.108l.538-.968Zm-.538.968-.322.537-.968 1.613-3.44 6.665.215-.215.323-.645.322-.323.323-.645v-.322l.322-.645.323-.323.322-.645.323-.322v-.645l.322-.323.323-.645.322-.322.323-.645v-.323l.322-.645.323-.322.322-.645v-.215Zm-35.367-.753-2.58.968.645 2.257-2.257 2.258v1.612l-1.29.968-1.935 4.192.322-1.935-1.612.645-3.548 5.805-.645 3.548h.968l1.29-4.193 2.902-1.29.645-2.257 1.935-.645v3.547l3.225-1.612.645-1.613.645 1.29.968-2.257-1.613-.968.968-2.902 1.935 1.29-.323-1.613 1.29-2.58-1.29-2.902-1.29.645v-2.258Zm-8.062.968-.968 5.482-.322 2.58.645-2.58.967-2.58-.322-2.902Zm-3.225 1.935-.968 1.29-3.547 1.612 1.29 4.193 3.225-5.805v-1.29Zm-6.665.322-4.515 2.258 1.935.322 1.935 1.29.967-.967-.322-2.903Zm12.147 0-1.29.968-.322.967-.645 1.29.967-.322 1.613-2.258-.323-.645Zm-463.859.645 4.193 1.613 1.934-1.29 4.516 3.225.645.645 6.772 7.31 6.45 11.287-6.773-11.502-7.094-6.773-1.935-2.257-2.58-1.613v2.58l-5.805-2.902v1.935l-.323-2.258Zm460.312.323-1.29.322-.645 3.87-.323.968-1.29 1.29 2.903.645.645-1.935-.645-1.613.645-3.547Zm-145.447 3.547 2.258.323-1.613 1.29-.645-1.613Zm173.074.645-3.225 3.87 2.257-2.58.968-1.29Zm-81.269.645-6.45 4.193-1.613 3.87 2.258 2.257 2.257-.645 2.903-3.547 1.612-5.16-.967-.968Zm89.009 0-1.29 2.258h.322v.322l-.967 2.58 1.935-3.87v-1.29Zm-490.519.968 1.29 1.29h-.645l.967 1.612-.967-.322-.645-2.58Zm494.711.322-.645 1.183.215-.215.323-.645v-.323h.107Zm-.967 1.828-.323.322-.322.645v.108l.645-1.075Zm-.645 1.182-.645 1.183.322-.323.323-.645v-.215Zm-.645 1.183-.323.322-.215.323-.43.645-.322.645v.322l.322-.645.323-.322.645-1.29Zm-1.29 2.15-.538.752.215-.215.323-.537Zm-.538.86-.107.215-.323.322-.322.645-.323.323-.322.645-.215.43-.108.107-.215.323-.215.215v.107l-.645.86.538-.537-.43.752.215-.215v-.107l.215-.215v-.215l.215-.323.752-1.29.538-.86.107-.107.215-.323.43-.752Zm-1.075 1.397.323-.967 1.612-2.58-.645.322-1.612 3.548.322-.968-.967 1.613.645-1.613-1.935 3.548-.645.967-1.935 2.58-1.29 1.613-3.548 4.192-.645.968 2.258-2.58-.323.967-3.547 4.838h-.323l-1.612 2.579h.322l-.967.646v.322l-.968.967-.645 1.613-1.612 1.935-1.935 3.225 1.29-1.613-1.612 2.258-.645.645-.968 1.29.323-.645-2.58 3.225v.322l-.323.323-.645.967 1.29-2.257-1.505 1.182-2.58 3.225v-.322l-1.29 1.612h-.322l-.968 1.935h-.645l-1.935 2.58.645-.322-1.935 1.935.968-.645-1.613 1.29-1.29 1.935.968-.968-1.935 2.258-2.258 1.935-.645.967 1.29-1.29-.645.968-.967.645-.645.967h-.645l-3.548 3.87-.322.645-9.675 9.675-3.225 2.58-25.585 20.21-.107.107-.215.108.645-.323.645-.644.644-.323.645-.645.108-.108h.107l.538-.215.322-.43.645-.43.215-.107.323-.323h.322l.645-.322.645-.645.645-.322.968-.968.645-.322.645-.645.645-.323.967-.967.645-.323.645-.645.645-.322.968-.968.645-.322.645-.645.645-.323.215-.215h.107l.323-.322.645-.323.322-.322.645-.323.323-.645.645-.322.645-.645.645-.215.322-.323.645-.322.323-.538.322-.322.645-.323.323-.322.645-.215.322-.323.108-.215.215-.107 1.29-1.29.645-.323.645-.645.107-.215.215-.107.645-.645.645-.323.323-.645.322-.322.645-.323 1.935-1.935.645-.322.323-.323.322-.645.645-.322 1.935-1.935.645-.323.323-.645.322-.322.645-.323.645-.645.323-.645.645-.322.322-.323.323-.645.645-.322.645-.645.322-.645.645-.323.645-.645.323-.645.645-.322.322-.323.323-.645.322-.322.645-.323.323-.322.322-.645.323-.323.645-.322.322-.645.645-.645.645-.323.323-.645.645-.645.322-.645.645-.322.323-.323.322-.645 1.935-1.935.323-.645.322-.322.645-.323.323-.645.645-.645.322-.645.323-.322.645-.323.322-.645.645-.645.323-.645 1.612-1.612.323-.645.645-.645.322-.645 1.613-1.613.322-.645.645-.645.323-.645.645-.645.322-.645 1.613-1.612.322-.645.323-.323.322-.645.645-.645.322-.645.323-.322.322-.645.323-.323.323-.645 1.612-1.612.322-.645.323-.322.322-.323.323-.645.322-.322.323-.646.645-.644.215-.538.322-.322.323-.753.215-.215v-.537l.322-.645.645-.323.968-1.935.322-.322.215-.43.43-.215.645-1.29.323-.323.322-.645.323-.322.107-.215.215-.108.323-.645.322-.645.323-.215v-.322l.967-1.398.215-.645-.215.215-.322.645-.323.323-.322.645-.215.322-.43.645 2.902-5.16 1.505-2.15Zm-84.171 89.332-.43.322h.107l.323-.322Zm-.43.322h-.215l-.646.323-.322.322.215-.107.323-.215.645-.323Zm-.861.538-1.612 1.075 2.258-1.29-.646.215Zm73.207-73.744 1.291-1.935-1.291 1.612-.645.967-.967.968.967-.645.645-.967Zm-2.795-24.833-.644 2.903.967-1.613-.323-1.29Zm.646 2.365-3.225 5.483 1.29-2.258-.323-2.257-1.612 5.16.967 2.257 2.257-.967h-1.289l-.323-1.613 2.902-2.902-2.257.967 1.613-2.58v-1.29Zm-315.511.215-4.837.645h3.225l1.612-.645Zm281.111 1.613.322 2.257h-.967l.645 1.29-1.613 2.903-4.837 9.675 2.58-3.87 2.257-5.483.215-.322h.108v-.323l2.902-4.192-1.612-1.935Zm39.129.645-1.935 2.902 1.613-1.935.322-.967Zm-.322 3.225-3.548 4.192-2.687 3.548h.752l4.193-5.16 2.58-2.258-1.29-.322Zm-6.235 7.74h-.215l-.108.43.323-.43Zm-.215.43-.215.215-.323 1.612.538-1.827Zm-161.141-6.88-3.225 3.225.322 6.772-.645-6.772 3.548-3.225Zm141.254.322-.968.968v.967l.968-1.935Zm18.705 1.613-.968 1.29.645.322 1.29-1.612h-.967Zm15.909.215-.322.645-.215.215-.323.645.323-.323.322-.645.215-.537Zm-14.297 1.075-.322.322-1.29.645-.645 1.613 2.257-2.58Zm-9.352 1.612-3.87 6.128-10.535 8.707-.968 2.257-1.29.645-.967 1.935-.323 2.258-.967.322.967 1.29h-.645l-1.29 2.58v1.613l-2.257 4.192.322 1.29 2.258-1.935-.645 3.548-.323 1.612 1.935-1.935 1.935-1.29-.322-5.16 1.935-2.902 1.29-.645-.968 2.58 2.258-.968-.323 1.935 1.613-1.29.322-1.29 2.903-2.58-2.258.323.968-1.935-3.87.322 1.29-.967 6.45-8.708-6.45 6.128-1.935 3.225-1.29 1.29h-2.258l.968-3.548 13.437-12.899 2.903-6.128Zm-381.623.968v.967l1.613 1.29-1.613-2.257Zm217.794 1.612 6.772 3.548-5.482-1.613-1.29-1.612v-.323Zm-231.983 3.225 1.612.968-.968 1.612-.644-2.58Zm401.939.323-1.29.322-2.58 3.225 2.258-.967 1.612-2.58Zm-5.805 2.257-2.58 2.258-.322 1.289 2.902-3.547Zm-21.5.323-3.225 1.612-1.612 1.612v-1.289l-1.613 1.612.645-1.935h-2.58l-.967 2.258-.323-1.291-2.902 6.773-1.935 1.935h.967l-.645 1.612-5.482 4.515-3.225 6.773-6.45 5.482-.968 4.193-5.16 2.257-1.29-.322-2.902 4.192v2.258h1.613l-.645 1.612 1.934-.645-1.612.645h1.935l-.967 1.29 2.257-1.935.968 3.87 5.804-4.192.645 1.29 4.838-4.193 2.257-1.29v.645l3.548-2.58v1.613l1.612-1.29 5.16-5.805-.645-.323.645-.322 1.29-2.58-1.612.322 2.257-3.225.645-.322 2.58-3.225-.322-1.935 1.935-3.548-.645-.322 1.935-.645 2.257-2.258-4.192.968-.645-.323 1.29-1.612-4.193-.323 2.903-2.257-1.613-.323 4.193-3.869-1.613-.323 3.87-4.837Zm32.465 3.87-1.29 2.149 1.612-2.257h-.322v.108Zm-16.77.322-1.935 1.935.323.645 1.612-2.58Zm8.708 4.192-2.58 2.903-.645 1.29 3.225-4.193Zm.967 0-6.772 7.74-5.483 6.773-.645 1.29-.322.967 1.612-1.935.753-.86.215-.107.215-.43.752-.86 9.675-12.578Zm-428.814 1.613 3.87.645-.968 1.29-2.58-.645-.322-1.29Zm-3.548 1.182 1.613 1.29-1.935-.322.322-.968Zm420.752 1.935-1.29 2.58-.645 1.935 1.935-2.902-.967.967.967-2.58Zm-422.042.323.968 1.935-1.613-.645h-.322l.967-1.29Zm420.752 1.612-1.29 1.29-.645 1.935 1.29-.967.323-1.29.322-.968Zm6.128 0-1.613 1.935-.967 1.29 2.257-2.257.323-.968Zm-414.41 1.29 3.548 1.935-1.613-.645.645 1.29-2.58-2.58Zm14.513 1.29 1.29 7.418-2.903-5.483 1.613-1.935Zm397.639 0-1.29 1.613.323-.323.967-1.29Zm-423.654.645 2.902 7.74-.645.323 3.548 4.192 2.902 5.483-2.58-2.58-1.935-3.548-3.87-5.482-.322-4.515h-.645l.645-1.613Zm9.352.323 2.58.967 1.29 1.29 1.29.323.645.967 1.613 1.29 1.29 2.58 1.612.323.645.967-3.225-1.612-.322 2.257-2.58-.967 2.257 2.257-1.612-.322-1.935-1.935.645 1.612-.968-.645v-.967l-2.257-2.258h-1.29l-.86-2.365-.108.215v-.43l.108.215 1.182-3.762Zm409.572 3.547-1.935 2.58-2.902 2.903-3.87 2.58-1.613 1.935-.645.967.645-.645 5.805-4.515 4.838-5.482-.323-.323Zm-419.892 6.128 2.258 1.29-.968.645-1.29-1.29v-.645Zm103.092 1.935 3.225 1.935h2.58l-5.805-1.935Zm-99.544.967h.645l1.612 1.29-2.257-1.29Zm407.959 1.505-2.257.968h-.323l-3.547 3.547 3.225-1.935h.322l1.29-.967 1.613-1.613h-.323Zm-46.009.43-.968 1.29.645.645.968-1.612-.645-.323Zm-71.272 1.183-.968 1.29.968.967v-2.257Zm112.444.43-4.193 2.58-.967 1.29 1.935-.968-4.193 2.903-1.612 1.612h.967l8.063-7.417Zm-394.737 1.182 2.58 2.903-2.58-1.935v-.968Zm386.029 5.483-1.935.967-.967 1.935 1.935-1.29.967-1.612Zm-3.87 2.902-2.58 1.613-1.935 1.29 1.935-.323 2.58-2.58Zm-373.882 1.613h.323l1.72 1.935.537.215 2.58 4.192-.645.968 3.548 4.837-2.58-2.257-3.548-4.838.968-.322-2.58-3.87-.323-.86Zm368.4 0-5.483 3.547 2.903-1.29 2.58-2.257Zm.752.645-4.837 3.547-1.935-.322-6.128 2.902-2.58 2.903-6.127 3.225-2.58.322-9.352 4.515-1.29 1.613-2.58 1.935 5.482-2.258-.645.968 6.128-2.58 4.192-2.58 7.417-3.548 12.9-7.74 2.258-1.29-.323-1.612Zm-39.237 2.902-1.612 1.29.967-.322.645.322v-1.29Zm15.695 1.935-2.58.968-.322 1.612 1.612-.967 1.29-1.613Zm-326.368.645-.322.645 1.612 1.613-.645-1.29-.645-.968Zm259.934 0 .645.968.645-.968h-1.29Zm18.274 0-10.642 2.58 1.612 2.258 6.45.645 4.193 2.257 4.837-.322 1.613 3.547 3.87.323 1.612.322 5.483 3.225h12.9v-.645l2.58-.967.645-.968h1.612l2.258-6.772-1.935-.968-3.225 1.29-.645 1.29.645-1.612-1.613.645-.645-2.258-4.837 1.613 2.257-3.548h-1.935l-2.902 2.258 1.935-1.613-.753-.215.43-.107-1.29-.323-1.29.323-.322.645 1.505-.323-1.505.645-6.128-1.29-.645 1.613-4.192-1.29-1.29-.323-7.418.323.645-1.29-3.87-.968Zm34.4.645-2.257.323-.323.645 2.58-.968Zm4.515.968-3.225 1.612-.967 1.613 2.902-1.29.645 1.29 3.225-1.29.645-1.29-2.257.645-.968-1.29Zm-17.092.322.322.968.968-.968h-1.29Zm-105.994 1.613-1.29.322 2.257.645-1.935-.322-.322 1.29-.645 4.192-.645-.645 1.612 3.548 1.29 2.902 5.482-.967 2.58-2.903-2.58-4.192-5.804-3.87Zm77.399 5.805-1.29.322h3.87l-2.58-.322Zm6.45 1.182-1.29.645 1.612.645 2.258.323v-1.183l-2.58-.43Zm7.417 3.87-1.612.968 2.902.322-1.29-1.29Zm5.483 1.935 1.29.967v-.967h-1.29Zm-271.436 4.515-.322.322 1.29.968-.968-1.29Zm4.193 3.225 1.29 1.29-.323-.645-.967-.645Zm3.547 7.095-1.29.645 4.515 4.192-2.902-.645v.323l5.805 4.192 4.515 2.258 7.74 3.547 4.192-2.257-.645-1.29 1.613.322-1.935-2.257 1.29.322 1.612 1.29h.968l-3.87-4.837-3.548-2.58.323-.323-2.258-.322.968 1.935-2.258-.323-1.935-1.29 1.29 1.29-1.29-.322-.645.645-.645-.645h-1.29l.968.645-1.29-.323v-.645l-1.935-.322.322.645-1.612-.968-6.773-2.902Z" fill="url(#e)" fill-opacity=".61" opacity=".5"/><path fill-rule="evenodd" clip-rule="evenodd" d="m468.527 277.607-3.548-16.985-4.837-12.255-.968-2.58-3.547-3.225-2.58-1.934-3.548-7.095-4.837-.968 1.29-.645-.968-1.612-4.837.967h-.968l-1.29 2.58.968.968v4.515l-2.258-3.548.645 3.87-3.225-2.902-1.29 2.902h-1.935l-1.612-11.287-2.258-7.418-3.547-9.675 1.935-7.417h1.612l-.967-1.613 2.58-4.837-1.613-2.258 3.87-4.837v2.902h1.29l.323-9.352h-1.29l-.323 1.935-1.612-.968-6.128-8.385-.967-7.417v-.967l1.935 1.612.967.968 1.613.322-.323-.645-.322-.967 2.257 1.29-4.515-6.128v-1.935l-3.87-.967-.644-2.903.967-1.29.967 2.58 6.45 2.58 1.613 4.515 5.16 6.45 4.515 5.805.322 3.547 4.193 4.193 6.127 4.192 17.63 6.128-4.837-8.063-2.795-.752v-4.515l-.645-.323-.968-.322-.645-.323-.967-.322-.968-.645-1.935-6.45-5.805-1.935v-3.225l-5.16-.322-1.612-1.935-.968 2.902-8.707-6.772-.323-2.258 1.29-.322-3.225-3.87 2.903.645-2.58-2.258-1.29-4.837 2.902-1.613-2.257-.967-6.773-7.418-4.837-7.417v-4.193l-2.257-.967-6.773 2.257h1.29l-2.257 1.29 1.935 2.903-1.29-.323.322 1.935-2.257-8.062-1.613-.968-2.257-1.29-3.548.323-.645-1.613h3.87l-1.612-3.547 2.902-1.935.323-3.225-1.29-.323 1.29-.645-1.29-1.612-.968 1.935-1.935-1.613h-1.72l-.322 1.613-.323-3.225-1.29.645v-1.29l-2.902-1.29-1.613 3.547.645 3.225.968 1.613 3.547-1.29-5.805 2.58-3.225 7.74-2.58 5.805 1.29 4.192-.645 2.58-.322 1.29.322.323 1.935.645 2.58-1.29 1.613.967-1.935 3.225-2.58.323 1.612 1.612-1.29 6.773 2.258 2.58-3.87.645h-.323l-4.192.322-1.613 4.193.323 5.16-5.483 3.225-.645-1.935-2.58 1.29-.645 1.612 2.58 3.87-2.902-1.612 1.935.322-1.613-2.257-.967 3.547.645-3.547-5.483 6.127h1.613v3.547l.322-.967.323-.323v.323l.645 1.612 2.58.323h.322l-1.935 2.257 1.613 1.29-3.548.968-.967 3.225-2.903-.323 3.548 5.805-8.063-1.29.645-1.935-2.257.323.322-1.613-2.58-.967-2.58 2.257h-3.547l1.935 4.838-3.225 2.257h-.322l-2.58.323-.323-1.613-3.87 2.258-.967 3.547-3.225-2.58.322 1.613-1.935-.968-1.612 1.29.645 1.613 1.612-.968-4.515 5.16v2.58l-.322-4.837 2.902-10.858-2.902-1.612 1.935.322-.645-1.29-5.483-1.935-3.547 3.548v-2.258l-3.87.968 1.29-2.258-2.903-.322-1.29 3.87 1.29 2.902-1.29.323-1.29.645 1.935 1.29-1.612-.323-2.58 3.225v-1.612l-3.225.967-.323 1.29 1.613-.645-7.74 5.805.645 2.58-1.613-.967 2.58 4.515-9.352 2.58 1.29 5.482 4.837 3.548.968 8.062.322 1.29-1.612-1.29-.645.323h-1.613l-.967.322h-1.613v-.645l-.322-.645v-3.87l-.323-.645v-2.902l-.322-.645v-.645l-2.58-1.613-1.29.968.967 1.935-3.225-.323 4.193 4.838-3.87-1.29-2.258-8.385.323 3.225-3.225 3.87 1.935 4.192-.323 2.903-.644 4.192 3.869-.645 3.225 1.935 1.29 3.225-1.29 2.58 2.58 1.29-3.547-1.613-.968-5.804-3.547.967.322 5.482-5.482 7.418-6.127-2.58 5.482-.968 3.87-7.74-1.935-2.579.645-5.16.323-4.515-1.613-2.903 1.935-6.127-1.935-.968-3.225-.322-2.257 6.45-2.903 1.935-.645 5.482-.322 2.258 2.257.322 1.935 3.225-2.257 3.87-4.515-5.805 1.29.645-8.708-5.482-1.29 1.29.645 3.87h-2.257l-.645 1.935-.645-3.548-3.548 1.29-3.547-.967-1.29 1.612-1.522-.507.447-.138-.463.132-1.365-.454 1.613-2.903 1.935-.322-.968-.323-3.87 2.258.323-1.29-7.74.645.322 1.612-2.257-.645-1.935 2.903-2.903-.968-.322-3.547 3.87-.323.322-1.612-3.87-5.16.323 2.58-5.483 10.32-1.935-4.193-3.87.968-2.257.645-.968.322-.322 1.935-.967 3.225-.645-.968-1.935-2.579-1.29.322 1.29-.645-1.935-2.902-1.613 1.29 1.29 3.547-2.58 1.612-2.257-6.449 1.612-3.87 2.58-1.29-1.935-3.87 1.613.322-.323-5.16 8.062 12.255 2.58-.967 3.87-1.29.323-5.16v-.645l-3.548-9.03-2.257-1.935-1.935 1.29 2.257-1.613-1.612-1.612.967-1.29 1.29 1.29-.645-1.935-2.257.645-.215-1.183-4.192.538-3.333 2.902.43 3.763-4.515 1.935-6.557 12.362-2.258.753.108 5.267-9.998 2.688-3.44.967 1.505.645-1.29 1.612 1.613 4.193-4.515-2.903-.645.645v1.29h-1.398l-2.902 3.44-.43 1.72.215-1.505-.108.108-2.042 1.397-2.903 6.773 3.763 6.772-2.473 5.268v2.902l-.645.645.968 3.118-3.87-1.29-1.613 5.16 5.16 2.58-.107 2.902-1.29 1.828-.538.43 1.828 3.117-.645 3.225 4.837 2.473.108 3.547 5.052 4.623-.107.43-1.613 1.827-1.612 1.29-.108 1.29-1.612 2.257-1.828-1.397-2.472-.215-1.935 2.15 3.332 1.182-3.225 1.29-2.257-1.612.645 2.902-4.193 2.258-2.902-.968 6.127 13.868.215.215 2.58.752 6.988 7.418 1.182 2.042 4.193 1.398 2.902 5.912 3.118 4.945 3.332-1.29-1.29-5.16 1.613-5.805-1.29 1.29-.323-6.127 3.87-4.193 4.515 1.613 2.15-2.15-1.112-1.483 1.542.193-.322-3.763-3.44-3.547.645-1.72-1.613-1.828 6.128-7.525 3.117 3.333.645-3.44 8.063-2.473 2.257 2.258 2.472-.538v1.505l2.258.753 2.257 5.59.86-2.043 2.58 3.333 3.118-1.72 2.58 1.505 1.29-.968.752.43h.86l3.01 4.085 1.72-1.29 4.193 1.29 1.29-2.042-.215-1.183-1.72-1.397-1.935-2.365 3.44-1.075.322-3.118 2.58.43h.323l-1.935-1.72 1.075-.967-1.72-.968.645-1.29h6.772l1.935.323 1.72-.645 10.965-1.612 1.72-1.828 5.16 1.075 1.828 3.118-.538 2.042.108.322 3.01.538-.215-1.075 1.182 2.15 3.763-.645-1.183 3.01.215.107 3.01-.322 3.44-3.01.215.215 3.547-1.828-1.182 2.15 3.87 3.225 7.74 11.933.107.537 1.828-2.687 2.902 2.472 5.805-1.827 4.085 3.44 2.688 2.687h3.225l1.72-1.935 2.042 2.903 1.72-.323 12.578-11.61 5.912-.215 1.72 2.258h.967l7.74-1.29 1.828-3.548-2.258-3.01 1.29-6.664h10.428l1.72 3.439 3.547.323 5.268-4.193 7.632-1.289h.86l2.795 1.827 6.343-2.902 5.267-5.805.968-2.795.322-2.258 5.268-2.257 5.482-.968 1.72-4.515-2.365-11.502-3.44-1.29.215-3.548 4.3-5.805 7.955-2.58 10.965 6.45.645.323 1.505 1.29 3.87-3.225 3.762-.645 4.193 3.225.413-1.034.124-.149 2.473-5.482 1.29-3.01.537-1.29 7.095 14.512-.967.86.86 3.333-2.795-1.613-.323 4.193 4.73 4.192.968 2.258-.968 2.58 1.398.322-1.075-1.075 1.612-.967-1.29-4.193 4.515-1.29 1.828-8.815ZM377.213 171.34l-.598-1.017.555 1.049.043-.032Zm-16.689 27.129-1.002-.626.847.626h.155Zm-57.27 37.196-.814.233.814.271v-.504Zm-33.831 15.963.015.008.108-.151 3.225.967 1.935-1.29-5.16.323-.123.143Zm-23.008-12.147 1.168-.334.016.006-1.14.35-.044-.022Zm-30.727-18.741-2.257 3.225-1.612-.322 3.869-2.903Zm-28.917 31.497.968-7.74 3.87-.322.322 7.095-5.16.967Zm17.63-9.029-.967-.968-1.935 2.257 2.257-4.514v.322l.645 2.903Zm-2.902-2.473-.323 1.935-.967-1.29 1.29-.645Zm-1.613 13.115-2.257.645-1.29-1.935 1.935.645-.645-4.838 1.612-3.547-.322 3.225 1.29-2.58-.645 2.902h1.612v-3.87l.968 3.225-2.258 6.128Zm36.335 67.832.967-2.258.645 2.258h-1.612Zm58.157-8.385-2.58-.645 1.612-1.29h2.258l-1.29 1.935Zm-140.394-.537 1.935 2.687v2.687l1.182 1.29 3.655 1.935-9.675-.967-1.29-2.258 1.613-3.869-1.935-1.29 4.192.645.323-.86ZM374.68 128.614l.645-3.225 2.58 3.547.967 1.29-3.225-1.29-.967-.322Zm11.18 15.372-.215 1.935 1.612-.967-1.397-.968Zm-31.067 22.145 3.762-3.87 1.398 2.58-1.935 1.612-3.225-.322Zm80.623-2.903v2.258l2.581 1.613-2.581-3.871ZM349.954 170l4.838-2.58 1.289 2.903-3.547-.323 4.193.645-1.613 3.87-.967 1.935-3.87-.967-1.613-3.225h2.258l1.29-.323-2.258-1.935Zm13.116 3.87-2.58.645.645 3.225.43.645v-.322l2.473-2.903-.968-1.29Zm-62.566 10.643 1.612-5.805 3.225 2.257v2.258l-2.58 1.935-2.257-.645Zm-32.464-5.16-4.515 2.258 3.87-.323.645-1.935Zm6.128 4.408.323-1.505h1.935l-2.258 1.505Zm-2.258 1.397 1.613-.967-1.613-.968v1.935Zm30.852 2.257 2.795-4.192.752 1.612.645-1.612 1.183.967h.322l.538 1.075.107.108.323.967.322.645.323.968-3.548.967-3.762-1.505Zm9.567 4.408-1.29-6.988 1.613 2.58.322-2.042 2.903 2.365-3.548 4.085Zm-11.825-6.45.645 1.613 1.613-.215.323-1.398h-2.581Zm169.205 17.738-2.473-3.871 1.506 1.291.967 2.58Zm-134.481-3.548-1.613 1.29 1.828.645-.215-1.935Zm-60.737 4.515 4.73-2.58-.537 3.547-9.353 2.903-2.257 2.257-1.613 1.29-.967-.645-.645 2.58-.968-1.29v2.15l-1.612-1.182.967 1.612-1.29-1.075-.322 2.58-3.548-1.505 2.903-.645-2.58-1.612 2.257-.968 1.613.968-1.29-1.29 2.902-1.613-.322-2.58 6.127-2.902 1.613-.645 4.192.645Zm-19.029 11.18v1.397l-1.935.215 1.613.968-4.408 2.58v1.935l2.58.322-.752 4.192 5.482 1.613-1.935-6.772.968-3.225 2.902-1.828-1.935-1.397h-2.58Zm23.759 5.483.43-1.936h1.505l-.322 1.613-1.613.323Zm162.861 3.547v1.29l2.58.322h.001l.322.215v-.215h-.323l-2.58-1.612Zm2.902 1.827v3.333l3.87 3.225 5.16 2.257 3.87 3.225 13.868 12.47-2.043-3.547 1.613-1.935 1.935 1.29-.968-1.613-6.127-.86-4.085-5.16.967-3.225h2.903l-5.805-1.935-6.45-2.257-8.708-5.268Zm-204.894 4.623 2.58-.968.968 2.581-2.903.645-.645-2.258Zm19.567-.323-.645 1.936 1.613 1.935.967-.968v-.322l-.322-.323-1.613-2.258ZM149.469 251.27l.967-.967v.322l1.613.645 1.72-.752-2.365 1.075 1.29 1.29 1.075-1.29 2.257 3.44-1.935 3.225-4.73-6.235 1.075.215-.967-.645v-.323Zm0 0-.215-.107v.107h.215Zm331.957-14.943.86 2.043c.43 1.075.86 1.935 1.075 1.935 0-.108-1.183-6.665-1.29-6.773 0 0-.215.645-.323 1.398l-.322 1.397Zm2.364 10.75c-.215-.322-.645-1.182-.967-1.827l-.538-1.29.323-.537c.215-.43.322-.538.322-.215 0 .107.323 1.182.753 2.365.093.341.186.665.269.953l.001.003v.001c.203.705.343 1.193.267 1.193 0 0-.215-.216-.43-.646Z" fill="#18984E"/><path opacity=".26" d="M287.39 578.39c159.765 0 289.28-129.515 289.28-289.28C576.67 129.344 447.155-.17 287.39-.17 127.624-.17-1.89 129.343-1.89 289.11c0 159.765 129.514 289.28 289.28 289.28Z" fill="url(#f)"/><circle cx="171.952" cy="326.411" r=".972" fill="#fff"/><circle cx="173.571" cy="332.24" r=".972" fill="#fff"/><circle cx="181.021" cy="304.716" r=".972" fill="#fff"/><circle cx="184.259" cy="252.258" r=".972" fill="#fff"/><circle cx="193.972" cy="266.83" r=".972" fill="#fff"/><circle cx="190.409" cy="272.334" r=".972" fill="#fff"/><circle cx="189.82" cy="264.62" r="2" fill="#fff"/></g><defs><radialGradient id="e" cx="0" cy="0" r="1" gradientUnits="userSpaceOnUse" gradientTransform="matrix(34.5002 727.5004 -753.20352 35.71912 208.501 161)"><stop stop-color="#fff"/><stop offset="1" stop-color="#fff" stop-opacity="0"/></radialGradient><radialGradient id="f" cx="0" cy="0" r="1" gradientUnits="userSpaceOnUse" gradientTransform="translate(277.028 199.48) scale(367.945)"><stop stop-color="#00816D" stop-opacity="0"/><stop offset=".49" stop-color="#00816D" stop-opacity=".023"/><stop offset=".57" stop-color="#00816D" stop-opacity=".035"/><stop offset=".64" stop-color="#00816D" stop-opacity=".067"/><stop offset=".7" stop-color="#00816D" stop-opacity=".149"/><stop offset=".73" stop-color="#00816D" stop-opacity=".213"/><stop offset="1" stop-color="#00816D" stop-opacity=".546"/></radialGradient><filter id="c" x="-69" y="-81" width="665" height="665" filterUnits="userSpaceOnUse" color-interpolation-filters="sRGB"><feFlood flood-opacity="0" result="BackgroundImageFix"/><feBlend in="SourceGraphic" in2="BackgroundImageFix" result="shape"/><feGaussianBlur stdDeviation="50" result="effect1_foregroundBlur_1798_51737"/></filter><filter id="d" x="-32" y="-44" width="507" height="507" filterUnits="userSpaceOnUse" color-interpolation-filters="sRGB"><feFlood flood-opacity="0" result="BackgroundImageFix"/><feBlend in="SourceGraphic" in2="BackgroundImageFix" result="shape"/><feGaussianBlur stdDeviation="50" result="effect1_foregroundBlur_1798_51737"/></filter><linearGradient id="b" x1="138" y1="35.5" x2="158.419" y2="540.828" gradientUnits="userSpaceOnUse"><stop stop-color="#D1E3E1"/><stop offset="1" stop-color="#98A4AE"/></linearGradient><clipPath id="a"><rect width="574.859" height="578" rx="287.429" fill="#fff"/></clipPath></defs></svg>