<svg width="237" height="237" fill="none" xmlns="http://www.w3.org/2000/svg"><path d="M37.07 33.791C14.838 55.171 1 85.22 1 118.5c0 30.467 11.596 58.226 30.615 79.104" stroke="url(#a)"/><path d="M37.07 34.083C14.838 55.462 1 85.219 1 118.5c0 30.467 11.596 58.226 30.615 79.103" stroke="url(#b)"/><path d="M36.581 33.791C14.347 55.171 1 85.22 1 118.5c0 30.467 11.596 58.226 30.615 79.104" stroke="url(#c)"/><path d="M37.071 203.209C58.191 223.516 86.888 236 118.5 236c30.971 0 59.143-11.982 80.133-31.564" stroke="url(#d)"/><path d="M37.56 203.209C58.68 223.516 86.887 236 118.5 236c30.971 0 59.143-11.982 80.133-31.564" stroke="url(#e)"/><path d="M37.071 203.698C58.191 224.005 86.888 236 118.5 236c30.971 0 59.143-11.983 80.133-31.564" stroke="url(#f)"/><path d="M203.04 200.105C223.446 178.969 236 150.2 236 118.5c0-29.84-11.124-57.084-29.452-77.808" stroke="url(#g)"/><path d="M203.529 200.105C223.936 178.969 236 150.2 236 118.5c0-29.84-11.124-57.084-29.452-77.808" stroke="url(#h)"/><path d="M203.04 199.615C223.446 178.479 236 150.2 236 118.5c0-29.84-11.124-57.084-29.452-77.808" stroke="url(#i)"/><path d="M203.04 36.895C181.672 14.764 151.693 1 118.5 1 88.918 1 61.889 11.932 41.233 29.977" stroke="url(#j)"/><path d="M203.04 36.895C181.672 14.764 151.693 1 118.5 1 88.918 1 61.889 11.932 41.233 29.977" stroke="url(#k)"/><path d="M202.55 36.895C181.182 14.764 151.693 1 118.5 1 88.918 1 61.889 11.932 41.233 29.977" stroke="url(#l)"/><path d="M202.55 36.895C181.182 14.764 151.693 1 118.5 1 88.918 1 61.889 11.932 41.233 29.977" stroke="url(#m)"/><path d="M203.04 36.406C181.672 14.274 151.693 1 118.5 1 88.918 1 61.889 11.932 41.233 29.977" stroke="url(#n)"/><path d="M30.743 34.022h6.431v6.313m159.436-3.4h6.431v-6.313m6.699 169.964h-6.431v-6.313m-159.436 8.741h-6.43v6.313" stroke="#18984E" stroke-width="2" stroke-linecap="round"/><defs><linearGradient id="a" x1="37.061" y1="34.001" x2="-.088" y2="189.918" gradientUnits="userSpaceOnUse"><stop stop-color="#18984E"/><stop offset="1" stop-color="#18984E" stop-opacity="0"/></linearGradient><linearGradient id="b" x1="37.061" y1="34.292" x2=".037" y2="189.961" gradientUnits="userSpaceOnUse"><stop stop-color="#18984E"/><stop offset="1" stop-color="#18984E" stop-opacity="0"/></linearGradient><linearGradient id="c" x1="36.571" y1="34.001" x2="-1.032" y2="189.686" gradientUnits="userSpaceOnUse"><stop stop-color="#18984E"/><stop offset="1" stop-color="#18984E" stop-opacity="0"/></linearGradient><linearGradient id="d" x1="37.03" y1="203.232" x2="198.593" y2="203.232" gradientUnits="userSpaceOnUse"><stop stop-color="#18984E"/><stop offset="1" stop-color="#18984E" stop-opacity="0"/></linearGradient><linearGradient id="e" x1="37.52" y1="203.232" x2="198.593" y2="203.232" gradientUnits="userSpaceOnUse"><stop stop-color="#18984E"/><stop offset="1" stop-color="#18984E" stop-opacity="0"/></linearGradient><linearGradient id="f" x1="37.03" y1="203.721" x2="198.593" y2="203.721" gradientUnits="userSpaceOnUse"><stop stop-color="#18984E"/><stop offset="1" stop-color="#18984E" stop-opacity="0"/></linearGradient><linearGradient id="g" x1="202.953" y1="200.171" x2="235.474" y2="46.805" gradientUnits="userSpaceOnUse"><stop stop-color="#18984E"/><stop offset="1" stop-color="#18984E" stop-opacity="0"/></linearGradient><linearGradient id="h" x1="203.444" y1="200.171" x2="236.412" y2="47.005" gradientUnits="userSpaceOnUse"><stop stop-color="#18984E"/><stop offset="1" stop-color="#18984E" stop-opacity="0"/></linearGradient><linearGradient id="i" x1="202.953" y1="199.681" x2="235.283" y2="46.746" gradientUnits="userSpaceOnUse"><stop stop-color="#18984E"/><stop offset="1" stop-color="#18984E" stop-opacity="0"/></linearGradient><linearGradient id="j" x1="122.014" y1="33.103" x2="41.233" y2="33.103" gradientUnits="userSpaceOnUse"><stop stop-color="#fff"/><stop offset="1" stop-color="#fff" stop-opacity="0"/></linearGradient><linearGradient id="k" x1="122.014" y1="33.547" x2="41.233" y2="33.547" gradientUnits="userSpaceOnUse"><stop stop-color="#18984E"/><stop offset="1" stop-color="#18984E" stop-opacity="0"/></linearGradient><linearGradient id="l" x1="122.014" y1="33.103" x2="41.233" y2="33.103" gradientUnits="userSpaceOnUse"><stop stop-color="#fff"/><stop offset="1" stop-color="#fff" stop-opacity="0"/></linearGradient><linearGradient id="m" x1="121.769" y1="33.547" x2="41.233" y2="33.547" gradientUnits="userSpaceOnUse"><stop stop-color="#18984E"/><stop offset="1" stop-color="#18984E" stop-opacity="0"/></linearGradient><linearGradient id="n" x1="122.014" y1="33.103" x2="41.233" y2="33.103" gradientUnits="userSpaceOnUse"><stop stop-color="#18984E"/><stop offset="1" stop-color="#18984E" stop-opacity="0"/></linearGradient></defs></svg>