<svg width="879" height="486" fill="none" xmlns="http://www.w3.org/2000/svg"><path d="M135.613 68.526C52.637 112.55 1 174.429 1 242.964c0 62.739 43.274 119.902 114.251 162.895" stroke="url(#a)"/><path d="M135.613 69.126C52.637 113.15 1 174.429 1 242.963c0 62.74 43.274 119.903 114.251 162.895" stroke="url(#b)"/><path d="M133.786 68.526C50.81 112.55 1 174.429 1 242.964c0 62.739 43.274 119.902 114.251 162.895" stroke="url(#c)"/><path d="M135.614 417.401c78.817 41.818 185.911 67.526 303.886 67.526 115.58 0 220.716-24.675 299.051-64.999" stroke="url(#d)"/><path d="M137.441 417.401c78.817 41.818 184.083 67.526 302.059 67.526 115.58 0 220.716-24.675 299.051-64.999" stroke="url(#e)"/><path d="M135.614 418.41c78.817 41.817 185.911 66.517 303.886 66.517 115.58 0 220.716-24.675 299.051-64.999" stroke="url(#f)"/><path d="M754.994 411.009c76.157-43.525 123.005-102.766 123.005-168.046 0-61.45-41.514-117.55-109.911-160.226" stroke="url(#g)"/><path d="M756.822 411.009C832.979 367.484 878 308.243 878 242.963c0-61.45-41.514-117.55-109.911-160.226" stroke="url(#h)"/><path d="M754.994 410.001c76.157-43.525 123.005-101.758 123.005-167.038 0-61.45-41.514-117.55-109.911-160.226" stroke="url(#i)"/><path d="M754.995 74.918C675.251 29.343 563.374 1 439.5 1 329.101 1 228.231 23.512 151.144 60.67" stroke="url(#j)"/><path d="M754.995 74.918C675.251 29.343 563.374 1 439.5 1 329.101 1 228.231 23.512 151.144 60.67" stroke="url(#k)"/><path d="M753.167 74.918C673.424 29.343 563.374 1 439.5 1 329.101 1 228.231 23.512 151.144 60.67" stroke="url(#l)"/><path d="M753.167 74.918C673.424 29.343 563.374 1 439.5 1 329.101 1 228.231 23.512 151.144 60.67" stroke="url(#m)"/><path d="M754.995 73.91C675.251 28.335 563.374 1 439.5 1 329.101 1 228.231 23.512 151.144 60.67" stroke="url(#n)"/><path d="M112 69h24v13m595-7h24V62m25 350h-24v-13m-595 18h-24v13" stroke="#18984E" stroke-width="2" stroke-linecap="round"/><defs><linearGradient id="a" x1="135.575" y1="68.958" x2="91.725" y2="402.493" gradientUnits="userSpaceOnUse"><stop stop-color="#18984E"/><stop offset="1" stop-color="#18984E" stop-opacity="0"/></linearGradient><linearGradient id="b" x1="135.575" y1="69.557" x2="91.879" y2="402.519" gradientUnits="userSpaceOnUse"><stop stop-color="#18984E"/><stop offset="1" stop-color="#18984E" stop-opacity="0"/></linearGradient><linearGradient id="c" x1="133.749" y1="68.958" x2="89.316" y2="402.336" gradientUnits="userSpaceOnUse"><stop stop-color="#18984E"/><stop offset="1" stop-color="#18984E" stop-opacity="0"/></linearGradient><linearGradient id="d" x1="135.462" y1="417.45" x2="738.399" y2="417.45" gradientUnits="userSpaceOnUse"><stop stop-color="#18984E"/><stop offset="1" stop-color="#18984E" stop-opacity="0"/></linearGradient><linearGradient id="e" x1="137.289" y1="417.45" x2="738.399" y2="417.45" gradientUnits="userSpaceOnUse"><stop stop-color="#18984E"/><stop offset="1" stop-color="#18984E" stop-opacity="0"/></linearGradient><linearGradient id="f" x1="135.462" y1="418.457" x2="738.399" y2="418.457" gradientUnits="userSpaceOnUse"><stop stop-color="#18984E"/><stop offset="1" stop-color="#18984E" stop-opacity="0"/></linearGradient><linearGradient id="g" x1="754.672" y1="411.144" x2="792.766" y2="85.581" gradientUnits="userSpaceOnUse"><stop stop-color="#18984E"/><stop offset="1" stop-color="#18984E" stop-opacity="0"/></linearGradient><linearGradient id="h" x1="756.504" y1="411.144" x2="795.157" y2="85.715" gradientUnits="userSpaceOnUse"><stop stop-color="#18984E"/><stop offset="1" stop-color="#18984E" stop-opacity="0"/></linearGradient><linearGradient id="i" x1="754.672" y1="410.136" x2="792.535" y2="85.546" gradientUnits="userSpaceOnUse"><stop stop-color="#18984E"/><stop offset="1" stop-color="#18984E" stop-opacity="0"/></linearGradient><linearGradient id="j" x1="452.613" y1="67.11" x2="151.144" y2="67.11" gradientUnits="userSpaceOnUse"><stop stop-color="#fff"/><stop offset="1" stop-color="#fff" stop-opacity="0"/></linearGradient><linearGradient id="k" x1="452.613" y1="68.024" x2="151.144" y2="68.024" gradientUnits="userSpaceOnUse"><stop stop-color="#18984E"/><stop offset="1" stop-color="#18984E" stop-opacity="0"/></linearGradient><linearGradient id="l" x1="452.612" y1="67.11" x2="151.144" y2="67.11" gradientUnits="userSpaceOnUse"><stop stop-color="#fff"/><stop offset="1" stop-color="#fff" stop-opacity="0"/></linearGradient><linearGradient id="m" x1="451.7" y1="68.024" x2="151.144" y2="68.024" gradientUnits="userSpaceOnUse"><stop stop-color="#18984E"/><stop offset="1" stop-color="#18984E" stop-opacity="0"/></linearGradient><linearGradient id="n" x1="452.613" y1="67.11" x2="151.144" y2="67.11" gradientUnits="userSpaceOnUse"><stop stop-color="#18984E"/><stop offset="1" stop-color="#18984E" stop-opacity="0"/></linearGradient></defs></svg>