<svg width="24" height="23" viewBox="0 0 24 23" fill="none" xmlns="http://www.w3.org/2000/svg">
<path d="M2.17383 6.5752L12.0636 12.0941L21.8861 6.60756" stroke="white" stroke-width="1.2" stroke-linecap="round" stroke-linejoin="round"/>
<path d="M12.0638 21.8792V12.0835" stroke="white" stroke-width="1.2" stroke-linecap="round" stroke-linejoin="round"/>
<path d="M9.74482 1.2186L3.76394 4.42628C2.40872 5.14989 1.29993 6.9643 1.29993 8.45472V14.5568C1.29993 16.0473 2.40872 17.8617 3.76394 18.5853L9.74482 21.7929C11.0216 22.4734 13.1161 22.4734 14.3929 21.7929L20.3738 18.5853C21.729 17.8617 22.8378 16.0473 22.8378 14.5568V8.45472C22.8378 6.9643 21.729 5.14989 20.3738 4.42628L14.3929 1.2186C13.1049 0.527393 11.0216 0.527393 9.74482 1.2186Z" stroke="white" stroke-width="1.2" stroke-linecap="round" stroke-linejoin="round"/>
<path d="M17.6635 12.8396V8.88679L7.03455 2.96826" stroke="white" stroke-width="1.2" stroke-linecap="round" stroke-linejoin="round"/>
</svg>
