<svg width="25" height="25" viewBox="0 0 25 25" fill="none" xmlns="http://www.w3.org/2000/svg">
<path d="M3.51001 11.7202V16.2102C3.51001 20.7002 5.31001 22.5002 9.80001 22.5002H15.19C19.68 22.5002 21.48 20.7002 21.48 16.2102V11.7202" stroke="white" stroke-width="1.2" stroke-linecap="round" stroke-linejoin="round"/>
<path d="M12.5 12.5C14.33 12.5 15.68 11.01 15.5 9.18L14.84 2.5H10.17L9.49999 9.18C9.31999 11.01 10.67 12.5 12.5 12.5Z" stroke="white" stroke-width="1.2" stroke-linecap="round" stroke-linejoin="round"/>
<path d="M18.81 12.5C20.83 12.5 22.31 10.86 22.11 8.85L21.83 6.1C21.47 3.5 20.47 2.5 17.85 2.5H14.8L15.5 9.51C15.67 11.16 17.16 12.5 18.81 12.5Z" stroke="white" stroke-width="1.2" stroke-linecap="round" stroke-linejoin="round"/>
<path d="M6.13988 12.5C7.78988 12.5 9.27988 11.16 9.43988 9.51L9.65988 7.3L10.1399 2.5H7.08988C4.46988 2.5 3.46988 3.5 3.10988 6.1L2.83988 8.85C2.63988 10.86 4.11988 12.5 6.13988 12.5Z" stroke="white" stroke-width="1.2" stroke-linecap="round" stroke-linejoin="round"/>
<path d="M12.5 17.5C10.83 17.5 10 18.33 10 20V22.5H15V20C15 18.33 14.17 17.5 12.5 17.5Z" stroke="white" stroke-width="1.2" stroke-linecap="round" stroke-linejoin="round"/>
</svg>
