<svg width="25" height="25" fill="none" xmlns="http://www.w3.org/2000/svg"><path d="M2.57 5.1c.8-3.46 6.01-3.46 6.8 0 .47 2.03-.82 3.75-1.94 4.82-.82.78-2.11.77-2.93 0C3.39 8.85 2.1 7.13 2.57 5.1Zm13 12c.8-3.46 6.04-3.46 6.84 0 .47 2.03-.82 3.75-1.95 4.82-.82.78-2.12.77-2.94 0-1.13-1.07-2.42-2.79-1.95-4.82Z" stroke="#fff" stroke-width="1.5"/><path d="M12.5 5.5h2.68c1.85 0 2.71 2.29 1.32 3.51L8.51 16c-1.39 1.21-.53 3.5 1.31 3.5h2.68" stroke="#fff" stroke-width="1.5" stroke-linecap="round" stroke-linejoin="round"/><path d="M5.986 6h.012m12.988 12h.012" stroke="#fff" stroke-width="2" stroke-linecap="round" stroke-linejoin="round"/></svg>