<svg width="25" height="25" fill="none" xmlns="http://www.w3.org/2000/svg"><path d="m7.2 9.76 5.3 3.07 5.26-3.05m-5.26 8.49v-5.45" stroke="#fff" stroke-width="1.5" stroke-linecap="round" stroke-linejoin="round"/><path d="m11.26 6.79-3.2 1.78c-.72.4-1.32 1.41-1.32 2.24v3.39c0 .83.59 1.84 1.32 2.24l3.2 1.78c.68.38 1.8.38 2.49 0l3.2-1.78c.72-.4 1.32-1.41 1.32-2.24v-3.4c0-.83-.59-1.84-1.32-2.24l-3.2-1.78c-.69-.38-1.81-.38-2.49.01ZM22.5 15.5c0 3.87-3.13 7-7 7l1.05-1.75M2.5 9.5c0-3.87 3.13-7 7-7L8.45 4.25" stroke="#fff" stroke-width="1.5" stroke-linecap="round" stroke-linejoin="round"/></svg>