<svg width="25" height="25" fill="none" xmlns="http://www.w3.org/2000/svg"><path d="M15.5 2.5v10c0 1.1-.9 2-2 2h-11V8.12c.73.87 1.85 1.41 3.09 1.38 1.01-.02 1.92-.41 2.6-1.06.31-.26.57-.59.77-.95.36-.61.56-1.33.54-2.08-.03-1.17-.55-2.2-1.36-2.91h7.36Z" stroke="#fff" stroke-width="1.2" stroke-linecap="round" stroke-linejoin="round"/><path d="M22.5 14.5v3c0 1.66-1.34 3-3 3h-1c0-1.1-.9-2-2-2s-2 .9-2 2h-4c0-1.1-.9-2-2-2s-2 .9-2 2h-1c-1.66 0-3-1.34-3-3v-3h11c1.1 0 2-.9 2-2v-7h1.84c.72 0 1.38.39 1.74 1.01l1.71 2.99H19.5c-.55 0-1 .45-1 1v3c0 .55.45 1 1 1h3Z" stroke="#fff" stroke-width="1.2" stroke-linecap="round" stroke-linejoin="round"/><path d="M8.5 22.5a2 2 0 1 0 0-4 2 2 0 0 0 0 4Zm8 0a2 2 0 1 0 0-4 2 2 0 0 0 0 4Zm6-10v2h-3c-.55 0-1-.45-1-1v-3c0-.55.45-1 1-1h1.29l1.71 3Z" stroke="#fff" stroke-width="1.2" stroke-linecap="round" stroke-linejoin="round"/><path d="M9.5 5.5c0 .75-.21 1.46-.58 2.06-.21.36-.48.68-.79.94-.7.63-1.62 1-2.63 1a3.97 3.97 0 0 1-3.42-1.94A3.92 3.92 0 0 1 1.5 5.5c0-1.26.58-2.39 1.5-3.12A3.999 3.999 0 0 1 9.5 5.5ZM6.57 6.54 4.46 4.43m2.08.03L4.43 6.57" stroke="#fff" stroke-width="1.2" stroke-miterlimit="10" stroke-linecap="round" stroke-linejoin="round"/></svg>