<svg width="183" height="60" fill="none" xmlns="http://www.w3.org/2000/svg"><g clip-path="url(#a)"><mask id="b" style="mask-type:luminance" maskUnits="userSpaceOnUse" x="0" y="18" width="171" height="24"><path d="M0 18h171v24H0V18Z" fill="#fff"/></mask><g mask="url(#b)"><path d="M39.422 30.01c0-5.069 3.79-9.212 8.996-9.212 3.078 0 4.942.862 6.725 2.44l-2.37 2.965c-1.317-1.135-2.492-1.809-4.477-1.809-2.735 0-4.923 2.525-4.923 5.596 0 3.26 2.147 5.637 5.185 5.637 1.379 0 2.594-.358 3.546-1.074v-2.522h-3.788v-3.366h7.435v7.72c-1.762 1.556-4.193 2.818-7.314 2.818-5.348 0-9.015-3.89-9.015-9.192Zm23.318-5.3h-5.206v-3.597h14.201v3.617h-5.207v14.178h-3.766V24.71h-.022Zm18.455 5.3c0-5.069 3.788-9.212 8.994-9.212 3.08 0 4.944.862 6.726 2.44l-2.37 2.965c-1.317-1.135-2.492-1.809-4.477-1.809-2.734 0-4.922 2.525-4.922 5.596 0 3.26 2.147 5.637 5.185 5.637 1.378 0 2.594-.358 3.546-1.074v-2.522h-3.789v-3.366h7.436v7.72c-1.763 1.556-4.194 2.818-7.314 2.818-5.328 0-9.015-3.89-9.015-9.192Zm19.934-8.897h7.841c2.187 0 3.869.631 5.003 1.81.953.988 1.479 2.397 1.479 4.122 0 2.881-1.499 4.67-3.667 5.511l4.194 6.352h-4.417l-3.727-5.7h-2.917v5.7h-3.768V21.113h-.021Zm7.597 8.645c1.844 0 2.897-1.01 2.897-2.566 0-1.683-1.134-2.545-2.958-2.545h-3.747v5.111h3.808Zm8.874.252c0-5.069 3.849-9.212 9.136-9.212 5.287 0 9.076 4.101 9.076 9.212 0 5.05-3.849 9.213-9.137 9.213-5.267-.02-9.075-4.1-9.075-9.212Zm14.282 0c0-3.05-2.148-5.594-5.187-5.594-3.038 0-5.145 2.482-5.145 5.594 0 3.05 2.148 5.596 5.186 5.596 3.039 0 5.146-2.504 5.146-5.596Zm6.786 1.263v-10.16h3.768V31.19c0 2.902 1.397 4.396 3.687 4.396 2.309 0 3.707-1.452 3.707-4.27V21.112h3.768v10.034c0 5.384-2.917 8.035-7.516 8.035-4.598 0-7.414-2.672-7.414-7.91Zm18.759-10.16h7.01c4.092 0 6.564 2.524 6.564 6.206 0 4.122-3.08 6.247-6.929 6.247h-2.856v5.342h-3.768V21.113h-.021Zm6.767 8.96c1.884 0 2.977-1.177 2.977-2.755 0-1.746-1.174-2.692-3.058-2.692h-2.917v5.448h2.998Z" fill="#000"/><path d="M23.115 24.12h-11.67v.8h11.67v-.8Zm0-6.12h-11.67v.8h11.67V18Zm0 4.838c-.891 0-1.358-.63-1.743-1.136-.384-.526-.648-.841-1.175-.841-.526 0-.79.315-1.174.841-.386.505-.85 1.136-1.743 1.136-.892 0-1.358-.63-1.742-1.136-.385-.526-.648-.841-1.175-.841s-.79.315-1.175.841c-.385.505-.83 1.136-1.742 1.136v-.8c.527 0 .79-.314 1.175-.84.365-.505.83-1.136 1.742-1.136.891 0 1.357.63 1.742 1.136.385.526.648.84 1.174.84.527 0 .792-.314 1.176-.84.364-.505.831-1.136 1.742-1.136.892 0 1.357.63 1.743 1.136.384.526.648.84 1.174.84v.8Zm0 6.12c-.891 0-1.358-.63-1.743-1.135-.384-.526-.648-.841-1.175-.841-.526 0-.79.315-1.174.841-.366.504-.831 1.136-1.743 1.136-.892 0-1.358-.632-1.742-1.136-.385-.526-.648-.841-1.175-.841s-.79.315-1.175.841c-.365.504-.83 1.136-1.742 1.136v-.8c.527 0 .79-.315 1.175-.84.365-.505.83-1.136 1.742-1.136.891 0 1.357.63 1.742 1.136.385.526.648.84 1.174.84.527 0 .792-.315 1.176-.84.364-.505.831-1.136 1.742-1.136.892 0 1.357.63 1.743 1.136.384.526.648.84 1.174.84v.8ZM11.568 30.01v12.011h11.567V30.01l-11.567.001Zm8.731 3.83h-2.228v6.077h-1.236V33.84h-2.228v-1.18h5.672v1.18h.02Z" fill="#FF3600"/><path d="M0 18v12.01h11.567V18H0Zm8.813 8.52c-.69.608-1.683 1.134-2.918 1.134-2.188 0-3.626-1.619-3.626-3.765 0-2.04 1.5-3.765 3.605-3.765 1.216 0 1.966.358 2.695.989l-.79.968c-.547-.484-1.074-.778-1.965-.778-1.297 0-2.27 1.178-2.27 2.586 0 1.494.953 2.588 2.372 2.588.668 0 1.256-.21 1.681-.547v-1.367H5.814V23.47h2.978v3.05h.02Z" fill="#FF3600"/><path d="M10.291 33.06c-.101-.105-.203-.23-.304-.336a3.59 3.59 0 0 0-.283-.253 6.35 6.35 0 0 0-1.196-.798c-.203-.106-.425-.21-.648-.316-.405-.169-.83-.316-1.257-.463l-.667-.19a11.7 11.7 0 0 0-1.176-.252 44.475 44.475 0 0 1-.688-.126 29.448 29.448 0 0 0-3.707-.336H0l.04.378c.082.925.223 2.398.548 3.955.04.252.102.483.162.736l.304 1.261c.06.232.141.484.222.716.142.463.324.904.507 1.325.102.231.202.463.324.673.243.463.506.862.81 1.22.082.105.162.19.243.295.102.104.223.21.324.294A4.702 4.702 0 0 0 6.584 42h.163c1.337-.042 2.573-.652 3.484-1.683 1.763-2.04 1.763-5.216.061-7.257Zm-2.41-.946a6.904 6.904 0 0 1-1.682 4.165c-1.013 1.156-2.33 1.872-3.748 2.061a11.58 11.58 0 0 1-.506-1.262c1.297-.064 2.492-.674 3.383-1.683.911-1.052 1.358-2.398 1.358-3.722.404.104.81.273 1.195.44Zm-3.688-1.052c.041.736-.142 1.493-.587 2.104l-2.41-2.44c.79.062 1.863.147 2.998.337l-.001-.001ZM.77 31.23l2.41 2.44a2.83 2.83 0 0 1-1.924.757A32.516 32.516 0 0 1 .77 31.23Zm.629 3.87a3.495 3.495 0 0 0 2.47-1.2c.669-.756.993-1.744.973-2.732.404.083.79.168 1.195.273.06 1.22-.324 2.482-1.175 3.45a4.24 4.24 0 0 1-3.038 1.472h-.082a11.384 11.384 0 0 1-.344-1.262Zm2.186 4.944a4.413 4.413 0 0 1-.789-1.094c1.479-.253 2.836-1.03 3.89-2.209 1.073-1.22 1.681-2.755 1.822-4.311.405.23.77.483 1.074.799l.06.063c-.282 1.62-.972 3.134-2.045 4.354-1.074 1.22-2.431 2.061-3.91 2.46-.06-.02-.081-.042-.102-.062Zm3.12 1.283a4.161 4.161 0 0 1-2.43-.694c1.316-.442 2.511-1.22 3.524-2.272l1.722 1.725a4.25 4.25 0 0 1-2.816 1.241Zm3.242-1.746-1.722-1.725c.931-1.135 1.56-2.482 1.884-3.912 1.134 1.683 1.073 3.996-.162 5.637Z" fill="#FF3600"/></g></g><defs><clipPath id="a"><path fill="#fff" transform="translate(0 18)" d="M0 0h171v24H0z"/></clipPath></defs></svg>