<svg width="183" height="60" fill="none" xmlns="http://www.w3.org/2000/svg"><g clip-path="url(#a)"><mask id="b" style="mask-type:luminance" maskUnits="userSpaceOnUse" x="0" y="12" width="159" height="36"><path d="M158.897 12H0v35.478h158.897V12Z" fill="#fff"/></mask><g mask="url(#b)"><path d="M22.258 41.871h-4.602l5.522 5.523c6.778-.502 12.217-6.192 12.217-13.137v-4.602h-5.607v4.602c.084 4.268-3.346 7.614-7.53 7.614Z" fill="#5082E6"/><path d="M5.522 34.34v-4.6L0 35.26c.502 6.861 6.192 12.217 13.137 12.217h4.602V41.87h-4.602c-4.184 0-7.615-3.346-7.615-7.53Z" fill="#5AD2FF"/><path d="M13.137 17.606h4.602L12.216 12C5.356 12.502 0 18.192 0 25.137v4.602h5.606v-4.602a7.5 7.5 0 0 1 7.53-7.53Z" fill="#E62D32"/><path d="M29.87 25.137v4.602l5.523-5.523C34.975 17.356 29.285 12 22.34 12h-4.602v5.606h4.602a7.5 7.5 0 0 1 7.53 7.53Z" fill="#FABE00"/><path d="M73.633 37.52v4.854H54.555V17.02h18.66v4.936H60.077v5.105h10.375v4.853H60.078v5.606h13.555Zm5.774 4.938V17.02h5.439v20.5h11.798v4.853H79.407v.084Zm44.598-25.438h4.854v25.438h-5.439V25.472l-8.2 10.375-8.117-10.375v16.902h-5.438V17.02h4.936l8.702 11.045 8.702-11.045Zm17.152 19.413-2.175 6.025h-5.773l9.957-25.437h5.773l9.958 25.437h-5.774l-2.176-6.025h-9.79Zm4.853-13.053-3.096 8.367h6.192l-3.096-8.367Z" fill="#233255"/></g></g><defs><clipPath id="a"><path fill="#fff" transform="translate(0 12)" d="M0 0h158.897v36H0z"/></clipPath></defs></svg>