<svg width="183" height="60" viewBox="0 0 183 60" fill="none" xmlns="http://www.w3.org/2000/svg">
<g clip-path="url(#clip0_1318_29182)">
<mask id="mask0_1318_29182" style="mask-type:luminance" maskUnits="userSpaceOnUse" x="0" y="12" width="159" height="36">
<path d="M158.897 12H0V47.4778H158.897V12Z" fill="white"/>
</mask>
<g mask="url(#mask0_1318_29182)">
<path d="M22.2578 41.8714H17.6558L23.1782 47.394C29.9557 46.892 35.3946 41.2021 35.3946 34.2572V29.6552H29.7884V34.2572C29.8721 38.5246 26.4415 41.8714 22.2578 41.8714Z" fill="#5082E6"/>
<path d="M5.52247 34.3409V29.7388L0 35.2612C0.502042 42.1225 6.19186 47.4776 13.1368 47.4776H17.7388V41.8715H13.1368C8.9531 41.8715 5.52247 38.5246 5.52247 34.3409Z" fill="#5AD2FF"/>
<path d="M13.1368 17.6061H17.7388L12.2164 12C5.35512 12.502 0 18.1919 0 25.1368V29.7388H5.60614V25.1368C5.60614 20.9531 8.9531 17.6061 13.1368 17.6061Z" fill="#E62D32"/>
<path d="M29.8708 25.1368V29.7388L35.3933 24.2164C34.975 17.3551 29.2851 12 22.3402 12H17.7382V17.6061H22.3402C26.5239 17.6061 29.8708 20.9531 29.8708 25.1368Z" fill="#FABE00"/>
<path d="M73.6328 37.5208V42.3738H54.5553V17.0207H73.2144V21.9574H60.0777V27.0616H70.4532V31.9146H60.0777V37.5208H73.6328Z" fill="#233255"/>
<path d="M79.4071 42.4575V17.0207H84.8458V37.5208H96.6439V42.3738H79.4071V42.4575Z" fill="#233255"/>
<path d="M124.005 17.0207H128.859V42.4575H123.42V25.4717L115.22 35.8473L107.103 25.4717V42.3738H101.665V17.0207H106.601L115.303 28.0656L124.005 17.0207Z" fill="#233255"/>
<path d="M141.157 36.433L138.982 42.4575H133.209L143.166 17.0207H148.939L158.897 42.4575H153.123L150.947 36.433H141.157ZM146.01 23.3799L142.914 31.7473H149.106L146.01 23.3799Z" fill="#233255"/>
</g>
</g>
<defs>
<clipPath id="clip0_1318_29182">
<rect width="158.897" height="36" fill="white" transform="translate(0 12)"/>
</clipPath>
</defs>
</svg>
