<svg width="183" height="60" viewBox="0 0 183 60" fill="none" xmlns="http://www.w3.org/2000/svg">
<g clip-path="url(#clip0_1318_29178)">
<mask id="mask0_1318_29178" style="mask-type:luminance" maskUnits="userSpaceOnUse" x="0" y="18" width="171" height="24">
<path d="M0 18H171V42H0V18Z" fill="white"/>
</mask>
<g mask="url(#mask0_1318_29178)">
<path d="M39.4224 30.0102C39.4224 24.9415 43.2112 20.7979 48.4179 20.7979C51.4959 20.7979 53.3603 21.66 55.1433 23.2375L52.7734 26.2034C51.4562 25.068 50.2814 24.3942 48.2959 24.3942C45.5609 24.3942 43.373 26.9188 43.373 29.9899C43.373 33.2502 45.5202 35.6271 48.5584 35.6271C49.9366 35.6271 51.1521 35.2689 52.1042 34.5535V32.0308H48.3163V28.6652H55.7506V36.3849C53.9888 37.9412 51.5579 39.2031 48.4374 39.2031C43.0892 39.2031 39.4224 35.3123 39.4224 30.0111V30.0102ZM62.7404 24.7108H57.5336V21.1126H71.735V24.7302H66.5282V38.9077H62.7616V24.7108H62.7404ZM81.1954 30.0102C81.1954 24.9415 84.9833 20.7979 90.1891 20.7979C93.2689 20.7979 95.1333 21.66 96.9154 23.2375L94.5454 26.2034C93.2283 25.068 92.0535 24.3942 90.068 24.3942C87.3339 24.3942 85.146 26.9188 85.146 29.9899C85.146 33.2502 87.2932 35.6271 90.3314 35.6271C91.7087 35.6271 92.9251 35.2689 93.8771 34.5535V32.0308H90.0883V28.6652H97.5236V36.3849C95.7609 37.9412 93.3299 39.2031 90.2104 39.2031C84.8825 39.2031 81.1954 35.3123 81.1954 30.0111V30.0102ZM101.129 21.1135H108.97C111.157 21.1135 112.839 21.744 113.973 22.9228C114.926 23.9105 115.452 25.32 115.452 27.0452C115.452 29.9262 113.953 31.7142 111.785 32.556L115.979 38.9077H111.562L107.835 33.2077H104.918V38.9077H101.15V21.1135H101.129ZM108.726 29.7582C110.57 29.7582 111.623 28.7483 111.623 27.192C111.623 25.5092 110.489 24.6471 108.665 24.6471H104.918V29.7582H108.726ZM117.6 30.0102C117.6 24.9415 121.449 20.7979 126.736 20.7979C132.023 20.7979 135.812 24.8991 135.812 30.0102C135.812 35.0594 131.963 39.2234 126.675 39.2234C121.408 39.2022 117.6 35.1222 117.6 30.0111V30.0102ZM131.882 30.0102C131.882 26.9603 129.734 24.4163 126.695 24.4163C123.657 24.4163 121.55 26.8975 121.55 30.0102C121.55 33.0609 123.698 35.6059 126.736 35.6059C129.775 35.6059 131.882 33.1025 131.882 30.0102ZM138.668 31.2729V21.1135H142.436V31.1889C142.436 34.0911 143.833 35.5846 146.123 35.5846C148.432 35.5846 149.83 34.1335 149.83 31.3145V21.1135H153.598V31.1465C153.598 36.5308 150.681 39.1819 146.082 39.1819C141.484 39.1819 138.668 36.5105 138.668 31.2729ZM157.427 21.1135H164.437C168.529 21.1135 171.001 23.6372 171.001 27.3185C171.001 31.4409 167.921 33.5659 164.072 33.5659H161.216V38.9077H157.448V21.1135H157.427ZM164.194 30.0739C166.078 30.0739 167.171 28.896 167.171 27.3185C167.171 25.572 165.997 24.6259 164.113 24.6259H161.196V30.0739H164.194Z" fill="black"/>
<path d="M23.1146 24.12H11.4459V24.9203H23.1146V24.12ZM23.1146 18H11.4459V18.7994H23.1146V18ZM23.1146 22.8378C22.2235 22.8378 21.7568 22.2074 21.3722 21.7025C20.9877 21.1763 20.7243 20.8606 20.1974 20.8606C19.6706 20.8606 19.4071 21.1763 19.0226 21.7025C18.6372 22.2074 18.1722 22.8378 17.2803 22.8378C16.3883 22.8378 15.9224 22.2074 15.5379 21.7025C15.1534 21.1763 14.89 20.8606 14.3631 20.8606C13.8362 20.8606 13.5728 21.1763 13.1883 21.7025C12.8028 22.2074 12.3573 22.8378 11.4459 22.8378V22.0385C11.9728 22.0385 12.2362 21.7237 12.6207 21.1975C12.9858 20.6926 13.4517 20.0622 14.3631 20.0622C15.2541 20.0622 15.72 20.6926 16.1054 21.1975C16.49 21.7237 16.7534 22.0385 17.2793 22.0385C17.8062 22.0385 18.0706 21.7237 18.4551 21.1975C18.8193 20.6926 19.286 20.0622 20.1974 20.0622C21.0885 20.0622 21.5543 20.6926 21.9398 21.1975C22.3243 21.7237 22.5877 22.0385 23.1137 22.0385L23.1146 22.8378ZM23.1146 28.9588C22.2235 28.9588 21.7568 28.3274 21.3722 27.8234C20.9877 27.2972 20.7243 26.9815 20.1974 26.9815C19.6706 26.9815 19.4071 27.2972 19.0226 27.8234C18.6575 28.3274 18.1916 28.9588 17.2803 28.9588C16.3883 28.9588 15.9224 28.3274 15.5379 27.8234C15.1534 27.2972 14.89 26.9815 14.3631 26.9815C13.8362 26.9815 13.5728 27.2972 13.1883 27.8234C12.8232 28.3274 12.3573 28.9588 11.4459 28.9588V28.1594C11.9728 28.1594 12.2362 27.8437 12.6207 27.3185C12.9858 26.8135 13.4517 26.1831 14.3631 26.1831C15.2541 26.1831 15.72 26.8135 16.1054 27.3185C16.49 27.8446 16.7534 28.1594 17.2793 28.1594C17.8062 28.1594 18.0706 27.8437 18.4551 27.3185C18.8193 26.8135 19.286 26.1831 20.1974 26.1831C21.0885 26.1831 21.5543 26.8135 21.9398 27.3185C22.3243 27.8446 22.5877 28.1594 23.1137 28.1594L23.1146 28.9588ZM11.5679 30.0102V42.0212H23.1349V30.0092L11.5679 30.0102ZM20.2991 33.8391H18.0706V39.9175H16.8347V33.8391H14.6071V32.6603H20.2788V33.8391H20.2991Z" fill="#FF3600"/>
<path d="M0 18V30.0102H11.567V18H0ZM8.81251 26.5191C8.12389 27.1283 7.13024 27.6545 5.89534 27.6545C3.70746 27.6545 2.26922 26.0354 2.26922 23.8892C2.26922 21.8492 3.76847 20.124 5.87408 20.124C7.09049 20.124 7.84012 20.4822 8.56941 21.1126L7.77911 22.0809C7.23191 21.5972 6.70505 21.3028 5.814 21.3028C4.51717 21.3028 3.54478 22.4806 3.54478 23.8892C3.54478 25.3828 4.49684 26.4766 5.91568 26.4766C6.58396 26.4766 7.17183 26.2662 7.59702 25.9302V24.5631H5.814V23.4692H8.79217V26.5191H8.81251Z" fill="#FF3600"/>
<path d="M10.2914 33.06C10.1898 32.9548 10.0881 32.8293 9.98732 32.724C9.89728 32.6348 9.80256 32.5503 9.70356 32.4711C9.33673 32.1606 8.93577 31.8927 8.50841 31.6726C8.30505 31.5674 8.08322 31.4622 7.86045 31.3569C7.45468 31.188 7.02949 31.0413 6.60337 30.8936L5.93601 30.7043C5.54868 30.6002 5.15625 30.5161 4.76027 30.4523C4.51717 30.4099 4.29441 30.3683 4.07165 30.3259C2.84447 30.1359 1.60648 30.0236 0.365108 29.9899H0L0.0406703 30.3683C0.122011 31.2933 0.262508 32.7656 0.58787 34.3228C0.627616 34.5748 0.689546 34.8065 0.749627 35.0585L1.05373 36.3203C1.11381 36.552 1.19515 36.804 1.27557 37.0357C1.41791 37.4991 1.60001 37.9403 1.78302 38.3613C1.8847 38.592 1.98545 38.8237 2.10654 39.0342C2.34963 39.4966 2.61306 39.8963 2.91717 40.2545C2.99851 40.3588 3.07892 40.4437 3.16026 40.5489C3.26194 40.6533 3.38303 40.7585 3.48378 40.8434C4.34274 41.5919 5.44491 42.003 6.58489 42H6.74664C8.08414 41.9576 9.31996 41.3483 10.2313 40.3173C11.994 38.2773 11.994 35.1009 10.2924 33.06H10.2914ZM7.88079 32.1139C7.80009 33.6505 7.20804 35.1163 6.19852 36.2788C5.18638 37.4354 3.86922 38.1508 2.45131 38.34C2.25789 37.9297 2.08876 37.5083 1.94478 37.0782C3.24161 37.0145 4.43676 36.4043 5.32781 35.3954C6.23919 34.3431 6.68564 32.9973 6.68564 31.6726C7.09049 31.7769 7.49535 31.9459 7.88079 32.1139ZM4.19274 31.0616C4.23433 31.7982 4.05131 32.5551 3.60579 33.1662L1.19515 30.7256C1.98545 30.7883 3.05859 30.8733 4.19366 31.0625L4.19274 31.0616ZM0.769962 31.2305L3.1806 33.6702C2.65781 34.1561 1.97032 34.4265 1.25616 34.4271C1.04118 33.3703 0.878917 32.3034 0.769962 31.2305ZM1.3985 35.1009C1.87017 35.0781 2.3323 34.96 2.75696 34.7537C3.18163 34.5475 3.56 34.2574 3.86922 33.9009C4.53751 33.144 4.86195 32.1563 4.84161 31.1677C5.24646 31.2508 5.63191 31.3357 6.03676 31.4409C6.09777 32.6613 5.71325 33.9231 4.86195 34.8905C4.07165 35.7951 2.97817 36.3213 1.82369 36.3628H1.74235C1.60333 35.9491 1.48822 35.5278 1.39758 35.1009H1.3985ZM3.58545 40.044C3.28228 39.7486 3.01884 39.3702 2.79608 38.9502C4.275 38.6973 5.63191 37.9191 6.68564 36.7413C7.75878 35.5209 8.36698 33.9859 8.50841 32.4296C8.91326 32.6603 9.27837 32.9133 9.58247 33.2289L9.64255 33.2917C9.35971 34.9117 8.67016 36.4256 7.59702 37.6459C6.52296 38.8662 5.16605 39.7071 3.68713 40.1068C3.62612 40.0856 3.60579 40.0643 3.58545 40.044ZM6.70505 41.3271C5.84221 41.3534 4.99259 41.1107 4.27408 40.6329C5.59124 40.1908 6.78639 39.4126 7.79945 38.3613L9.52146 40.0856C8.7515 40.8425 7.75878 41.2856 6.70505 41.3271ZM9.94665 39.5806L8.22464 37.8563C9.15636 36.7209 9.7849 35.3742 10.1093 33.9443C11.2435 35.6271 11.1825 37.9403 9.94665 39.5806Z" fill="#FF3600"/>
</g>
</g>
<defs>
<clipPath id="clip0_1318_29178">
<rect width="171" height="24" fill="white" transform="translate(0 18)"/>
</clipPath>
</defs>
</svg>
