<svg width="29" height="29" fill="none" xmlns="http://www.w3.org/2000/svg"><path d="M14.5 26.583c6.673 0 12.083-5.41 12.083-12.083S21.173 2.417 14.5 2.417 2.417 7.827 2.417 14.5c0 6.674 5.41 12.083 12.083 12.083Z" stroke="#18984E" stroke-width="1.2" stroke-linecap="round" stroke-linejoin="round"/><path d="M9.667 3.625h1.208a34.345 34.345 0 0 0 0 21.75H9.667m8.458-21.75a34.346 34.346 0 0 1 0 21.75" stroke="#18984E" stroke-width="1.2" stroke-linecap="round" stroke-linejoin="round"/><path d="M3.625 19.333v-1.208a34.346 34.346 0 0 0 21.75 0v1.208m-21.75-8.458a34.345 34.345 0 0 1 21.75 0" stroke="#18984E" stroke-width="1.2" stroke-linecap="round" stroke-linejoin="round"/></svg>